solid OpenSCAD_Model
  facet normal 1 -0 0
    outer loop
      vertex 2.54 0.799999 1.5
      vertex 2.54 1.8 -1.5
      vertex 2.54 1.8 1.5
    endloop
  endfacet
  facet normal 1 0 0
    outer loop
      vertex 2.54 1.8 -1.5
      vertex 2.54 0.799999 1.5
      vertex 2.54 0.799999 -1.5
    endloop
  endfacet
  facet normal 1 -0 0
    outer loop
      vertex 2.54 -1.8 1.5
      vertex 2.54 -0.799999 -1.5
      vertex 2.54 -0.799999 1.5
    endloop
  endfacet
  facet normal 1 0 0
    outer loop
      vertex 2.54 -0.799999 -1.5
      vertex 2.54 -1.8 1.5
      vertex 2.54 -1.8 -1.5
    endloop
  endfacet
  facet normal -0 0 1
    outer loop
      vertex -2.54 1.8 1.5
      vertex -2 -1.8 1.5
      vertex -2 1.8 1.5
    endloop
  endfacet
  facet normal 0 0 1
    outer loop
      vertex -2 -1.8 1.5
      vertex -2.54 1.8 1.5
      vertex -2.54 -1.8 1.5
    endloop
  endfacet
  facet normal -0 0 1
    outer loop
      vertex 2 1.8 1.5
      vertex 2.54 0.799999 1.5
      vertex 2.54 1.8 1.5
    endloop
  endfacet
  facet normal 0 0 1
    outer loop
      vertex 2.54 0.799999 1.5
      vertex 2 1.8 1.5
      vertex 2 0.799999 1.5
    endloop
  endfacet
  facet normal -0 0 1
    outer loop
      vertex 2 -0.799999 1.5
      vertex 2.54 -1.8 1.5
      vertex 2.54 -0.799999 1.5
    endloop
  endfacet
  facet normal 0 0 1
    outer loop
      vertex 2.54 -1.8 1.5
      vertex 2 -0.799999 1.5
      vertex 2 -1.8 1.5
    endloop
  endfacet
  facet normal 0 0 -1
    outer loop
      vertex 2 0.799999 -1.5
      vertex 2.54 1.8 -1.5
      vertex 2.54 0.799999 -1.5
    endloop
  endfacet
  facet normal -0 0 -1
    outer loop
      vertex 2.54 1.8 -1.5
      vertex 2 0.799999 -1.5
      vertex 2 1.8 -1.5
    endloop
  endfacet
  facet normal 0 0 -1
    outer loop
      vertex 2 -1.8 -1.5
      vertex 2.54 -0.799999 -1.5
      vertex 2.54 -1.8 -1.5
    endloop
  endfacet
  facet normal -0 0 -1
    outer loop
      vertex 2.54 -0.799999 -1.5
      vertex 2 -1.8 -1.5
      vertex 2 -0.799999 -1.5
    endloop
  endfacet
  facet normal 0 0 -1
    outer loop
      vertex -2.54 -1.8 -1.5
      vertex -2 1.8 -1.5
      vertex -2 -1.8 -1.5
    endloop
  endfacet
  facet normal -0 0 -1
    outer loop
      vertex -2 1.8 -1.5
      vertex -2.54 -1.8 -1.5
      vertex -2.54 1.8 -1.5
    endloop
  endfacet
  facet normal -1 0 0
    outer loop
      vertex -2.54 -1.8 -1.5
      vertex -2.54 1.8 1.5
      vertex -2.54 1.8 -1.5
    endloop
  endfacet
  facet normal -1 -0 0
    outer loop
      vertex -2.54 1.8 1.5
      vertex -2.54 -1.8 -1.5
      vertex -2.54 -1.8 1.5
    endloop
  endfacet
  facet normal 0 1 -0
    outer loop
      vertex -2 1.8 -1.5
      vertex -2.54 1.8 1.5
      vertex -2 1.8 1.5
    endloop
  endfacet
  facet normal 0 1 0
    outer loop
      vertex -2.54 1.8 1.5
      vertex -2 1.8 -1.5
      vertex -2.54 1.8 -1.5
    endloop
  endfacet
  facet normal 0 1 -0
    outer loop
      vertex 2.54 1.8 -1.5
      vertex 2 1.8 1.5
      vertex 2.54 1.8 1.5
    endloop
  endfacet
  facet normal 0 1 0
    outer loop
      vertex 2 1.8 1.5
      vertex 2.54 1.8 -1.5
      vertex 2 1.8 -1.5
    endloop
  endfacet
  facet normal 0 -1 0
    outer loop
      vertex -2.54 -1.8 -1.5
      vertex -2 -1.8 1.5
      vertex -2.54 -1.8 1.5
    endloop
  endfacet
  facet normal 0 -1 -0
    outer loop
      vertex -2 -1.8 1.5
      vertex -2.54 -1.8 -1.5
      vertex -2 -1.8 -1.5
    endloop
  endfacet
  facet normal 0 -1 0
    outer loop
      vertex 2 -1.8 -1.5
      vertex 2.54 -1.8 1.5
      vertex 2 -1.8 1.5
    endloop
  endfacet
  facet normal 0 -1 -0
    outer loop
      vertex 2.54 -1.8 1.5
      vertex 2 -1.8 -1.5
      vertex 2.54 -1.8 -1.5
    endloop
  endfacet
  facet normal -1 0 0
    outer loop
      vertex 2 0.799999 -1.5
      vertex 2 1.8 1.5
      vertex 2 1.8 -1.5
    endloop
  endfacet
  facet normal -1 -0 0
    outer loop
      vertex 2 1.8 1.5
      vertex 2 0.799999 -1.5
      vertex 2 0.799999 1.5
    endloop
  endfacet
  facet normal -1 0 0
    outer loop
      vertex 2 -1.8 -1.5
      vertex 2 -0.799999 1.5
      vertex 2 -0.799999 -1.5
    endloop
  endfacet
  facet normal -1 -0 0
    outer loop
      vertex 2 -0.799999 1.5
      vertex 2 -1.8 -1.5
      vertex 2 -1.8 1.5
    endloop
  endfacet
  facet normal 1 -0 0
    outer loop
      vertex -2 -1.8 1.5
      vertex -2 1.8 -1.5
      vertex -2 1.8 1.5
    endloop
  endfacet
  facet normal 1 0 0
    outer loop
      vertex -2 1.8 -1.5
      vertex -2 -1.8 1.5
      vertex -2 -1.8 -1.5
    endloop
  endfacet
  facet normal 0 -1 0
    outer loop
      vertex 2 0.799999 -1.5
      vertex 2.54 0.799999 1.5
      vertex 2 0.799999 1.5
    endloop
  endfacet
  facet normal 0 -1 -0
    outer loop
      vertex 2.54 0.799999 1.5
      vertex 2 0.799999 -1.5
      vertex 2.54 0.799999 -1.5
    endloop
  endfacet
  facet normal 0 1 -0
    outer loop
      vertex 2.54 -0.799999 -1.5
      vertex 2 -0.799999 1.5
      vertex 2.54 -0.799999 1.5
    endloop
  endfacet
  facet normal 0 1 0
    outer loop
      vertex 2 -0.799999 1.5
      vertex 2.54 -0.799999 -1.5
      vertex 2 -0.799999 -1.5
    endloop
  endfacet
endsolid OpenSCAD_Model
