solid OpenSCAD_Model
  facet normal 1 -0 0
    outer loop
      vertex 2.45 2.24 7
      vertex 2.45 2.84 4
      vertex 2.45 2.84 7
    endloop
  endfacet
  facet normal 1 0 0
    outer loop
      vertex 2.45 2.84 4
      vertex 2.45 2.24 7
      vertex 2.45 2.24 4
    endloop
  endfacet
  facet normal 1 -0 0
    outer loop
      vertex 2.45 2.24 -4
      vertex 2.45 2.84 -7
      vertex 2.45 2.84 -4
    endloop
  endfacet
  facet normal 1 0 0
    outer loop
      vertex 2.45 2.84 -7
      vertex 2.45 2.24 -4
      vertex 2.45 2.24 -7
    endloop
  endfacet
  facet normal -0 0 1
    outer loop
      vertex 1.55 2.84 7
      vertex 2.45 2.24 7
      vertex 2.45 2.84 7
    endloop
  endfacet
  facet normal 0 0 1
    outer loop
      vertex 2.45 2.24 7
      vertex 1.55 2.84 7
      vertex 1.55 2.24 7
    endloop
  endfacet
  facet normal 0 0 -1
    outer loop
      vertex 1.55 2.24 -7
      vertex 2.45 2.84 -7
      vertex 2.45 2.24 -7
    endloop
  endfacet
  facet normal -0 0 -1
    outer loop
      vertex 2.45 2.84 -7
      vertex 1.55 2.24 -7
      vertex 1.55 2.84 -7
    endloop
  endfacet
  facet normal -1 0 0
    outer loop
      vertex 1.55 2.24 4
      vertex 1.55 2.84 7
      vertex 1.55 2.84 4
    endloop
  endfacet
  facet normal -1 -0 0
    outer loop
      vertex 1.55 2.84 7
      vertex 1.55 2.24 4
      vertex 1.55 2.24 7
    endloop
  endfacet
  facet normal -1 0 0
    outer loop
      vertex 1.55 2.24 -7
      vertex 1.55 2.84 -4
      vertex 1.55 2.84 -7
    endloop
  endfacet
  facet normal -1 -0 0
    outer loop
      vertex 1.55 2.84 -4
      vertex 1.55 2.24 -7
      vertex 1.55 2.24 -4
    endloop
  endfacet
  facet normal 0 1 -0
    outer loop
      vertex 2.45 2.84 4
      vertex 1.55 2.84 7
      vertex 2.45 2.84 7
    endloop
  endfacet
  facet normal 0 1 0
    outer loop
      vertex 1.55 2.84 7
      vertex 2.45 2.84 4
      vertex 1.55 2.84 4
    endloop
  endfacet
  facet normal 0 1 -0
    outer loop
      vertex 2.45 2.84 -7
      vertex 1.55 2.84 -4
      vertex 2.45 2.84 -4
    endloop
  endfacet
  facet normal 0 1 0
    outer loop
      vertex 1.55 2.84 -4
      vertex 2.45 2.84 -7
      vertex 1.55 2.84 -7
    endloop
  endfacet
  facet normal 0 -1 0
    outer loop
      vertex 1.55 2.24 4
      vertex 2.45 2.24 7
      vertex 1.55 2.24 7
    endloop
  endfacet
  facet normal 0 -1 -0
    outer loop
      vertex 2.45 2.24 7
      vertex 1.55 2.24 4
      vertex 2.45 2.24 4
    endloop
  endfacet
  facet normal 0 -1 0
    outer loop
      vertex 1.55 2.24 -7
      vertex 2.45 2.24 -4
      vertex 1.55 2.24 -4
    endloop
  endfacet
  facet normal 0 -1 -0
    outer loop
      vertex 2.45 2.24 -4
      vertex 1.55 2.24 -7
      vertex 2.45 2.24 -7
    endloop
  endfacet
  facet normal 1 -0 0
    outer loop
      vertex 2.45 7.32 7
      vertex 2.45 7.92 4
      vertex 2.45 7.92 7
    endloop
  endfacet
  facet normal 1 0 0
    outer loop
      vertex 2.45 7.92 4
      vertex 2.45 7.32 7
      vertex 2.45 7.32 4
    endloop
  endfacet
  facet normal 1 -0 0
    outer loop
      vertex 2.45 7.32 -4
      vertex 2.45 7.92 -7
      vertex 2.45 7.92 -4
    endloop
  endfacet
  facet normal 1 0 0
    outer loop
      vertex 2.45 7.92 -7
      vertex 2.45 7.32 -4
      vertex 2.45 7.32 -7
    endloop
  endfacet
  facet normal -0 0 1
    outer loop
      vertex 1.55 7.92 7
      vertex 2.45 7.32 7
      vertex 2.45 7.92 7
    endloop
  endfacet
  facet normal 0 0 1
    outer loop
      vertex 2.45 7.32 7
      vertex 1.55 7.92 7
      vertex 1.55 7.32 7
    endloop
  endfacet
  facet normal 0 0 -1
    outer loop
      vertex 1.55 7.32 -7
      vertex 2.45 7.92 -7
      vertex 2.45 7.32 -7
    endloop
  endfacet
  facet normal -0 0 -1
    outer loop
      vertex 2.45 7.92 -7
      vertex 1.55 7.32 -7
      vertex 1.55 7.92 -7
    endloop
  endfacet
  facet normal -1 0 0
    outer loop
      vertex 1.55 7.32 4
      vertex 1.55 7.92 7
      vertex 1.55 7.92 4
    endloop
  endfacet
  facet normal -1 -0 0
    outer loop
      vertex 1.55 7.92 7
      vertex 1.55 7.32 4
      vertex 1.55 7.32 7
    endloop
  endfacet
  facet normal -1 0 0
    outer loop
      vertex 1.55 7.32 -7
      vertex 1.55 7.92 -4
      vertex 1.55 7.92 -7
    endloop
  endfacet
  facet normal -1 -0 0
    outer loop
      vertex 1.55 7.92 -4
      vertex 1.55 7.32 -7
      vertex 1.55 7.32 -4
    endloop
  endfacet
  facet normal 0 1 -0
    outer loop
      vertex 2.45 7.92 4
      vertex 1.55 7.92 7
      vertex 2.45 7.92 7
    endloop
  endfacet
  facet normal 0 1 0
    outer loop
      vertex 1.55 7.92 7
      vertex 2.45 7.92 4
      vertex 1.55 7.92 4
    endloop
  endfacet
  facet normal 0 1 -0
    outer loop
      vertex 2.45 7.92 -7
      vertex 1.55 7.92 -4
      vertex 2.45 7.92 -4
    endloop
  endfacet
  facet normal 0 1 0
    outer loop
      vertex 1.55 7.92 -4
      vertex 2.45 7.92 -7
      vertex 1.55 7.92 -7
    endloop
  endfacet
  facet normal 0 -1 0
    outer loop
      vertex 1.55 7.32 4
      vertex 2.45 7.32 7
      vertex 1.55 7.32 7
    endloop
  endfacet
  facet normal 0 -1 -0
    outer loop
      vertex 2.45 7.32 7
      vertex 1.55 7.32 4
      vertex 2.45 7.32 4
    endloop
  endfacet
  facet normal 0 -1 0
    outer loop
      vertex 1.55 7.32 -7
      vertex 2.45 7.32 -4
      vertex 1.55 7.32 -4
    endloop
  endfacet
  facet normal 0 -1 -0
    outer loop
      vertex 2.45 7.32 -4
      vertex 1.55 7.32 -7
      vertex 2.45 7.32 -7
    endloop
  endfacet
  facet normal 1 -0 0
    outer loop
      vertex 2.45 12.4 7
      vertex 2.45 13 -7
      vertex 2.45 13 7
    endloop
  endfacet
  facet normal 1 0 0
    outer loop
      vertex 2.45 13 -7
      vertex 2.45 12.4 7
      vertex 2.45 12.4 -7
    endloop
  endfacet
  facet normal -0 0 1
    outer loop
      vertex 1.55 13 7
      vertex 2.45 12.4 7
      vertex 2.45 13 7
    endloop
  endfacet
  facet normal 0 0 1
    outer loop
      vertex 2.45 12.4 7
      vertex 1.55 13 7
      vertex 1.55 12.4 7
    endloop
  endfacet
  facet normal 0 0 -1
    outer loop
      vertex 1.55 12.4 -7
      vertex 2.45 13 -7
      vertex 2.45 12.4 -7
    endloop
  endfacet
  facet normal -0 0 -1
    outer loop
      vertex 2.45 13 -7
      vertex 1.55 12.4 -7
      vertex 1.55 13 -7
    endloop
  endfacet
  facet normal -1 0 0
    outer loop
      vertex 1.55 12.4 -7
      vertex 1.55 13 7
      vertex 1.55 13 -7
    endloop
  endfacet
  facet normal -1 -0 0
    outer loop
      vertex 1.55 13 7
      vertex 1.55 12.4 -7
      vertex 1.55 12.4 7
    endloop
  endfacet
  facet normal 0 1 -0
    outer loop
      vertex 2.45 13 -7
      vertex 1.55 13 7
      vertex 2.45 13 7
    endloop
  endfacet
  facet normal 0 1 0
    outer loop
      vertex 1.55 13 7
      vertex 2.45 13 -7
      vertex 1.55 13 -7
    endloop
  endfacet
  facet normal 0 -1 0
    outer loop
      vertex 1.55 12.4 -7
      vertex 2.45 12.4 7
      vertex 1.55 12.4 7
    endloop
  endfacet
  facet normal 0 -1 -0
    outer loop
      vertex 2.45 12.4 7
      vertex 1.55 12.4 -7
      vertex 2.45 12.4 -7
    endloop
  endfacet
  facet normal 1 -0 0
    outer loop
      vertex 4 -9.12 4
      vertex 4 9.12 -4
      vertex 4 9.12 4
    endloop
  endfacet
  facet normal 1 0 0
    outer loop
      vertex 4 9.12 -4
      vertex 4 -9.12 4
      vertex 4 -9.12 -4
    endloop
  endfacet
  facet normal -0 0 1
    outer loop
      vertex 1.55 7.32 4
      vertex 2.45 2.84 4
      vertex 2.45 7.32 4
    endloop
  endfacet
  facet normal 0 0 1
    outer loop
      vertex 2.45 2.84 4
      vertex 1.55 7.32 4
      vertex 1.55 2.84 4
    endloop
  endfacet
  facet normal 0 0 1
    outer loop
      vertex 2.45 7.32 4
      vertex 4 9.12 4
      vertex 2.45 7.92 4
    endloop
  endfacet
  facet normal 0 0 1
    outer loop
      vertex 4 9.12 4
      vertex 1.55 7.92 4
      vertex 2.45 7.92 4
    endloop
  endfacet
  facet normal 0 0 1
    outer loop
      vertex 0 9.12 4
      vertex 1.55 7.32 4
      vertex 1.55 7.92 4
    endloop
  endfacet
  facet normal 0 0 1
    outer loop
      vertex 1.55 7.32 4
      vertex 0 9.12 4
      vertex 1.55 2.84 4
    endloop
  endfacet
  facet normal 0 0 1
    outer loop
      vertex 1.55 2.84 4
      vertex 0 9.12 4
      vertex 1.55 2.24 4
    endloop
  endfacet
  facet normal -0 0 1
    outer loop
      vertex 0 9.12 4
      vertex 1.55 7.92 4
      vertex 4 9.12 4
    endloop
  endfacet
  facet normal 0 0 1
    outer loop
      vertex 2.45 2.84 4
      vertex 4 9.12 4
      vertex 2.45 7.32 4
    endloop
  endfacet
  facet normal 0 0 1
    outer loop
      vertex 2.45 2.24 4
      vertex 4 9.12 4
      vertex 2.45 2.84 4
    endloop
  endfacet
  facet normal 0 0 1
    outer loop
      vertex 4 9.12 4
      vertex 2.45 2.24 4
      vertex 4 -9.12 4
    endloop
  endfacet
  facet normal -0 0 1
    outer loop
      vertex 1.55 2.24 4
      vertex 4 -9.12 4
      vertex 2.45 2.24 4
    endloop
  endfacet
  facet normal 0 0 1
    outer loop
      vertex 0 -9.12 4
      vertex 1.55 2.24 4
      vertex 0 9.12 4
    endloop
  endfacet
  facet normal 0 0 1
    outer loop
      vertex 1.55 2.24 4
      vertex 0 -9.12 4
      vertex 4 -9.12 4
    endloop
  endfacet
  facet normal 0 0 -1
    outer loop
      vertex 1.55 2.84 -4
      vertex 2.45 7.32 -4
      vertex 2.45 2.84 -4
    endloop
  endfacet
  facet normal -0 0 -1
    outer loop
      vertex 2.45 7.32 -4
      vertex 1.55 2.84 -4
      vertex 1.55 7.32 -4
    endloop
  endfacet
  facet normal 0 0 -1
    outer loop
      vertex 4 -9.12 -4
      vertex 2.45 2.24 -4
      vertex 4 9.12 -4
    endloop
  endfacet
  facet normal 0 0 -1
    outer loop
      vertex 4 -9.12 -4
      vertex 1.55 2.24 -4
      vertex 2.45 2.24 -4
    endloop
  endfacet
  facet normal 0 0 -1
    outer loop
      vertex 0 9.12 -4
      vertex 1.55 2.84 -4
      vertex 1.55 2.24 -4
    endloop
  endfacet
  facet normal 0 0 -1
    outer loop
      vertex 1.55 2.84 -4
      vertex 0 9.12 -4
      vertex 1.55 7.32 -4
    endloop
  endfacet
  facet normal 0 0 -1
    outer loop
      vertex 0 9.12 -4
      vertex 1.55 2.24 -4
      vertex 0 -9.12 -4
    endloop
  endfacet
  facet normal 0 0 -1
    outer loop
      vertex 0 -9.12 -4
      vertex 1.55 2.24 -4
      vertex 4 -9.12 -4
    endloop
  endfacet
  facet normal 0 0 -1
    outer loop
      vertex 2.45 2.84 -4
      vertex 4 9.12 -4
      vertex 2.45 2.24 -4
    endloop
  endfacet
  facet normal 0 0 -1
    outer loop
      vertex 2.45 7.32 -4
      vertex 4 9.12 -4
      vertex 2.45 2.84 -4
    endloop
  endfacet
  facet normal 0 0 -1
    outer loop
      vertex 2.45 7.92 -4
      vertex 4 9.12 -4
      vertex 2.45 7.32 -4
    endloop
  endfacet
  facet normal 0 0 -1
    outer loop
      vertex 1.55 7.92 -4
      vertex 4 9.12 -4
      vertex 2.45 7.92 -4
    endloop
  endfacet
  facet normal 0 0 -1
    outer loop
      vertex 1.55 7.92 -4
      vertex 0 9.12 -4
      vertex 4 9.12 -4
    endloop
  endfacet
  facet normal 0 0 -1
    outer loop
      vertex 1.55 7.32 -4
      vertex 0 9.12 -4
      vertex 1.55 7.92 -4
    endloop
  endfacet
  facet normal -1 0 0
    outer loop
      vertex 0 -9.12 -4
      vertex 0 9.12 4
      vertex 0 9.12 -4
    endloop
  endfacet
  facet normal -1 -0 0
    outer loop
      vertex 0 9.12 4
      vertex 0 -9.12 -4
      vertex 0 -9.12 4
    endloop
  endfacet
  facet normal 0 1 -0
    outer loop
      vertex 4 9.12 -4
      vertex 0 9.12 4
      vertex 4 9.12 4
    endloop
  endfacet
  facet normal 0 1 0
    outer loop
      vertex 0 9.12 4
      vertex 4 9.12 -4
      vertex 0 9.12 -4
    endloop
  endfacet
  facet normal 0 -1 0
    outer loop
      vertex 0 -9.12 -4
      vertex 4 -9.12 4
      vertex 0 -9.12 4
    endloop
  endfacet
  facet normal 0 -1 -0
    outer loop
      vertex 4 -9.12 4
      vertex 0 -9.12 -4
      vertex 4 -9.12 -4
    endloop
  endfacet
endsolid OpenSCAD_Model
