solid OpenSCAD_Model
  facet normal 0.946929 0.321443 1.07008e-18
    outer loop
      vertex 1.44889 0.388228 2
      vertex 1.38582 0.574024 0
      vertex 1.38582 0.574024 2
    endloop
  endfacet
  facet normal 0.946929 0.321443 1.07008e-18
    outer loop
      vertex 1.38582 0.574024 0
      vertex 1.44889 0.388228 2
      vertex 1.44889 0.388228 0
    endloop
  endfacet
  facet normal 0.980784 0.195097 -5.52854e-19
    outer loop
      vertex 1.48717 0.195788 2
      vertex 1.44889 0.388228 0
      vertex 1.44889 0.388228 2
    endloop
  endfacet
  facet normal 0.980784 0.195097 -5.52854e-19
    outer loop
      vertex 1.44889 0.388228 0
      vertex 1.48717 0.195788 2
      vertex 1.48717 0.195788 0
    endloop
  endfacet
  facet normal 0.195097 -0.980784 0
    outer loop
      vertex 0.195788 -1.48717 0
      vertex 0.388228 -1.44889 2
      vertex 0.195788 -1.48717 2
    endloop
  endfacet
  facet normal 0.195097 -0.980784 0
    outer loop
      vertex 0.388228 -1.44889 2
      vertex 0.195788 -1.48717 0
      vertex 0.388228 -1.44889 0
    endloop
  endfacet
  facet normal -0.659344 -0.751842 0
    outer loop
      vertex -1.06066 -1.06066 0
      vertex -0.913141 -1.19003 2
      vertex -1.06066 -1.06066 2
    endloop
  endfacet
  facet normal -0.659344 -0.751842 -0
    outer loop
      vertex -0.913141 -1.19003 2
      vertex -1.06066 -1.06066 0
      vertex -0.913141 -1.19003 0
    endloop
  endfacet
  facet normal -0.442281 -0.896876 0
    outer loop
      vertex -0.75 -1.29904 0
      vertex -0.574024 -1.38582 2
      vertex -0.75 -1.29904 2
    endloop
  endfacet
  facet normal -0.442281 -0.896876 -0
    outer loop
      vertex -0.574024 -1.38582 2
      vertex -0.75 -1.29904 0
      vertex -0.574024 -1.38582 0
    endloop
  endfacet
  facet normal 0.659344 0.751842 -0
    outer loop
      vertex 1.06066 1.06066 0
      vertex 0.913141 1.19003 2
      vertex 1.06066 1.06066 2
    endloop
  endfacet
  facet normal 0.659344 0.751842 0
    outer loop
      vertex 0.913141 1.19003 2
      vertex 1.06066 1.06066 0
      vertex 0.913141 1.19003 0
    endloop
  endfacet
  facet normal 0.99786 0.0653898 -2.72039e-19
    outer loop
      vertex 1.5 0 2
      vertex 1.48717 0.195788 0
      vertex 1.48717 0.195788 2
    endloop
  endfacet
  facet normal 0.99786 0.0653898 -2.72039e-19
    outer loop
      vertex 1.48717 0.195788 0
      vertex 1.5 0 2
      vertex 1.5 0 0
    endloop
  endfacet
  facet normal -0.321443 -0.946929 0
    outer loop
      vertex -0.574024 -1.38582 0
      vertex -0.388228 -1.44889 2
      vertex -0.574024 -1.38582 2
    endloop
  endfacet
  facet normal -0.321443 -0.946929 -0
    outer loop
      vertex -0.388228 -1.44889 2
      vertex -0.574024 -1.38582 0
      vertex -0.388228 -1.44889 0
    endloop
  endfacet
  facet normal -0.195097 0.980784 0
    outer loop
      vertex -0.195788 1.48717 0
      vertex -0.388228 1.44889 2
      vertex -0.195788 1.48717 2
    endloop
  endfacet
  facet normal -0.195097 0.980784 0
    outer loop
      vertex -0.388228 1.44889 2
      vertex -0.195788 1.48717 0
      vertex -0.388228 1.44889 0
    endloop
  endfacet
  facet normal 0.946929 -0.321443 -1.07008e-18
    outer loop
      vertex 1.38582 -0.574024 2
      vertex 1.44889 -0.388228 0
      vertex 1.44889 -0.388228 2
    endloop
  endfacet
  facet normal 0.946929 -0.321443 -1.07008e-18
    outer loop
      vertex 1.44889 -0.388228 0
      vertex 1.38582 -0.574024 2
      vertex 1.38582 -0.574024 0
    endloop
  endfacet
  facet normal 0.896876 0.442281 1.70625e-18
    outer loop
      vertex 1.38582 0.574024 2
      vertex 1.29904 0.75 0
      vertex 1.29904 0.75 2
    endloop
  endfacet
  facet normal 0.896876 0.442281 1.70625e-18
    outer loop
      vertex 1.29904 0.75 0
      vertex 1.38582 0.574024 2
      vertex 1.38582 0.574024 0
    endloop
  endfacet
  facet normal 0.0653898 0.99786 -0
    outer loop
      vertex 0.195788 1.48717 0
      vertex 0 1.5 2
      vertex 0.195788 1.48717 2
    endloop
  endfacet
  facet normal 0.0653898 0.99786 0
    outer loop
      vertex 0 1.5 2
      vertex 0.195788 1.48717 0
      vertex 0 1.5 0
    endloop
  endfacet
  facet normal 0.751842 0.659344 1.93825e-18
    outer loop
      vertex 1.19003 0.913141 2
      vertex 1.06066 1.06066 0
      vertex 1.06066 1.06066 2
    endloop
  endfacet
  facet normal 0.751842 0.659344 1.93825e-18
    outer loop
      vertex 1.06066 1.06066 0
      vertex 1.19003 0.913141 2
      vertex 1.19003 0.913141 0
    endloop
  endfacet
  facet normal -0.831463 0.55558 -2.86194e-18
    outer loop
      vertex -1.29904 0.75 0
      vertex -1.19003 0.913141 2
      vertex -1.19003 0.913141 0
    endloop
  endfacet
  facet normal -0.831463 0.55558 -2.86194e-18
    outer loop
      vertex -1.19003 0.913141 2
      vertex -1.29904 0.75 0
      vertex -1.29904 0.75 2
    endloop
  endfacet
  facet normal -0.321443 0.946929 0
    outer loop
      vertex -0.388228 1.44889 0
      vertex -0.574024 1.38582 2
      vertex -0.388228 1.44889 2
    endloop
  endfacet
  facet normal -0.321443 0.946929 0
    outer loop
      vertex -0.574024 1.38582 2
      vertex -0.388228 1.44889 0
      vertex -0.574024 1.38582 0
    endloop
  endfacet
  facet normal -0.980784 0.195097 5.52854e-19
    outer loop
      vertex -1.48717 0.195788 0
      vertex -1.44889 0.388228 2
      vertex -1.44889 0.388228 0
    endloop
  endfacet
  facet normal -0.980784 0.195097 5.52854e-19
    outer loop
      vertex -1.44889 0.388228 2
      vertex -1.48717 0.195788 0
      vertex -1.48717 0.195788 2
    endloop
  endfacet
  facet normal -0.99786 0.0653898 2.72039e-19
    outer loop
      vertex -1.5 0 0
      vertex -1.48717 0.195788 2
      vertex -1.48717 0.195788 0
    endloop
  endfacet
  facet normal -0.99786 0.0653898 2.72039e-19
    outer loop
      vertex -1.48717 0.195788 2
      vertex -1.5 0 0
      vertex -1.5 0 2
    endloop
  endfacet
  facet normal 0.0653898 -0.99786 0
    outer loop
      vertex 0 -1.5 0
      vertex 0.195788 -1.48717 2
      vertex 0 -1.5 2
    endloop
  endfacet
  facet normal 0.0653898 -0.99786 0
    outer loop
      vertex 0.195788 -1.48717 2
      vertex 0 -1.5 0
      vertex 0.195788 -1.48717 0
    endloop
  endfacet
  facet normal 0.751842 -0.659344 -1.93825e-18
    outer loop
      vertex 1.06066 -1.06066 2
      vertex 1.19003 -0.913141 0
      vertex 1.19003 -0.913141 2
    endloop
  endfacet
  facet normal 0.751842 -0.659344 -1.93825e-18
    outer loop
      vertex 1.19003 -0.913141 0
      vertex 1.06066 -1.06066 2
      vertex 1.06066 -1.06066 0
    endloop
  endfacet
  facet normal 0.980784 -0.195097 5.52854e-19
    outer loop
      vertex 1.44889 -0.388228 2
      vertex 1.48717 -0.195788 0
      vertex 1.48717 -0.195788 2
    endloop
  endfacet
  facet normal 0.980784 -0.195097 5.52854e-19
    outer loop
      vertex 1.48717 -0.195788 0
      vertex 1.44889 -0.388228 2
      vertex 1.44889 -0.388228 0
    endloop
  endfacet
  facet normal 0 0 -1
    outer loop
      vertex 1.48717 -0.195788 0
      vertex 1.48717 0.195788 0
      vertex 1.5 0 0
    endloop
  endfacet
  facet normal 0 0 -1
    outer loop
      vertex 1.44889 -0.388228 0
      vertex 1.48717 0.195788 0
      vertex 1.48717 -0.195788 0
    endloop
  endfacet
  facet normal 0 0 -1
    outer loop
      vertex 1.44889 -0.388228 0
      vertex 1.44889 0.388228 0
      vertex 1.48717 0.195788 0
    endloop
  endfacet
  facet normal 0 0 -1
    outer loop
      vertex 1.38582 -0.574024 0
      vertex 1.44889 0.388228 0
      vertex 1.44889 -0.388228 0
    endloop
  endfacet
  facet normal 0 0 -1
    outer loop
      vertex 1.38582 -0.574024 0
      vertex 1.38582 0.574024 0
      vertex 1.44889 0.388228 0
    endloop
  endfacet
  facet normal 0 0 -1
    outer loop
      vertex 1.29904 -0.75 0
      vertex 1.38582 0.574024 0
      vertex 1.38582 -0.574024 0
    endloop
  endfacet
  facet normal 0 0 -1
    outer loop
      vertex 1.29904 -0.75 0
      vertex 1.29904 0.75 0
      vertex 1.38582 0.574024 0
    endloop
  endfacet
  facet normal 0 0 -1
    outer loop
      vertex 1.19003 -0.913141 0
      vertex 1.29904 0.75 0
      vertex 1.29904 -0.75 0
    endloop
  endfacet
  facet normal 0 0 -1
    outer loop
      vertex 1.19003 -0.913141 0
      vertex 1.19003 0.913141 0
      vertex 1.29904 0.75 0
    endloop
  endfacet
  facet normal 0 0 -1
    outer loop
      vertex 1.06066 -1.06066 0
      vertex 1.19003 0.913141 0
      vertex 1.19003 -0.913141 0
    endloop
  endfacet
  facet normal 0 0 -1
    outer loop
      vertex 1.06066 -1.06066 0
      vertex 1.06066 1.06066 0
      vertex 1.19003 0.913141 0
    endloop
  endfacet
  facet normal 0 0 -1
    outer loop
      vertex 0.913141 -1.19003 0
      vertex 1.06066 1.06066 0
      vertex 1.06066 -1.06066 0
    endloop
  endfacet
  facet normal 0 0 -1
    outer loop
      vertex 0.913141 -1.19003 0
      vertex 0.913141 1.19003 0
      vertex 1.06066 1.06066 0
    endloop
  endfacet
  facet normal 0 0 -1
    outer loop
      vertex 0.75 -1.29904 0
      vertex 0.913141 1.19003 0
      vertex 0.913141 -1.19003 0
    endloop
  endfacet
  facet normal 0 0 -1
    outer loop
      vertex 0.75 -1.29904 0
      vertex 0.75 1.29904 0
      vertex 0.913141 1.19003 0
    endloop
  endfacet
  facet normal 0 0 -1
    outer loop
      vertex 0.574024 -1.38582 0
      vertex 0.75 1.29904 0
      vertex 0.75 -1.29904 0
    endloop
  endfacet
  facet normal 0 0 -1
    outer loop
      vertex 0.574024 -1.38582 0
      vertex 0.574024 1.38582 0
      vertex 0.75 1.29904 0
    endloop
  endfacet
  facet normal 0 0 -1
    outer loop
      vertex 0.388228 -1.44889 0
      vertex 0.574024 1.38582 0
      vertex 0.574024 -1.38582 0
    endloop
  endfacet
  facet normal 0 0 -1
    outer loop
      vertex 0.388228 -1.44889 0
      vertex 0.388228 1.44889 0
      vertex 0.574024 1.38582 0
    endloop
  endfacet
  facet normal 0 0 -1
    outer loop
      vertex 0.195788 -1.48717 0
      vertex 0.388228 1.44889 0
      vertex 0.388228 -1.44889 0
    endloop
  endfacet
  facet normal 0 0 -1
    outer loop
      vertex 0.195788 -1.48717 0
      vertex 0.195788 1.48717 0
      vertex 0.388228 1.44889 0
    endloop
  endfacet
  facet normal 0 0 -1
    outer loop
      vertex 0 -1.5 0
      vertex 0.195788 1.48717 0
      vertex 0.195788 -1.48717 0
    endloop
  endfacet
  facet normal 0 0 -1
    outer loop
      vertex 0 -1.5 0
      vertex 0 1.5 0
      vertex 0.195788 1.48717 0
    endloop
  endfacet
  facet normal 0 0 -1
    outer loop
      vertex -0.195788 -1.48717 0
      vertex 0 1.5 0
      vertex 0 -1.5 0
    endloop
  endfacet
  facet normal 0 0 -1
    outer loop
      vertex -0.195788 -1.48717 0
      vertex -0.195788 1.48717 0
      vertex 0 1.5 0
    endloop
  endfacet
  facet normal 0 0 -1
    outer loop
      vertex -0.388228 -1.44889 0
      vertex -0.195788 1.48717 0
      vertex -0.195788 -1.48717 0
    endloop
  endfacet
  facet normal 0 0 -1
    outer loop
      vertex -0.388228 -1.44889 0
      vertex -0.388228 1.44889 0
      vertex -0.195788 1.48717 0
    endloop
  endfacet
  facet normal 0 0 -1
    outer loop
      vertex -0.574024 -1.38582 0
      vertex -0.388228 1.44889 0
      vertex -0.388228 -1.44889 0
    endloop
  endfacet
  facet normal 0 0 -1
    outer loop
      vertex -0.574024 -1.38582 0
      vertex -0.574024 1.38582 0
      vertex -0.388228 1.44889 0
    endloop
  endfacet
  facet normal 0 0 -1
    outer loop
      vertex -0.75 -1.29904 0
      vertex -0.574024 1.38582 0
      vertex -0.574024 -1.38582 0
    endloop
  endfacet
  facet normal 0 0 -1
    outer loop
      vertex -0.75 -1.29904 0
      vertex -0.75 1.29904 0
      vertex -0.574024 1.38582 0
    endloop
  endfacet
  facet normal 0 0 -1
    outer loop
      vertex -0.913141 -1.19003 0
      vertex -0.75 1.29904 0
      vertex -0.75 -1.29904 0
    endloop
  endfacet
  facet normal 0 0 -1
    outer loop
      vertex -0.913141 -1.19003 0
      vertex -0.913141 1.19003 0
      vertex -0.75 1.29904 0
    endloop
  endfacet
  facet normal 0 0 -1
    outer loop
      vertex -1.06066 -1.06066 0
      vertex -0.913141 1.19003 0
      vertex -0.913141 -1.19003 0
    endloop
  endfacet
  facet normal 0 0 -1
    outer loop
      vertex -1.06066 -1.06066 0
      vertex -1.06066 1.06066 0
      vertex -0.913141 1.19003 0
    endloop
  endfacet
  facet normal 0 0 -1
    outer loop
      vertex -1.19003 -0.913141 0
      vertex -1.06066 1.06066 0
      vertex -1.06066 -1.06066 0
    endloop
  endfacet
  facet normal 0 0 -1
    outer loop
      vertex -1.19003 -0.913141 0
      vertex -1.19003 0.913141 0
      vertex -1.06066 1.06066 0
    endloop
  endfacet
  facet normal 0 0 -1
    outer loop
      vertex -1.29904 -0.75 0
      vertex -1.19003 0.913141 0
      vertex -1.19003 -0.913141 0
    endloop
  endfacet
  facet normal 0 0 -1
    outer loop
      vertex -1.29904 -0.75 0
      vertex -1.29904 0.75 0
      vertex -1.19003 0.913141 0
    endloop
  endfacet
  facet normal 0 0 -1
    outer loop
      vertex -1.38582 -0.574024 0
      vertex -1.29904 0.75 0
      vertex -1.29904 -0.75 0
    endloop
  endfacet
  facet normal 0 0 -1
    outer loop
      vertex -1.38582 -0.574024 0
      vertex -1.38582 0.574024 0
      vertex -1.29904 0.75 0
    endloop
  endfacet
  facet normal 0 0 -1
    outer loop
      vertex -1.44889 -0.388228 0
      vertex -1.38582 0.574024 0
      vertex -1.38582 -0.574024 0
    endloop
  endfacet
  facet normal 0 0 -1
    outer loop
      vertex -1.44889 -0.388228 0
      vertex -1.44889 0.388228 0
      vertex -1.38582 0.574024 0
    endloop
  endfacet
  facet normal 0 0 -1
    outer loop
      vertex -1.48717 -0.195788 0
      vertex -1.44889 0.388228 0
      vertex -1.44889 -0.388228 0
    endloop
  endfacet
  facet normal 0 0 -1
    outer loop
      vertex -1.48717 -0.195788 0
      vertex -1.48717 0.195788 0
      vertex -1.44889 0.388228 0
    endloop
  endfacet
  facet normal 0 -0 -1
    outer loop
      vertex -1.48717 0.195788 0
      vertex -1.48717 -0.195788 0
      vertex -1.5 0 0
    endloop
  endfacet
  facet normal 0.831463 -0.55558 -2.86194e-18
    outer loop
      vertex 1.19003 -0.913141 2
      vertex 1.29904 -0.75 0
      vertex 1.29904 -0.75 2
    endloop
  endfacet
  facet normal 0.831463 -0.55558 -2.86194e-18
    outer loop
      vertex 1.29904 -0.75 0
      vertex 1.19003 -0.913141 2
      vertex 1.19003 -0.913141 0
    endloop
  endfacet
  facet normal 0.321443 -0.946929 0
    outer loop
      vertex 0.388228 -1.44889 0
      vertex 0.574024 -1.38582 2
      vertex 0.388228 -1.44889 2
    endloop
  endfacet
  facet normal 0.321443 -0.946929 0
    outer loop
      vertex 0.574024 -1.38582 2
      vertex 0.388228 -1.44889 0
      vertex 0.574024 -1.38582 0
    endloop
  endfacet
  facet normal 0.831463 0.55558 2.86194e-18
    outer loop
      vertex 1.29904 0.75 2
      vertex 1.19003 0.913141 0
      vertex 1.19003 0.913141 2
    endloop
  endfacet
  facet normal 0.831463 0.55558 2.86194e-18
    outer loop
      vertex 1.19003 0.913141 0
      vertex 1.29904 0.75 2
      vertex 1.29904 0.75 0
    endloop
  endfacet
  facet normal 0.55558 0.831463 -0
    outer loop
      vertex 0.913141 1.19003 0
      vertex 0.75 1.29904 2
      vertex 0.913141 1.19003 2
    endloop
  endfacet
  facet normal 0.55558 0.831463 0
    outer loop
      vertex 0.75 1.29904 2
      vertex 0.913141 1.19003 0
      vertex 0.75 1.29904 0
    endloop
  endfacet
  facet normal -0.751842 0.659344 -1.93825e-18
    outer loop
      vertex -1.19003 0.913141 0
      vertex -1.06066 1.06066 2
      vertex -1.06066 1.06066 0
    endloop
  endfacet
  facet normal -0.751842 0.659344 -1.93825e-18
    outer loop
      vertex -1.06066 1.06066 2
      vertex -1.19003 0.913141 0
      vertex -1.19003 0.913141 2
    endloop
  endfacet
  facet normal 0.442281 0.896876 -0
    outer loop
      vertex 0.75 1.29904 0
      vertex 0.574024 1.38582 2
      vertex 0.75 1.29904 2
    endloop
  endfacet
  facet normal 0.442281 0.896876 0
    outer loop
      vertex 0.574024 1.38582 2
      vertex 0.75 1.29904 0
      vertex 0.574024 1.38582 0
    endloop
  endfacet
  facet normal -0.0653898 0.99786 0
    outer loop
      vertex 0 1.5 0
      vertex -0.195788 1.48717 2
      vertex 0 1.5 2
    endloop
  endfacet
  facet normal -0.0653898 0.99786 0
    outer loop
      vertex -0.195788 1.48717 2
      vertex 0 1.5 0
      vertex -0.195788 1.48717 0
    endloop
  endfacet
  facet normal -0.659344 0.751842 0
    outer loop
      vertex -0.913141 1.19003 0
      vertex -1.06066 1.06066 2
      vertex -0.913141 1.19003 2
    endloop
  endfacet
  facet normal -0.659344 0.751842 0
    outer loop
      vertex -1.06066 1.06066 2
      vertex -0.913141 1.19003 0
      vertex -1.06066 1.06066 0
    endloop
  endfacet
  facet normal 0.99786 -0.0653898 2.72039e-19
    outer loop
      vertex 1.48717 -0.195788 2
      vertex 1.5 0 0
      vertex 1.5 0 2
    endloop
  endfacet
  facet normal 0.99786 -0.0653898 2.72039e-19
    outer loop
      vertex 1.5 0 0
      vertex 1.48717 -0.195788 2
      vertex 1.48717 -0.195788 0
    endloop
  endfacet
  facet normal -0.442281 0.896876 0
    outer loop
      vertex -0.574024 1.38582 0
      vertex -0.75 1.29904 2
      vertex -0.574024 1.38582 2
    endloop
  endfacet
  facet normal -0.442281 0.896876 0
    outer loop
      vertex -0.75 1.29904 2
      vertex -0.574024 1.38582 0
      vertex -0.75 1.29904 0
    endloop
  endfacet
  facet normal 0.896876 -0.442281 -1.70625e-18
    outer loop
      vertex 1.29904 -0.75 2
      vertex 1.38582 -0.574024 0
      vertex 1.38582 -0.574024 2
    endloop
  endfacet
  facet normal 0.896876 -0.442281 -1.70625e-18
    outer loop
      vertex 1.38582 -0.574024 0
      vertex 1.29904 -0.75 2
      vertex 1.29904 -0.75 0
    endloop
  endfacet
  facet normal 0.321443 0.946929 -0
    outer loop
      vertex 0.574024 1.38582 0
      vertex 0.388228 1.44889 2
      vertex 0.574024 1.38582 2
    endloop
  endfacet
  facet normal 0.321443 0.946929 0
    outer loop
      vertex 0.388228 1.44889 2
      vertex 0.574024 1.38582 0
      vertex 0.388228 1.44889 0
    endloop
  endfacet
  facet normal -0.896876 -0.442281 1.70625e-18
    outer loop
      vertex -1.29904 -0.75 0
      vertex -1.38582 -0.574024 2
      vertex -1.38582 -0.574024 0
    endloop
  endfacet
  facet normal -0.896876 -0.442281 1.70625e-18
    outer loop
      vertex -1.38582 -0.574024 2
      vertex -1.29904 -0.75 0
      vertex -1.29904 -0.75 2
    endloop
  endfacet
  facet normal -0.946929 -0.321443 1.07008e-18
    outer loop
      vertex -1.38582 -0.574024 0
      vertex -1.44889 -0.388228 2
      vertex -1.44889 -0.388228 0
    endloop
  endfacet
  facet normal -0.946929 -0.321443 1.07008e-18
    outer loop
      vertex -1.44889 -0.388228 2
      vertex -1.38582 -0.574024 0
      vertex -1.38582 -0.574024 2
    endloop
  endfacet
  facet normal -0.946929 0.321443 -1.07008e-18
    outer loop
      vertex -1.44889 0.388228 0
      vertex -1.38582 0.574024 2
      vertex -1.38582 0.574024 0
    endloop
  endfacet
  facet normal -0.946929 0.321443 -1.07008e-18
    outer loop
      vertex -1.38582 0.574024 2
      vertex -1.44889 0.388228 0
      vertex -1.44889 0.388228 2
    endloop
  endfacet
  facet normal 0.442281 -0.896876 0
    outer loop
      vertex 0.574024 -1.38582 0
      vertex 0.75 -1.29904 2
      vertex 0.574024 -1.38582 2
    endloop
  endfacet
  facet normal 0.442281 -0.896876 0
    outer loop
      vertex 0.75 -1.29904 2
      vertex 0.574024 -1.38582 0
      vertex 0.75 -1.29904 0
    endloop
  endfacet
  facet normal -0.980784 -0.195097 -5.52854e-19
    outer loop
      vertex -1.44889 -0.388228 0
      vertex -1.48717 -0.195788 2
      vertex -1.48717 -0.195788 0
    endloop
  endfacet
  facet normal -0.980784 -0.195097 -5.52854e-19
    outer loop
      vertex -1.48717 -0.195788 2
      vertex -1.44889 -0.388228 0
      vertex -1.44889 -0.388228 2
    endloop
  endfacet
  facet normal 0.55558 -0.831463 0
    outer loop
      vertex 0.75 -1.29904 0
      vertex 0.913141 -1.19003 2
      vertex 0.75 -1.29904 2
    endloop
  endfacet
  facet normal 0.55558 -0.831463 0
    outer loop
      vertex 0.913141 -1.19003 2
      vertex 0.75 -1.29904 0
      vertex 0.913141 -1.19003 0
    endloop
  endfacet
  facet normal -0.0653898 -0.99786 0
    outer loop
      vertex -0.195788 -1.48717 0
      vertex 0 -1.5 2
      vertex -0.195788 -1.48717 2
    endloop
  endfacet
  facet normal -0.0653898 -0.99786 -0
    outer loop
      vertex 0 -1.5 2
      vertex -0.195788 -1.48717 0
      vertex 0 -1.5 0
    endloop
  endfacet
  facet normal -0.55558 0.831463 0
    outer loop
      vertex -0.75 1.29904 0
      vertex -0.913141 1.19003 2
      vertex -0.75 1.29904 2
    endloop
  endfacet
  facet normal -0.55558 0.831463 0
    outer loop
      vertex -0.913141 1.19003 2
      vertex -0.75 1.29904 0
      vertex -0.913141 1.19003 0
    endloop
  endfacet
  facet normal -0.751842 -0.659344 1.93825e-18
    outer loop
      vertex -1.06066 -1.06066 0
      vertex -1.19003 -0.913141 2
      vertex -1.19003 -0.913141 0
    endloop
  endfacet
  facet normal -0.751842 -0.659344 1.93825e-18
    outer loop
      vertex -1.19003 -0.913141 2
      vertex -1.06066 -1.06066 0
      vertex -1.06066 -1.06066 2
    endloop
  endfacet
  facet normal -0.831463 -0.55558 2.86194e-18
    outer loop
      vertex -1.19003 -0.913141 0
      vertex -1.29904 -0.75 2
      vertex -1.29904 -0.75 0
    endloop
  endfacet
  facet normal -0.831463 -0.55558 2.86194e-18
    outer loop
      vertex -1.29904 -0.75 2
      vertex -1.19003 -0.913141 0
      vertex -1.19003 -0.913141 2
    endloop
  endfacet
  facet normal -0.99786 -0.0653898 -2.72039e-19
    outer loop
      vertex -1.48717 -0.195788 0
      vertex -1.5 0 2
      vertex -1.5 0 0
    endloop
  endfacet
  facet normal -0.99786 -0.0653898 -2.72039e-19
    outer loop
      vertex -1.5 0 2
      vertex -1.48717 -0.195788 0
      vertex -1.48717 -0.195788 2
    endloop
  endfacet
  facet normal 0.659344 -0.751842 0
    outer loop
      vertex 0.913141 -1.19003 0
      vertex 1.06066 -1.06066 2
      vertex 0.913141 -1.19003 2
    endloop
  endfacet
  facet normal 0.659344 -0.751842 0
    outer loop
      vertex 1.06066 -1.06066 2
      vertex 0.913141 -1.19003 0
      vertex 1.06066 -1.06066 0
    endloop
  endfacet
  facet normal 0.195097 0.980784 -0
    outer loop
      vertex 0.388228 1.44889 0
      vertex 0.195788 1.48717 2
      vertex 0.388228 1.44889 2
    endloop
  endfacet
  facet normal 0.195097 0.980784 0
    outer loop
      vertex 0.195788 1.48717 2
      vertex 0.388228 1.44889 0
      vertex 0.195788 1.48717 0
    endloop
  endfacet
  facet normal -0.896876 0.442281 -1.70625e-18
    outer loop
      vertex -1.38582 0.574024 0
      vertex -1.29904 0.75 2
      vertex -1.29904 0.75 0
    endloop
  endfacet
  facet normal -0.896876 0.442281 -1.70625e-18
    outer loop
      vertex -1.29904 0.75 2
      vertex -1.38582 0.574024 0
      vertex -1.38582 0.574024 2
    endloop
  endfacet
  facet normal -0.55558 -0.831463 0
    outer loop
      vertex -0.913141 -1.19003 0
      vertex -0.75 -1.29904 2
      vertex -0.913141 -1.19003 2
    endloop
  endfacet
  facet normal -0.55558 -0.831463 -0
    outer loop
      vertex -0.75 -1.29904 2
      vertex -0.913141 -1.19003 0
      vertex -0.75 -1.29904 0
    endloop
  endfacet
  facet normal -0.195097 -0.980784 0
    outer loop
      vertex -0.388228 -1.44889 0
      vertex -0.195788 -1.48717 2
      vertex -0.388228 -1.44889 2
    endloop
  endfacet
  facet normal -0.195097 -0.980784 -0
    outer loop
      vertex -0.195788 -1.48717 2
      vertex -0.388228 -1.44889 0
      vertex -0.195788 -1.48717 0
    endloop
  endfacet
  facet normal 0 0 1
    outer loop
      vertex 1 0 2
      vertex 1.5 0 2
      vertex 1.48717 0.195788 2
    endloop
  endfacet
  facet normal 0 0 1
    outer loop
      vertex 0.991445 0.130526 2
      vertex 1.48717 0.195788 2
      vertex 1.44889 0.388228 2
    endloop
  endfacet
  facet normal 0 0 1
    outer loop
      vertex 1.5 0 2
      vertex 1 0 2
      vertex 1.48717 -0.195788 2
    endloop
  endfacet
  facet normal 0 0 1
    outer loop
      vertex 0.965925 0.258819 2
      vertex 1.44889 0.388228 2
      vertex 1.38582 0.574024 2
    endloop
  endfacet
  facet normal -0 0 1
    outer loop
      vertex 0.991445 -0.130526 2
      vertex 1.48717 -0.195788 2
      vertex 1 0 2
    endloop
  endfacet
  facet normal 0 0 1
    outer loop
      vertex 0.923879 0.382683 2
      vertex 1.38582 0.574024 2
      vertex 1.29904 0.75 2
    endloop
  endfacet
  facet normal 0 0 1
    outer loop
      vertex 1.48717 -0.195788 2
      vertex 0.991445 -0.130526 2
      vertex 1.44889 -0.388228 2
    endloop
  endfacet
  facet normal 0 0 1
    outer loop
      vertex 0.866025 0.5 2
      vertex 1.29904 0.75 2
      vertex 1.19003 0.913141 2
    endloop
  endfacet
  facet normal -0 0 1
    outer loop
      vertex 0.965925 -0.258819 2
      vertex 1.44889 -0.388228 2
      vertex 0.991445 -0.130526 2
    endloop
  endfacet
  facet normal 0 0 1
    outer loop
      vertex 0.793353 0.608761 2
      vertex 1.19003 0.913141 2
      vertex 1.06066 1.06066 2
    endloop
  endfacet
  facet normal 0 0 1
    outer loop
      vertex 1.44889 -0.388228 2
      vertex 0.965925 -0.258819 2
      vertex 1.38582 -0.574024 2
    endloop
  endfacet
  facet normal -0 0 1
    outer loop
      vertex 0.923879 -0.382683 2
      vertex 1.38582 -0.574024 2
      vertex 0.965925 -0.258819 2
    endloop
  endfacet
  facet normal 0 0 1
    outer loop
      vertex 1.48717 0.195788 2
      vertex 0.991445 0.130526 2
      vertex 1 0 2
    endloop
  endfacet
  facet normal 0 0 1
    outer loop
      vertex 1.44889 0.388228 2
      vertex 0.965925 0.258819 2
      vertex 0.991445 0.130526 2
    endloop
  endfacet
  facet normal 0 0 1
    outer loop
      vertex 1.38582 0.574024 2
      vertex 0.923879 0.382683 2
      vertex 0.965925 0.258819 2
    endloop
  endfacet
  facet normal 0 0 1
    outer loop
      vertex 0.707107 0.707107 2
      vertex 1.06066 1.06066 2
      vertex 0.913141 1.19003 2
    endloop
  endfacet
  facet normal 0 0 1
    outer loop
      vertex 1.29904 0.75 2
      vertex 0.866025 0.5 2
      vertex 0.923879 0.382683 2
    endloop
  endfacet
  facet normal 0 0 1
    outer loop
      vertex 1.19003 0.913141 2
      vertex 0.793353 0.608761 2
      vertex 0.866025 0.5 2
    endloop
  endfacet
  facet normal 0 0 1
    outer loop
      vertex 0.608761 0.793353 2
      vertex 0.913141 1.19003 2
      vertex 0.75 1.29904 2
    endloop
  endfacet
  facet normal 0 0 1
    outer loop
      vertex 1.06066 1.06066 2
      vertex 0.707107 0.707107 2
      vertex 0.793353 0.608761 2
    endloop
  endfacet
  facet normal 0 0 1
    outer loop
      vertex 0.913141 1.19003 2
      vertex 0.608761 0.793353 2
      vertex 0.707107 0.707107 2
    endloop
  endfacet
  facet normal 0 0 1
    outer loop
      vertex 0.5 0.866025 2
      vertex 0.75 1.29904 2
      vertex 0.574024 1.38582 2
    endloop
  endfacet
  facet normal 0 0 1
    outer loop
      vertex 0.75 1.29904 2
      vertex 0.5 0.866025 2
      vertex 0.608761 0.793353 2
    endloop
  endfacet
  facet normal 0 0 1
    outer loop
      vertex 0.382683 0.923879 2
      vertex 0.574024 1.38582 2
      vertex 0.388228 1.44889 2
    endloop
  endfacet
  facet normal 0 0 1
    outer loop
      vertex 0.574024 1.38582 2
      vertex 0.382683 0.923879 2
      vertex 0.5 0.866025 2
    endloop
  endfacet
  facet normal 0 0 1
    outer loop
      vertex 0.388228 1.44889 2
      vertex 0.258819 0.965925 2
      vertex 0.382683 0.923879 2
    endloop
  endfacet
  facet normal 0 0 1
    outer loop
      vertex 0.195788 1.48717 2
      vertex 0.258819 0.965925 2
      vertex 0.388228 1.44889 2
    endloop
  endfacet
  facet normal 0 0 1
    outer loop
      vertex 0.195788 1.48717 2
      vertex 0.130526 0.991445 2
      vertex 0.258819 0.965925 2
    endloop
  endfacet
  facet normal 0 0 1
    outer loop
      vertex 0 1.5 2
      vertex 0.130526 0.991445 2
      vertex 0.195788 1.48717 2
    endloop
  endfacet
  facet normal 0 0 1
    outer loop
      vertex 0 1.5 2
      vertex 0 1 2
      vertex 0.130526 0.991445 2
    endloop
  endfacet
  facet normal 0 0 1
    outer loop
      vertex 0 1.5 2
      vertex -0.130526 0.991445 2
      vertex 0 1 2
    endloop
  endfacet
  facet normal -0 0 1
    outer loop
      vertex -0.195788 1.48717 2
      vertex -0.130526 0.991445 2
      vertex 0 1.5 2
    endloop
  endfacet
  facet normal 0 0 1
    outer loop
      vertex -0.195788 1.48717 2
      vertex -0.258819 0.965925 2
      vertex -0.130526 0.991445 2
    endloop
  endfacet
  facet normal -0 0 1
    outer loop
      vertex -0.388228 1.44889 2
      vertex -0.258819 0.965925 2
      vertex -0.195788 1.48717 2
    endloop
  endfacet
  facet normal 0 0 1
    outer loop
      vertex -0.258819 0.965925 2
      vertex -0.388228 1.44889 2
      vertex -0.382683 0.923879 2
    endloop
  endfacet
  facet normal -0 0 1
    outer loop
      vertex -0.574024 1.38582 2
      vertex -0.382683 0.923879 2
      vertex -0.388228 1.44889 2
    endloop
  endfacet
  facet normal 0 0 1
    outer loop
      vertex -0.382683 0.923879 2
      vertex -0.574024 1.38582 2
      vertex -0.5 0.866025 2
    endloop
  endfacet
  facet normal -0 0 1
    outer loop
      vertex -0.75 1.29904 2
      vertex -0.5 0.866025 2
      vertex -0.574024 1.38582 2
    endloop
  endfacet
  facet normal 0 0 1
    outer loop
      vertex -0.5 0.866025 2
      vertex -0.75 1.29904 2
      vertex -0.608761 0.793353 2
    endloop
  endfacet
  facet normal -0 0 1
    outer loop
      vertex -0.913141 1.19003 2
      vertex -0.608761 0.793353 2
      vertex -0.75 1.29904 2
    endloop
  endfacet
  facet normal 0 0 1
    outer loop
      vertex -0.608761 0.793353 2
      vertex -0.913141 1.19003 2
      vertex -0.707107 0.707107 2
    endloop
  endfacet
  facet normal -0 0 1
    outer loop
      vertex -1.06066 1.06066 2
      vertex -0.707107 0.707107 2
      vertex -0.913141 1.19003 2
    endloop
  endfacet
  facet normal 0 0 1
    outer loop
      vertex -0.707107 0.707107 2
      vertex -1.06066 1.06066 2
      vertex -0.793353 0.608761 2
    endloop
  endfacet
  facet normal -0 0 1
    outer loop
      vertex -1.19003 0.913141 2
      vertex -0.793353 0.608761 2
      vertex -1.06066 1.06066 2
    endloop
  endfacet
  facet normal 0 0 1
    outer loop
      vertex -0.793353 0.608761 2
      vertex -1.19003 0.913141 2
      vertex -0.866025 0.5 2
    endloop
  endfacet
  facet normal -0 0 1
    outer loop
      vertex -1.29904 0.75 2
      vertex -0.866025 0.5 2
      vertex -1.19003 0.913141 2
    endloop
  endfacet
  facet normal -0 0 1
    outer loop
      vertex -1.38582 0.574024 2
      vertex -0.923879 0.382683 2
      vertex -1.29904 0.75 2
    endloop
  endfacet
  facet normal 0 0 1
    outer loop
      vertex -0.866025 0.5 2
      vertex -1.29904 0.75 2
      vertex -0.923879 0.382683 2
    endloop
  endfacet
  facet normal 0 0 1
    outer loop
      vertex 1.38582 -0.574024 2
      vertex 0.923879 -0.382683 2
      vertex 1.29904 -0.75 2
    endloop
  endfacet
  facet normal -0 0 1
    outer loop
      vertex 0.866025 -0.5 2
      vertex 1.29904 -0.75 2
      vertex 0.923879 -0.382683 2
    endloop
  endfacet
  facet normal 0 0 1
    outer loop
      vertex 1.29904 -0.75 2
      vertex 0.866025 -0.5 2
      vertex 1.19003 -0.913141 2
    endloop
  endfacet
  facet normal -0 0 1
    outer loop
      vertex 0.793353 -0.608761 2
      vertex 1.19003 -0.913141 2
      vertex 0.866025 -0.5 2
    endloop
  endfacet
  facet normal 0 0 1
    outer loop
      vertex 1.19003 -0.913141 2
      vertex 0.793353 -0.608761 2
      vertex 1.06066 -1.06066 2
    endloop
  endfacet
  facet normal -0 0 1
    outer loop
      vertex 0.707107 -0.707107 2
      vertex 1.06066 -1.06066 2
      vertex 0.793353 -0.608761 2
    endloop
  endfacet
  facet normal 0 0 1
    outer loop
      vertex 1.06066 -1.06066 2
      vertex 0.707107 -0.707107 2
      vertex 0.913141 -1.19003 2
    endloop
  endfacet
  facet normal -0 0 1
    outer loop
      vertex 0.608761 -0.793353 2
      vertex 0.913141 -1.19003 2
      vertex 0.707107 -0.707107 2
    endloop
  endfacet
  facet normal 0 0 1
    outer loop
      vertex 0.913141 -1.19003 2
      vertex 0.608761 -0.793353 2
      vertex 0.75 -1.29904 2
    endloop
  endfacet
  facet normal -0 0 1
    outer loop
      vertex 0.5 -0.866025 2
      vertex 0.75 -1.29904 2
      vertex 0.608761 -0.793353 2
    endloop
  endfacet
  facet normal 0 0 1
    outer loop
      vertex 0.75 -1.29904 2
      vertex 0.5 -0.866025 2
      vertex 0.574024 -1.38582 2
    endloop
  endfacet
  facet normal -0 0 1
    outer loop
      vertex 0.382683 -0.923879 2
      vertex 0.574024 -1.38582 2
      vertex 0.5 -0.866025 2
    endloop
  endfacet
  facet normal 0 0 1
    outer loop
      vertex 0.574024 -1.38582 2
      vertex 0.382683 -0.923879 2
      vertex 0.388228 -1.44889 2
    endloop
  endfacet
  facet normal -0 0 1
    outer loop
      vertex 0.258819 -0.965925 2
      vertex 0.388228 -1.44889 2
      vertex 0.382683 -0.923879 2
    endloop
  endfacet
  facet normal 0 0 1
    outer loop
      vertex 0.258819 -0.965925 2
      vertex 0.195788 -1.48717 2
      vertex 0.388228 -1.44889 2
    endloop
  endfacet
  facet normal -0 0 1
    outer loop
      vertex 0.130526 -0.991445 2
      vertex 0.195788 -1.48717 2
      vertex 0.258819 -0.965925 2
    endloop
  endfacet
  facet normal -0 0 1
    outer loop
      vertex 0 -1 2
      vertex 0.195788 -1.48717 2
      vertex 0.130526 -0.991445 2
    endloop
  endfacet
  facet normal 0 0 1
    outer loop
      vertex 0 -1 2
      vertex 0 -1.5 2
      vertex 0.195788 -1.48717 2
    endloop
  endfacet
  facet normal 0 0 1
    outer loop
      vertex -0.130526 -0.991445 2
      vertex 0 -1.5 2
      vertex 0 -1 2
    endloop
  endfacet
  facet normal 0 0 1
    outer loop
      vertex -0.130526 -0.991445 2
      vertex -0.195788 -1.48717 2
      vertex 0 -1.5 2
    endloop
  endfacet
  facet normal 0 0 1
    outer loop
      vertex -0.258819 -0.965925 2
      vertex -0.195788 -1.48717 2
      vertex -0.130526 -0.991445 2
    endloop
  endfacet
  facet normal 0 0 1
    outer loop
      vertex -0.388228 -1.44889 2
      vertex -0.258819 -0.965925 2
      vertex -0.382683 -0.923879 2
    endloop
  endfacet
  facet normal 0 0 1
    outer loop
      vertex -0.258819 -0.965925 2
      vertex -0.388228 -1.44889 2
      vertex -0.195788 -1.48717 2
    endloop
  endfacet
  facet normal 0 0 1
    outer loop
      vertex -0.574024 -1.38582 2
      vertex -0.382683 -0.923879 2
      vertex -0.5 -0.866025 2
    endloop
  endfacet
  facet normal 0 0 1
    outer loop
      vertex -0.382683 -0.923879 2
      vertex -0.574024 -1.38582 2
      vertex -0.388228 -1.44889 2
    endloop
  endfacet
  facet normal 0 0 1
    outer loop
      vertex -0.75 -1.29904 2
      vertex -0.5 -0.866025 2
      vertex -0.608761 -0.793353 2
    endloop
  endfacet
  facet normal 0 0 1
    outer loop
      vertex -0.913141 -1.19003 2
      vertex -0.608761 -0.793353 2
      vertex -0.707107 -0.707107 2
    endloop
  endfacet
  facet normal 0 0 1
    outer loop
      vertex -0.5 -0.866025 2
      vertex -0.75 -1.29904 2
      vertex -0.574024 -1.38582 2
    endloop
  endfacet
  facet normal 0 0 1
    outer loop
      vertex -1.06066 -1.06066 2
      vertex -0.707107 -0.707107 2
      vertex -0.793353 -0.608761 2
    endloop
  endfacet
  facet normal 0 0 1
    outer loop
      vertex -1.19003 -0.913141 2
      vertex -0.793353 -0.608761 2
      vertex -0.866025 -0.5 2
    endloop
  endfacet
  facet normal 0 0 1
    outer loop
      vertex -0.608761 -0.793353 2
      vertex -0.913141 -1.19003 2
      vertex -0.75 -1.29904 2
    endloop
  endfacet
  facet normal 0 0 1
    outer loop
      vertex -1.29904 -0.75 2
      vertex -0.866025 -0.5 2
      vertex -0.923879 -0.382683 2
    endloop
  endfacet
  facet normal 0 0 1
    outer loop
      vertex -1.38582 -0.574024 2
      vertex -0.923879 -0.382683 2
      vertex -0.965925 -0.258819 2
    endloop
  endfacet
  facet normal 0 0 1
    outer loop
      vertex -1.44889 -0.388228 2
      vertex -0.965925 -0.258819 2
      vertex -0.991445 -0.130526 2
    endloop
  endfacet
  facet normal 0 0 1
    outer loop
      vertex -0.707107 -0.707107 2
      vertex -1.06066 -1.06066 2
      vertex -0.913141 -1.19003 2
    endloop
  endfacet
  facet normal 0 0 1
    outer loop
      vertex -1.48717 -0.195788 2
      vertex -0.991445 -0.130526 2
      vertex -1 0 2
    endloop
  endfacet
  facet normal 0 0 1
    outer loop
      vertex -0.923879 0.382683 2
      vertex -1.38582 0.574024 2
      vertex -0.965925 0.258819 2
    endloop
  endfacet
  facet normal -0 0 1
    outer loop
      vertex -1.44889 0.388228 2
      vertex -0.965925 0.258819 2
      vertex -1.38582 0.574024 2
    endloop
  endfacet
  facet normal 0 0 1
    outer loop
      vertex -0.793353 -0.608761 2
      vertex -1.19003 -0.913141 2
      vertex -1.06066 -1.06066 2
    endloop
  endfacet
  facet normal 0 0 1
    outer loop
      vertex -0.965925 0.258819 2
      vertex -1.44889 0.388228 2
      vertex -0.991445 0.130526 2
    endloop
  endfacet
  facet normal 0 0 1
    outer loop
      vertex -0.866025 -0.5 2
      vertex -1.29904 -0.75 2
      vertex -1.19003 -0.913141 2
    endloop
  endfacet
  facet normal -0 0 1
    outer loop
      vertex -1.48717 0.195788 2
      vertex -0.991445 0.130526 2
      vertex -1.44889 0.388228 2
    endloop
  endfacet
  facet normal 0 0 1
    outer loop
      vertex -0.923879 -0.382683 2
      vertex -1.38582 -0.574024 2
      vertex -1.29904 -0.75 2
    endloop
  endfacet
  facet normal 0 0 1
    outer loop
      vertex -0.991445 0.130526 2
      vertex -1.48717 0.195788 2
      vertex -1 0 2
    endloop
  endfacet
  facet normal 0 0 1
    outer loop
      vertex -0.965925 -0.258819 2
      vertex -1.44889 -0.388228 2
      vertex -1.38582 -0.574024 2
    endloop
  endfacet
  facet normal 0 0 1
    outer loop
      vertex -1.5 0 2
      vertex -1 0 2
      vertex -1.48717 0.195788 2
    endloop
  endfacet
  facet normal 0 0 1
    outer loop
      vertex -0.991445 -0.130526 2
      vertex -1.48717 -0.195788 2
      vertex -1.44889 -0.388228 2
    endloop
  endfacet
  facet normal 0 0 1
    outer loop
      vertex -1 0 2
      vertex -1.5 0 2
      vertex -1.48717 -0.195788 2
    endloop
  endfacet
  facet normal 0.946931 0.321438 -1.20452e-19
    outer loop
      vertex 0.965925 0.258819 7
      vertex 0.923879 0.382683 2
      vertex 0.923879 0.382683 7
    endloop
  endfacet
  facet normal 0.946931 0.321438 -1.20452e-19
    outer loop
      vertex 0.923879 0.382683 2
      vertex 0.965925 0.258819 7
      vertex 0.965925 0.258819 2
    endloop
  endfacet
  facet normal 0.980784 0.195097 -3.21641e-19
    outer loop
      vertex 0.991445 0.130526 7
      vertex 0.965925 0.258819 2
      vertex 0.965925 0.258819 7
    endloop
  endfacet
  facet normal 0.980784 0.195097 -3.21641e-19
    outer loop
      vertex 0.965925 0.258819 2
      vertex 0.991445 0.130526 7
      vertex 0.991445 0.130526 2
    endloop
  endfacet
  facet normal 0.195097 -0.980784 0
    outer loop
      vertex 0.130526 -0.991445 2
      vertex 0.258819 -0.965925 7
      vertex 0.130526 -0.991445 7
    endloop
  endfacet
  facet normal 0.195097 -0.980784 0
    outer loop
      vertex 0.258819 -0.965925 7
      vertex 0.130526 -0.991445 2
      vertex 0.258819 -0.965925 2
    endloop
  endfacet
  facet normal -0.659341 -0.751844 0
    outer loop
      vertex -0.707107 -0.707107 2
      vertex -0.608761 -0.793353 7
      vertex -0.707107 -0.707107 7
    endloop
  endfacet
  facet normal -0.659341 -0.751844 -0
    outer loop
      vertex -0.608761 -0.793353 7
      vertex -0.707107 -0.707107 2
      vertex -0.608761 -0.793353 2
    endloop
  endfacet
  facet normal -0.442287 -0.896874 0
    outer loop
      vertex -0.5 -0.866025 2
      vertex -0.382683 -0.923879 7
      vertex -0.5 -0.866025 7
    endloop
  endfacet
  facet normal -0.442287 -0.896874 -0
    outer loop
      vertex -0.382683 -0.923879 7
      vertex -0.5 -0.866025 2
      vertex -0.382683 -0.923879 2
    endloop
  endfacet
  facet normal 0.997859 0.0654022 -2.28645e-20
    outer loop
      vertex 1 0 7
      vertex 0.991445 0.130526 2
      vertex 0.991445 0.130526 7
    endloop
  endfacet
  facet normal 0.997859 0.0654022 -2.28645e-20
    outer loop
      vertex 0.991445 0.130526 2
      vertex 1 0 7
      vertex 1 0 2
    endloop
  endfacet
  facet normal -0.321438 -0.946931 0
    outer loop
      vertex -0.382683 -0.923879 2
      vertex -0.258819 -0.965925 7
      vertex -0.382683 -0.923879 7
    endloop
  endfacet
  facet normal -0.321438 -0.946931 -0
    outer loop
      vertex -0.258819 -0.965925 7
      vertex -0.382683 -0.923879 2
      vertex -0.258819 -0.965925 2
    endloop
  endfacet
  facet normal -0.195097 0.980784 0
    outer loop
      vertex -0.130526 0.991445 2
      vertex -0.258819 0.965925 7
      vertex -0.130526 0.991445 7
    endloop
  endfacet
  facet normal -0.195097 0.980784 0
    outer loop
      vertex -0.258819 0.965925 7
      vertex -0.130526 0.991445 2
      vertex -0.258819 0.965925 2
    endloop
  endfacet
  facet normal 0.946931 -0.321438 1.20452e-19
    outer loop
      vertex 0.923879 -0.382683 7
      vertex 0.965925 -0.258819 2
      vertex 0.965925 -0.258819 7
    endloop
  endfacet
  facet normal 0.946931 -0.321438 1.20452e-19
    outer loop
      vertex 0.965925 -0.258819 2
      vertex 0.923879 -0.382683 7
      vertex 0.923879 -0.382683 2
    endloop
  endfacet
  facet normal 0.896874 0.442287 3.61055e-19
    outer loop
      vertex 0.923879 0.382683 7
      vertex 0.866025 0.5 2
      vertex 0.866025 0.5 7
    endloop
  endfacet
  facet normal 0.896874 0.442287 3.61055e-19
    outer loop
      vertex 0.866025 0.5 2
      vertex 0.923879 0.382683 7
      vertex 0.923879 0.382683 2
    endloop
  endfacet
  facet normal 0.0654022 0.997859 -0
    outer loop
      vertex 0.130526 0.991445 2
      vertex 0 1 7
      vertex 0.130526 0.991445 7
    endloop
  endfacet
  facet normal 0.0654022 0.997859 0
    outer loop
      vertex 0 1 7
      vertex 0.130526 0.991445 2
      vertex 0 1 2
    endloop
  endfacet
  facet normal 0.751844 0.659341 -7.38523e-19
    outer loop
      vertex 0.793353 0.608761 7
      vertex 0.707107 0.707107 2
      vertex 0.707107 0.707107 7
    endloop
  endfacet
  facet normal 0.751844 0.659341 -7.38523e-19
    outer loop
      vertex 0.707107 0.707107 2
      vertex 0.793353 0.608761 7
      vertex 0.793353 0.608761 2
    endloop
  endfacet
  facet normal -0.831469 0.555571 -8.62071e-19
    outer loop
      vertex -0.866025 0.5 2
      vertex -0.793353 0.608761 7
      vertex -0.793353 0.608761 2
    endloop
  endfacet
  facet normal -0.831469 0.555571 -8.62071e-19
    outer loop
      vertex -0.793353 0.608761 7
      vertex -0.866025 0.5 2
      vertex -0.866025 0.5 7
    endloop
  endfacet
  facet normal -0.321438 0.946931 0
    outer loop
      vertex -0.258819 0.965925 2
      vertex -0.382683 0.923879 7
      vertex -0.258819 0.965925 7
    endloop
  endfacet
  facet normal -0.321438 0.946931 0
    outer loop
      vertex -0.382683 0.923879 7
      vertex -0.258819 0.965925 2
      vertex -0.382683 0.923879 2
    endloop
  endfacet
  facet normal -0.980784 0.195097 3.21641e-19
    outer loop
      vertex -0.991445 0.130526 2
      vertex -0.965925 0.258819 7
      vertex -0.965925 0.258819 2
    endloop
  endfacet
  facet normal -0.980784 0.195097 3.21641e-19
    outer loop
      vertex -0.965925 0.258819 7
      vertex -0.991445 0.130526 2
      vertex -0.991445 0.130526 7
    endloop
  endfacet
  facet normal -0.997859 0.0654022 2.28645e-20
    outer loop
      vertex -1 0 2
      vertex -0.991445 0.130526 7
      vertex -0.991445 0.130526 2
    endloop
  endfacet
  facet normal -0.997859 0.0654022 2.28645e-20
    outer loop
      vertex -0.991445 0.130526 7
      vertex -1 0 2
      vertex -1 0 7
    endloop
  endfacet
  facet normal 0.751844 -0.659341 7.38523e-19
    outer loop
      vertex 0.707107 -0.707107 7
      vertex 0.793353 -0.608761 2
      vertex 0.793353 -0.608761 7
    endloop
  endfacet
  facet normal 0.751844 -0.659341 7.38523e-19
    outer loop
      vertex 0.793353 -0.608761 2
      vertex 0.707107 -0.707107 7
      vertex 0.707107 -0.707107 2
    endloop
  endfacet
  facet normal 0.980784 -0.195097 3.21641e-19
    outer loop
      vertex 0.965925 -0.258819 7
      vertex 0.991445 -0.130526 2
      vertex 0.991445 -0.130526 7
    endloop
  endfacet
  facet normal 0.980784 -0.195097 3.21641e-19
    outer loop
      vertex 0.991445 -0.130526 2
      vertex 0.965925 -0.258819 7
      vertex 0.965925 -0.258819 2
    endloop
  endfacet
  facet normal 0.831469 -0.555571 -8.62071e-19
    outer loop
      vertex 0.793353 -0.608761 7
      vertex 0.866025 -0.5 2
      vertex 0.866025 -0.5 7
    endloop
  endfacet
  facet normal 0.831469 -0.555571 -8.62071e-19
    outer loop
      vertex 0.866025 -0.5 2
      vertex 0.793353 -0.608761 7
      vertex 0.793353 -0.608761 2
    endloop
  endfacet
  facet normal 0.321438 -0.946931 0
    outer loop
      vertex 0.258819 -0.965925 2
      vertex 0.382683 -0.923879 7
      vertex 0.258819 -0.965925 7
    endloop
  endfacet
  facet normal 0.321438 -0.946931 0
    outer loop
      vertex 0.382683 -0.923879 7
      vertex 0.258819 -0.965925 2
      vertex 0.382683 -0.923879 2
    endloop
  endfacet
  facet normal 0.831469 0.555571 8.62071e-19
    outer loop
      vertex 0.866025 0.5 7
      vertex 0.793353 0.608761 2
      vertex 0.793353 0.608761 7
    endloop
  endfacet
  facet normal 0.831469 0.555571 8.62071e-19
    outer loop
      vertex 0.793353 0.608761 2
      vertex 0.866025 0.5 7
      vertex 0.866025 0.5 2
    endloop
  endfacet
  facet normal 0.555571 0.831469 -0
    outer loop
      vertex 0.608761 0.793353 2
      vertex 0.5 0.866025 7
      vertex 0.608761 0.793353 7
    endloop
  endfacet
  facet normal 0.555571 0.831469 0
    outer loop
      vertex 0.5 0.866025 7
      vertex 0.608761 0.793353 2
      vertex 0.5 0.866025 2
    endloop
  endfacet
  facet normal 0.0654022 -0.997859 0
    outer loop
      vertex 0 -1 2
      vertex 0.130526 -0.991445 7
      vertex 0 -1 7
    endloop
  endfacet
  facet normal 0.0654022 -0.997859 0
    outer loop
      vertex 0.130526 -0.991445 7
      vertex 0 -1 2
      vertex 0.130526 -0.991445 2
    endloop
  endfacet
  facet normal -0.751844 0.659341 7.38523e-19
    outer loop
      vertex -0.793353 0.608761 2
      vertex -0.707107 0.707107 7
      vertex -0.707107 0.707107 2
    endloop
  endfacet
  facet normal -0.751844 0.659341 7.38523e-19
    outer loop
      vertex -0.707107 0.707107 7
      vertex -0.793353 0.608761 2
      vertex -0.793353 0.608761 7
    endloop
  endfacet
  facet normal 0.442287 0.896874 -0
    outer loop
      vertex 0.5 0.866025 2
      vertex 0.382683 0.923879 7
      vertex 0.5 0.866025 7
    endloop
  endfacet
  facet normal 0.442287 0.896874 0
    outer loop
      vertex 0.382683 0.923879 7
      vertex 0.5 0.866025 2
      vertex 0.382683 0.923879 2
    endloop
  endfacet
  facet normal -0.0654022 0.997859 0
    outer loop
      vertex 0 1 2
      vertex -0.130526 0.991445 7
      vertex 0 1 7
    endloop
  endfacet
  facet normal -0.0654022 0.997859 0
    outer loop
      vertex -0.130526 0.991445 7
      vertex 0 1 2
      vertex -0.130526 0.991445 2
    endloop
  endfacet
  facet normal -0.659341 0.751844 0
    outer loop
      vertex -0.608761 0.793353 2
      vertex -0.707107 0.707107 7
      vertex -0.608761 0.793353 7
    endloop
  endfacet
  facet normal -0.659341 0.751844 0
    outer loop
      vertex -0.707107 0.707107 7
      vertex -0.608761 0.793353 2
      vertex -0.707107 0.707107 2
    endloop
  endfacet
  facet normal 0.997859 -0.0654022 2.28645e-20
    outer loop
      vertex 0.991445 -0.130526 7
      vertex 1 0 2
      vertex 1 0 7
    endloop
  endfacet
  facet normal 0.997859 -0.0654022 2.28645e-20
    outer loop
      vertex 1 0 2
      vertex 0.991445 -0.130526 7
      vertex 0.991445 -0.130526 2
    endloop
  endfacet
  facet normal -0.442287 0.896874 0
    outer loop
      vertex -0.382683 0.923879 2
      vertex -0.5 0.866025 7
      vertex -0.382683 0.923879 7
    endloop
  endfacet
  facet normal -0.442287 0.896874 0
    outer loop
      vertex -0.5 0.866025 7
      vertex -0.382683 0.923879 2
      vertex -0.5 0.866025 2
    endloop
  endfacet
  facet normal 0.896874 -0.442287 -3.61055e-19
    outer loop
      vertex 0.866025 -0.5 7
      vertex 0.923879 -0.382683 2
      vertex 0.923879 -0.382683 7
    endloop
  endfacet
  facet normal 0.896874 -0.442287 -3.61055e-19
    outer loop
      vertex 0.923879 -0.382683 2
      vertex 0.866025 -0.5 7
      vertex 0.866025 -0.5 2
    endloop
  endfacet
  facet normal 0.321438 0.946931 -0
    outer loop
      vertex 0.382683 0.923879 2
      vertex 0.258819 0.965925 7
      vertex 0.382683 0.923879 7
    endloop
  endfacet
  facet normal 0.321438 0.946931 0
    outer loop
      vertex 0.258819 0.965925 7
      vertex 0.382683 0.923879 2
      vertex 0.258819 0.965925 2
    endloop
  endfacet
  facet normal -0.896874 -0.442287 3.61055e-19
    outer loop
      vertex -0.866025 -0.5 2
      vertex -0.923879 -0.382683 7
      vertex -0.923879 -0.382683 2
    endloop
  endfacet
  facet normal -0.896874 -0.442287 3.61055e-19
    outer loop
      vertex -0.923879 -0.382683 7
      vertex -0.866025 -0.5 2
      vertex -0.866025 -0.5 7
    endloop
  endfacet
  facet normal -0.946931 -0.321438 -1.20452e-19
    outer loop
      vertex -0.923879 -0.382683 2
      vertex -0.965925 -0.258819 7
      vertex -0.965925 -0.258819 2
    endloop
  endfacet
  facet normal -0.946931 -0.321438 -1.20452e-19
    outer loop
      vertex -0.965925 -0.258819 7
      vertex -0.923879 -0.382683 2
      vertex -0.923879 -0.382683 7
    endloop
  endfacet
  facet normal -0.946931 0.321438 1.20452e-19
    outer loop
      vertex -0.965925 0.258819 2
      vertex -0.923879 0.382683 7
      vertex -0.923879 0.382683 2
    endloop
  endfacet
  facet normal -0.946931 0.321438 1.20452e-19
    outer loop
      vertex -0.923879 0.382683 7
      vertex -0.965925 0.258819 2
      vertex -0.965925 0.258819 7
    endloop
  endfacet
  facet normal 0.659341 0.751844 -0
    outer loop
      vertex 0.707107 0.707107 2
      vertex 0.608761 0.793353 7
      vertex 0.707107 0.707107 7
    endloop
  endfacet
  facet normal 0.659341 0.751844 0
    outer loop
      vertex 0.608761 0.793353 7
      vertex 0.707107 0.707107 2
      vertex 0.608761 0.793353 2
    endloop
  endfacet
  facet normal 0.442287 -0.896874 0
    outer loop
      vertex 0.382683 -0.923879 2
      vertex 0.5 -0.866025 7
      vertex 0.382683 -0.923879 7
    endloop
  endfacet
  facet normal 0.442287 -0.896874 0
    outer loop
      vertex 0.5 -0.866025 7
      vertex 0.382683 -0.923879 2
      vertex 0.5 -0.866025 2
    endloop
  endfacet
  facet normal -0.980784 -0.195097 -3.21641e-19
    outer loop
      vertex -0.965925 -0.258819 2
      vertex -0.991445 -0.130526 7
      vertex -0.991445 -0.130526 2
    endloop
  endfacet
  facet normal -0.980784 -0.195097 -3.21641e-19
    outer loop
      vertex -0.991445 -0.130526 7
      vertex -0.965925 -0.258819 2
      vertex -0.965925 -0.258819 7
    endloop
  endfacet
  facet normal 0.555571 -0.831469 0
    outer loop
      vertex 0.5 -0.866025 2
      vertex 0.608761 -0.793353 7
      vertex 0.5 -0.866025 7
    endloop
  endfacet
  facet normal 0.555571 -0.831469 0
    outer loop
      vertex 0.608761 -0.793353 7
      vertex 0.5 -0.866025 2
      vertex 0.608761 -0.793353 2
    endloop
  endfacet
  facet normal -0.0654022 -0.997859 0
    outer loop
      vertex -0.130526 -0.991445 2
      vertex 0 -1 7
      vertex -0.130526 -0.991445 7
    endloop
  endfacet
  facet normal -0.0654022 -0.997859 -0
    outer loop
      vertex 0 -1 7
      vertex -0.130526 -0.991445 2
      vertex 0 -1 2
    endloop
  endfacet
  facet normal -0.555571 0.831469 0
    outer loop
      vertex -0.5 0.866025 2
      vertex -0.608761 0.793353 7
      vertex -0.5 0.866025 7
    endloop
  endfacet
  facet normal -0.555571 0.831469 0
    outer loop
      vertex -0.608761 0.793353 7
      vertex -0.5 0.866025 2
      vertex -0.608761 0.793353 2
    endloop
  endfacet
  facet normal -0.831469 -0.555571 8.62071e-19
    outer loop
      vertex -0.793353 -0.608761 2
      vertex -0.866025 -0.5 7
      vertex -0.866025 -0.5 2
    endloop
  endfacet
  facet normal -0.831469 -0.555571 8.62071e-19
    outer loop
      vertex -0.866025 -0.5 7
      vertex -0.793353 -0.608761 2
      vertex -0.793353 -0.608761 7
    endloop
  endfacet
  facet normal -0.751844 -0.659341 -7.38523e-19
    outer loop
      vertex -0.707107 -0.707107 2
      vertex -0.793353 -0.608761 7
      vertex -0.793353 -0.608761 2
    endloop
  endfacet
  facet normal -0.751844 -0.659341 -7.38523e-19
    outer loop
      vertex -0.793353 -0.608761 7
      vertex -0.707107 -0.707107 2
      vertex -0.707107 -0.707107 7
    endloop
  endfacet
  facet normal -0.997859 -0.0654022 -2.28645e-20
    outer loop
      vertex -0.991445 -0.130526 2
      vertex -1 0 7
      vertex -1 0 2
    endloop
  endfacet
  facet normal -0.997859 -0.0654022 -2.28645e-20
    outer loop
      vertex -1 0 7
      vertex -0.991445 -0.130526 2
      vertex -0.991445 -0.130526 7
    endloop
  endfacet
  facet normal 0.659341 -0.751844 0
    outer loop
      vertex 0.608761 -0.793353 2
      vertex 0.707107 -0.707107 7
      vertex 0.608761 -0.793353 7
    endloop
  endfacet
  facet normal 0.659341 -0.751844 0
    outer loop
      vertex 0.707107 -0.707107 7
      vertex 0.608761 -0.793353 2
      vertex 0.707107 -0.707107 2
    endloop
  endfacet
  facet normal 0.195097 0.980784 -0
    outer loop
      vertex 0.258819 0.965925 2
      vertex 0.130526 0.991445 7
      vertex 0.258819 0.965925 7
    endloop
  endfacet
  facet normal 0.195097 0.980784 0
    outer loop
      vertex 0.130526 0.991445 7
      vertex 0.258819 0.965925 2
      vertex 0.130526 0.991445 2
    endloop
  endfacet
  facet normal -0.896874 0.442287 -3.61055e-19
    outer loop
      vertex -0.923879 0.382683 2
      vertex -0.866025 0.5 7
      vertex -0.866025 0.5 2
    endloop
  endfacet
  facet normal -0.896874 0.442287 -3.61055e-19
    outer loop
      vertex -0.866025 0.5 7
      vertex -0.923879 0.382683 2
      vertex -0.923879 0.382683 7
    endloop
  endfacet
  facet normal -0.555571 -0.831469 0
    outer loop
      vertex -0.608761 -0.793353 2
      vertex -0.5 -0.866025 7
      vertex -0.608761 -0.793353 7
    endloop
  endfacet
  facet normal -0.555571 -0.831469 -0
    outer loop
      vertex -0.5 -0.866025 7
      vertex -0.608761 -0.793353 2
      vertex -0.5 -0.866025 2
    endloop
  endfacet
  facet normal -0.195097 -0.980784 0
    outer loop
      vertex -0.258819 -0.965925 2
      vertex -0.130526 -0.991445 7
      vertex -0.258819 -0.965925 7
    endloop
  endfacet
  facet normal -0.195097 -0.980784 -0
    outer loop
      vertex -0.130526 -0.991445 7
      vertex -0.258819 -0.965925 2
      vertex -0.130526 -0.991445 2
    endloop
  endfacet
  facet normal 0 0 1
    outer loop
      vertex 0.991445 0.130526 7
      vertex 0.991445 -0.130526 7
      vertex 1 0 7
    endloop
  endfacet
  facet normal 0 0 1
    outer loop
      vertex 0.965925 0.258819 7
      vertex 0.991445 -0.130526 7
      vertex 0.991445 0.130526 7
    endloop
  endfacet
  facet normal 0 0 1
    outer loop
      vertex 0.965925 0.258819 7
      vertex 0.965925 -0.258819 7
      vertex 0.991445 -0.130526 7
    endloop
  endfacet
  facet normal 0 0 1
    outer loop
      vertex 0.923879 0.382683 7
      vertex 0.965925 -0.258819 7
      vertex 0.965925 0.258819 7
    endloop
  endfacet
  facet normal 0 0 1
    outer loop
      vertex 0.923879 0.382683 7
      vertex 0.923879 -0.382683 7
      vertex 0.965925 -0.258819 7
    endloop
  endfacet
  facet normal 0 0 1
    outer loop
      vertex 0.866025 0.5 7
      vertex 0.923879 -0.382683 7
      vertex 0.923879 0.382683 7
    endloop
  endfacet
  facet normal 0 0 1
    outer loop
      vertex 0.866025 0.5 7
      vertex 0.866025 -0.5 7
      vertex 0.923879 -0.382683 7
    endloop
  endfacet
  facet normal 0 0 1
    outer loop
      vertex 0.793353 0.608761 7
      vertex 0.866025 -0.5 7
      vertex 0.866025 0.5 7
    endloop
  endfacet
  facet normal 0 0 1
    outer loop
      vertex 0.793353 0.608761 7
      vertex 0.793353 -0.608761 7
      vertex 0.866025 -0.5 7
    endloop
  endfacet
  facet normal 0 0 1
    outer loop
      vertex 0.707107 0.707107 7
      vertex 0.793353 -0.608761 7
      vertex 0.793353 0.608761 7
    endloop
  endfacet
  facet normal 0 0 1
    outer loop
      vertex 0.707107 0.707107 7
      vertex 0.707107 -0.707107 7
      vertex 0.793353 -0.608761 7
    endloop
  endfacet
  facet normal 0 0 1
    outer loop
      vertex 0.608761 0.793353 7
      vertex 0.707107 -0.707107 7
      vertex 0.707107 0.707107 7
    endloop
  endfacet
  facet normal 0 0 1
    outer loop
      vertex 0.608761 0.793353 7
      vertex 0.608761 -0.793353 7
      vertex 0.707107 -0.707107 7
    endloop
  endfacet
  facet normal 0 0 1
    outer loop
      vertex 0.5 0.866025 7
      vertex 0.608761 -0.793353 7
      vertex 0.608761 0.793353 7
    endloop
  endfacet
  facet normal 0 0 1
    outer loop
      vertex 0.5 0.866025 7
      vertex 0.5 -0.866025 7
      vertex 0.608761 -0.793353 7
    endloop
  endfacet
  facet normal 0 0 1
    outer loop
      vertex 0.382683 0.923879 7
      vertex 0.5 -0.866025 7
      vertex 0.5 0.866025 7
    endloop
  endfacet
  facet normal 0 0 1
    outer loop
      vertex 0.382683 0.923879 7
      vertex 0.382683 -0.923879 7
      vertex 0.5 -0.866025 7
    endloop
  endfacet
  facet normal 0 0 1
    outer loop
      vertex 0.258819 0.965925 7
      vertex 0.382683 -0.923879 7
      vertex 0.382683 0.923879 7
    endloop
  endfacet
  facet normal 0 0 1
    outer loop
      vertex 0.258819 0.965925 7
      vertex 0.258819 -0.965925 7
      vertex 0.382683 -0.923879 7
    endloop
  endfacet
  facet normal 0 0 1
    outer loop
      vertex 0.130526 0.991445 7
      vertex 0.258819 -0.965925 7
      vertex 0.258819 0.965925 7
    endloop
  endfacet
  facet normal 0 0 1
    outer loop
      vertex 0.130526 0.991445 7
      vertex 0.130526 -0.991445 7
      vertex 0.258819 -0.965925 7
    endloop
  endfacet
  facet normal 0 0 1
    outer loop
      vertex 0 1 7
      vertex 0.130526 -0.991445 7
      vertex 0.130526 0.991445 7
    endloop
  endfacet
  facet normal 0 0 1
    outer loop
      vertex 0 1 7
      vertex 0 -1 7
      vertex 0.130526 -0.991445 7
    endloop
  endfacet
  facet normal -0 0 1
    outer loop
      vertex -0.130526 0.991445 7
      vertex 0 -1 7
      vertex 0 1 7
    endloop
  endfacet
  facet normal 0 0 1
    outer loop
      vertex -0.130526 0.991445 7
      vertex -0.130526 -0.991445 7
      vertex 0 -1 7
    endloop
  endfacet
  facet normal -0 0 1
    outer loop
      vertex -0.258819 0.965925 7
      vertex -0.130526 -0.991445 7
      vertex -0.130526 0.991445 7
    endloop
  endfacet
  facet normal 0 0 1
    outer loop
      vertex -0.258819 0.965925 7
      vertex -0.258819 -0.965925 7
      vertex -0.130526 -0.991445 7
    endloop
  endfacet
  facet normal -0 0 1
    outer loop
      vertex -0.382683 0.923879 7
      vertex -0.258819 -0.965925 7
      vertex -0.258819 0.965925 7
    endloop
  endfacet
  facet normal 0 0 1
    outer loop
      vertex -0.382683 0.923879 7
      vertex -0.382683 -0.923879 7
      vertex -0.258819 -0.965925 7
    endloop
  endfacet
  facet normal -0 0 1
    outer loop
      vertex -0.5 0.866025 7
      vertex -0.382683 -0.923879 7
      vertex -0.382683 0.923879 7
    endloop
  endfacet
  facet normal 0 0 1
    outer loop
      vertex -0.5 0.866025 7
      vertex -0.5 -0.866025 7
      vertex -0.382683 -0.923879 7
    endloop
  endfacet
  facet normal -0 0 1
    outer loop
      vertex -0.608761 0.793353 7
      vertex -0.5 -0.866025 7
      vertex -0.5 0.866025 7
    endloop
  endfacet
  facet normal 0 0 1
    outer loop
      vertex -0.608761 0.793353 7
      vertex -0.608761 -0.793353 7
      vertex -0.5 -0.866025 7
    endloop
  endfacet
  facet normal -0 0 1
    outer loop
      vertex -0.707107 0.707107 7
      vertex -0.608761 -0.793353 7
      vertex -0.608761 0.793353 7
    endloop
  endfacet
  facet normal 0 0 1
    outer loop
      vertex -0.707107 0.707107 7
      vertex -0.707107 -0.707107 7
      vertex -0.608761 -0.793353 7
    endloop
  endfacet
  facet normal -0 0 1
    outer loop
      vertex -0.793353 0.608761 7
      vertex -0.707107 -0.707107 7
      vertex -0.707107 0.707107 7
    endloop
  endfacet
  facet normal 0 0 1
    outer loop
      vertex -0.793353 0.608761 7
      vertex -0.793353 -0.608761 7
      vertex -0.707107 -0.707107 7
    endloop
  endfacet
  facet normal -0 0 1
    outer loop
      vertex -0.866025 0.5 7
      vertex -0.793353 -0.608761 7
      vertex -0.793353 0.608761 7
    endloop
  endfacet
  facet normal 0 0 1
    outer loop
      vertex -0.866025 0.5 7
      vertex -0.866025 -0.5 7
      vertex -0.793353 -0.608761 7
    endloop
  endfacet
  facet normal -0 0 1
    outer loop
      vertex -0.923879 0.382683 7
      vertex -0.866025 -0.5 7
      vertex -0.866025 0.5 7
    endloop
  endfacet
  facet normal 0 0 1
    outer loop
      vertex -0.923879 0.382683 7
      vertex -0.923879 -0.382683 7
      vertex -0.866025 -0.5 7
    endloop
  endfacet
  facet normal -0 0 1
    outer loop
      vertex -0.965925 0.258819 7
      vertex -0.923879 -0.382683 7
      vertex -0.923879 0.382683 7
    endloop
  endfacet
  facet normal 0 0 1
    outer loop
      vertex -0.965925 0.258819 7
      vertex -0.965925 -0.258819 7
      vertex -0.923879 -0.382683 7
    endloop
  endfacet
  facet normal -0 0 1
    outer loop
      vertex -0.991445 0.130526 7
      vertex -0.965925 -0.258819 7
      vertex -0.965925 0.258819 7
    endloop
  endfacet
  facet normal 0 0 1
    outer loop
      vertex -0.991445 0.130526 7
      vertex -0.991445 -0.130526 7
      vertex -0.965925 -0.258819 7
    endloop
  endfacet
  facet normal 0 -0 1
    outer loop
      vertex -0.991445 -0.130526 7
      vertex -0.991445 0.130526 7
      vertex -1 0 7
    endloop
  endfacet
endsolid OpenSCAD_Model
