solid OpenSCAD_Model
  facet normal -1 0 0
    outer loop
      vertex 0 0 0
      vertex 0 80 200
      vertex 0 80 0
    endloop
  endfacet
  facet normal -1 -0 0
    outer loop
      vertex 0 80 200
      vertex 0 0 0
      vertex 0 0 200
    endloop
  endfacet
  facet normal -0 0 1
    outer loop
      vertex 0.5 20.5 200
      vertex 19.5 19.5 200
      vertex 19.5 20.5 200
    endloop
  endfacet
  facet normal 0 0 1
    outer loop
      vertex 19.5 19.5 200
      vertex 0.5 20.5 200
      vertex 0.5 19.5 200
    endloop
  endfacet
  facet normal -0 0 1
    outer loop
      vertex 0.5 40.5 200
      vertex 19.5 39.5 200
      vertex 19.5 40.5 200
    endloop
  endfacet
  facet normal 0 0 1
    outer loop
      vertex 19.5 39.5 200
      vertex 0.5 40.5 200
      vertex 0.5 39.5 200
    endloop
  endfacet
  facet normal -0 0 1
    outer loop
      vertex 0.5 60.5 200
      vertex 19.5 59.5 200
      vertex 19.5 60.5 200
    endloop
  endfacet
  facet normal 0 0 1
    outer loop
      vertex 19.5 59.5 200
      vertex 0.5 60.5 200
      vertex 0.5 59.5 200
    endloop
  endfacet
  facet normal -0 0 1
    outer loop
      vertex 20.5 20.5 200
      vertex 39.5 19.5 200
      vertex 39.5 20.5 200
    endloop
  endfacet
  facet normal 0 0 1
    outer loop
      vertex 39.5 19.5 200
      vertex 20.5 20.5 200
      vertex 20.5 19.5 200
    endloop
  endfacet
  facet normal -0 0 1
    outer loop
      vertex 20.5 40.5 200
      vertex 39.5 39.5 200
      vertex 39.5 40.5 200
    endloop
  endfacet
  facet normal 0 0 1
    outer loop
      vertex 39.5 39.5 200
      vertex 20.5 40.5 200
      vertex 20.5 39.5 200
    endloop
  endfacet
  facet normal -0 0 1
    outer loop
      vertex 20.5 60.5 200
      vertex 39.5 59.5 200
      vertex 39.5 60.5 200
    endloop
  endfacet
  facet normal 0 0 1
    outer loop
      vertex 39.5 59.5 200
      vertex 20.5 60.5 200
      vertex 20.5 59.5 200
    endloop
  endfacet
  facet normal -0 0 1
    outer loop
      vertex 40.5 20.5 200
      vertex 59.5 19.5 200
      vertex 59.5 20.5 200
    endloop
  endfacet
  facet normal 0 0 1
    outer loop
      vertex 59.5 19.5 200
      vertex 40.5 20.5 200
      vertex 40.5 19.5 200
    endloop
  endfacet
  facet normal -0 0 1
    outer loop
      vertex 40.5 40.5 200
      vertex 59.5 39.5 200
      vertex 59.5 40.5 200
    endloop
  endfacet
  facet normal 0 0 1
    outer loop
      vertex 59.5 39.5 200
      vertex 40.5 40.5 200
      vertex 40.5 39.5 200
    endloop
  endfacet
  facet normal -0 0 1
    outer loop
      vertex 40.5 60.5 200
      vertex 59.5 59.5 200
      vertex 59.5 60.5 200
    endloop
  endfacet
  facet normal 0 0 1
    outer loop
      vertex 59.5 59.5 200
      vertex 40.5 60.5 200
      vertex 40.5 59.5 200
    endloop
  endfacet
  facet normal -0 0 1
    outer loop
      vertex 60.5 20.5 200
      vertex 79.5 19.5 200
      vertex 79.5 20.5 200
    endloop
  endfacet
  facet normal 0 0 1
    outer loop
      vertex 79.5 19.5 200
      vertex 60.5 20.5 200
      vertex 60.5 19.5 200
    endloop
  endfacet
  facet normal -0 0 1
    outer loop
      vertex 60.5 40.5 200
      vertex 79.5 39.5 200
      vertex 79.5 40.5 200
    endloop
  endfacet
  facet normal 0 0 1
    outer loop
      vertex 79.5 39.5 200
      vertex 60.5 40.5 200
      vertex 60.5 39.5 200
    endloop
  endfacet
  facet normal -0 0 1
    outer loop
      vertex 60.5 60.5 200
      vertex 79.5 59.5 200
      vertex 79.5 60.5 200
    endloop
  endfacet
  facet normal 0 0 1
    outer loop
      vertex 79.5 59.5 200
      vertex 60.5 60.5 200
      vertex 60.5 59.5 200
    endloop
  endfacet
  facet normal 0 0 1
    outer loop
      vertex 79.5 60.5 200
      vertex 80 80 200
      vertex 79.5 79.5 200
    endloop
  endfacet
  facet normal 0 0 1
    outer loop
      vertex 80 80 200
      vertex 60.5 79.5 200
      vertex 79.5 79.5 200
    endloop
  endfacet
  facet normal 0 0 1
    outer loop
      vertex 59.5 60.5 200
      vertex 60.5 60.5 200
      vertex 60.5 79.5 200
    endloop
  endfacet
  facet normal 0 0 1
    outer loop
      vertex 60.5 60.5 200
      vertex 59.5 60.5 200
      vertex 60.5 59.5 200
    endloop
  endfacet
  facet normal 0 0 1
    outer loop
      vertex 60.5 59.5 200
      vertex 59.5 59.5 200
      vertex 60.5 40.5 200
    endloop
  endfacet
  facet normal 0 0 1
    outer loop
      vertex 59.5 40.5 200
      vertex 60.5 40.5 200
      vertex 59.5 59.5 200
    endloop
  endfacet
  facet normal 0 0 1
    outer loop
      vertex 59.5 39.5 200
      vertex 60.5 39.5 200
      vertex 59.5 40.5 200
    endloop
  endfacet
  facet normal 0 0 1
    outer loop
      vertex 60.5 39.5 200
      vertex 59.5 39.5 200
      vertex 60.5 20.5 200
    endloop
  endfacet
  facet normal 0 0 1
    outer loop
      vertex 59.5 60.5 200
      vertex 60.5 79.5 200
      vertex 59.5 79.5 200
    endloop
  endfacet
  facet normal 0 0 1
    outer loop
      vertex 80 80 200
      vertex 59.5 79.5 200
      vertex 60.5 79.5 200
    endloop
  endfacet
  facet normal 0 0 1
    outer loop
      vertex 80 80 200
      vertex 40.5 79.5 200
      vertex 59.5 79.5 200
    endloop
  endfacet
  facet normal 0 0 1
    outer loop
      vertex 39.5 60.5 200
      vertex 40.5 60.5 200
      vertex 40.5 79.5 200
    endloop
  endfacet
  facet normal 0 0 1
    outer loop
      vertex 40.5 60.5 200
      vertex 39.5 60.5 200
      vertex 40.5 59.5 200
    endloop
  endfacet
  facet normal 0 0 1
    outer loop
      vertex 40.5 59.5 200
      vertex 39.5 59.5 200
      vertex 40.5 40.5 200
    endloop
  endfacet
  facet normal 0 0 1
    outer loop
      vertex 39.5 40.5 200
      vertex 40.5 40.5 200
      vertex 39.5 59.5 200
    endloop
  endfacet
  facet normal 0 0 1
    outer loop
      vertex 39.5 39.5 200
      vertex 40.5 39.5 200
      vertex 39.5 40.5 200
    endloop
  endfacet
  facet normal 0 0 1
    outer loop
      vertex 40.5 39.5 200
      vertex 39.5 39.5 200
      vertex 40.5 20.5 200
    endloop
  endfacet
  facet normal 0 0 1
    outer loop
      vertex 39.5 60.5 200
      vertex 40.5 79.5 200
      vertex 39.5 79.5 200
    endloop
  endfacet
  facet normal 0 0 1
    outer loop
      vertex 80 80 200
      vertex 39.5 79.5 200
      vertex 40.5 79.5 200
    endloop
  endfacet
  facet normal -0 0 1
    outer loop
      vertex 0 80 200
      vertex 39.5 79.5 200
      vertex 80 80 200
    endloop
  endfacet
  facet normal 0 0 1
    outer loop
      vertex 19.5 60.5 200
      vertex 20.5 60.5 200
      vertex 20.5 79.5 200
    endloop
  endfacet
  facet normal 0 0 1
    outer loop
      vertex 20.5 60.5 200
      vertex 19.5 60.5 200
      vertex 20.5 59.5 200
    endloop
  endfacet
  facet normal 0 0 1
    outer loop
      vertex 20.5 59.5 200
      vertex 19.5 59.5 200
      vertex 20.5 40.5 200
    endloop
  endfacet
  facet normal 0 0 1
    outer loop
      vertex 19.5 40.5 200
      vertex 20.5 40.5 200
      vertex 19.5 59.5 200
    endloop
  endfacet
  facet normal 0 0 1
    outer loop
      vertex 19.5 39.5 200
      vertex 20.5 39.5 200
      vertex 19.5 40.5 200
    endloop
  endfacet
  facet normal 0 0 1
    outer loop
      vertex 20.5 39.5 200
      vertex 19.5 39.5 200
      vertex 20.5 20.5 200
    endloop
  endfacet
  facet normal 0 0 1
    outer loop
      vertex 19.5 60.5 200
      vertex 20.5 79.5 200
      vertex 19.5 79.5 200
    endloop
  endfacet
  facet normal 0 0 1
    outer loop
      vertex 39.5 79.5 200
      vertex 0 80 200
      vertex 20.5 79.5 200
    endloop
  endfacet
  facet normal 0 0 1
    outer loop
      vertex 20.5 79.5 200
      vertex 0 80 200
      vertex 19.5 79.5 200
    endloop
  endfacet
  facet normal 0 0 1
    outer loop
      vertex 0 80 200
      vertex 0.5 60.5 200
      vertex 0.5 79.5 200
    endloop
  endfacet
  facet normal 0 0 1
    outer loop
      vertex 0.5 60.5 200
      vertex 0 80 200
      vertex 0.5 59.5 200
    endloop
  endfacet
  facet normal 0 0 1
    outer loop
      vertex 0.5 59.5 200
      vertex 0 80 200
      vertex 0.5 40.5 200
    endloop
  endfacet
  facet normal 0 0 1
    outer loop
      vertex 0.5 40.5 200
      vertex 0 80 200
      vertex 0.5 39.5 200
    endloop
  endfacet
  facet normal 0 0 1
    outer loop
      vertex 0 0 200
      vertex 0.5 39.5 200
      vertex 0 80 200
    endloop
  endfacet
  facet normal 0 0 1
    outer loop
      vertex 0.5 39.5 200
      vertex 0 0 200
      vertex 0.5 20.5 200
    endloop
  endfacet
  facet normal 0 0 1
    outer loop
      vertex 0.5 20.5 200
      vertex 0 0 200
      vertex 0.5 19.5 200
    endloop
  endfacet
  facet normal 0 0 1
    outer loop
      vertex 19.5 79.5 200
      vertex 0 80 200
      vertex 0.5 79.5 200
    endloop
  endfacet
  facet normal 0 0 1
    outer loop
      vertex 79.5 59.5 200
      vertex 80 80 200
      vertex 79.5 60.5 200
    endloop
  endfacet
  facet normal 0 0 1
    outer loop
      vertex 79.5 40.5 200
      vertex 80 80 200
      vertex 79.5 59.5 200
    endloop
  endfacet
  facet normal 0 0 1
    outer loop
      vertex 80 80 200
      vertex 79.5 40.5 200
      vertex 80 0 200
    endloop
  endfacet
  facet normal -0 0 1
    outer loop
      vertex 79.5 39.5 200
      vertex 80 0 200
      vertex 79.5 40.5 200
    endloop
  endfacet
  facet normal -0 0 1
    outer loop
      vertex 79.5 20.5 200
      vertex 80 0 200
      vertex 79.5 39.5 200
    endloop
  endfacet
  facet normal -0 0 1
    outer loop
      vertex 79.5 19.5 200
      vertex 80 0 200
      vertex 79.5 20.5 200
    endloop
  endfacet
  facet normal -0 0 1
    outer loop
      vertex 79.5 0.5 200
      vertex 80 0 200
      vertex 79.5 19.5 200
    endloop
  endfacet
  facet normal -0 0 1
    outer loop
      vertex 60.5 0.5 200
      vertex 80 0 200
      vertex 79.5 0.5 200
    endloop
  endfacet
  facet normal 0 0 1
    outer loop
      vertex 60.5 59.5 200
      vertex 59.5 60.5 200
      vertex 59.5 59.5 200
    endloop
  endfacet
  facet normal 0 0 1
    outer loop
      vertex 60.5 40.5 200
      vertex 59.5 40.5 200
      vertex 60.5 39.5 200
    endloop
  endfacet
  facet normal 0 0 1
    outer loop
      vertex 59.5 20.5 200
      vertex 60.5 20.5 200
      vertex 59.5 39.5 200
    endloop
  endfacet
  facet normal 0 0 1
    outer loop
      vertex 60.5 20.5 200
      vertex 59.5 20.5 200
      vertex 60.5 19.5 200
    endloop
  endfacet
  facet normal 0 0 1
    outer loop
      vertex 59.5 19.5 200
      vertex 60.5 19.5 200
      vertex 59.5 20.5 200
    endloop
  endfacet
  facet normal 0 0 1
    outer loop
      vertex 60.5 19.5 200
      vertex 59.5 19.5 200
      vertex 60.5 0.5 200
    endloop
  endfacet
  facet normal 0 0 1
    outer loop
      vertex 59.5 0.5 200
      vertex 60.5 0.5 200
      vertex 59.5 19.5 200
    endloop
  endfacet
  facet normal -0 0 1
    outer loop
      vertex 59.5 0.5 200
      vertex 80 0 200
      vertex 60.5 0.5 200
    endloop
  endfacet
  facet normal -0 0 1
    outer loop
      vertex 40.5 0.5 200
      vertex 80 0 200
      vertex 59.5 0.5 200
    endloop
  endfacet
  facet normal 0 0 1
    outer loop
      vertex 40.5 59.5 200
      vertex 39.5 60.5 200
      vertex 39.5 59.5 200
    endloop
  endfacet
  facet normal 0 0 1
    outer loop
      vertex 40.5 40.5 200
      vertex 39.5 40.5 200
      vertex 40.5 39.5 200
    endloop
  endfacet
  facet normal 0 0 1
    outer loop
      vertex 39.5 20.5 200
      vertex 40.5 20.5 200
      vertex 39.5 39.5 200
    endloop
  endfacet
  facet normal 0 0 1
    outer loop
      vertex 40.5 20.5 200
      vertex 39.5 20.5 200
      vertex 40.5 19.5 200
    endloop
  endfacet
  facet normal 0 0 1
    outer loop
      vertex 39.5 19.5 200
      vertex 40.5 19.5 200
      vertex 39.5 20.5 200
    endloop
  endfacet
  facet normal 0 0 1
    outer loop
      vertex 40.5 19.5 200
      vertex 39.5 19.5 200
      vertex 40.5 0.5 200
    endloop
  endfacet
  facet normal 0 0 1
    outer loop
      vertex 39.5 0.5 200
      vertex 40.5 0.5 200
      vertex 39.5 19.5 200
    endloop
  endfacet
  facet normal -0 0 1
    outer loop
      vertex 39.5 0.5 200
      vertex 80 0 200
      vertex 40.5 0.5 200
    endloop
  endfacet
  facet normal 0 0 1
    outer loop
      vertex 0 0 200
      vertex 39.5 0.5 200
      vertex 20.5 0.5 200
    endloop
  endfacet
  facet normal 0 0 1
    outer loop
      vertex 20.5 59.5 200
      vertex 19.5 60.5 200
      vertex 19.5 59.5 200
    endloop
  endfacet
  facet normal 0 0 1
    outer loop
      vertex 20.5 40.5 200
      vertex 19.5 40.5 200
      vertex 20.5 39.5 200
    endloop
  endfacet
  facet normal 0 0 1
    outer loop
      vertex 19.5 20.5 200
      vertex 20.5 20.5 200
      vertex 19.5 39.5 200
    endloop
  endfacet
  facet normal 0 0 1
    outer loop
      vertex 20.5 20.5 200
      vertex 19.5 20.5 200
      vertex 20.5 19.5 200
    endloop
  endfacet
  facet normal 0 0 1
    outer loop
      vertex 19.5 19.5 200
      vertex 20.5 19.5 200
      vertex 19.5 20.5 200
    endloop
  endfacet
  facet normal 0 0 1
    outer loop
      vertex 20.5 19.5 200
      vertex 19.5 19.5 200
      vertex 20.5 0.5 200
    endloop
  endfacet
  facet normal 0 0 1
    outer loop
      vertex 19.5 0.5 200
      vertex 20.5 0.5 200
      vertex 19.5 19.5 200
    endloop
  endfacet
  facet normal 0 0 1
    outer loop
      vertex 0 0 200
      vertex 20.5 0.5 200
      vertex 19.5 0.5 200
    endloop
  endfacet
  facet normal 0 0 1
    outer loop
      vertex 0 0 200
      vertex 19.5 0.5 200
      vertex 0.5 0.5 200
    endloop
  endfacet
  facet normal 0 0 1
    outer loop
      vertex 39.5 0.5 200
      vertex 0 0 200
      vertex 80 0 200
    endloop
  endfacet
  facet normal 0 0 1
    outer loop
      vertex 0.5 19.5 200
      vertex 0 0 200
      vertex 0.5 0.5 200
    endloop
  endfacet
  facet normal 0 0 -1
    outer loop
      vertex 0.5 59.5 0
      vertex 19.5 60.5 0
      vertex 19.5 59.5 0
    endloop
  endfacet
  facet normal -0 0 -1
    outer loop
      vertex 19.5 60.5 0
      vertex 0.5 59.5 0
      vertex 0.5 60.5 0
    endloop
  endfacet
  facet normal 0 0 -1
    outer loop
      vertex 0.5 39.5 0
      vertex 19.5 40.5 0
      vertex 19.5 39.5 0
    endloop
  endfacet
  facet normal -0 0 -1
    outer loop
      vertex 19.5 40.5 0
      vertex 0.5 39.5 0
      vertex 0.5 40.5 0
    endloop
  endfacet
  facet normal 0 0 -1
    outer loop
      vertex 0.5 19.5 0
      vertex 19.5 20.5 0
      vertex 19.5 19.5 0
    endloop
  endfacet
  facet normal -0 0 -1
    outer loop
      vertex 19.5 20.5 0
      vertex 0.5 19.5 0
      vertex 0.5 20.5 0
    endloop
  endfacet
  facet normal 0 0 -1
    outer loop
      vertex 20.5 59.5 0
      vertex 39.5 60.5 0
      vertex 39.5 59.5 0
    endloop
  endfacet
  facet normal -0 0 -1
    outer loop
      vertex 39.5 60.5 0
      vertex 20.5 59.5 0
      vertex 20.5 60.5 0
    endloop
  endfacet
  facet normal 0 0 -1
    outer loop
      vertex 20.5 39.5 0
      vertex 39.5 40.5 0
      vertex 39.5 39.5 0
    endloop
  endfacet
  facet normal -0 0 -1
    outer loop
      vertex 39.5 40.5 0
      vertex 20.5 39.5 0
      vertex 20.5 40.5 0
    endloop
  endfacet
  facet normal 0 0 -1
    outer loop
      vertex 20.5 19.5 0
      vertex 39.5 20.5 0
      vertex 39.5 19.5 0
    endloop
  endfacet
  facet normal -0 0 -1
    outer loop
      vertex 39.5 20.5 0
      vertex 20.5 19.5 0
      vertex 20.5 20.5 0
    endloop
  endfacet
  facet normal 0 0 -1
    outer loop
      vertex 40.5 59.5 0
      vertex 59.5 60.5 0
      vertex 59.5 59.5 0
    endloop
  endfacet
  facet normal -0 0 -1
    outer loop
      vertex 59.5 60.5 0
      vertex 40.5 59.5 0
      vertex 40.5 60.5 0
    endloop
  endfacet
  facet normal 0 0 -1
    outer loop
      vertex 40.5 39.5 0
      vertex 59.5 40.5 0
      vertex 59.5 39.5 0
    endloop
  endfacet
  facet normal -0 0 -1
    outer loop
      vertex 59.5 40.5 0
      vertex 40.5 39.5 0
      vertex 40.5 40.5 0
    endloop
  endfacet
  facet normal 0 0 -1
    outer loop
      vertex 40.5 19.5 0
      vertex 59.5 20.5 0
      vertex 59.5 19.5 0
    endloop
  endfacet
  facet normal -0 0 -1
    outer loop
      vertex 59.5 20.5 0
      vertex 40.5 19.5 0
      vertex 40.5 20.5 0
    endloop
  endfacet
  facet normal 0 0 -1
    outer loop
      vertex 60.5 59.5 0
      vertex 79.5 60.5 0
      vertex 79.5 59.5 0
    endloop
  endfacet
  facet normal -0 0 -1
    outer loop
      vertex 79.5 60.5 0
      vertex 60.5 59.5 0
      vertex 60.5 60.5 0
    endloop
  endfacet
  facet normal 0 0 -1
    outer loop
      vertex 60.5 39.5 0
      vertex 79.5 40.5 0
      vertex 79.5 39.5 0
    endloop
  endfacet
  facet normal -0 0 -1
    outer loop
      vertex 79.5 40.5 0
      vertex 60.5 39.5 0
      vertex 60.5 40.5 0
    endloop
  endfacet
  facet normal 0 0 -1
    outer loop
      vertex 60.5 19.5 0
      vertex 79.5 20.5 0
      vertex 79.5 19.5 0
    endloop
  endfacet
  facet normal -0 0 -1
    outer loop
      vertex 79.5 20.5 0
      vertex 60.5 19.5 0
      vertex 60.5 20.5 0
    endloop
  endfacet
  facet normal 0 0 -1
    outer loop
      vertex 79.5 19.5 0
      vertex 80 0 0
      vertex 79.5 0.5 0
    endloop
  endfacet
  facet normal 0 0 -1
    outer loop
      vertex 80 0 0
      vertex 60.5 0.5 0
      vertex 79.5 0.5 0
    endloop
  endfacet
  facet normal 0 0 -1
    outer loop
      vertex 59.5 19.5 0
      vertex 60.5 19.5 0
      vertex 60.5 0.5 0
    endloop
  endfacet
  facet normal 0 0 -1
    outer loop
      vertex 60.5 19.5 0
      vertex 59.5 19.5 0
      vertex 60.5 20.5 0
    endloop
  endfacet
  facet normal 0 0 -1
    outer loop
      vertex 60.5 20.5 0
      vertex 59.5 20.5 0
      vertex 60.5 39.5 0
    endloop
  endfacet
  facet normal 0 0 -1
    outer loop
      vertex 59.5 39.5 0
      vertex 60.5 39.5 0
      vertex 59.5 20.5 0
    endloop
  endfacet
  facet normal 0 0 -1
    outer loop
      vertex 59.5 40.5 0
      vertex 60.5 40.5 0
      vertex 59.5 39.5 0
    endloop
  endfacet
  facet normal 0 0 -1
    outer loop
      vertex 60.5 40.5 0
      vertex 59.5 40.5 0
      vertex 60.5 59.5 0
    endloop
  endfacet
  facet normal 0 0 -1
    outer loop
      vertex 59.5 19.5 0
      vertex 60.5 0.5 0
      vertex 59.5 0.5 0
    endloop
  endfacet
  facet normal 0 0 -1
    outer loop
      vertex 80 0 0
      vertex 59.5 0.5 0
      vertex 60.5 0.5 0
    endloop
  endfacet
  facet normal 0 0 -1
    outer loop
      vertex 80 0 0
      vertex 40.5 0.5 0
      vertex 59.5 0.5 0
    endloop
  endfacet
  facet normal 0 0 -1
    outer loop
      vertex 39.5 19.5 0
      vertex 40.5 19.5 0
      vertex 40.5 0.5 0
    endloop
  endfacet
  facet normal 0 0 -1
    outer loop
      vertex 40.5 19.5 0
      vertex 39.5 19.5 0
      vertex 40.5 20.5 0
    endloop
  endfacet
  facet normal 0 0 -1
    outer loop
      vertex 40.5 20.5 0
      vertex 39.5 20.5 0
      vertex 40.5 39.5 0
    endloop
  endfacet
  facet normal 0 0 -1
    outer loop
      vertex 39.5 39.5 0
      vertex 40.5 39.5 0
      vertex 39.5 20.5 0
    endloop
  endfacet
  facet normal 0 0 -1
    outer loop
      vertex 39.5 40.5 0
      vertex 40.5 40.5 0
      vertex 39.5 39.5 0
    endloop
  endfacet
  facet normal 0 0 -1
    outer loop
      vertex 40.5 40.5 0
      vertex 39.5 40.5 0
      vertex 40.5 59.5 0
    endloop
  endfacet
  facet normal 0 0 -1
    outer loop
      vertex 39.5 19.5 0
      vertex 40.5 0.5 0
      vertex 39.5 0.5 0
    endloop
  endfacet
  facet normal 0 0 -1
    outer loop
      vertex 80 0 0
      vertex 39.5 0.5 0
      vertex 40.5 0.5 0
    endloop
  endfacet
  facet normal 0 0 -1
    outer loop
      vertex 0 0 0
      vertex 39.5 0.5 0
      vertex 80 0 0
    endloop
  endfacet
  facet normal 0 0 -1
    outer loop
      vertex 19.5 19.5 0
      vertex 20.5 19.5 0
      vertex 20.5 0.5 0
    endloop
  endfacet
  facet normal 0 0 -1
    outer loop
      vertex 20.5 19.5 0
      vertex 19.5 19.5 0
      vertex 20.5 20.5 0
    endloop
  endfacet
  facet normal 0 0 -1
    outer loop
      vertex 20.5 20.5 0
      vertex 19.5 20.5 0
      vertex 20.5 39.5 0
    endloop
  endfacet
  facet normal 0 0 -1
    outer loop
      vertex 19.5 39.5 0
      vertex 20.5 39.5 0
      vertex 19.5 20.5 0
    endloop
  endfacet
  facet normal 0 0 -1
    outer loop
      vertex 19.5 40.5 0
      vertex 20.5 40.5 0
      vertex 19.5 39.5 0
    endloop
  endfacet
  facet normal 0 0 -1
    outer loop
      vertex 20.5 40.5 0
      vertex 19.5 40.5 0
      vertex 20.5 59.5 0
    endloop
  endfacet
  facet normal 0 0 -1
    outer loop
      vertex 19.5 19.5 0
      vertex 20.5 0.5 0
      vertex 19.5 0.5 0
    endloop
  endfacet
  facet normal -0 0 -1
    outer loop
      vertex 39.5 0.5 0
      vertex 0 0 0
      vertex 20.5 0.5 0
    endloop
  endfacet
  facet normal -0 0 -1
    outer loop
      vertex 20.5 0.5 0
      vertex 0 0 0
      vertex 19.5 0.5 0
    endloop
  endfacet
  facet normal 0 0 -1
    outer loop
      vertex 0 0 0
      vertex 0.5 19.5 0
      vertex 0.5 0.5 0
    endloop
  endfacet
  facet normal -0 0 -1
    outer loop
      vertex 0.5 19.5 0
      vertex 0 0 0
      vertex 0.5 20.5 0
    endloop
  endfacet
  facet normal -0 0 -1
    outer loop
      vertex 0.5 20.5 0
      vertex 0 0 0
      vertex 0.5 39.5 0
    endloop
  endfacet
  facet normal -0 0 -1
    outer loop
      vertex 0.5 39.5 0
      vertex 0 0 0
      vertex 0.5 40.5 0
    endloop
  endfacet
  facet normal 0 0 -1
    outer loop
      vertex 0 80 0
      vertex 0.5 40.5 0
      vertex 0 0 0
    endloop
  endfacet
  facet normal 0 0 -1
    outer loop
      vertex 0.5 40.5 0
      vertex 0 80 0
      vertex 0.5 59.5 0
    endloop
  endfacet
  facet normal 0 0 -1
    outer loop
      vertex 0.5 59.5 0
      vertex 0 80 0
      vertex 0.5 60.5 0
    endloop
  endfacet
  facet normal -0 0 -1
    outer loop
      vertex 19.5 0.5 0
      vertex 0 0 0
      vertex 0.5 0.5 0
    endloop
  endfacet
  facet normal 0 0 -1
    outer loop
      vertex 79.5 20.5 0
      vertex 80 0 0
      vertex 79.5 19.5 0
    endloop
  endfacet
  facet normal 0 0 -1
    outer loop
      vertex 79.5 39.5 0
      vertex 80 0 0
      vertex 79.5 20.5 0
    endloop
  endfacet
  facet normal 0 0 -1
    outer loop
      vertex 80 0 0
      vertex 79.5 39.5 0
      vertex 80 80 0
    endloop
  endfacet
  facet normal 0 0 -1
    outer loop
      vertex 79.5 40.5 0
      vertex 80 80 0
      vertex 79.5 39.5 0
    endloop
  endfacet
  facet normal 0 0 -1
    outer loop
      vertex 79.5 59.5 0
      vertex 80 80 0
      vertex 79.5 40.5 0
    endloop
  endfacet
  facet normal 0 0 -1
    outer loop
      vertex 79.5 60.5 0
      vertex 80 80 0
      vertex 79.5 59.5 0
    endloop
  endfacet
  facet normal 0 0 -1
    outer loop
      vertex 79.5 79.5 0
      vertex 80 80 0
      vertex 79.5 60.5 0
    endloop
  endfacet
  facet normal 0 0 -1
    outer loop
      vertex 60.5 79.5 0
      vertex 80 80 0
      vertex 79.5 79.5 0
    endloop
  endfacet
  facet normal -0 0 -1
    outer loop
      vertex 60.5 20.5 0
      vertex 59.5 19.5 0
      vertex 59.5 20.5 0
    endloop
  endfacet
  facet normal 0 0 -1
    outer loop
      vertex 60.5 39.5 0
      vertex 59.5 39.5 0
      vertex 60.5 40.5 0
    endloop
  endfacet
  facet normal 0 0 -1
    outer loop
      vertex 59.5 59.5 0
      vertex 60.5 59.5 0
      vertex 59.5 40.5 0
    endloop
  endfacet
  facet normal 0 0 -1
    outer loop
      vertex 60.5 59.5 0
      vertex 59.5 59.5 0
      vertex 60.5 60.5 0
    endloop
  endfacet
  facet normal 0 0 -1
    outer loop
      vertex 59.5 60.5 0
      vertex 60.5 60.5 0
      vertex 59.5 59.5 0
    endloop
  endfacet
  facet normal 0 0 -1
    outer loop
      vertex 60.5 60.5 0
      vertex 59.5 60.5 0
      vertex 60.5 79.5 0
    endloop
  endfacet
  facet normal 0 0 -1
    outer loop
      vertex 59.5 79.5 0
      vertex 60.5 79.5 0
      vertex 59.5 60.5 0
    endloop
  endfacet
  facet normal 0 0 -1
    outer loop
      vertex 59.5 79.5 0
      vertex 80 80 0
      vertex 60.5 79.5 0
    endloop
  endfacet
  facet normal 0 0 -1
    outer loop
      vertex 40.5 79.5 0
      vertex 80 80 0
      vertex 59.5 79.5 0
    endloop
  endfacet
  facet normal -0 0 -1
    outer loop
      vertex 40.5 20.5 0
      vertex 39.5 19.5 0
      vertex 39.5 20.5 0
    endloop
  endfacet
  facet normal 0 0 -1
    outer loop
      vertex 40.5 39.5 0
      vertex 39.5 39.5 0
      vertex 40.5 40.5 0
    endloop
  endfacet
  facet normal 0 0 -1
    outer loop
      vertex 39.5 59.5 0
      vertex 40.5 59.5 0
      vertex 39.5 40.5 0
    endloop
  endfacet
  facet normal 0 0 -1
    outer loop
      vertex 40.5 59.5 0
      vertex 39.5 59.5 0
      vertex 40.5 60.5 0
    endloop
  endfacet
  facet normal 0 0 -1
    outer loop
      vertex 39.5 60.5 0
      vertex 40.5 60.5 0
      vertex 39.5 59.5 0
    endloop
  endfacet
  facet normal 0 0 -1
    outer loop
      vertex 40.5 60.5 0
      vertex 39.5 60.5 0
      vertex 40.5 79.5 0
    endloop
  endfacet
  facet normal 0 0 -1
    outer loop
      vertex 39.5 79.5 0
      vertex 40.5 79.5 0
      vertex 39.5 60.5 0
    endloop
  endfacet
  facet normal 0 0 -1
    outer loop
      vertex 39.5 79.5 0
      vertex 80 80 0
      vertex 40.5 79.5 0
    endloop
  endfacet
  facet normal 0 0 -1
    outer loop
      vertex 0 80 0
      vertex 39.5 79.5 0
      vertex 20.5 79.5 0
    endloop
  endfacet
  facet normal -0 0 -1
    outer loop
      vertex 20.5 20.5 0
      vertex 19.5 19.5 0
      vertex 19.5 20.5 0
    endloop
  endfacet
  facet normal 0 0 -1
    outer loop
      vertex 20.5 39.5 0
      vertex 19.5 39.5 0
      vertex 20.5 40.5 0
    endloop
  endfacet
  facet normal 0 0 -1
    outer loop
      vertex 19.5 59.5 0
      vertex 20.5 59.5 0
      vertex 19.5 40.5 0
    endloop
  endfacet
  facet normal 0 0 -1
    outer loop
      vertex 20.5 59.5 0
      vertex 19.5 59.5 0
      vertex 20.5 60.5 0
    endloop
  endfacet
  facet normal 0 0 -1
    outer loop
      vertex 19.5 60.5 0
      vertex 20.5 60.5 0
      vertex 19.5 59.5 0
    endloop
  endfacet
  facet normal 0 0 -1
    outer loop
      vertex 20.5 60.5 0
      vertex 19.5 60.5 0
      vertex 20.5 79.5 0
    endloop
  endfacet
  facet normal 0 0 -1
    outer loop
      vertex 19.5 79.5 0
      vertex 20.5 79.5 0
      vertex 19.5 60.5 0
    endloop
  endfacet
  facet normal 0 0 -1
    outer loop
      vertex 0 80 0
      vertex 20.5 79.5 0
      vertex 19.5 79.5 0
    endloop
  endfacet
  facet normal 0 0 -1
    outer loop
      vertex 0 80 0
      vertex 19.5 79.5 0
      vertex 0.5 79.5 0
    endloop
  endfacet
  facet normal 0 0 -1
    outer loop
      vertex 39.5 79.5 0
      vertex 0 80 0
      vertex 80 80 0
    endloop
  endfacet
  facet normal 0 0 -1
    outer loop
      vertex 0.5 60.5 0
      vertex 0 80 0
      vertex 0.5 79.5 0
    endloop
  endfacet
  facet normal 0 -1 0
    outer loop
      vertex 0 0 0
      vertex 80 0 200
      vertex 0 0 200
    endloop
  endfacet
  facet normal 0 -1 -0
    outer loop
      vertex 80 0 200
      vertex 0 0 0
      vertex 80 0 0
    endloop
  endfacet
  facet normal 1 -0 0
    outer loop
      vertex 0.5 0.5 200
      vertex 0.5 19.5 0
      vertex 0.5 19.5 200
    endloop
  endfacet
  facet normal 1 0 0
    outer loop
      vertex 0.5 19.5 0
      vertex 0.5 0.5 200
      vertex 0.5 0.5 0
    endloop
  endfacet
  facet normal -1 0 0
    outer loop
      vertex 19.5 0.5 0
      vertex 19.5 19.5 200
      vertex 19.5 19.5 0
    endloop
  endfacet
  facet normal -1 -0 0
    outer loop
      vertex 19.5 19.5 200
      vertex 19.5 0.5 0
      vertex 19.5 0.5 200
    endloop
  endfacet
  facet normal 0 1 -0
    outer loop
      vertex 19.5 0.5 0
      vertex 0.5 0.5 200
      vertex 19.5 0.5 200
    endloop
  endfacet
  facet normal 0 1 0
    outer loop
      vertex 0.5 0.5 200
      vertex 19.5 0.5 0
      vertex 0.5 0.5 0
    endloop
  endfacet
  facet normal 0 -1 0
    outer loop
      vertex 0.5 19.5 0
      vertex 19.5 19.5 200
      vertex 0.5 19.5 200
    endloop
  endfacet
  facet normal 0 -1 -0
    outer loop
      vertex 19.5 19.5 200
      vertex 0.5 19.5 0
      vertex 19.5 19.5 0
    endloop
  endfacet
  facet normal 1 -0 0
    outer loop
      vertex 20.5 0.5 200
      vertex 20.5 19.5 0
      vertex 20.5 19.5 200
    endloop
  endfacet
  facet normal 1 0 0
    outer loop
      vertex 20.5 19.5 0
      vertex 20.5 0.5 200
      vertex 20.5 0.5 0
    endloop
  endfacet
  facet normal -1 0 0
    outer loop
      vertex 39.5 0.5 0
      vertex 39.5 19.5 200
      vertex 39.5 19.5 0
    endloop
  endfacet
  facet normal -1 -0 0
    outer loop
      vertex 39.5 19.5 200
      vertex 39.5 0.5 0
      vertex 39.5 0.5 200
    endloop
  endfacet
  facet normal 0 1 -0
    outer loop
      vertex 39.5 0.5 0
      vertex 20.5 0.5 200
      vertex 39.5 0.5 200
    endloop
  endfacet
  facet normal 0 1 0
    outer loop
      vertex 20.5 0.5 200
      vertex 39.5 0.5 0
      vertex 20.5 0.5 0
    endloop
  endfacet
  facet normal 0 -1 0
    outer loop
      vertex 20.5 19.5 0
      vertex 39.5 19.5 200
      vertex 20.5 19.5 200
    endloop
  endfacet
  facet normal 0 -1 -0
    outer loop
      vertex 39.5 19.5 200
      vertex 20.5 19.5 0
      vertex 39.5 19.5 0
    endloop
  endfacet
  facet normal 1 -0 0
    outer loop
      vertex 40.5 0.5 200
      vertex 40.5 19.5 0
      vertex 40.5 19.5 200
    endloop
  endfacet
  facet normal 1 0 0
    outer loop
      vertex 40.5 19.5 0
      vertex 40.5 0.5 200
      vertex 40.5 0.5 0
    endloop
  endfacet
  facet normal -1 0 0
    outer loop
      vertex 59.5 0.5 0
      vertex 59.5 19.5 200
      vertex 59.5 19.5 0
    endloop
  endfacet
  facet normal -1 -0 0
    outer loop
      vertex 59.5 19.5 200
      vertex 59.5 0.5 0
      vertex 59.5 0.5 200
    endloop
  endfacet
  facet normal 0 1 -0
    outer loop
      vertex 59.5 0.5 0
      vertex 40.5 0.5 200
      vertex 59.5 0.5 200
    endloop
  endfacet
  facet normal 0 1 0
    outer loop
      vertex 40.5 0.5 200
      vertex 59.5 0.5 0
      vertex 40.5 0.5 0
    endloop
  endfacet
  facet normal 0 -1 0
    outer loop
      vertex 40.5 19.5 0
      vertex 59.5 19.5 200
      vertex 40.5 19.5 200
    endloop
  endfacet
  facet normal 0 -1 -0
    outer loop
      vertex 59.5 19.5 200
      vertex 40.5 19.5 0
      vertex 59.5 19.5 0
    endloop
  endfacet
  facet normal 1 -0 0
    outer loop
      vertex 80 0 200
      vertex 80 80 0
      vertex 80 80 200
    endloop
  endfacet
  facet normal 1 0 0
    outer loop
      vertex 80 80 0
      vertex 80 0 200
      vertex 80 0 0
    endloop
  endfacet
  facet normal 1 -0 0
    outer loop
      vertex 60.5 0.5 200
      vertex 60.5 19.5 0
      vertex 60.5 19.5 200
    endloop
  endfacet
  facet normal 1 0 0
    outer loop
      vertex 60.5 19.5 0
      vertex 60.5 0.5 200
      vertex 60.5 0.5 0
    endloop
  endfacet
  facet normal -1 0 0
    outer loop
      vertex 79.5 0.5 0
      vertex 79.5 19.5 200
      vertex 79.5 19.5 0
    endloop
  endfacet
  facet normal -1 -0 0
    outer loop
      vertex 79.5 19.5 200
      vertex 79.5 0.5 0
      vertex 79.5 0.5 200
    endloop
  endfacet
  facet normal 0 1 -0
    outer loop
      vertex 79.5 0.5 0
      vertex 60.5 0.5 200
      vertex 79.5 0.5 200
    endloop
  endfacet
  facet normal 0 1 0
    outer loop
      vertex 60.5 0.5 200
      vertex 79.5 0.5 0
      vertex 60.5 0.5 0
    endloop
  endfacet
  facet normal 0 -1 0
    outer loop
      vertex 60.5 19.5 0
      vertex 79.5 19.5 200
      vertex 60.5 19.5 200
    endloop
  endfacet
  facet normal 0 -1 -0
    outer loop
      vertex 79.5 19.5 200
      vertex 60.5 19.5 0
      vertex 79.5 19.5 0
    endloop
  endfacet
  facet normal 1 -0 0
    outer loop
      vertex 0.5 20.5 200
      vertex 0.5 39.5 0
      vertex 0.5 39.5 200
    endloop
  endfacet
  facet normal 1 0 0
    outer loop
      vertex 0.5 39.5 0
      vertex 0.5 20.5 200
      vertex 0.5 20.5 0
    endloop
  endfacet
  facet normal -1 0 0
    outer loop
      vertex 19.5 20.5 0
      vertex 19.5 39.5 200
      vertex 19.5 39.5 0
    endloop
  endfacet
  facet normal -1 -0 0
    outer loop
      vertex 19.5 39.5 200
      vertex 19.5 20.5 0
      vertex 19.5 20.5 200
    endloop
  endfacet
  facet normal 0 1 -0
    outer loop
      vertex 19.5 20.5 0
      vertex 0.5 20.5 200
      vertex 19.5 20.5 200
    endloop
  endfacet
  facet normal 0 1 0
    outer loop
      vertex 0.5 20.5 200
      vertex 19.5 20.5 0
      vertex 0.5 20.5 0
    endloop
  endfacet
  facet normal 0 -1 0
    outer loop
      vertex 0.5 39.5 0
      vertex 19.5 39.5 200
      vertex 0.5 39.5 200
    endloop
  endfacet
  facet normal 0 -1 -0
    outer loop
      vertex 19.5 39.5 200
      vertex 0.5 39.5 0
      vertex 19.5 39.5 0
    endloop
  endfacet
  facet normal 1 -0 0
    outer loop
      vertex 20.5 20.5 200
      vertex 20.5 39.5 0
      vertex 20.5 39.5 200
    endloop
  endfacet
  facet normal 1 0 0
    outer loop
      vertex 20.5 39.5 0
      vertex 20.5 20.5 200
      vertex 20.5 20.5 0
    endloop
  endfacet
  facet normal -1 0 0
    outer loop
      vertex 39.5 20.5 0
      vertex 39.5 39.5 200
      vertex 39.5 39.5 0
    endloop
  endfacet
  facet normal -1 -0 0
    outer loop
      vertex 39.5 39.5 200
      vertex 39.5 20.5 0
      vertex 39.5 20.5 200
    endloop
  endfacet
  facet normal 0 1 -0
    outer loop
      vertex 39.5 20.5 0
      vertex 20.5 20.5 200
      vertex 39.5 20.5 200
    endloop
  endfacet
  facet normal 0 1 0
    outer loop
      vertex 20.5 20.5 200
      vertex 39.5 20.5 0
      vertex 20.5 20.5 0
    endloop
  endfacet
  facet normal 0 -1 0
    outer loop
      vertex 20.5 39.5 0
      vertex 39.5 39.5 200
      vertex 20.5 39.5 200
    endloop
  endfacet
  facet normal 0 -1 -0
    outer loop
      vertex 39.5 39.5 200
      vertex 20.5 39.5 0
      vertex 39.5 39.5 0
    endloop
  endfacet
  facet normal 1 -0 0
    outer loop
      vertex 40.5 20.5 200
      vertex 40.5 39.5 0
      vertex 40.5 39.5 200
    endloop
  endfacet
  facet normal 1 0 0
    outer loop
      vertex 40.5 39.5 0
      vertex 40.5 20.5 200
      vertex 40.5 20.5 0
    endloop
  endfacet
  facet normal -1 0 0
    outer loop
      vertex 59.5 20.5 0
      vertex 59.5 39.5 200
      vertex 59.5 39.5 0
    endloop
  endfacet
  facet normal -1 -0 0
    outer loop
      vertex 59.5 39.5 200
      vertex 59.5 20.5 0
      vertex 59.5 20.5 200
    endloop
  endfacet
  facet normal 0 1 -0
    outer loop
      vertex 59.5 20.5 0
      vertex 40.5 20.5 200
      vertex 59.5 20.5 200
    endloop
  endfacet
  facet normal 0 1 0
    outer loop
      vertex 40.5 20.5 200
      vertex 59.5 20.5 0
      vertex 40.5 20.5 0
    endloop
  endfacet
  facet normal 0 -1 0
    outer loop
      vertex 40.5 39.5 0
      vertex 59.5 39.5 200
      vertex 40.5 39.5 200
    endloop
  endfacet
  facet normal 0 -1 -0
    outer loop
      vertex 59.5 39.5 200
      vertex 40.5 39.5 0
      vertex 59.5 39.5 0
    endloop
  endfacet
  facet normal 1 -0 0
    outer loop
      vertex 60.5 20.5 200
      vertex 60.5 39.5 0
      vertex 60.5 39.5 200
    endloop
  endfacet
  facet normal 1 0 0
    outer loop
      vertex 60.5 39.5 0
      vertex 60.5 20.5 200
      vertex 60.5 20.5 0
    endloop
  endfacet
  facet normal -1 0 0
    outer loop
      vertex 79.5 20.5 0
      vertex 79.5 39.5 200
      vertex 79.5 39.5 0
    endloop
  endfacet
  facet normal -1 -0 0
    outer loop
      vertex 79.5 39.5 200
      vertex 79.5 20.5 0
      vertex 79.5 20.5 200
    endloop
  endfacet
  facet normal 0 1 -0
    outer loop
      vertex 79.5 20.5 0
      vertex 60.5 20.5 200
      vertex 79.5 20.5 200
    endloop
  endfacet
  facet normal 0 1 0
    outer loop
      vertex 60.5 20.5 200
      vertex 79.5 20.5 0
      vertex 60.5 20.5 0
    endloop
  endfacet
  facet normal 0 -1 0
    outer loop
      vertex 60.5 39.5 0
      vertex 79.5 39.5 200
      vertex 60.5 39.5 200
    endloop
  endfacet
  facet normal 0 -1 -0
    outer loop
      vertex 79.5 39.5 200
      vertex 60.5 39.5 0
      vertex 79.5 39.5 0
    endloop
  endfacet
  facet normal 1 -0 0
    outer loop
      vertex 0.5 40.5 200
      vertex 0.5 59.5 0
      vertex 0.5 59.5 200
    endloop
  endfacet
  facet normal 1 0 0
    outer loop
      vertex 0.5 59.5 0
      vertex 0.5 40.5 200
      vertex 0.5 40.5 0
    endloop
  endfacet
  facet normal -1 0 0
    outer loop
      vertex 19.5 40.5 0
      vertex 19.5 59.5 200
      vertex 19.5 59.5 0
    endloop
  endfacet
  facet normal -1 -0 0
    outer loop
      vertex 19.5 59.5 200
      vertex 19.5 40.5 0
      vertex 19.5 40.5 200
    endloop
  endfacet
  facet normal 0 1 -0
    outer loop
      vertex 19.5 40.5 0
      vertex 0.5 40.5 200
      vertex 19.5 40.5 200
    endloop
  endfacet
  facet normal 0 1 0
    outer loop
      vertex 0.5 40.5 200
      vertex 19.5 40.5 0
      vertex 0.5 40.5 0
    endloop
  endfacet
  facet normal 0 -1 0
    outer loop
      vertex 0.5 59.5 0
      vertex 19.5 59.5 200
      vertex 0.5 59.5 200
    endloop
  endfacet
  facet normal 0 -1 -0
    outer loop
      vertex 19.5 59.5 200
      vertex 0.5 59.5 0
      vertex 19.5 59.5 0
    endloop
  endfacet
  facet normal 1 -0 0
    outer loop
      vertex 20.5 40.5 200
      vertex 20.5 59.5 0
      vertex 20.5 59.5 200
    endloop
  endfacet
  facet normal 1 0 0
    outer loop
      vertex 20.5 59.5 0
      vertex 20.5 40.5 200
      vertex 20.5 40.5 0
    endloop
  endfacet
  facet normal -1 0 0
    outer loop
      vertex 39.5 40.5 0
      vertex 39.5 59.5 200
      vertex 39.5 59.5 0
    endloop
  endfacet
  facet normal -1 -0 0
    outer loop
      vertex 39.5 59.5 200
      vertex 39.5 40.5 0
      vertex 39.5 40.5 200
    endloop
  endfacet
  facet normal 0 1 -0
    outer loop
      vertex 39.5 40.5 0
      vertex 20.5 40.5 200
      vertex 39.5 40.5 200
    endloop
  endfacet
  facet normal 0 1 0
    outer loop
      vertex 20.5 40.5 200
      vertex 39.5 40.5 0
      vertex 20.5 40.5 0
    endloop
  endfacet
  facet normal 0 -1 0
    outer loop
      vertex 20.5 59.5 0
      vertex 39.5 59.5 200
      vertex 20.5 59.5 200
    endloop
  endfacet
  facet normal 0 -1 -0
    outer loop
      vertex 39.5 59.5 200
      vertex 20.5 59.5 0
      vertex 39.5 59.5 0
    endloop
  endfacet
  facet normal 1 -0 0
    outer loop
      vertex 40.5 40.5 200
      vertex 40.5 59.5 0
      vertex 40.5 59.5 200
    endloop
  endfacet
  facet normal 1 0 0
    outer loop
      vertex 40.5 59.5 0
      vertex 40.5 40.5 200
      vertex 40.5 40.5 0
    endloop
  endfacet
  facet normal -1 0 0
    outer loop
      vertex 59.5 40.5 0
      vertex 59.5 59.5 200
      vertex 59.5 59.5 0
    endloop
  endfacet
  facet normal -1 -0 0
    outer loop
      vertex 59.5 59.5 200
      vertex 59.5 40.5 0
      vertex 59.5 40.5 200
    endloop
  endfacet
  facet normal 0 1 -0
    outer loop
      vertex 59.5 40.5 0
      vertex 40.5 40.5 200
      vertex 59.5 40.5 200
    endloop
  endfacet
  facet normal 0 1 0
    outer loop
      vertex 40.5 40.5 200
      vertex 59.5 40.5 0
      vertex 40.5 40.5 0
    endloop
  endfacet
  facet normal 0 -1 0
    outer loop
      vertex 40.5 59.5 0
      vertex 59.5 59.5 200
      vertex 40.5 59.5 200
    endloop
  endfacet
  facet normal 0 -1 -0
    outer loop
      vertex 59.5 59.5 200
      vertex 40.5 59.5 0
      vertex 59.5 59.5 0
    endloop
  endfacet
  facet normal 1 -0 0
    outer loop
      vertex 60.5 40.5 200
      vertex 60.5 59.5 0
      vertex 60.5 59.5 200
    endloop
  endfacet
  facet normal 1 0 0
    outer loop
      vertex 60.5 59.5 0
      vertex 60.5 40.5 200
      vertex 60.5 40.5 0
    endloop
  endfacet
  facet normal -1 0 0
    outer loop
      vertex 79.5 40.5 0
      vertex 79.5 59.5 200
      vertex 79.5 59.5 0
    endloop
  endfacet
  facet normal -1 -0 0
    outer loop
      vertex 79.5 59.5 200
      vertex 79.5 40.5 0
      vertex 79.5 40.5 200
    endloop
  endfacet
  facet normal 0 1 -0
    outer loop
      vertex 79.5 40.5 0
      vertex 60.5 40.5 200
      vertex 79.5 40.5 200
    endloop
  endfacet
  facet normal 0 1 0
    outer loop
      vertex 60.5 40.5 200
      vertex 79.5 40.5 0
      vertex 60.5 40.5 0
    endloop
  endfacet
  facet normal 0 -1 0
    outer loop
      vertex 60.5 59.5 0
      vertex 79.5 59.5 200
      vertex 60.5 59.5 200
    endloop
  endfacet
  facet normal 0 -1 -0
    outer loop
      vertex 79.5 59.5 200
      vertex 60.5 59.5 0
      vertex 79.5 59.5 0
    endloop
  endfacet
  facet normal 0 1 -0
    outer loop
      vertex 80 80 0
      vertex 0 80 200
      vertex 80 80 200
    endloop
  endfacet
  facet normal 0 1 0
    outer loop
      vertex 0 80 200
      vertex 80 80 0
      vertex 0 80 0
    endloop
  endfacet
  facet normal 1 -0 0
    outer loop
      vertex 0.5 60.5 200
      vertex 0.5 79.5 0
      vertex 0.5 79.5 200
    endloop
  endfacet
  facet normal 1 0 0
    outer loop
      vertex 0.5 79.5 0
      vertex 0.5 60.5 200
      vertex 0.5 60.5 0
    endloop
  endfacet
  facet normal -1 0 0
    outer loop
      vertex 19.5 60.5 0
      vertex 19.5 79.5 200
      vertex 19.5 79.5 0
    endloop
  endfacet
  facet normal -1 -0 0
    outer loop
      vertex 19.5 79.5 200
      vertex 19.5 60.5 0
      vertex 19.5 60.5 200
    endloop
  endfacet
  facet normal 0 1 -0
    outer loop
      vertex 19.5 60.5 0
      vertex 0.5 60.5 200
      vertex 19.5 60.5 200
    endloop
  endfacet
  facet normal 0 1 0
    outer loop
      vertex 0.5 60.5 200
      vertex 19.5 60.5 0
      vertex 0.5 60.5 0
    endloop
  endfacet
  facet normal 0 -1 0
    outer loop
      vertex 0.5 79.5 0
      vertex 19.5 79.5 200
      vertex 0.5 79.5 200
    endloop
  endfacet
  facet normal 0 -1 -0
    outer loop
      vertex 19.5 79.5 200
      vertex 0.5 79.5 0
      vertex 19.5 79.5 0
    endloop
  endfacet
  facet normal 1 -0 0
    outer loop
      vertex 20.5 60.5 200
      vertex 20.5 79.5 0
      vertex 20.5 79.5 200
    endloop
  endfacet
  facet normal 1 0 0
    outer loop
      vertex 20.5 79.5 0
      vertex 20.5 60.5 200
      vertex 20.5 60.5 0
    endloop
  endfacet
  facet normal -1 0 0
    outer loop
      vertex 39.5 60.5 0
      vertex 39.5 79.5 200
      vertex 39.5 79.5 0
    endloop
  endfacet
  facet normal -1 -0 0
    outer loop
      vertex 39.5 79.5 200
      vertex 39.5 60.5 0
      vertex 39.5 60.5 200
    endloop
  endfacet
  facet normal 0 1 -0
    outer loop
      vertex 39.5 60.5 0
      vertex 20.5 60.5 200
      vertex 39.5 60.5 200
    endloop
  endfacet
  facet normal 0 1 0
    outer loop
      vertex 20.5 60.5 200
      vertex 39.5 60.5 0
      vertex 20.5 60.5 0
    endloop
  endfacet
  facet normal 0 -1 0
    outer loop
      vertex 20.5 79.5 0
      vertex 39.5 79.5 200
      vertex 20.5 79.5 200
    endloop
  endfacet
  facet normal 0 -1 -0
    outer loop
      vertex 39.5 79.5 200
      vertex 20.5 79.5 0
      vertex 39.5 79.5 0
    endloop
  endfacet
  facet normal 1 -0 0
    outer loop
      vertex 40.5 60.5 200
      vertex 40.5 79.5 0
      vertex 40.5 79.5 200
    endloop
  endfacet
  facet normal 1 0 0
    outer loop
      vertex 40.5 79.5 0
      vertex 40.5 60.5 200
      vertex 40.5 60.5 0
    endloop
  endfacet
  facet normal -1 0 0
    outer loop
      vertex 59.5 60.5 0
      vertex 59.5 79.5 200
      vertex 59.5 79.5 0
    endloop
  endfacet
  facet normal -1 -0 0
    outer loop
      vertex 59.5 79.5 200
      vertex 59.5 60.5 0
      vertex 59.5 60.5 200
    endloop
  endfacet
  facet normal 0 1 -0
    outer loop
      vertex 59.5 60.5 0
      vertex 40.5 60.5 200
      vertex 59.5 60.5 200
    endloop
  endfacet
  facet normal 0 1 0
    outer loop
      vertex 40.5 60.5 200
      vertex 59.5 60.5 0
      vertex 40.5 60.5 0
    endloop
  endfacet
  facet normal 0 -1 0
    outer loop
      vertex 40.5 79.5 0
      vertex 59.5 79.5 200
      vertex 40.5 79.5 200
    endloop
  endfacet
  facet normal 0 -1 -0
    outer loop
      vertex 59.5 79.5 200
      vertex 40.5 79.5 0
      vertex 59.5 79.5 0
    endloop
  endfacet
  facet normal 1 -0 0
    outer loop
      vertex 60.5 60.5 200
      vertex 60.5 79.5 0
      vertex 60.5 79.5 200
    endloop
  endfacet
  facet normal 1 0 0
    outer loop
      vertex 60.5 79.5 0
      vertex 60.5 60.5 200
      vertex 60.5 60.5 0
    endloop
  endfacet
  facet normal -1 0 0
    outer loop
      vertex 79.5 60.5 0
      vertex 79.5 79.5 200
      vertex 79.5 79.5 0
    endloop
  endfacet
  facet normal -1 -0 0
    outer loop
      vertex 79.5 79.5 200
      vertex 79.5 60.5 0
      vertex 79.5 60.5 200
    endloop
  endfacet
  facet normal 0 1 -0
    outer loop
      vertex 79.5 60.5 0
      vertex 60.5 60.5 200
      vertex 79.5 60.5 200
    endloop
  endfacet
  facet normal 0 1 0
    outer loop
      vertex 60.5 60.5 200
      vertex 79.5 60.5 0
      vertex 60.5 60.5 0
    endloop
  endfacet
  facet normal 0 -1 0
    outer loop
      vertex 60.5 79.5 0
      vertex 79.5 79.5 200
      vertex 60.5 79.5 200
    endloop
  endfacet
  facet normal 0 -1 -0
    outer loop
      vertex 79.5 79.5 200
      vertex 60.5 79.5 0
      vertex 79.5 79.5 0
    endloop
  endfacet
endsolid OpenSCAD_Model
