solid OpenSCAD_Model
  facet normal 0 0 -1
    outer loop
      vertex 1 -1.4 7
      vertex 1.8 1.4 7
      vertex 1.8 -1.4 7
    endloop
  endfacet
  facet normal -0 0 -1
    outer loop
      vertex 1.8 1.4 7
      vertex 1 -1.4 7
      vertex 1 1.4 7
    endloop
  endfacet
  facet normal 0 0 -1
    outer loop
      vertex 1.8 0 4
      vertex 2.25 1.2 4
      vertex 2.25 0 4
    endloop
  endfacet
  facet normal -0 0 -1
    outer loop
      vertex 2.25 1.2 4
      vertex 1.8 0 4
      vertex 1.8 1.2 4
    endloop
  endfacet
  facet normal 0 0 1
    outer loop
      vertex 1.8 1.4 4
      vertex 1.35 1.2 4
      vertex 1.8 1.2 4
    endloop
  endfacet
  facet normal 0 0 1
    outer loop
      vertex 1.35 1.2 4
      vertex 1 1.4 4
      vertex 1.35 0 4
    endloop
  endfacet
  facet normal -0 0 1
    outer loop
      vertex 1 1.4 4
      vertex 1.35 1.2 4
      vertex 1.8 1.4 4
    endloop
  endfacet
  facet normal -0 0 1
    outer loop
      vertex 1.35 0 4
      vertex 1.8 -1.4 4
      vertex 1.8 0 4
    endloop
  endfacet
  facet normal 0 0 1
    outer loop
      vertex 1.35 0 4
      vertex 1 -1.4 4
      vertex 1.8 -1.4 4
    endloop
  endfacet
  facet normal 0 0 1
    outer loop
      vertex 1 -1.4 4
      vertex 1.35 0 4
      vertex 1 1.4 4
    endloop
  endfacet
  facet normal 1 -0 0
    outer loop
      vertex 1 -1.4 7
      vertex 1 1.4 4
      vertex 1 1.4 7
    endloop
  endfacet
  facet normal 1 0 0
    outer loop
      vertex 1 1.4 4
      vertex 1 -1.4 7
      vertex 1 -1.4 4
    endloop
  endfacet
  facet normal 0 -1 0
    outer loop
      vertex 1 1.4 4
      vertex 1.8 1.4 7
      vertex 1 1.4 7
    endloop
  endfacet
  facet normal 0 -1 -0
    outer loop
      vertex 1.8 1.4 7
      vertex 1 1.4 4
      vertex 1.8 1.4 4
    endloop
  endfacet
  facet normal 0 1 -0
    outer loop
      vertex 1.8 -1.4 4
      vertex 1 -1.4 7
      vertex 1.8 -1.4 7
    endloop
  endfacet
  facet normal 0 1 0
    outer loop
      vertex 1 -1.4 7
      vertex 1.8 -1.4 4
      vertex 1 -1.4 4
    endloop
  endfacet
  facet normal 0 0 -1
    outer loop
      vertex 1 -1.4 17
      vertex 1.8 1.4 17
      vertex 1.8 -1.4 17
    endloop
  endfacet
  facet normal -0 0 -1
    outer loop
      vertex 1.8 1.4 17
      vertex 1 -1.4 17
      vertex 1 1.4 17
    endloop
  endfacet
  facet normal -0 0 1
    outer loop
      vertex 1 1.4 14
      vertex 1.8 -1.4 14
      vertex 1.8 1.4 14
    endloop
  endfacet
  facet normal 0 0 1
    outer loop
      vertex 1.8 -1.4 14
      vertex 1 1.4 14
      vertex 1 -1.4 14
    endloop
  endfacet
  facet normal 1 -0 0
    outer loop
      vertex 1 -1.4 17
      vertex 1 1.4 14
      vertex 1 1.4 17
    endloop
  endfacet
  facet normal 1 0 0
    outer loop
      vertex 1 1.4 14
      vertex 1 -1.4 17
      vertex 1 -1.4 14
    endloop
  endfacet
  facet normal 0 -1 0
    outer loop
      vertex 1 1.4 14
      vertex 1.8 1.4 17
      vertex 1 1.4 17
    endloop
  endfacet
  facet normal 0 -1 -0
    outer loop
      vertex 1.8 1.4 17
      vertex 1 1.4 14
      vertex 1.8 1.4 14
    endloop
  endfacet
  facet normal 0 1 -0
    outer loop
      vertex 1.8 -1.4 14
      vertex 1 -1.4 17
      vertex 1.8 -1.4 17
    endloop
  endfacet
  facet normal 0 1 0
    outer loop
      vertex 1 -1.4 17
      vertex 1.8 -1.4 14
      vertex 1 -1.4 14
    endloop
  endfacet
  facet normal 0 0 -1
    outer loop
      vertex 1 -1.4 27
      vertex 1.8 1.4 27
      vertex 1.8 -1.4 27
    endloop
  endfacet
  facet normal -0 0 -1
    outer loop
      vertex 1.8 1.4 27
      vertex 1 -1.4 27
      vertex 1 1.4 27
    endloop
  endfacet
  facet normal -0 0 1
    outer loop
      vertex 1 1.4 24
      vertex 1.8 -1.4 24
      vertex 1.8 1.4 24
    endloop
  endfacet
  facet normal 0 0 1
    outer loop
      vertex 1.8 -1.4 24
      vertex 1 1.4 24
      vertex 1 -1.4 24
    endloop
  endfacet
  facet normal 1 -0 0
    outer loop
      vertex 1 -1.4 27
      vertex 1 1.4 24
      vertex 1 1.4 27
    endloop
  endfacet
  facet normal 1 0 0
    outer loop
      vertex 1 1.4 24
      vertex 1 -1.4 27
      vertex 1 -1.4 24
    endloop
  endfacet
  facet normal 0 -1 0
    outer loop
      vertex 1 1.4 24
      vertex 1.8 1.4 27
      vertex 1 1.4 27
    endloop
  endfacet
  facet normal 0 -1 -0
    outer loop
      vertex 1.8 1.4 27
      vertex 1 1.4 24
      vertex 1.8 1.4 24
    endloop
  endfacet
  facet normal 0 1 -0
    outer loop
      vertex 1.8 -1.4 24
      vertex 1 -1.4 27
      vertex 1.8 -1.4 27
    endloop
  endfacet
  facet normal 0 1 0
    outer loop
      vertex 1 -1.4 27
      vertex 1.8 -1.4 24
      vertex 1 -1.4 24
    endloop
  endfacet
  facet normal 0 0 -1
    outer loop
      vertex 1 -1.4 37
      vertex 1.8 1.4 37
      vertex 1.8 -1.4 37
    endloop
  endfacet
  facet normal -0 0 -1
    outer loop
      vertex 1.8 1.4 37
      vertex 1 -1.4 37
      vertex 1 1.4 37
    endloop
  endfacet
  facet normal -0 0 1
    outer loop
      vertex 1 1.4 34
      vertex 1.8 -1.4 34
      vertex 1.8 1.4 34
    endloop
  endfacet
  facet normal 0 0 1
    outer loop
      vertex 1.8 -1.4 34
      vertex 1 1.4 34
      vertex 1 -1.4 34
    endloop
  endfacet
  facet normal 1 -0 0
    outer loop
      vertex 1 -1.4 37
      vertex 1 1.4 34
      vertex 1 1.4 37
    endloop
  endfacet
  facet normal 1 0 0
    outer loop
      vertex 1 1.4 34
      vertex 1 -1.4 37
      vertex 1 -1.4 34
    endloop
  endfacet
  facet normal 0 -1 0
    outer loop
      vertex 1 1.4 34
      vertex 1.8 1.4 37
      vertex 1 1.4 37
    endloop
  endfacet
  facet normal 0 -1 -0
    outer loop
      vertex 1.8 1.4 37
      vertex 1 1.4 34
      vertex 1.8 1.4 34
    endloop
  endfacet
  facet normal 0 1 -0
    outer loop
      vertex 1.8 -1.4 34
      vertex 1 -1.4 37
      vertex 1.8 -1.4 37
    endloop
  endfacet
  facet normal 0 1 0
    outer loop
      vertex 1 -1.4 37
      vertex 1.8 -1.4 34
      vertex 1 -1.4 34
    endloop
  endfacet
  facet normal 0 0 1
    outer loop
      vertex 1.8 1.8 44
      vertex 1 1.4 44
      vertex 1.8 1.4 44
    endloop
  endfacet
  facet normal 0 0 1
    outer loop
      vertex 1 1.4 44
      vertex -1.8 1.8 44
      vertex 1 -1.4 44
    endloop
  endfacet
  facet normal -0 0 1
    outer loop
      vertex -1.8 1.8 44
      vertex 1 1.4 44
      vertex 1.8 1.8 44
    endloop
  endfacet
  facet normal -0 0 1
    outer loop
      vertex 1 -1.4 44
      vertex 1.8 -1.8 44
      vertex 1.8 -1.4 44
    endloop
  endfacet
  facet normal 0 0 1
    outer loop
      vertex 1 -1.4 44
      vertex -1.8 -1.8 44
      vertex 1.8 -1.8 44
    endloop
  endfacet
  facet normal 0 0 1
    outer loop
      vertex -1.8 -1.8 44
      vertex 1 -1.4 44
      vertex -1.8 1.8 44
    endloop
  endfacet
  facet normal -0 0 1
    outer loop
      vertex 1 1.4 44
      vertex 1.8 -1.4 44
      vertex 1.8 1.4 44
    endloop
  endfacet
  facet normal 0 0 1
    outer loop
      vertex 1.8 -1.4 44
      vertex 1 1.4 44
      vertex 1 -1.4 44
    endloop
  endfacet
  facet normal 1 -0 0
    outer loop
      vertex 1.8 -1.4 14
      vertex 1.8 1.4 7
      vertex 1.8 1.4 14
    endloop
  endfacet
  facet normal 1 0 0
    outer loop
      vertex 1.8 1.4 7
      vertex 1.8 -1.4 14
      vertex 1.8 -1.4 7
    endloop
  endfacet
  facet normal 1 -0 0
    outer loop
      vertex 1.8 -1.4 24
      vertex 1.8 1.4 17
      vertex 1.8 1.4 24
    endloop
  endfacet
  facet normal 1 0 0
    outer loop
      vertex 1.8 1.4 17
      vertex 1.8 -1.4 24
      vertex 1.8 -1.4 17
    endloop
  endfacet
  facet normal 1 -0 0
    outer loop
      vertex 1.8 -1.4 34
      vertex 1.8 1.4 27
      vertex 1.8 1.4 34
    endloop
  endfacet
  facet normal 1 0 0
    outer loop
      vertex 1.8 1.4 27
      vertex 1.8 -1.4 34
      vertex 1.8 -1.4 27
    endloop
  endfacet
  facet normal 1 -0 0
    outer loop
      vertex 1.8 -1.4 44
      vertex 1.8 1.4 37
      vertex 1.8 1.4 44
    endloop
  endfacet
  facet normal 1 0 0
    outer loop
      vertex 1.8 -1.4 44
      vertex 1.8 -1.4 37
      vertex 1.8 1.4 37
    endloop
  endfacet
  facet normal 1 -0 0
    outer loop
      vertex 1.8 -1.8 44
      vertex 1.8 -1.4 37
      vertex 1.8 -1.4 44
    endloop
  endfacet
  facet normal 1 0 0
    outer loop
      vertex 1.8 -1.4 37
      vertex 1.8 -1.8 44
      vertex 1.8 -1.4 34
    endloop
  endfacet
  facet normal 1 0 0
    outer loop
      vertex 1.8 -1.4 34
      vertex 1.8 -1.8 44
      vertex 1.8 -1.4 27
    endloop
  endfacet
  facet normal 1 0 0
    outer loop
      vertex 1.8 -1.4 27
      vertex 1.8 -1.8 44
      vertex 1.8 -1.4 24
    endloop
  endfacet
  facet normal 1 0 0
    outer loop
      vertex 1.8 -1.4 24
      vertex 1.8 -1.8 44
      vertex 1.8 -1.4 17
    endloop
  endfacet
  facet normal 1 0 0
    outer loop
      vertex 1.8 -1.8 0
      vertex 1.8 -1.4 17
      vertex 1.8 -1.8 44
    endloop
  endfacet
  facet normal 1 0 0
    outer loop
      vertex 1.8 -1.4 17
      vertex 1.8 -1.8 0
      vertex 1.8 -1.4 14
    endloop
  endfacet
  facet normal 1 0 0
    outer loop
      vertex 1.8 -1.4 14
      vertex 1.8 -1.8 0
      vertex 1.8 -1.4 7
    endloop
  endfacet
  facet normal 1 0 0
    outer loop
      vertex 1.8 1.4 37
      vertex 1.8 1.8 44
      vertex 1.8 1.4 44
    endloop
  endfacet
  facet normal 1 0 0
    outer loop
      vertex 1.8 1.4 34
      vertex 1.8 1.8 44
      vertex 1.8 1.4 37
    endloop
  endfacet
  facet normal 1 0 0
    outer loop
      vertex 1.8 1.4 27
      vertex 1.8 1.8 44
      vertex 1.8 1.4 34
    endloop
  endfacet
  facet normal 1 0 0
    outer loop
      vertex 1.8 1.8 44
      vertex 1.8 1.4 27
      vertex 1.8 1.8 0
    endloop
  endfacet
  facet normal 1 -0 0
    outer loop
      vertex 1.8 1.4 24
      vertex 1.8 1.8 0
      vertex 1.8 1.4 27
    endloop
  endfacet
  facet normal 1 -0 0
    outer loop
      vertex 1.8 1.4 17
      vertex 1.8 1.8 0
      vertex 1.8 1.4 24
    endloop
  endfacet
  facet normal 1 -0 0
    outer loop
      vertex 1.8 1.4 14
      vertex 1.8 1.8 0
      vertex 1.8 1.4 17
    endloop
  endfacet
  facet normal 1 -0 0
    outer loop
      vertex 1.8 1.4 7
      vertex 1.8 1.8 0
      vertex 1.8 1.4 14
    endloop
  endfacet
  facet normal 1 -0 0
    outer loop
      vertex 1.8 1.4 4
      vertex 1.8 1.8 0
      vertex 1.8 1.4 7
    endloop
  endfacet
  facet normal 1 -0 0
    outer loop
      vertex 1.8 1.2 4
      vertex 1.8 1.8 0
      vertex 1.8 1.4 4
    endloop
  endfacet
  facet normal 1 -0 0
    outer loop
      vertex 1.8 0 4
      vertex 1.8 1.8 0
      vertex 1.8 1.2 4
    endloop
  endfacet
  facet normal 1 0 0
    outer loop
      vertex 1.8 -1.8 0
      vertex 1.8 0 4
      vertex 1.8 -1.4 4
    endloop
  endfacet
  facet normal 1 0 0
    outer loop
      vertex 1.8 0 4
      vertex 1.8 -1.8 0
      vertex 1.8 1.8 0
    endloop
  endfacet
  facet normal 1 0 0
    outer loop
      vertex 1.8 -1.4 7
      vertex 1.8 -1.8 0
      vertex 1.8 -1.4 4
    endloop
  endfacet
  facet normal 0 0 -1
    outer loop
      vertex -1.8 -1.8 0
      vertex 1.8 1.8 0
      vertex 1.8 -1.8 0
    endloop
  endfacet
  facet normal -0 0 -1
    outer loop
      vertex 1.8 1.8 0
      vertex -1.8 -1.8 0
      vertex -1.8 1.8 0
    endloop
  endfacet
  facet normal -1 0 0
    outer loop
      vertex -1.8 -1.8 0
      vertex -1.8 1.8 44
      vertex -1.8 1.8 0
    endloop
  endfacet
  facet normal -1 -0 0
    outer loop
      vertex -1.8 1.8 44
      vertex -1.8 -1.8 0
      vertex -1.8 -1.8 44
    endloop
  endfacet
  facet normal 0 1 -0
    outer loop
      vertex 1.8 1.8 0
      vertex -1.8 1.8 44
      vertex 1.8 1.8 44
    endloop
  endfacet
  facet normal 0 1 0
    outer loop
      vertex -1.8 1.8 44
      vertex 1.8 1.8 0
      vertex -1.8 1.8 0
    endloop
  endfacet
  facet normal 0 -1 0
    outer loop
      vertex -1.8 -1.8 0
      vertex 1.8 -1.8 44
      vertex -1.8 -1.8 44
    endloop
  endfacet
  facet normal 0 -1 -0
    outer loop
      vertex 1.8 -1.8 44
      vertex -1.8 -1.8 0
      vertex 1.8 -1.8 0
    endloop
  endfacet
  facet normal 1 -0 0
    outer loop
      vertex 2.25 0 13.725
      vertex 2.25 1.2 4
      vertex 2.25 1.2 13.725
    endloop
  endfacet
  facet normal 1 0 0
    outer loop
      vertex 2.25 1.2 4
      vertex 2.25 0 13.725
      vertex 2.25 0 4
    endloop
  endfacet
  facet normal -0 0 1
    outer loop
      vertex 1.35 1.2 5.5
      vertex 1.8 0 5.5
      vertex 1.8 1.2 5.5
    endloop
  endfacet
  facet normal 0 0 1
    outer loop
      vertex 1.8 0 5.5
      vertex 1.35 1.2 5.5
      vertex 1.35 0 5.5
    endloop
  endfacet
  facet normal -1 0 0
    outer loop
      vertex 1.35 0 4
      vertex 1.35 1.2 5.5
      vertex 1.35 1.2 4
    endloop
  endfacet
  facet normal -1 -0 0
    outer loop
      vertex 1.35 1.2 5.5
      vertex 1.35 0 4
      vertex 1.35 0 5.5
    endloop
  endfacet
  facet normal 0 1 0
    outer loop
      vertex 2.25 1.2 13.725
      vertex 1.8 1.2 5.5
      vertex 1.8 1.2 13.5
    endloop
  endfacet
  facet normal 0 1 -0
    outer loop
      vertex 2.25 1.2 4
      vertex 1.8 1.2 5.5
      vertex 2.25 1.2 13.725
    endloop
  endfacet
  facet normal 0 1 0
    outer loop
      vertex 1.8 1.2 4
      vertex 1.8 1.2 5.5
      vertex 2.25 1.2 4
    endloop
  endfacet
  facet normal 0 1 0
    outer loop
      vertex 1.8 1.2 5.5
      vertex 1.8 1.2 4
      vertex 1.35 1.2 5.5
    endloop
  endfacet
  facet normal 0 1 0
    outer loop
      vertex 1.35 1.2 5.5
      vertex 1.8 1.2 4
      vertex 1.35 1.2 4
    endloop
  endfacet
  facet normal 0 -1 0
    outer loop
      vertex 1.35 0 5.5
      vertex 1.35 0 4
      vertex 1.8 0 5.5
    endloop
  endfacet
  facet normal 0 -1 0
    outer loop
      vertex 1.8 0 5.5
      vertex 2.25 0 13.725
      vertex 1.8 0 13.5
    endloop
  endfacet
  facet normal 0 -1 0
    outer loop
      vertex 1.8 0 4
      vertex 1.8 0 5.5
      vertex 1.35 0 4
    endloop
  endfacet
  facet normal 0 -1 0
    outer loop
      vertex 2.25 0 4
      vertex 1.8 0 5.5
      vertex 1.8 0 4
    endloop
  endfacet
  facet normal 0 -1 0
    outer loop
      vertex 1.8 0 5.5
      vertex 2.25 0 4
      vertex 2.25 0 13.725
    endloop
  endfacet
  facet normal -1 0 0
    outer loop
      vertex 1.8 0 5.5
      vertex 1.8 1.2 13.5
      vertex 1.8 1.2 5.5
    endloop
  endfacet
  facet normal -1 -0 0
    outer loop
      vertex 1.8 1.2 13.5
      vertex 1.8 0 5.5
      vertex 1.8 0 13.5
    endloop
  endfacet
  facet normal -0.447214 6.4362e-18 0.894427
    outer loop
      vertex 1.8 1.2 13.5
      vertex 2.25 0 13.725
      vertex 2.25 1.2 13.725
    endloop
  endfacet
  facet normal -0.447214 6.4362e-18 0.894427
    outer loop
      vertex 2.25 0 13.725
      vertex 1.8 1.2 13.5
      vertex 1.8 0 13.5
    endloop
  endfacet
endsolid OpenSCAD_Model
