solid OpenSCAD_Model
  facet normal 1 -0 0
    outer loop
      vertex 2.54 -2.54 7
      vertex 2.54 2.54 0.00999928
      vertex 2.54 2.54 7
    endloop
  endfacet
  facet normal 1 0 0
    outer loop
      vertex 2.54 2.54 0.00999928
      vertex 2.54 -2.54 7
      vertex 2.54 -2.54 0.00999928
    endloop
  endfacet
  facet normal -0 0 1
    outer loop
      vertex -2.54 2.54 7
      vertex 2.54 -2.54 7
      vertex 2.54 2.54 7
    endloop
  endfacet
  facet normal 0 0 1
    outer loop
      vertex 2.54 -2.54 7
      vertex -2.54 2.54 7
      vertex -2.54 -2.54 7
    endloop
  endfacet
  facet normal 0 0 -1
    outer loop
      vertex 0.45 -2.54 -7
      vertex 0.41411 -1.54548 -7
      vertex 0.45 -1.5333 -7
    endloop
  endfacet
  facet normal 0 0 -1
    outer loop
      vertex 0.45 -2.54 -7
      vertex 0.208841 -1.58631 -7
      vertex 0.41411 -1.54548 -7
    endloop
  endfacet
  facet normal 0 0 -1
    outer loop
      vertex 0.45 -2.54 -7
      vertex 0 -1.6 -7
      vertex 0.208841 -1.58631 -7
    endloop
  endfacet
  facet normal 0 0 -1
    outer loop
      vertex 0.45 -2.54 -7
      vertex -0.208841 -1.58631 -7
      vertex 0 -1.6 -7
    endloop
  endfacet
  facet normal 0 0 -1
    outer loop
      vertex 0.45 -2.54 -7
      vertex -0.41411 -1.54548 -7
      vertex -0.208841 -1.58631 -7
    endloop
  endfacet
  facet normal 0 0 -1
    outer loop
      vertex 0.45 -2.54 -7
      vertex -0.612293 -1.47821 -7
      vertex -0.41411 -1.54548 -7
    endloop
  endfacet
  facet normal 0 0 -1
    outer loop
      vertex -2.54 -2.54 -7
      vertex -0.612293 -1.47821 -7
      vertex 0.45 -2.54 -7
    endloop
  endfacet
  facet normal -0 0 -1
    outer loop
      vertex -0.612293 -1.47821 -7
      vertex -2.54 -2.54 -7
      vertex -0.799999 -1.38564 -7
    endloop
  endfacet
  facet normal -0 0 -1
    outer loop
      vertex -0.799999 -1.38564 -7
      vertex -2.54 -2.54 -7
      vertex -0.974018 -1.26937 -7
    endloop
  endfacet
  facet normal 0 0 -1
    outer loop
      vertex -1.54548 -0.41411 -7
      vertex -2.54 0.349999 -7
      vertex -1.58631 -0.208841 -7
    endloop
  endfacet
  facet normal 0 0 -1
    outer loop
      vertex -1.47821 -0.612293 -7
      vertex -2.54 0.349999 -7
      vertex -1.54548 -0.41411 -7
    endloop
  endfacet
  facet normal 0 0 -1
    outer loop
      vertex -2.54 0.349999 -7
      vertex -1.47821 -0.612293 -7
      vertex -2.54 -2.54 -7
    endloop
  endfacet
  facet normal -0 0 -1
    outer loop
      vertex -1.38564 -0.799999 -7
      vertex -2.54 -2.54 -7
      vertex -1.47821 -0.612293 -7
    endloop
  endfacet
  facet normal -0 0 -1
    outer loop
      vertex -1.26937 -0.974018 -7
      vertex -2.54 -2.54 -7
      vertex -1.38564 -0.799999 -7
    endloop
  endfacet
  facet normal -0 0 -1
    outer loop
      vertex -1.13137 -1.13137 -7
      vertex -2.54 -2.54 -7
      vertex -1.26937 -0.974018 -7
    endloop
  endfacet
  facet normal -0 0 -1
    outer loop
      vertex -0.974018 -1.26937 -7
      vertex -2.54 -2.54 -7
      vertex -1.13137 -1.13137 -7
    endloop
  endfacet
  facet normal 0 0 -1
    outer loop
      vertex -1.58631 -0.208841 -7
      vertex -2.54 0.349999 -7
      vertex -1.6 0 -7
    endloop
  endfacet
  facet normal 0 0 -1
    outer loop
      vertex -1.6 0 -7
      vertex -2.54 0.349999 -7
      vertex -1.58631 0.208841 -7
    endloop
  endfacet
  facet normal 0 0 -1
    outer loop
      vertex -1.58631 0.208841 -7
      vertex -2.54 0.349999 -7
      vertex -1.55823 0.349999 -7
    endloop
  endfacet
  facet normal -1 0 0
    outer loop
      vertex -2.54 0.349999 -7
      vertex -2.54 -2.54 -7
      vertex -2.54 0.349999 0.00999928
    endloop
  endfacet
  facet normal -1 0 0
    outer loop
      vertex -2.54 0.349999 0.00999928
      vertex -2.54 2.54 7
      vertex -2.54 2.54 0.00999928
    endloop
  endfacet
  facet normal -1 0 0
    outer loop
      vertex -2.54 -2.54 7
      vertex -2.54 0.349999 0.00999928
      vertex -2.54 -2.54 -7
    endloop
  endfacet
  facet normal -1 0 0
    outer loop
      vertex -2.54 0.349999 0.00999928
      vertex -2.54 -2.54 7
      vertex -2.54 2.54 7
    endloop
  endfacet
  facet normal 0 1 -0
    outer loop
      vertex 2.54 2.54 0.00999928
      vertex -2.54 2.54 7
      vertex 2.54 2.54 7
    endloop
  endfacet
  facet normal 0 1 0
    outer loop
      vertex -2.54 2.54 7
      vertex 2.54 2.54 0.00999928
      vertex -2.54 2.54 0.00999928
    endloop
  endfacet
  facet normal 0 -1 0
    outer loop
      vertex -2.54 -2.54 7
      vertex 0.45 -2.54 0.00999928
      vertex 2.54 -2.54 7
    endloop
  endfacet
  facet normal 0 -1 0
    outer loop
      vertex -2.54 -2.54 -7
      vertex 0.45 -2.54 0.00999928
      vertex -2.54 -2.54 7
    endloop
  endfacet
  facet normal 0 -1 -0
    outer loop
      vertex 0.45 -2.54 0.00999928
      vertex -2.54 -2.54 -7
      vertex 0.45 -2.54 -7
    endloop
  endfacet
  facet normal 0 -1 -0
    outer loop
      vertex 2.54 -2.54 7
      vertex 0.45 -2.54 0.00999928
      vertex 2.54 -2.54 0.00999928
    endloop
  endfacet
  facet normal 0.442303 0.896866 -0
    outer loop
      vertex -0.612293 -1.47821 -7
      vertex -0.799999 -1.38564 0.00999928
      vertex -0.612293 -1.47821 0.00999928
    endloop
  endfacet
  facet normal 0.442303 0.896866 0
    outer loop
      vertex -0.799999 -1.38564 0.00999928
      vertex -0.612293 -1.47821 -7
      vertex -0.799999 -1.38564 -7
    endloop
  endfacet
  facet normal -0.195088 0.980786 0
    outer loop
      vertex 0.41411 -1.54548 -7
      vertex 0.208841 -1.58631 0.00999928
      vertex 0.41411 -1.54548 0.00999928
    endloop
  endfacet
  facet normal -0.195088 0.980786 0
    outer loop
      vertex 0.208841 -1.58631 0.00999928
      vertex 0.41411 -1.54548 -7
      vertex 0.208841 -1.58631 -7
    endloop
  endfacet
  facet normal 0.555551 0.831482 -0
    outer loop
      vertex -0.799999 -1.38564 -7
      vertex -0.974018 -1.26937 0.00999928
      vertex -0.799999 -1.38564 0.00999928
    endloop
  endfacet
  facet normal 0.555551 0.831482 0
    outer loop
      vertex -0.974018 -1.26937 0.00999928
      vertex -0.799999 -1.38564 -7
      vertex -0.974018 -1.26937 -7
    endloop
  endfacet
  facet normal 0 0 -1
    outer loop
      vertex -1.58631 -0.208841 0.00999928
      vertex -1.55823 0.349999 0.00999928
      vertex -1.54548 -0.41411 0.00999928
    endloop
  endfacet
  facet normal 0 0 -1
    outer loop
      vertex -1.6 0 0.00999928
      vertex -1.55823 0.349999 0.00999928
      vertex -1.58631 -0.208841 0.00999928
    endloop
  endfacet
  facet normal 0 0 -1
    outer loop
      vertex -1.55823 0.349999 0.00999928
      vertex -1.6 0 0.00999928
      vertex -1.58631 0.208841 0.00999928
    endloop
  endfacet
  facet normal 0 0 -1
    outer loop
      vertex 0.45 -1.5333 0.00999928
      vertex 2.54 -2.54 0.00999928
      vertex 0.45 -2.54 0.00999928
    endloop
  endfacet
  facet normal 0 0 -1
    outer loop
      vertex 2.54 -2.54 0.00999928
      vertex 0.45 -1.5333 0.00999928
      vertex 2.54 2.54 0.00999928
    endloop
  endfacet
  facet normal 0 0 -1
    outer loop
      vertex 0.208841 -1.58631 0.00999928
      vertex 0.45 -1.5333 0.00999928
      vertex 0.41411 -1.54548 0.00999928
    endloop
  endfacet
  facet normal -0 0 -1
    outer loop
      vertex 0.45 -1.5333 0.00999928
      vertex 0.208841 -1.58631 0.00999928
      vertex -1.55823 0.349999 0.00999928
    endloop
  endfacet
  facet normal 0 0 -1
    outer loop
      vertex -1.55823 0.349999 0.00999928
      vertex 0.208841 -1.58631 0.00999928
      vertex 0 -1.6 0.00999928
    endloop
  endfacet
  facet normal 0 0 -1
    outer loop
      vertex -1.55823 0.349999 0.00999928
      vertex 0 -1.6 0.00999928
      vertex -0.208841 -1.58631 0.00999928
    endloop
  endfacet
  facet normal 0 0 -1
    outer loop
      vertex -1.55823 0.349999 0.00999928
      vertex -0.208841 -1.58631 0.00999928
      vertex -0.41411 -1.54548 0.00999928
    endloop
  endfacet
  facet normal 0 0 -1
    outer loop
      vertex -1.55823 0.349999 0.00999928
      vertex -0.41411 -1.54548 0.00999928
      vertex -0.612293 -1.47821 0.00999928
    endloop
  endfacet
  facet normal 0 0 -1
    outer loop
      vertex -1.55823 0.349999 0.00999928
      vertex -0.612293 -1.47821 0.00999928
      vertex -0.799999 -1.38564 0.00999928
    endloop
  endfacet
  facet normal 0 0 -1
    outer loop
      vertex -1.55823 0.349999 0.00999928
      vertex -0.799999 -1.38564 0.00999928
      vertex -0.974018 -1.26937 0.00999928
    endloop
  endfacet
  facet normal 0 0 -1
    outer loop
      vertex -1.55823 0.349999 0.00999928
      vertex -0.974018 -1.26937 0.00999928
      vertex -1.13137 -1.13137 0.00999928
    endloop
  endfacet
  facet normal 0 0 -1
    outer loop
      vertex -1.55823 0.349999 0.00999928
      vertex -1.13137 -1.13137 0.00999928
      vertex -1.26937 -0.974018 0.00999928
    endloop
  endfacet
  facet normal 0 0 -1
    outer loop
      vertex -1.55823 0.349999 0.00999928
      vertex -1.26937 -0.974018 0.00999928
      vertex -1.38564 -0.799999 0.00999928
    endloop
  endfacet
  facet normal 0 0 -1
    outer loop
      vertex -1.55823 0.349999 0.00999928
      vertex -1.38564 -0.799999 0.00999928
      vertex -1.47821 -0.612293 0.00999928
    endloop
  endfacet
  facet normal 0 0 -1
    outer loop
      vertex -1.55823 0.349999 0.00999928
      vertex -1.47821 -0.612293 0.00999928
      vertex -1.54548 -0.41411 0.00999928
    endloop
  endfacet
  facet normal 0 0 -1
    outer loop
      vertex 0.45 -1.5333 0.00999928
      vertex -1.55823 0.349999 0.00999928
      vertex 2.54 2.54 0.00999928
    endloop
  endfacet
  facet normal 0 0 -1
    outer loop
      vertex -2.54 2.54 0.00999928
      vertex -1.55823 0.349999 0.00999928
      vertex -2.54 0.349999 0.00999928
    endloop
  endfacet
  facet normal 0 0 -1
    outer loop
      vertex -1.55823 0.349999 0.00999928
      vertex -2.54 2.54 0.00999928
      vertex 2.54 2.54 0.00999928
    endloop
  endfacet
  facet normal 0.659362 0.751826 -0
    outer loop
      vertex -0.974018 -1.26937 -7
      vertex -1.13137 -1.13137 0.00999928
      vertex -0.974018 -1.26937 0.00999928
    endloop
  endfacet
  facet normal 0.659362 0.751826 0
    outer loop
      vertex -1.13137 -1.13137 0.00999928
      vertex -0.974018 -1.26937 -7
      vertex -1.13137 -1.13137 -7
    endloop
  endfacet
  facet normal 0.321422 0.946936 -0
    outer loop
      vertex -0.41411 -1.54548 -7
      vertex -0.612293 -1.47821 0.00999928
      vertex -0.41411 -1.54548 0.00999928
    endloop
  endfacet
  facet normal 0.321422 0.946936 0
    outer loop
      vertex -0.612293 -1.47821 0.00999928
      vertex -0.41411 -1.54548 -7
      vertex -0.612293 -1.47821 -7
    endloop
  endfacet
  facet normal 0.980783 -0.195103 2.31198e-19
    outer loop
      vertex -1.58631 0.208841 0.00999928
      vertex -1.55823 0.349999 -7
      vertex -1.55823 0.349999 0.00999928
    endloop
  endfacet
  facet normal 0.980783 -0.195103 2.31198e-19
    outer loop
      vertex -1.55823 0.349999 -7
      vertex -1.58631 0.208841 0.00999928
      vertex -1.58631 0.208841 -7
    endloop
  endfacet
  facet normal 0.997858 -0.0654119 1.4066e-20
    outer loop
      vertex -1.6 0 0.00999928
      vertex -1.58631 0.208841 -7
      vertex -1.58631 0.208841 0.00999928
    endloop
  endfacet
  facet normal 0.997858 -0.0654119 1.4066e-20
    outer loop
      vertex -1.58631 0.208841 -7
      vertex -1.6 0 0.00999928
      vertex -1.6 0 -7
    endloop
  endfacet
  facet normal 0.896866 0.442303 -7.31256e-20
    outer loop
      vertex -1.38564 -0.799999 0.00999928
      vertex -1.47821 -0.612293 -7
      vertex -1.47821 -0.612293 0.00999928
    endloop
  endfacet
  facet normal 0.896866 0.442303 -7.31256e-20
    outer loop
      vertex -1.47821 -0.612293 -7
      vertex -1.38564 -0.799999 0.00999928
      vertex -1.38564 -0.799999 -7
    endloop
  endfacet
  facet normal 0.0654119 0.997858 -0
    outer loop
      vertex 0 -1.6 -7
      vertex -0.208841 -1.58631 0.00999928
      vertex 0 -1.6 0.00999928
    endloop
  endfacet
  facet normal 0.0654119 0.997858 0
    outer loop
      vertex -0.208841 -1.58631 0.00999928
      vertex 0 -1.6 -7
      vertex -0.208841 -1.58631 -7
    endloop
  endfacet
  facet normal 0.195088 0.980786 -0
    outer loop
      vertex -0.208841 -1.58631 -7
      vertex -0.41411 -1.54548 0.00999928
      vertex -0.208841 -1.58631 0.00999928
    endloop
  endfacet
  facet normal 0.195088 0.980786 0
    outer loop
      vertex -0.41411 -1.54548 0.00999928
      vertex -0.208841 -1.58631 -7
      vertex -0.41411 -1.54548 -7
    endloop
  endfacet
  facet normal 0.946936 0.321422 2.62713e-19
    outer loop
      vertex -1.47821 -0.612293 0.00999928
      vertex -1.54548 -0.41411 -7
      vertex -1.54548 -0.41411 0.00999928
    endloop
  endfacet
  facet normal 0.946936 0.321422 2.62713e-19
    outer loop
      vertex -1.54548 -0.41411 -7
      vertex -1.47821 -0.612293 0.00999928
      vertex -1.47821 -0.612293 -7
    endloop
  endfacet
  facet normal -0.0654119 0.997858 0
    outer loop
      vertex 0.208841 -1.58631 -7
      vertex 0 -1.6 0.00999928
      vertex 0.208841 -1.58631 0.00999928
    endloop
  endfacet
  facet normal -0.0654119 0.997858 0
    outer loop
      vertex 0 -1.6 0.00999928
      vertex 0.208841 -1.58631 -7
      vertex 0 -1.6 -7
    endloop
  endfacet
  facet normal -0.321368 0.946954 0
    outer loop
      vertex 0.45 -1.5333 -7
      vertex 0.41411 -1.54548 0.00999928
      vertex 0.45 -1.5333 0.00999928
    endloop
  endfacet
  facet normal -0.321368 0.946954 0
    outer loop
      vertex 0.41411 -1.54548 0.00999928
      vertex 0.45 -1.5333 -7
      vertex 0.41411 -1.54548 -7
    endloop
  endfacet
  facet normal 0.751826 0.659362 -5.27179e-19
    outer loop
      vertex -1.13137 -1.13137 0.00999928
      vertex -1.26937 -0.974018 -7
      vertex -1.26937 -0.974018 0.00999928
    endloop
  endfacet
  facet normal 0.751826 0.659362 -5.27179e-19
    outer loop
      vertex -1.26937 -0.974018 -7
      vertex -1.13137 -1.13137 0.00999928
      vertex -1.13137 -1.13137 -7
    endloop
  endfacet
  facet normal 0.831482 0.555551 -2.53977e-19
    outer loop
      vertex -1.26937 -0.974018 0.00999928
      vertex -1.38564 -0.799999 -7
      vertex -1.38564 -0.799999 0.00999928
    endloop
  endfacet
  facet normal 0.831482 0.555551 -2.53977e-19
    outer loop
      vertex -1.38564 -0.799999 -7
      vertex -1.26937 -0.974018 0.00999928
      vertex -1.26937 -0.974018 -7
    endloop
  endfacet
  facet normal 0.980786 0.195088 -3.2653e-19
    outer loop
      vertex -1.54548 -0.41411 0.00999928
      vertex -1.58631 -0.208841 -7
      vertex -1.58631 -0.208841 0.00999928
    endloop
  endfacet
  facet normal 0.980786 0.195088 -3.2653e-19
    outer loop
      vertex -1.58631 -0.208841 -7
      vertex -1.54548 -0.41411 0.00999928
      vertex -1.54548 -0.41411 -7
    endloop
  endfacet
  facet normal 0.997858 0.0654119 -1.4066e-20
    outer loop
      vertex -1.58631 -0.208841 0.00999928
      vertex -1.6 0 -7
      vertex -1.6 0 0.00999928
    endloop
  endfacet
  facet normal 0.997858 0.0654119 -1.4066e-20
    outer loop
      vertex -1.6 0 -7
      vertex -1.58631 -0.208841 0.00999928
      vertex -1.58631 -0.208841 -7
    endloop
  endfacet
  facet normal 1 -0 0
    outer loop
      vertex 0.45 -2.54 0.00999928
      vertex 0.45 -1.5333 -7
      vertex 0.45 -1.5333 0.00999928
    endloop
  endfacet
  facet normal 1 0 0
    outer loop
      vertex 0.45 -1.5333 -7
      vertex 0.45 -2.54 0.00999928
      vertex 0.45 -2.54 -7
    endloop
  endfacet
  facet normal 0 1 -0
    outer loop
      vertex -1.55823 0.349999 -7
      vertex -2.54 0.349999 0.00999928
      vertex -1.55823 0.349999 0.00999928
    endloop
  endfacet
  facet normal 0 1 0
    outer loop
      vertex -2.54 0.349999 0.00999928
      vertex -1.55823 0.349999 -7
      vertex -2.54 0.349999 -7
    endloop
  endfacet
endsolid OpenSCAD_Model
