solid OpenSCAD_Model
  facet normal -1 0 0
    outer loop
      vertex 0 0 0
      vertex 0 25 53
      vertex 0 25 0
    endloop
  endfacet
  facet normal -1 -0 0
    outer loop
      vertex 0 25 53
      vertex 0 0 0
      vertex 0 0 53
    endloop
  endfacet
  facet normal -0 0 1
    outer loop
      vertex 1 7 53
      vertex 6 6 53
      vertex 6 7 53
    endloop
  endfacet
  facet normal 0 0 1
    outer loop
      vertex 6 6 53
      vertex 1 7 53
      vertex 1 6 53
    endloop
  endfacet
  facet normal -0 0 1
    outer loop
      vertex 1 13 53
      vertex 6 12 53
      vertex 6 13 53
    endloop
  endfacet
  facet normal 0 0 1
    outer loop
      vertex 6 12 53
      vertex 1 13 53
      vertex 1 12 53
    endloop
  endfacet
  facet normal -0 0 1
    outer loop
      vertex 1 19 53
      vertex 6 18 53
      vertex 6 19 53
    endloop
  endfacet
  facet normal 0 0 1
    outer loop
      vertex 6 18 53
      vertex 1 19 53
      vertex 1 18 53
    endloop
  endfacet
  facet normal -0 0 1
    outer loop
      vertex 7 7 53
      vertex 12 6 53
      vertex 12 7 53
    endloop
  endfacet
  facet normal 0 0 1
    outer loop
      vertex 12 6 53
      vertex 7 7 53
      vertex 7 6 53
    endloop
  endfacet
  facet normal -0 0 1
    outer loop
      vertex 7 13 53
      vertex 12 12 53
      vertex 12 13 53
    endloop
  endfacet
  facet normal 0 0 1
    outer loop
      vertex 12 12 53
      vertex 7 13 53
      vertex 7 12 53
    endloop
  endfacet
  facet normal -0 0 1
    outer loop
      vertex 7 19 53
      vertex 12 18 53
      vertex 12 19 53
    endloop
  endfacet
  facet normal 0 0 1
    outer loop
      vertex 12 18 53
      vertex 7 19 53
      vertex 7 18 53
    endloop
  endfacet
  facet normal -0 0 1
    outer loop
      vertex 13 7 53
      vertex 18 6 53
      vertex 18 7 53
    endloop
  endfacet
  facet normal 0 0 1
    outer loop
      vertex 18 6 53
      vertex 13 7 53
      vertex 13 6 53
    endloop
  endfacet
  facet normal -0 0 1
    outer loop
      vertex 13 13 53
      vertex 18 12 53
      vertex 18 13 53
    endloop
  endfacet
  facet normal 0 0 1
    outer loop
      vertex 18 12 53
      vertex 13 13 53
      vertex 13 12 53
    endloop
  endfacet
  facet normal -0 0 1
    outer loop
      vertex 13 19 53
      vertex 18 18 53
      vertex 18 19 53
    endloop
  endfacet
  facet normal 0 0 1
    outer loop
      vertex 18 18 53
      vertex 13 19 53
      vertex 13 18 53
    endloop
  endfacet
  facet normal -0 0 1
    outer loop
      vertex 19 7 53
      vertex 24 6 53
      vertex 24 7 53
    endloop
  endfacet
  facet normal 0 0 1
    outer loop
      vertex 24 6 53
      vertex 19 7 53
      vertex 19 6 53
    endloop
  endfacet
  facet normal -0 0 1
    outer loop
      vertex 19 13 53
      vertex 24 12 53
      vertex 24 13 53
    endloop
  endfacet
  facet normal 0 0 1
    outer loop
      vertex 24 12 53
      vertex 19 13 53
      vertex 19 12 53
    endloop
  endfacet
  facet normal -0 0 1
    outer loop
      vertex 19 19 53
      vertex 24 18 53
      vertex 24 19 53
    endloop
  endfacet
  facet normal 0 0 1
    outer loop
      vertex 24 18 53
      vertex 19 19 53
      vertex 19 18 53
    endloop
  endfacet
  facet normal 0 0 1
    outer loop
      vertex 24 19 53
      vertex 25 25 53
      vertex 24 24 53
    endloop
  endfacet
  facet normal 0 0 1
    outer loop
      vertex 25 25 53
      vertex 19 24 53
      vertex 24 24 53
    endloop
  endfacet
  facet normal 0 0 1
    outer loop
      vertex 18 19 53
      vertex 19 19 53
      vertex 19 24 53
    endloop
  endfacet
  facet normal 0 0 1
    outer loop
      vertex 19 19 53
      vertex 18 19 53
      vertex 19 18 53
    endloop
  endfacet
  facet normal 0 0 1
    outer loop
      vertex 19 18 53
      vertex 18 18 53
      vertex 19 13 53
    endloop
  endfacet
  facet normal 0 0 1
    outer loop
      vertex 18 13 53
      vertex 19 13 53
      vertex 18 18 53
    endloop
  endfacet
  facet normal 0 0 1
    outer loop
      vertex 18 12 53
      vertex 19 12 53
      vertex 18 13 53
    endloop
  endfacet
  facet normal 0 0 1
    outer loop
      vertex 19 12 53
      vertex 18 12 53
      vertex 19 7 53
    endloop
  endfacet
  facet normal 0 0 1
    outer loop
      vertex 18 19 53
      vertex 19 24 53
      vertex 18 24 53
    endloop
  endfacet
  facet normal 0 0 1
    outer loop
      vertex 25 25 53
      vertex 18 24 53
      vertex 19 24 53
    endloop
  endfacet
  facet normal 0 0 1
    outer loop
      vertex 25 25 53
      vertex 13 24 53
      vertex 18 24 53
    endloop
  endfacet
  facet normal 0 0 1
    outer loop
      vertex 12 19 53
      vertex 13 19 53
      vertex 13 24 53
    endloop
  endfacet
  facet normal 0 0 1
    outer loop
      vertex 13 19 53
      vertex 12 19 53
      vertex 13 18 53
    endloop
  endfacet
  facet normal 0 0 1
    outer loop
      vertex 13 18 53
      vertex 12 18 53
      vertex 13 13 53
    endloop
  endfacet
  facet normal 0 0 1
    outer loop
      vertex 12 13 53
      vertex 13 13 53
      vertex 12 18 53
    endloop
  endfacet
  facet normal 0 0 1
    outer loop
      vertex 12 12 53
      vertex 13 12 53
      vertex 12 13 53
    endloop
  endfacet
  facet normal 0 0 1
    outer loop
      vertex 13 12 53
      vertex 12 12 53
      vertex 13 7 53
    endloop
  endfacet
  facet normal 0 0 1
    outer loop
      vertex 12 19 53
      vertex 13 24 53
      vertex 12 24 53
    endloop
  endfacet
  facet normal 0 0 1
    outer loop
      vertex 25 25 53
      vertex 12 24 53
      vertex 13 24 53
    endloop
  endfacet
  facet normal -0 0 1
    outer loop
      vertex 0 25 53
      vertex 12 24 53
      vertex 25 25 53
    endloop
  endfacet
  facet normal 0 0 1
    outer loop
      vertex 6 19 53
      vertex 7 19 53
      vertex 7 24 53
    endloop
  endfacet
  facet normal 0 0 1
    outer loop
      vertex 7 19 53
      vertex 6 19 53
      vertex 7 18 53
    endloop
  endfacet
  facet normal 0 0 1
    outer loop
      vertex 7 18 53
      vertex 6 18 53
      vertex 7 13 53
    endloop
  endfacet
  facet normal 0 0 1
    outer loop
      vertex 6 13 53
      vertex 7 13 53
      vertex 6 18 53
    endloop
  endfacet
  facet normal 0 0 1
    outer loop
      vertex 6 12 53
      vertex 7 12 53
      vertex 6 13 53
    endloop
  endfacet
  facet normal 0 0 1
    outer loop
      vertex 7 12 53
      vertex 6 12 53
      vertex 7 7 53
    endloop
  endfacet
  facet normal 0 0 1
    outer loop
      vertex 6 19 53
      vertex 7 24 53
      vertex 6 24 53
    endloop
  endfacet
  facet normal 0 0 1
    outer loop
      vertex 12 24 53
      vertex 0 25 53
      vertex 7 24 53
    endloop
  endfacet
  facet normal 0 0 1
    outer loop
      vertex 7 24 53
      vertex 0 25 53
      vertex 6 24 53
    endloop
  endfacet
  facet normal 0 0 1
    outer loop
      vertex 0 25 53
      vertex 1 19 53
      vertex 1 24 53
    endloop
  endfacet
  facet normal 0 0 1
    outer loop
      vertex 1 19 53
      vertex 0 25 53
      vertex 1 18 53
    endloop
  endfacet
  facet normal 0 0 1
    outer loop
      vertex 1 18 53
      vertex 0 25 53
      vertex 1 13 53
    endloop
  endfacet
  facet normal 0 0 1
    outer loop
      vertex 1 13 53
      vertex 0 25 53
      vertex 1 12 53
    endloop
  endfacet
  facet normal 0 0 1
    outer loop
      vertex 0 0 53
      vertex 1 12 53
      vertex 0 25 53
    endloop
  endfacet
  facet normal 0 0 1
    outer loop
      vertex 1 12 53
      vertex 0 0 53
      vertex 1 7 53
    endloop
  endfacet
  facet normal 0 0 1
    outer loop
      vertex 1 7 53
      vertex 0 0 53
      vertex 1 6 53
    endloop
  endfacet
  facet normal 0 0 1
    outer loop
      vertex 6 24 53
      vertex 0 25 53
      vertex 1 24 53
    endloop
  endfacet
  facet normal 0 0 1
    outer loop
      vertex 24 18 53
      vertex 25 25 53
      vertex 24 19 53
    endloop
  endfacet
  facet normal 0 0 1
    outer loop
      vertex 24 13 53
      vertex 25 25 53
      vertex 24 18 53
    endloop
  endfacet
  facet normal 0 0 1
    outer loop
      vertex 25 25 53
      vertex 24 13 53
      vertex 25 0 53
    endloop
  endfacet
  facet normal -0 0 1
    outer loop
      vertex 24 12 53
      vertex 25 0 53
      vertex 24 13 53
    endloop
  endfacet
  facet normal -0 0 1
    outer loop
      vertex 24 7 53
      vertex 25 0 53
      vertex 24 12 53
    endloop
  endfacet
  facet normal -0 0 1
    outer loop
      vertex 24 6 53
      vertex 25 0 53
      vertex 24 7 53
    endloop
  endfacet
  facet normal -0 0 1
    outer loop
      vertex 24 1 53
      vertex 25 0 53
      vertex 24 6 53
    endloop
  endfacet
  facet normal -0 0 1
    outer loop
      vertex 19 1 53
      vertex 25 0 53
      vertex 24 1 53
    endloop
  endfacet
  facet normal 0 0 1
    outer loop
      vertex 19 18 53
      vertex 18 19 53
      vertex 18 18 53
    endloop
  endfacet
  facet normal 0 0 1
    outer loop
      vertex 19 13 53
      vertex 18 13 53
      vertex 19 12 53
    endloop
  endfacet
  facet normal 0 0 1
    outer loop
      vertex 18 7 53
      vertex 19 7 53
      vertex 18 12 53
    endloop
  endfacet
  facet normal 0 0 1
    outer loop
      vertex 19 7 53
      vertex 18 7 53
      vertex 19 6 53
    endloop
  endfacet
  facet normal 0 0 1
    outer loop
      vertex 18 6 53
      vertex 19 6 53
      vertex 18 7 53
    endloop
  endfacet
  facet normal 0 0 1
    outer loop
      vertex 19 6 53
      vertex 18 6 53
      vertex 19 1 53
    endloop
  endfacet
  facet normal 0 0 1
    outer loop
      vertex 18 1 53
      vertex 19 1 53
      vertex 18 6 53
    endloop
  endfacet
  facet normal -0 0 1
    outer loop
      vertex 18 1 53
      vertex 25 0 53
      vertex 19 1 53
    endloop
  endfacet
  facet normal -0 0 1
    outer loop
      vertex 13 1 53
      vertex 25 0 53
      vertex 18 1 53
    endloop
  endfacet
  facet normal 0 0 1
    outer loop
      vertex 13 18 53
      vertex 12 19 53
      vertex 12 18 53
    endloop
  endfacet
  facet normal 0 0 1
    outer loop
      vertex 13 13 53
      vertex 12 13 53
      vertex 13 12 53
    endloop
  endfacet
  facet normal 0 0 1
    outer loop
      vertex 12 7 53
      vertex 13 7 53
      vertex 12 12 53
    endloop
  endfacet
  facet normal 0 0 1
    outer loop
      vertex 13 7 53
      vertex 12 7 53
      vertex 13 6 53
    endloop
  endfacet
  facet normal 0 0 1
    outer loop
      vertex 12 6 53
      vertex 13 6 53
      vertex 12 7 53
    endloop
  endfacet
  facet normal 0 0 1
    outer loop
      vertex 13 6 53
      vertex 12 6 53
      vertex 13 1 53
    endloop
  endfacet
  facet normal 0 0 1
    outer loop
      vertex 12 1 53
      vertex 13 1 53
      vertex 12 6 53
    endloop
  endfacet
  facet normal -0 0 1
    outer loop
      vertex 12 1 53
      vertex 25 0 53
      vertex 13 1 53
    endloop
  endfacet
  facet normal 0 0 1
    outer loop
      vertex 0 0 53
      vertex 12 1 53
      vertex 7 1 53
    endloop
  endfacet
  facet normal 0 0 1
    outer loop
      vertex 7 18 53
      vertex 6 19 53
      vertex 6 18 53
    endloop
  endfacet
  facet normal 0 0 1
    outer loop
      vertex 7 13 53
      vertex 6 13 53
      vertex 7 12 53
    endloop
  endfacet
  facet normal 0 0 1
    outer loop
      vertex 6 7 53
      vertex 7 7 53
      vertex 6 12 53
    endloop
  endfacet
  facet normal 0 0 1
    outer loop
      vertex 7 7 53
      vertex 6 7 53
      vertex 7 6 53
    endloop
  endfacet
  facet normal 0 0 1
    outer loop
      vertex 6 6 53
      vertex 7 6 53
      vertex 6 7 53
    endloop
  endfacet
  facet normal 0 0 1
    outer loop
      vertex 7 6 53
      vertex 6 6 53
      vertex 7 1 53
    endloop
  endfacet
  facet normal 0 0 1
    outer loop
      vertex 6 1 53
      vertex 7 1 53
      vertex 6 6 53
    endloop
  endfacet
  facet normal 0 0 1
    outer loop
      vertex 0 0 53
      vertex 7 1 53
      vertex 6 1 53
    endloop
  endfacet
  facet normal 0 0 1
    outer loop
      vertex 0 0 53
      vertex 6 1 53
      vertex 1 1 53
    endloop
  endfacet
  facet normal 0 0 1
    outer loop
      vertex 12 1 53
      vertex 0 0 53
      vertex 25 0 53
    endloop
  endfacet
  facet normal 0 0 1
    outer loop
      vertex 1 6 53
      vertex 0 0 53
      vertex 1 1 53
    endloop
  endfacet
  facet normal 1 -0 0
    outer loop
      vertex 25 0 53
      vertex 25 25 0
      vertex 25 25 53
    endloop
  endfacet
  facet normal 1 0 0
    outer loop
      vertex 25 25 0
      vertex 25 0 53
      vertex 25 0 0
    endloop
  endfacet
  facet normal 0 1 -0
    outer loop
      vertex 25 25 0
      vertex 0 25 53
      vertex 25 25 53
    endloop
  endfacet
  facet normal 0 1 0
    outer loop
      vertex 0 25 53
      vertex 25 25 0
      vertex 0 25 0
    endloop
  endfacet
  facet normal 0 0 -1
    outer loop
      vertex 2.25 16.75 0
      vertex 4.75 20.25 0
      vertex 4.75 16.75 0
    endloop
  endfacet
  facet normal -0 0 -1
    outer loop
      vertex 4.75 20.25 0
      vertex 2.25 16.75 0
      vertex 2.25 20.25 0
    endloop
  endfacet
  facet normal 0 0 -1
    outer loop
      vertex 2.25 10.75 0
      vertex 4.75 14.25 0
      vertex 4.75 10.75 0
    endloop
  endfacet
  facet normal -0 0 -1
    outer loop
      vertex 4.75 14.25 0
      vertex 2.25 10.75 0
      vertex 2.25 14.25 0
    endloop
  endfacet
  facet normal 0 0 -1
    outer loop
      vertex 2.25 4.75 0
      vertex 4.75 8.25 0
      vertex 4.75 4.75 0
    endloop
  endfacet
  facet normal -0 0 -1
    outer loop
      vertex 4.75 8.25 0
      vertex 2.25 4.75 0
      vertex 2.25 8.25 0
    endloop
  endfacet
  facet normal 0 0 -1
    outer loop
      vertex 8.25 16.75 0
      vertex 10.75 20.25 0
      vertex 10.75 16.75 0
    endloop
  endfacet
  facet normal -0 0 -1
    outer loop
      vertex 10.75 20.25 0
      vertex 8.25 16.75 0
      vertex 8.25 20.25 0
    endloop
  endfacet
  facet normal 0 0 -1
    outer loop
      vertex 8.25 10.75 0
      vertex 10.75 14.25 0
      vertex 10.75 10.75 0
    endloop
  endfacet
  facet normal -0 0 -1
    outer loop
      vertex 10.75 14.25 0
      vertex 8.25 10.75 0
      vertex 8.25 14.25 0
    endloop
  endfacet
  facet normal 0 0 -1
    outer loop
      vertex 8.25 4.75 0
      vertex 10.75 8.25 0
      vertex 10.75 4.75 0
    endloop
  endfacet
  facet normal -0 0 -1
    outer loop
      vertex 10.75 8.25 0
      vertex 8.25 4.75 0
      vertex 8.25 8.25 0
    endloop
  endfacet
  facet normal 0 0 -1
    outer loop
      vertex 14.25 16.75 0
      vertex 16.75 20.25 0
      vertex 16.75 16.75 0
    endloop
  endfacet
  facet normal -0 0 -1
    outer loop
      vertex 16.75 20.25 0
      vertex 14.25 16.75 0
      vertex 14.25 20.25 0
    endloop
  endfacet
  facet normal 0 0 -1
    outer loop
      vertex 14.25 10.75 0
      vertex 16.75 14.25 0
      vertex 16.75 10.75 0
    endloop
  endfacet
  facet normal -0 0 -1
    outer loop
      vertex 16.75 14.25 0
      vertex 14.25 10.75 0
      vertex 14.25 14.25 0
    endloop
  endfacet
  facet normal 0 0 -1
    outer loop
      vertex 14.25 4.75 0
      vertex 16.75 8.25 0
      vertex 16.75 4.75 0
    endloop
  endfacet
  facet normal -0 0 -1
    outer loop
      vertex 16.75 8.25 0
      vertex 14.25 4.75 0
      vertex 14.25 8.25 0
    endloop
  endfacet
  facet normal 0 0 -1
    outer loop
      vertex 20.25 16.75 0
      vertex 22.75 20.25 0
      vertex 22.75 16.75 0
    endloop
  endfacet
  facet normal -0 0 -1
    outer loop
      vertex 22.75 20.25 0
      vertex 20.25 16.75 0
      vertex 20.25 20.25 0
    endloop
  endfacet
  facet normal 0 0 -1
    outer loop
      vertex 20.25 10.75 0
      vertex 22.75 14.25 0
      vertex 22.75 10.75 0
    endloop
  endfacet
  facet normal -0 0 -1
    outer loop
      vertex 22.75 14.25 0
      vertex 20.25 10.75 0
      vertex 20.25 14.25 0
    endloop
  endfacet
  facet normal 0 0 -1
    outer loop
      vertex 20.25 4.75 0
      vertex 22.75 8.25 0
      vertex 22.75 4.75 0
    endloop
  endfacet
  facet normal -0 0 -1
    outer loop
      vertex 22.75 8.25 0
      vertex 20.25 4.75 0
      vertex 20.25 8.25 0
    endloop
  endfacet
  facet normal 0 0 -1
    outer loop
      vertex 22.75 4.75 0
      vertex 25 0 0
      vertex 22.75 2.25 0
    endloop
  endfacet
  facet normal 0 0 -1
    outer loop
      vertex 25 0 0
      vertex 20.25 2.25 0
      vertex 22.75 2.25 0
    endloop
  endfacet
  facet normal 0 0 -1
    outer loop
      vertex 16.75 4.75 0
      vertex 20.25 4.75 0
      vertex 20.25 2.25 0
    endloop
  endfacet
  facet normal 0 0 -1
    outer loop
      vertex 20.25 4.75 0
      vertex 16.75 4.75 0
      vertex 20.25 8.25 0
    endloop
  endfacet
  facet normal 0 0 -1
    outer loop
      vertex 20.25 8.25 0
      vertex 16.75 8.25 0
      vertex 20.25 10.75 0
    endloop
  endfacet
  facet normal 0 0 -1
    outer loop
      vertex 16.75 10.75 0
      vertex 20.25 10.75 0
      vertex 16.75 8.25 0
    endloop
  endfacet
  facet normal 0 0 -1
    outer loop
      vertex 16.75 14.25 0
      vertex 20.25 14.25 0
      vertex 16.75 10.75 0
    endloop
  endfacet
  facet normal 0 0 -1
    outer loop
      vertex 20.25 14.25 0
      vertex 16.75 14.25 0
      vertex 20.25 16.75 0
    endloop
  endfacet
  facet normal 0 0 -1
    outer loop
      vertex 16.75 4.75 0
      vertex 20.25 2.25 0
      vertex 16.75 2.25 0
    endloop
  endfacet
  facet normal 0 0 -1
    outer loop
      vertex 25 0 0
      vertex 16.75 2.25 0
      vertex 20.25 2.25 0
    endloop
  endfacet
  facet normal 0 0 -1
    outer loop
      vertex 25 0 0
      vertex 14.25 2.25 0
      vertex 16.75 2.25 0
    endloop
  endfacet
  facet normal 0 0 -1
    outer loop
      vertex 10.75 4.75 0
      vertex 14.25 4.75 0
      vertex 14.25 2.25 0
    endloop
  endfacet
  facet normal 0 0 -1
    outer loop
      vertex 14.25 4.75 0
      vertex 10.75 4.75 0
      vertex 14.25 8.25 0
    endloop
  endfacet
  facet normal 0 0 -1
    outer loop
      vertex 14.25 8.25 0
      vertex 10.75 8.25 0
      vertex 14.25 10.75 0
    endloop
  endfacet
  facet normal 0 0 -1
    outer loop
      vertex 10.75 10.75 0
      vertex 14.25 10.75 0
      vertex 10.75 8.25 0
    endloop
  endfacet
  facet normal 0 0 -1
    outer loop
      vertex 10.75 14.25 0
      vertex 14.25 14.25 0
      vertex 10.75 10.75 0
    endloop
  endfacet
  facet normal 0 0 -1
    outer loop
      vertex 14.25 14.25 0
      vertex 10.75 14.25 0
      vertex 14.25 16.75 0
    endloop
  endfacet
  facet normal 0 0 -1
    outer loop
      vertex 10.75 4.75 0
      vertex 14.25 2.25 0
      vertex 10.75 2.25 0
    endloop
  endfacet
  facet normal 0 0 -1
    outer loop
      vertex 25 0 0
      vertex 10.75 2.25 0
      vertex 14.25 2.25 0
    endloop
  endfacet
  facet normal 0 0 -1
    outer loop
      vertex 0 0 0
      vertex 10.75 2.25 0
      vertex 25 0 0
    endloop
  endfacet
  facet normal 0 0 -1
    outer loop
      vertex 4.75 4.75 0
      vertex 8.25 4.75 0
      vertex 8.25 2.25 0
    endloop
  endfacet
  facet normal 0 0 -1
    outer loop
      vertex 8.25 4.75 0
      vertex 4.75 4.75 0
      vertex 8.25 8.25 0
    endloop
  endfacet
  facet normal 0 0 -1
    outer loop
      vertex 8.25 8.25 0
      vertex 4.75 8.25 0
      vertex 8.25 10.75 0
    endloop
  endfacet
  facet normal 0 0 -1
    outer loop
      vertex 4.75 10.75 0
      vertex 8.25 10.75 0
      vertex 4.75 8.25 0
    endloop
  endfacet
  facet normal 0 0 -1
    outer loop
      vertex 4.75 14.25 0
      vertex 8.25 14.25 0
      vertex 4.75 10.75 0
    endloop
  endfacet
  facet normal 0 0 -1
    outer loop
      vertex 8.25 14.25 0
      vertex 4.75 14.25 0
      vertex 8.25 16.75 0
    endloop
  endfacet
  facet normal 0 0 -1
    outer loop
      vertex 4.75 4.75 0
      vertex 8.25 2.25 0
      vertex 4.75 2.25 0
    endloop
  endfacet
  facet normal -0 0 -1
    outer loop
      vertex 10.75 2.25 0
      vertex 0 0 0
      vertex 8.25 2.25 0
    endloop
  endfacet
  facet normal -0 0 -1
    outer loop
      vertex 8.25 2.25 0
      vertex 0 0 0
      vertex 4.75 2.25 0
    endloop
  endfacet
  facet normal 0 0 -1
    outer loop
      vertex 0 0 0
      vertex 2.25 4.75 0
      vertex 2.25 2.25 0
    endloop
  endfacet
  facet normal -0 0 -1
    outer loop
      vertex 2.25 4.75 0
      vertex 0 0 0
      vertex 2.25 8.25 0
    endloop
  endfacet
  facet normal -0 0 -1
    outer loop
      vertex 2.25 8.25 0
      vertex 0 0 0
      vertex 2.25 10.75 0
    endloop
  endfacet
  facet normal -0 0 -1
    outer loop
      vertex 2.25 10.75 0
      vertex 0 0 0
      vertex 2.25 14.25 0
    endloop
  endfacet
  facet normal 0 0 -1
    outer loop
      vertex 0 25 0
      vertex 2.25 14.25 0
      vertex 0 0 0
    endloop
  endfacet
  facet normal 0 0 -1
    outer loop
      vertex 2.25 14.25 0
      vertex 0 25 0
      vertex 2.25 16.75 0
    endloop
  endfacet
  facet normal 0 0 -1
    outer loop
      vertex 2.25 16.75 0
      vertex 0 25 0
      vertex 2.25 20.25 0
    endloop
  endfacet
  facet normal -0 0 -1
    outer loop
      vertex 4.75 2.25 0
      vertex 0 0 0
      vertex 2.25 2.25 0
    endloop
  endfacet
  facet normal 0 0 -1
    outer loop
      vertex 22.75 8.25 0
      vertex 25 0 0
      vertex 22.75 4.75 0
    endloop
  endfacet
  facet normal 0 0 -1
    outer loop
      vertex 22.75 10.75 0
      vertex 25 0 0
      vertex 22.75 8.25 0
    endloop
  endfacet
  facet normal 0 0 -1
    outer loop
      vertex 25 0 0
      vertex 22.75 10.75 0
      vertex 25 25 0
    endloop
  endfacet
  facet normal 0 0 -1
    outer loop
      vertex 22.75 14.25 0
      vertex 25 25 0
      vertex 22.75 10.75 0
    endloop
  endfacet
  facet normal 0 0 -1
    outer loop
      vertex 22.75 16.75 0
      vertex 25 25 0
      vertex 22.75 14.25 0
    endloop
  endfacet
  facet normal 0 0 -1
    outer loop
      vertex 22.75 20.25 0
      vertex 25 25 0
      vertex 22.75 16.75 0
    endloop
  endfacet
  facet normal 0 0 -1
    outer loop
      vertex 22.75 22.75 0
      vertex 25 25 0
      vertex 22.75 20.25 0
    endloop
  endfacet
  facet normal 0 0 -1
    outer loop
      vertex 20.25 22.75 0
      vertex 25 25 0
      vertex 22.75 22.75 0
    endloop
  endfacet
  facet normal -0 0 -1
    outer loop
      vertex 20.25 8.25 0
      vertex 16.75 4.75 0
      vertex 16.75 8.25 0
    endloop
  endfacet
  facet normal 0 0 -1
    outer loop
      vertex 20.25 10.75 0
      vertex 16.75 10.75 0
      vertex 20.25 14.25 0
    endloop
  endfacet
  facet normal 0 0 -1
    outer loop
      vertex 16.75 16.75 0
      vertex 20.25 16.75 0
      vertex 16.75 14.25 0
    endloop
  endfacet
  facet normal 0 0 -1
    outer loop
      vertex 20.25 16.75 0
      vertex 16.75 16.75 0
      vertex 20.25 20.25 0
    endloop
  endfacet
  facet normal 0 0 -1
    outer loop
      vertex 16.75 20.25 0
      vertex 20.25 20.25 0
      vertex 16.75 16.75 0
    endloop
  endfacet
  facet normal 0 0 -1
    outer loop
      vertex 20.25 20.25 0
      vertex 16.75 20.25 0
      vertex 20.25 22.75 0
    endloop
  endfacet
  facet normal 0 0 -1
    outer loop
      vertex 16.75 22.75 0
      vertex 20.25 22.75 0
      vertex 16.75 20.25 0
    endloop
  endfacet
  facet normal 0 0 -1
    outer loop
      vertex 16.75 22.75 0
      vertex 25 25 0
      vertex 20.25 22.75 0
    endloop
  endfacet
  facet normal 0 0 -1
    outer loop
      vertex 14.25 22.75 0
      vertex 25 25 0
      vertex 16.75 22.75 0
    endloop
  endfacet
  facet normal -0 0 -1
    outer loop
      vertex 14.25 8.25 0
      vertex 10.75 4.75 0
      vertex 10.75 8.25 0
    endloop
  endfacet
  facet normal 0 0 -1
    outer loop
      vertex 14.25 10.75 0
      vertex 10.75 10.75 0
      vertex 14.25 14.25 0
    endloop
  endfacet
  facet normal 0 0 -1
    outer loop
      vertex 10.75 16.75 0
      vertex 14.25 16.75 0
      vertex 10.75 14.25 0
    endloop
  endfacet
  facet normal 0 0 -1
    outer loop
      vertex 14.25 16.75 0
      vertex 10.75 16.75 0
      vertex 14.25 20.25 0
    endloop
  endfacet
  facet normal 0 0 -1
    outer loop
      vertex 10.75 20.25 0
      vertex 14.25 20.25 0
      vertex 10.75 16.75 0
    endloop
  endfacet
  facet normal 0 0 -1
    outer loop
      vertex 14.25 20.25 0
      vertex 10.75 20.25 0
      vertex 14.25 22.75 0
    endloop
  endfacet
  facet normal 0 0 -1
    outer loop
      vertex 10.75 22.75 0
      vertex 14.25 22.75 0
      vertex 10.75 20.25 0
    endloop
  endfacet
  facet normal 0 0 -1
    outer loop
      vertex 10.75 22.75 0
      vertex 25 25 0
      vertex 14.25 22.75 0
    endloop
  endfacet
  facet normal 0 0 -1
    outer loop
      vertex 0 25 0
      vertex 10.75 22.75 0
      vertex 8.25 22.75 0
    endloop
  endfacet
  facet normal -0 0 -1
    outer loop
      vertex 8.25 8.25 0
      vertex 4.75 4.75 0
      vertex 4.75 8.25 0
    endloop
  endfacet
  facet normal 0 0 -1
    outer loop
      vertex 8.25 10.75 0
      vertex 4.75 10.75 0
      vertex 8.25 14.25 0
    endloop
  endfacet
  facet normal 0 0 -1
    outer loop
      vertex 4.75 16.75 0
      vertex 8.25 16.75 0
      vertex 4.75 14.25 0
    endloop
  endfacet
  facet normal 0 0 -1
    outer loop
      vertex 8.25 16.75 0
      vertex 4.75 16.75 0
      vertex 8.25 20.25 0
    endloop
  endfacet
  facet normal 0 0 -1
    outer loop
      vertex 4.75 20.25 0
      vertex 8.25 20.25 0
      vertex 4.75 16.75 0
    endloop
  endfacet
  facet normal 0 0 -1
    outer loop
      vertex 8.25 20.25 0
      vertex 4.75 20.25 0
      vertex 8.25 22.75 0
    endloop
  endfacet
  facet normal 0 0 -1
    outer loop
      vertex 4.75 22.75 0
      vertex 8.25 22.75 0
      vertex 4.75 20.25 0
    endloop
  endfacet
  facet normal 0 0 -1
    outer loop
      vertex 0 25 0
      vertex 8.25 22.75 0
      vertex 4.75 22.75 0
    endloop
  endfacet
  facet normal 0 0 -1
    outer loop
      vertex 0 25 0
      vertex 4.75 22.75 0
      vertex 2.25 22.75 0
    endloop
  endfacet
  facet normal 0 0 -1
    outer loop
      vertex 10.75 22.75 0
      vertex 0 25 0
      vertex 25 25 0
    endloop
  endfacet
  facet normal 0 0 -1
    outer loop
      vertex 2.25 20.25 0
      vertex 0 25 0
      vertex 2.25 22.75 0
    endloop
  endfacet
  facet normal 0 -1 0
    outer loop
      vertex 0 0 0
      vertex 25 0 53
      vertex 0 0 53
    endloop
  endfacet
  facet normal 0 -1 -0
    outer loop
      vertex 25 0 53
      vertex 0 0 0
      vertex 25 0 0
    endloop
  endfacet
  facet normal 1 -0 0
    outer loop
      vertex 1 1 53
      vertex 1 6 2.9
      vertex 1 6 53
    endloop
  endfacet
  facet normal 1 0 0
    outer loop
      vertex 1 6 2.9
      vertex 1 1 53
      vertex 1 1 2.9
    endloop
  endfacet
  facet normal -1 0 0
    outer loop
      vertex 6 1 2.9
      vertex 6 6 53
      vertex 6 6 2.9
    endloop
  endfacet
  facet normal -1 -0 0
    outer loop
      vertex 6 6 53
      vertex 6 1 2.9
      vertex 6 1 53
    endloop
  endfacet
  facet normal 0 0 1
    outer loop
      vertex 6 6 2.9
      vertex 4.75 4.75 2.9
      vertex 6 1 2.9
    endloop
  endfacet
  facet normal 0 0 1
    outer loop
      vertex 6 6 2.9
      vertex 2.25 4.75 2.9
      vertex 4.75 4.75 2.9
    endloop
  endfacet
  facet normal 0 0 1
    outer loop
      vertex 2.25 4.75 2.9
      vertex 1 6 2.9
      vertex 2.25 2.25 2.9
    endloop
  endfacet
  facet normal -0 0 1
    outer loop
      vertex 1 6 2.9
      vertex 2.25 4.75 2.9
      vertex 6 6 2.9
    endloop
  endfacet
  facet normal -0 0 1
    outer loop
      vertex 4.75 2.25 2.9
      vertex 6 1 2.9
      vertex 4.75 4.75 2.9
    endloop
  endfacet
  facet normal -0 0 1
    outer loop
      vertex 2.25 2.25 2.9
      vertex 6 1 2.9
      vertex 4.75 2.25 2.9
    endloop
  endfacet
  facet normal 0 0 1
    outer loop
      vertex 2.25 2.25 2.9
      vertex 1 1 2.9
      vertex 6 1 2.9
    endloop
  endfacet
  facet normal 0 0 1
    outer loop
      vertex 1 1 2.9
      vertex 2.25 2.25 2.9
      vertex 1 6 2.9
    endloop
  endfacet
  facet normal 0 1 -0
    outer loop
      vertex 6 1 2.9
      vertex 1 1 53
      vertex 6 1 53
    endloop
  endfacet
  facet normal 0 1 0
    outer loop
      vertex 1 1 53
      vertex 6 1 2.9
      vertex 1 1 2.9
    endloop
  endfacet
  facet normal 0 -1 0
    outer loop
      vertex 1 6 2.9
      vertex 6 6 53
      vertex 1 6 53
    endloop
  endfacet
  facet normal 0 -1 -0
    outer loop
      vertex 6 6 53
      vertex 1 6 2.9
      vertex 6 6 2.9
    endloop
  endfacet
  facet normal 1 -0 0
    outer loop
      vertex 2.25 2.25 2.9
      vertex 2.25 4.75 0
      vertex 2.25 4.75 2.9
    endloop
  endfacet
  facet normal 1 0 0
    outer loop
      vertex 2.25 4.75 0
      vertex 2.25 2.25 2.9
      vertex 2.25 2.25 0
    endloop
  endfacet
  facet normal -1 0 0
    outer loop
      vertex 4.75 2.25 0
      vertex 4.75 4.75 2.9
      vertex 4.75 4.75 0
    endloop
  endfacet
  facet normal -1 -0 0
    outer loop
      vertex 4.75 4.75 2.9
      vertex 4.75 2.25 0
      vertex 4.75 2.25 2.9
    endloop
  endfacet
  facet normal 0 -1 0
    outer loop
      vertex 2.25 4.75 0
      vertex 4.75 4.75 2.9
      vertex 2.25 4.75 2.9
    endloop
  endfacet
  facet normal 0 -1 -0
    outer loop
      vertex 4.75 4.75 2.9
      vertex 2.25 4.75 0
      vertex 4.75 4.75 0
    endloop
  endfacet
  facet normal 0 1 -0
    outer loop
      vertex 4.75 2.25 0
      vertex 2.25 2.25 2.9
      vertex 4.75 2.25 2.9
    endloop
  endfacet
  facet normal 0 1 0
    outer loop
      vertex 2.25 2.25 2.9
      vertex 4.75 2.25 0
      vertex 2.25 2.25 0
    endloop
  endfacet
  facet normal 1 -0 0
    outer loop
      vertex 7 1 53
      vertex 7 6 2.9
      vertex 7 6 53
    endloop
  endfacet
  facet normal 1 0 0
    outer loop
      vertex 7 6 2.9
      vertex 7 1 53
      vertex 7 1 2.9
    endloop
  endfacet
  facet normal -1 0 0
    outer loop
      vertex 12 1 2.9
      vertex 12 6 53
      vertex 12 6 2.9
    endloop
  endfacet
  facet normal -1 -0 0
    outer loop
      vertex 12 6 53
      vertex 12 1 2.9
      vertex 12 1 53
    endloop
  endfacet
  facet normal 0 0 1
    outer loop
      vertex 12 6 2.9
      vertex 10.75 4.75 2.9
      vertex 12 1 2.9
    endloop
  endfacet
  facet normal 0 0 1
    outer loop
      vertex 12 6 2.9
      vertex 8.25 4.75 2.9
      vertex 10.75 4.75 2.9
    endloop
  endfacet
  facet normal 0 0 1
    outer loop
      vertex 8.25 4.75 2.9
      vertex 7 6 2.9
      vertex 8.25 2.25 2.9
    endloop
  endfacet
  facet normal -0 0 1
    outer loop
      vertex 7 6 2.9
      vertex 8.25 4.75 2.9
      vertex 12 6 2.9
    endloop
  endfacet
  facet normal -0 0 1
    outer loop
      vertex 10.75 2.25 2.9
      vertex 12 1 2.9
      vertex 10.75 4.75 2.9
    endloop
  endfacet
  facet normal -0 0 1
    outer loop
      vertex 8.25 2.25 2.9
      vertex 12 1 2.9
      vertex 10.75 2.25 2.9
    endloop
  endfacet
  facet normal 0 0 1
    outer loop
      vertex 8.25 2.25 2.9
      vertex 7 1 2.9
      vertex 12 1 2.9
    endloop
  endfacet
  facet normal 0 0 1
    outer loop
      vertex 7 1 2.9
      vertex 8.25 2.25 2.9
      vertex 7 6 2.9
    endloop
  endfacet
  facet normal 0 1 -0
    outer loop
      vertex 12 1 2.9
      vertex 7 1 53
      vertex 12 1 53
    endloop
  endfacet
  facet normal 0 1 0
    outer loop
      vertex 7 1 53
      vertex 12 1 2.9
      vertex 7 1 2.9
    endloop
  endfacet
  facet normal 0 -1 0
    outer loop
      vertex 7 6 2.9
      vertex 12 6 53
      vertex 7 6 53
    endloop
  endfacet
  facet normal 0 -1 -0
    outer loop
      vertex 12 6 53
      vertex 7 6 2.9
      vertex 12 6 2.9
    endloop
  endfacet
  facet normal 1 -0 0
    outer loop
      vertex 8.25 2.25 2.9
      vertex 8.25 4.75 0
      vertex 8.25 4.75 2.9
    endloop
  endfacet
  facet normal 1 0 0
    outer loop
      vertex 8.25 4.75 0
      vertex 8.25 2.25 2.9
      vertex 8.25 2.25 0
    endloop
  endfacet
  facet normal -1 0 0
    outer loop
      vertex 10.75 2.25 0
      vertex 10.75 4.75 2.9
      vertex 10.75 4.75 0
    endloop
  endfacet
  facet normal -1 -0 0
    outer loop
      vertex 10.75 4.75 2.9
      vertex 10.75 2.25 0
      vertex 10.75 2.25 2.9
    endloop
  endfacet
  facet normal 0 -1 0
    outer loop
      vertex 8.25 4.75 0
      vertex 10.75 4.75 2.9
      vertex 8.25 4.75 2.9
    endloop
  endfacet
  facet normal 0 -1 -0
    outer loop
      vertex 10.75 4.75 2.9
      vertex 8.25 4.75 0
      vertex 10.75 4.75 0
    endloop
  endfacet
  facet normal 0 1 -0
    outer loop
      vertex 10.75 2.25 0
      vertex 8.25 2.25 2.9
      vertex 10.75 2.25 2.9
    endloop
  endfacet
  facet normal 0 1 0
    outer loop
      vertex 8.25 2.25 2.9
      vertex 10.75 2.25 0
      vertex 8.25 2.25 0
    endloop
  endfacet
  facet normal 1 -0 0
    outer loop
      vertex 13 1 53
      vertex 13 6 2.9
      vertex 13 6 53
    endloop
  endfacet
  facet normal 1 0 0
    outer loop
      vertex 13 6 2.9
      vertex 13 1 53
      vertex 13 1 2.9
    endloop
  endfacet
  facet normal -1 0 0
    outer loop
      vertex 18 1 2.9
      vertex 18 6 53
      vertex 18 6 2.9
    endloop
  endfacet
  facet normal -1 -0 0
    outer loop
      vertex 18 6 53
      vertex 18 1 2.9
      vertex 18 1 53
    endloop
  endfacet
  facet normal 0 -1 0
    outer loop
      vertex 13 6 2.9
      vertex 18 6 53
      vertex 13 6 53
    endloop
  endfacet
  facet normal 0 -1 -0
    outer loop
      vertex 18 6 53
      vertex 13 6 2.9
      vertex 18 6 2.9
    endloop
  endfacet
  facet normal 0 0 1
    outer loop
      vertex 18 6 2.9
      vertex 16.75 4.75 2.9
      vertex 18 1 2.9
    endloop
  endfacet
  facet normal 0 0 1
    outer loop
      vertex 18 6 2.9
      vertex 14.25 4.75 2.9
      vertex 16.75 4.75 2.9
    endloop
  endfacet
  facet normal 0 0 1
    outer loop
      vertex 14.25 4.75 2.9
      vertex 13 6 2.9
      vertex 14.25 2.25 2.9
    endloop
  endfacet
  facet normal -0 0 1
    outer loop
      vertex 13 6 2.9
      vertex 14.25 4.75 2.9
      vertex 18 6 2.9
    endloop
  endfacet
  facet normal -0 0 1
    outer loop
      vertex 16.75 2.25 2.9
      vertex 18 1 2.9
      vertex 16.75 4.75 2.9
    endloop
  endfacet
  facet normal -0 0 1
    outer loop
      vertex 14.25 2.25 2.9
      vertex 18 1 2.9
      vertex 16.75 2.25 2.9
    endloop
  endfacet
  facet normal 0 0 1
    outer loop
      vertex 14.25 2.25 2.9
      vertex 13 1 2.9
      vertex 18 1 2.9
    endloop
  endfacet
  facet normal 0 0 1
    outer loop
      vertex 13 1 2.9
      vertex 14.25 2.25 2.9
      vertex 13 6 2.9
    endloop
  endfacet
  facet normal 0 1 -0
    outer loop
      vertex 18 1 2.9
      vertex 13 1 53
      vertex 18 1 53
    endloop
  endfacet
  facet normal 0 1 0
    outer loop
      vertex 13 1 53
      vertex 18 1 2.9
      vertex 13 1 2.9
    endloop
  endfacet
  facet normal 1 -0 0
    outer loop
      vertex 14.25 2.25 2.9
      vertex 14.25 4.75 0
      vertex 14.25 4.75 2.9
    endloop
  endfacet
  facet normal 1 0 0
    outer loop
      vertex 14.25 4.75 0
      vertex 14.25 2.25 2.9
      vertex 14.25 2.25 0
    endloop
  endfacet
  facet normal -1 0 0
    outer loop
      vertex 16.75 2.25 0
      vertex 16.75 4.75 2.9
      vertex 16.75 4.75 0
    endloop
  endfacet
  facet normal -1 -0 0
    outer loop
      vertex 16.75 4.75 2.9
      vertex 16.75 2.25 0
      vertex 16.75 2.25 2.9
    endloop
  endfacet
  facet normal 0 -1 0
    outer loop
      vertex 14.25 4.75 0
      vertex 16.75 4.75 2.9
      vertex 14.25 4.75 2.9
    endloop
  endfacet
  facet normal 0 -1 -0
    outer loop
      vertex 16.75 4.75 2.9
      vertex 14.25 4.75 0
      vertex 16.75 4.75 0
    endloop
  endfacet
  facet normal 0 1 -0
    outer loop
      vertex 16.75 2.25 0
      vertex 14.25 2.25 2.9
      vertex 16.75 2.25 2.9
    endloop
  endfacet
  facet normal 0 1 0
    outer loop
      vertex 14.25 2.25 2.9
      vertex 16.75 2.25 0
      vertex 14.25 2.25 0
    endloop
  endfacet
  facet normal 1 -0 0
    outer loop
      vertex 19 1 53
      vertex 19 6 2.9
      vertex 19 6 53
    endloop
  endfacet
  facet normal 1 0 0
    outer loop
      vertex 19 6 2.9
      vertex 19 1 53
      vertex 19 1 2.9
    endloop
  endfacet
  facet normal -1 0 0
    outer loop
      vertex 24 1 2.9
      vertex 24 6 53
      vertex 24 6 2.9
    endloop
  endfacet
  facet normal -1 -0 0
    outer loop
      vertex 24 6 53
      vertex 24 1 2.9
      vertex 24 1 53
    endloop
  endfacet
  facet normal 0 -1 0
    outer loop
      vertex 19 6 2.9
      vertex 24 6 53
      vertex 19 6 53
    endloop
  endfacet
  facet normal 0 -1 -0
    outer loop
      vertex 24 6 53
      vertex 19 6 2.9
      vertex 24 6 2.9
    endloop
  endfacet
  facet normal 0 0 1
    outer loop
      vertex 24 6 2.9
      vertex 22.75 4.75 2.9
      vertex 24 1 2.9
    endloop
  endfacet
  facet normal 0 0 1
    outer loop
      vertex 24 6 2.9
      vertex 20.25 4.75 2.9
      vertex 22.75 4.75 2.9
    endloop
  endfacet
  facet normal 0 0 1
    outer loop
      vertex 20.25 4.75 2.9
      vertex 19 6 2.9
      vertex 20.25 2.25 2.9
    endloop
  endfacet
  facet normal -0 0 1
    outer loop
      vertex 19 6 2.9
      vertex 20.25 4.75 2.9
      vertex 24 6 2.9
    endloop
  endfacet
  facet normal -0 0 1
    outer loop
      vertex 22.75 2.25 2.9
      vertex 24 1 2.9
      vertex 22.75 4.75 2.9
    endloop
  endfacet
  facet normal -0 0 1
    outer loop
      vertex 20.25 2.25 2.9
      vertex 24 1 2.9
      vertex 22.75 2.25 2.9
    endloop
  endfacet
  facet normal 0 0 1
    outer loop
      vertex 20.25 2.25 2.9
      vertex 19 1 2.9
      vertex 24 1 2.9
    endloop
  endfacet
  facet normal 0 0 1
    outer loop
      vertex 19 1 2.9
      vertex 20.25 2.25 2.9
      vertex 19 6 2.9
    endloop
  endfacet
  facet normal 0 1 -0
    outer loop
      vertex 24 1 2.9
      vertex 19 1 53
      vertex 24 1 53
    endloop
  endfacet
  facet normal 0 1 0
    outer loop
      vertex 19 1 53
      vertex 24 1 2.9
      vertex 19 1 2.9
    endloop
  endfacet
  facet normal 1 -0 0
    outer loop
      vertex 20.25 2.25 2.9
      vertex 20.25 4.75 0
      vertex 20.25 4.75 2.9
    endloop
  endfacet
  facet normal 1 0 0
    outer loop
      vertex 20.25 4.75 0
      vertex 20.25 2.25 2.9
      vertex 20.25 2.25 0
    endloop
  endfacet
  facet normal -1 0 0
    outer loop
      vertex 22.75 2.25 0
      vertex 22.75 4.75 2.9
      vertex 22.75 4.75 0
    endloop
  endfacet
  facet normal -1 -0 0
    outer loop
      vertex 22.75 4.75 2.9
      vertex 22.75 2.25 0
      vertex 22.75 2.25 2.9
    endloop
  endfacet
  facet normal 0 -1 0
    outer loop
      vertex 20.25 4.75 0
      vertex 22.75 4.75 2.9
      vertex 20.25 4.75 2.9
    endloop
  endfacet
  facet normal 0 -1 -0
    outer loop
      vertex 22.75 4.75 2.9
      vertex 20.25 4.75 0
      vertex 22.75 4.75 0
    endloop
  endfacet
  facet normal 0 1 -0
    outer loop
      vertex 22.75 2.25 0
      vertex 20.25 2.25 2.9
      vertex 22.75 2.25 2.9
    endloop
  endfacet
  facet normal 0 1 0
    outer loop
      vertex 20.25 2.25 2.9
      vertex 22.75 2.25 0
      vertex 20.25 2.25 0
    endloop
  endfacet
  facet normal 1 -0 0
    outer loop
      vertex 1 7 53
      vertex 1 12 2.9
      vertex 1 12 53
    endloop
  endfacet
  facet normal 1 0 0
    outer loop
      vertex 1 12 2.9
      vertex 1 7 53
      vertex 1 7 2.9
    endloop
  endfacet
  facet normal -1 0 0
    outer loop
      vertex 6 7 2.9
      vertex 6 12 53
      vertex 6 12 2.9
    endloop
  endfacet
  facet normal -1 -0 0
    outer loop
      vertex 6 12 53
      vertex 6 7 2.9
      vertex 6 7 53
    endloop
  endfacet
  facet normal 0 -1 0
    outer loop
      vertex 1 12 2.9
      vertex 6 12 53
      vertex 1 12 53
    endloop
  endfacet
  facet normal 0 -1 -0
    outer loop
      vertex 6 12 53
      vertex 1 12 2.9
      vertex 6 12 2.9
    endloop
  endfacet
  facet normal 0 0 1
    outer loop
      vertex 6 12 2.9
      vertex 4.75 10.75 2.9
      vertex 6 7 2.9
    endloop
  endfacet
  facet normal 0 0 1
    outer loop
      vertex 6 12 2.9
      vertex 2.25 10.75 2.9
      vertex 4.75 10.75 2.9
    endloop
  endfacet
  facet normal 0 0 1
    outer loop
      vertex 2.25 10.75 2.9
      vertex 1 12 2.9
      vertex 2.25 8.25 2.9
    endloop
  endfacet
  facet normal -0 0 1
    outer loop
      vertex 1 12 2.9
      vertex 2.25 10.75 2.9
      vertex 6 12 2.9
    endloop
  endfacet
  facet normal -0 0 1
    outer loop
      vertex 4.75 8.25 2.9
      vertex 6 7 2.9
      vertex 4.75 10.75 2.9
    endloop
  endfacet
  facet normal -0 0 1
    outer loop
      vertex 2.25 8.25 2.9
      vertex 6 7 2.9
      vertex 4.75 8.25 2.9
    endloop
  endfacet
  facet normal 0 0 1
    outer loop
      vertex 2.25 8.25 2.9
      vertex 1 7 2.9
      vertex 6 7 2.9
    endloop
  endfacet
  facet normal 0 0 1
    outer loop
      vertex 1 7 2.9
      vertex 2.25 8.25 2.9
      vertex 1 12 2.9
    endloop
  endfacet
  facet normal 0 1 -0
    outer loop
      vertex 6 7 2.9
      vertex 1 7 53
      vertex 6 7 53
    endloop
  endfacet
  facet normal 0 1 0
    outer loop
      vertex 1 7 53
      vertex 6 7 2.9
      vertex 1 7 2.9
    endloop
  endfacet
  facet normal 1 -0 0
    outer loop
      vertex 2.25 8.25 2.9
      vertex 2.25 10.75 0
      vertex 2.25 10.75 2.9
    endloop
  endfacet
  facet normal 1 0 0
    outer loop
      vertex 2.25 10.75 0
      vertex 2.25 8.25 2.9
      vertex 2.25 8.25 0
    endloop
  endfacet
  facet normal -1 0 0
    outer loop
      vertex 4.75 8.25 0
      vertex 4.75 10.75 2.9
      vertex 4.75 10.75 0
    endloop
  endfacet
  facet normal -1 -0 0
    outer loop
      vertex 4.75 10.75 2.9
      vertex 4.75 8.25 0
      vertex 4.75 8.25 2.9
    endloop
  endfacet
  facet normal 0 1 -0
    outer loop
      vertex 4.75 8.25 0
      vertex 2.25 8.25 2.9
      vertex 4.75 8.25 2.9
    endloop
  endfacet
  facet normal 0 1 0
    outer loop
      vertex 2.25 8.25 2.9
      vertex 4.75 8.25 0
      vertex 2.25 8.25 0
    endloop
  endfacet
  facet normal 0 -1 0
    outer loop
      vertex 2.25 10.75 0
      vertex 4.75 10.75 2.9
      vertex 2.25 10.75 2.9
    endloop
  endfacet
  facet normal 0 -1 -0
    outer loop
      vertex 4.75 10.75 2.9
      vertex 2.25 10.75 0
      vertex 4.75 10.75 0
    endloop
  endfacet
  facet normal 1 -0 0
    outer loop
      vertex 7 7 53
      vertex 7 12 2.9
      vertex 7 12 53
    endloop
  endfacet
  facet normal 1 0 0
    outer loop
      vertex 7 12 2.9
      vertex 7 7 53
      vertex 7 7 2.9
    endloop
  endfacet
  facet normal -1 0 0
    outer loop
      vertex 12 7 2.9
      vertex 12 12 53
      vertex 12 12 2.9
    endloop
  endfacet
  facet normal -1 -0 0
    outer loop
      vertex 12 12 53
      vertex 12 7 2.9
      vertex 12 7 53
    endloop
  endfacet
  facet normal 0 -1 0
    outer loop
      vertex 7 12 2.9
      vertex 12 12 53
      vertex 7 12 53
    endloop
  endfacet
  facet normal 0 -1 -0
    outer loop
      vertex 12 12 53
      vertex 7 12 2.9
      vertex 12 12 2.9
    endloop
  endfacet
  facet normal 0 0 1
    outer loop
      vertex 12 12 2.9
      vertex 10.75 10.75 2.9
      vertex 12 7 2.9
    endloop
  endfacet
  facet normal 0 0 1
    outer loop
      vertex 12 12 2.9
      vertex 8.25 10.75 2.9
      vertex 10.75 10.75 2.9
    endloop
  endfacet
  facet normal 0 0 1
    outer loop
      vertex 8.25 10.75 2.9
      vertex 7 12 2.9
      vertex 8.25 8.25 2.9
    endloop
  endfacet
  facet normal -0 0 1
    outer loop
      vertex 7 12 2.9
      vertex 8.25 10.75 2.9
      vertex 12 12 2.9
    endloop
  endfacet
  facet normal -0 0 1
    outer loop
      vertex 10.75 8.25 2.9
      vertex 12 7 2.9
      vertex 10.75 10.75 2.9
    endloop
  endfacet
  facet normal -0 0 1
    outer loop
      vertex 8.25 8.25 2.9
      vertex 12 7 2.9
      vertex 10.75 8.25 2.9
    endloop
  endfacet
  facet normal 0 0 1
    outer loop
      vertex 8.25 8.25 2.9
      vertex 7 7 2.9
      vertex 12 7 2.9
    endloop
  endfacet
  facet normal 0 0 1
    outer loop
      vertex 7 7 2.9
      vertex 8.25 8.25 2.9
      vertex 7 12 2.9
    endloop
  endfacet
  facet normal 0 1 -0
    outer loop
      vertex 12 7 2.9
      vertex 7 7 53
      vertex 12 7 53
    endloop
  endfacet
  facet normal 0 1 0
    outer loop
      vertex 7 7 53
      vertex 12 7 2.9
      vertex 7 7 2.9
    endloop
  endfacet
  facet normal 1 -0 0
    outer loop
      vertex 8.25 8.25 2.9
      vertex 8.25 10.75 0
      vertex 8.25 10.75 2.9
    endloop
  endfacet
  facet normal 1 0 0
    outer loop
      vertex 8.25 10.75 0
      vertex 8.25 8.25 2.9
      vertex 8.25 8.25 0
    endloop
  endfacet
  facet normal -1 0 0
    outer loop
      vertex 10.75 8.25 0
      vertex 10.75 10.75 2.9
      vertex 10.75 10.75 0
    endloop
  endfacet
  facet normal -1 -0 0
    outer loop
      vertex 10.75 10.75 2.9
      vertex 10.75 8.25 0
      vertex 10.75 8.25 2.9
    endloop
  endfacet
  facet normal 0 -1 0
    outer loop
      vertex 8.25 10.75 0
      vertex 10.75 10.75 2.9
      vertex 8.25 10.75 2.9
    endloop
  endfacet
  facet normal 0 -1 -0
    outer loop
      vertex 10.75 10.75 2.9
      vertex 8.25 10.75 0
      vertex 10.75 10.75 0
    endloop
  endfacet
  facet normal 0 1 -0
    outer loop
      vertex 10.75 8.25 0
      vertex 8.25 8.25 2.9
      vertex 10.75 8.25 2.9
    endloop
  endfacet
  facet normal 0 1 0
    outer loop
      vertex 8.25 8.25 2.9
      vertex 10.75 8.25 0
      vertex 8.25 8.25 0
    endloop
  endfacet
  facet normal 1 -0 0
    outer loop
      vertex 13 7 53
      vertex 13 12 2.9
      vertex 13 12 53
    endloop
  endfacet
  facet normal 1 0 0
    outer loop
      vertex 13 12 2.9
      vertex 13 7 53
      vertex 13 7 2.9
    endloop
  endfacet
  facet normal -1 0 0
    outer loop
      vertex 18 7 2.9
      vertex 18 12 53
      vertex 18 12 2.9
    endloop
  endfacet
  facet normal -1 -0 0
    outer loop
      vertex 18 12 53
      vertex 18 7 2.9
      vertex 18 7 53
    endloop
  endfacet
  facet normal 0 -1 0
    outer loop
      vertex 13 12 2.9
      vertex 18 12 53
      vertex 13 12 53
    endloop
  endfacet
  facet normal 0 -1 -0
    outer loop
      vertex 18 12 53
      vertex 13 12 2.9
      vertex 18 12 2.9
    endloop
  endfacet
  facet normal 0 0 1
    outer loop
      vertex 18 12 2.9
      vertex 16.75 10.75 2.9
      vertex 18 7 2.9
    endloop
  endfacet
  facet normal 0 0 1
    outer loop
      vertex 18 12 2.9
      vertex 14.25 10.75 2.9
      vertex 16.75 10.75 2.9
    endloop
  endfacet
  facet normal 0 0 1
    outer loop
      vertex 14.25 10.75 2.9
      vertex 13 12 2.9
      vertex 14.25 8.25 2.9
    endloop
  endfacet
  facet normal -0 0 1
    outer loop
      vertex 13 12 2.9
      vertex 14.25 10.75 2.9
      vertex 18 12 2.9
    endloop
  endfacet
  facet normal -0 0 1
    outer loop
      vertex 16.75 8.25 2.9
      vertex 18 7 2.9
      vertex 16.75 10.75 2.9
    endloop
  endfacet
  facet normal -0 0 1
    outer loop
      vertex 14.25 8.25 2.9
      vertex 18 7 2.9
      vertex 16.75 8.25 2.9
    endloop
  endfacet
  facet normal 0 0 1
    outer loop
      vertex 14.25 8.25 2.9
      vertex 13 7 2.9
      vertex 18 7 2.9
    endloop
  endfacet
  facet normal 0 0 1
    outer loop
      vertex 13 7 2.9
      vertex 14.25 8.25 2.9
      vertex 13 12 2.9
    endloop
  endfacet
  facet normal 0 1 -0
    outer loop
      vertex 18 7 2.9
      vertex 13 7 53
      vertex 18 7 53
    endloop
  endfacet
  facet normal 0 1 0
    outer loop
      vertex 13 7 53
      vertex 18 7 2.9
      vertex 13 7 2.9
    endloop
  endfacet
  facet normal 1 -0 0
    outer loop
      vertex 14.25 8.25 2.9
      vertex 14.25 10.75 0
      vertex 14.25 10.75 2.9
    endloop
  endfacet
  facet normal 1 0 0
    outer loop
      vertex 14.25 10.75 0
      vertex 14.25 8.25 2.9
      vertex 14.25 8.25 0
    endloop
  endfacet
  facet normal -1 0 0
    outer loop
      vertex 16.75 8.25 0
      vertex 16.75 10.75 2.9
      vertex 16.75 10.75 0
    endloop
  endfacet
  facet normal -1 -0 0
    outer loop
      vertex 16.75 10.75 2.9
      vertex 16.75 8.25 0
      vertex 16.75 8.25 2.9
    endloop
  endfacet
  facet normal 0 1 -0
    outer loop
      vertex 16.75 8.25 0
      vertex 14.25 8.25 2.9
      vertex 16.75 8.25 2.9
    endloop
  endfacet
  facet normal 0 1 0
    outer loop
      vertex 14.25 8.25 2.9
      vertex 16.75 8.25 0
      vertex 14.25 8.25 0
    endloop
  endfacet
  facet normal 0 -1 0
    outer loop
      vertex 14.25 10.75 0
      vertex 16.75 10.75 2.9
      vertex 14.25 10.75 2.9
    endloop
  endfacet
  facet normal 0 -1 -0
    outer loop
      vertex 16.75 10.75 2.9
      vertex 14.25 10.75 0
      vertex 16.75 10.75 0
    endloop
  endfacet
  facet normal 1 -0 0
    outer loop
      vertex 19 7 53
      vertex 19 12 2.9
      vertex 19 12 53
    endloop
  endfacet
  facet normal 1 0 0
    outer loop
      vertex 19 12 2.9
      vertex 19 7 53
      vertex 19 7 2.9
    endloop
  endfacet
  facet normal -1 0 0
    outer loop
      vertex 24 7 2.9
      vertex 24 12 53
      vertex 24 12 2.9
    endloop
  endfacet
  facet normal -1 -0 0
    outer loop
      vertex 24 12 53
      vertex 24 7 2.9
      vertex 24 7 53
    endloop
  endfacet
  facet normal 0 -1 0
    outer loop
      vertex 19 12 2.9
      vertex 24 12 53
      vertex 19 12 53
    endloop
  endfacet
  facet normal 0 -1 -0
    outer loop
      vertex 24 12 53
      vertex 19 12 2.9
      vertex 24 12 2.9
    endloop
  endfacet
  facet normal 0 0 1
    outer loop
      vertex 24 12 2.9
      vertex 22.75 10.75 2.9
      vertex 24 7 2.9
    endloop
  endfacet
  facet normal 0 0 1
    outer loop
      vertex 24 12 2.9
      vertex 20.25 10.75 2.9
      vertex 22.75 10.75 2.9
    endloop
  endfacet
  facet normal 0 0 1
    outer loop
      vertex 20.25 10.75 2.9
      vertex 19 12 2.9
      vertex 20.25 8.25 2.9
    endloop
  endfacet
  facet normal -0 0 1
    outer loop
      vertex 19 12 2.9
      vertex 20.25 10.75 2.9
      vertex 24 12 2.9
    endloop
  endfacet
  facet normal -0 0 1
    outer loop
      vertex 22.75 8.25 2.9
      vertex 24 7 2.9
      vertex 22.75 10.75 2.9
    endloop
  endfacet
  facet normal -0 0 1
    outer loop
      vertex 20.25 8.25 2.9
      vertex 24 7 2.9
      vertex 22.75 8.25 2.9
    endloop
  endfacet
  facet normal 0 0 1
    outer loop
      vertex 20.25 8.25 2.9
      vertex 19 7 2.9
      vertex 24 7 2.9
    endloop
  endfacet
  facet normal 0 0 1
    outer loop
      vertex 19 7 2.9
      vertex 20.25 8.25 2.9
      vertex 19 12 2.9
    endloop
  endfacet
  facet normal 0 1 -0
    outer loop
      vertex 24 7 2.9
      vertex 19 7 53
      vertex 24 7 53
    endloop
  endfacet
  facet normal 0 1 0
    outer loop
      vertex 19 7 53
      vertex 24 7 2.9
      vertex 19 7 2.9
    endloop
  endfacet
  facet normal 1 -0 0
    outer loop
      vertex 20.25 8.25 2.9
      vertex 20.25 10.75 0
      vertex 20.25 10.75 2.9
    endloop
  endfacet
  facet normal 1 0 0
    outer loop
      vertex 20.25 10.75 0
      vertex 20.25 8.25 2.9
      vertex 20.25 8.25 0
    endloop
  endfacet
  facet normal -1 0 0
    outer loop
      vertex 22.75 8.25 0
      vertex 22.75 10.75 2.9
      vertex 22.75 10.75 0
    endloop
  endfacet
  facet normal -1 -0 0
    outer loop
      vertex 22.75 10.75 2.9
      vertex 22.75 8.25 0
      vertex 22.75 8.25 2.9
    endloop
  endfacet
  facet normal 0 1 -0
    outer loop
      vertex 22.75 8.25 0
      vertex 20.25 8.25 2.9
      vertex 22.75 8.25 2.9
    endloop
  endfacet
  facet normal 0 1 0
    outer loop
      vertex 20.25 8.25 2.9
      vertex 22.75 8.25 0
      vertex 20.25 8.25 0
    endloop
  endfacet
  facet normal 0 -1 0
    outer loop
      vertex 20.25 10.75 0
      vertex 22.75 10.75 2.9
      vertex 20.25 10.75 2.9
    endloop
  endfacet
  facet normal 0 -1 -0
    outer loop
      vertex 22.75 10.75 2.9
      vertex 20.25 10.75 0
      vertex 22.75 10.75 0
    endloop
  endfacet
  facet normal 1 -0 0
    outer loop
      vertex 1 13 53
      vertex 1 18 2.9
      vertex 1 18 53
    endloop
  endfacet
  facet normal 1 0 0
    outer loop
      vertex 1 18 2.9
      vertex 1 13 53
      vertex 1 13 2.9
    endloop
  endfacet
  facet normal -1 0 0
    outer loop
      vertex 6 13 2.9
      vertex 6 18 53
      vertex 6 18 2.9
    endloop
  endfacet
  facet normal -1 -0 0
    outer loop
      vertex 6 18 53
      vertex 6 13 2.9
      vertex 6 13 53
    endloop
  endfacet
  facet normal 0 -1 0
    outer loop
      vertex 1 18 2.9
      vertex 6 18 53
      vertex 1 18 53
    endloop
  endfacet
  facet normal 0 -1 -0
    outer loop
      vertex 6 18 53
      vertex 1 18 2.9
      vertex 6 18 2.9
    endloop
  endfacet
  facet normal 0 0 1
    outer loop
      vertex 6 18 2.9
      vertex 4.75 16.75 2.9
      vertex 6 13 2.9
    endloop
  endfacet
  facet normal 0 0 1
    outer loop
      vertex 6 18 2.9
      vertex 2.25 16.75 2.9
      vertex 4.75 16.75 2.9
    endloop
  endfacet
  facet normal 0 0 1
    outer loop
      vertex 2.25 16.75 2.9
      vertex 1 18 2.9
      vertex 2.25 14.25 2.9
    endloop
  endfacet
  facet normal -0 0 1
    outer loop
      vertex 1 18 2.9
      vertex 2.25 16.75 2.9
      vertex 6 18 2.9
    endloop
  endfacet
  facet normal -0 0 1
    outer loop
      vertex 4.75 14.25 2.9
      vertex 6 13 2.9
      vertex 4.75 16.75 2.9
    endloop
  endfacet
  facet normal -0 0 1
    outer loop
      vertex 2.25 14.25 2.9
      vertex 6 13 2.9
      vertex 4.75 14.25 2.9
    endloop
  endfacet
  facet normal 0 0 1
    outer loop
      vertex 2.25 14.25 2.9
      vertex 1 13 2.9
      vertex 6 13 2.9
    endloop
  endfacet
  facet normal 0 0 1
    outer loop
      vertex 1 13 2.9
      vertex 2.25 14.25 2.9
      vertex 1 18 2.9
    endloop
  endfacet
  facet normal 0 1 -0
    outer loop
      vertex 6 13 2.9
      vertex 1 13 53
      vertex 6 13 53
    endloop
  endfacet
  facet normal 0 1 0
    outer loop
      vertex 1 13 53
      vertex 6 13 2.9
      vertex 1 13 2.9
    endloop
  endfacet
  facet normal 1 -0 0
    outer loop
      vertex 2.25 14.25 2.9
      vertex 2.25 16.75 0
      vertex 2.25 16.75 2.9
    endloop
  endfacet
  facet normal 1 0 0
    outer loop
      vertex 2.25 16.75 0
      vertex 2.25 14.25 2.9
      vertex 2.25 14.25 0
    endloop
  endfacet
  facet normal -1 0 0
    outer loop
      vertex 4.75 14.25 0
      vertex 4.75 16.75 2.9
      vertex 4.75 16.75 0
    endloop
  endfacet
  facet normal -1 -0 0
    outer loop
      vertex 4.75 16.75 2.9
      vertex 4.75 14.25 0
      vertex 4.75 14.25 2.9
    endloop
  endfacet
  facet normal 0 -1 0
    outer loop
      vertex 2.25 16.75 0
      vertex 4.75 16.75 2.9
      vertex 2.25 16.75 2.9
    endloop
  endfacet
  facet normal 0 -1 -0
    outer loop
      vertex 4.75 16.75 2.9
      vertex 2.25 16.75 0
      vertex 4.75 16.75 0
    endloop
  endfacet
  facet normal 0 1 -0
    outer loop
      vertex 4.75 14.25 0
      vertex 2.25 14.25 2.9
      vertex 4.75 14.25 2.9
    endloop
  endfacet
  facet normal 0 1 0
    outer loop
      vertex 2.25 14.25 2.9
      vertex 4.75 14.25 0
      vertex 2.25 14.25 0
    endloop
  endfacet
  facet normal 1 -0 0
    outer loop
      vertex 7 13 53
      vertex 7 18 2.9
      vertex 7 18 53
    endloop
  endfacet
  facet normal 1 0 0
    outer loop
      vertex 7 18 2.9
      vertex 7 13 53
      vertex 7 13 2.9
    endloop
  endfacet
  facet normal -1 0 0
    outer loop
      vertex 12 13 2.9
      vertex 12 18 53
      vertex 12 18 2.9
    endloop
  endfacet
  facet normal -1 -0 0
    outer loop
      vertex 12 18 53
      vertex 12 13 2.9
      vertex 12 13 53
    endloop
  endfacet
  facet normal 0 0 1
    outer loop
      vertex 12 18 2.9
      vertex 10.75 16.75 2.9
      vertex 12 13 2.9
    endloop
  endfacet
  facet normal 0 0 1
    outer loop
      vertex 12 18 2.9
      vertex 8.25 16.75 2.9
      vertex 10.75 16.75 2.9
    endloop
  endfacet
  facet normal 0 0 1
    outer loop
      vertex 8.25 16.75 2.9
      vertex 7 18 2.9
      vertex 8.25 14.25 2.9
    endloop
  endfacet
  facet normal -0 0 1
    outer loop
      vertex 7 18 2.9
      vertex 8.25 16.75 2.9
      vertex 12 18 2.9
    endloop
  endfacet
  facet normal -0 0 1
    outer loop
      vertex 10.75 14.25 2.9
      vertex 12 13 2.9
      vertex 10.75 16.75 2.9
    endloop
  endfacet
  facet normal -0 0 1
    outer loop
      vertex 8.25 14.25 2.9
      vertex 12 13 2.9
      vertex 10.75 14.25 2.9
    endloop
  endfacet
  facet normal 0 0 1
    outer loop
      vertex 8.25 14.25 2.9
      vertex 7 13 2.9
      vertex 12 13 2.9
    endloop
  endfacet
  facet normal 0 0 1
    outer loop
      vertex 7 13 2.9
      vertex 8.25 14.25 2.9
      vertex 7 18 2.9
    endloop
  endfacet
  facet normal 0 1 -0
    outer loop
      vertex 12 13 2.9
      vertex 7 13 53
      vertex 12 13 53
    endloop
  endfacet
  facet normal 0 1 0
    outer loop
      vertex 7 13 53
      vertex 12 13 2.9
      vertex 7 13 2.9
    endloop
  endfacet
  facet normal 0 -1 0
    outer loop
      vertex 7 18 2.9
      vertex 12 18 53
      vertex 7 18 53
    endloop
  endfacet
  facet normal 0 -1 -0
    outer loop
      vertex 12 18 53
      vertex 7 18 2.9
      vertex 12 18 2.9
    endloop
  endfacet
  facet normal 1 -0 0
    outer loop
      vertex 8.25 14.25 2.9
      vertex 8.25 16.75 0
      vertex 8.25 16.75 2.9
    endloop
  endfacet
  facet normal 1 0 0
    outer loop
      vertex 8.25 16.75 0
      vertex 8.25 14.25 2.9
      vertex 8.25 14.25 0
    endloop
  endfacet
  facet normal -1 0 0
    outer loop
      vertex 10.75 14.25 0
      vertex 10.75 16.75 2.9
      vertex 10.75 16.75 0
    endloop
  endfacet
  facet normal -1 -0 0
    outer loop
      vertex 10.75 16.75 2.9
      vertex 10.75 14.25 0
      vertex 10.75 14.25 2.9
    endloop
  endfacet
  facet normal 0 -1 0
    outer loop
      vertex 8.25 16.75 0
      vertex 10.75 16.75 2.9
      vertex 8.25 16.75 2.9
    endloop
  endfacet
  facet normal 0 -1 -0
    outer loop
      vertex 10.75 16.75 2.9
      vertex 8.25 16.75 0
      vertex 10.75 16.75 0
    endloop
  endfacet
  facet normal 0 1 -0
    outer loop
      vertex 10.75 14.25 0
      vertex 8.25 14.25 2.9
      vertex 10.75 14.25 2.9
    endloop
  endfacet
  facet normal 0 1 0
    outer loop
      vertex 8.25 14.25 2.9
      vertex 10.75 14.25 0
      vertex 8.25 14.25 0
    endloop
  endfacet
  facet normal 1 -0 0
    outer loop
      vertex 13 13 53
      vertex 13 18 2.9
      vertex 13 18 53
    endloop
  endfacet
  facet normal 1 0 0
    outer loop
      vertex 13 18 2.9
      vertex 13 13 53
      vertex 13 13 2.9
    endloop
  endfacet
  facet normal -1 0 0
    outer loop
      vertex 18 13 2.9
      vertex 18 18 53
      vertex 18 18 2.9
    endloop
  endfacet
  facet normal -1 -0 0
    outer loop
      vertex 18 18 53
      vertex 18 13 2.9
      vertex 18 13 53
    endloop
  endfacet
  facet normal 0 -1 0
    outer loop
      vertex 13 18 2.9
      vertex 18 18 53
      vertex 13 18 53
    endloop
  endfacet
  facet normal 0 -1 -0
    outer loop
      vertex 18 18 53
      vertex 13 18 2.9
      vertex 18 18 2.9
    endloop
  endfacet
  facet normal 0 0 1
    outer loop
      vertex 18 18 2.9
      vertex 16.75 16.75 2.9
      vertex 18 13 2.9
    endloop
  endfacet
  facet normal 0 0 1
    outer loop
      vertex 18 18 2.9
      vertex 14.25 16.75 2.9
      vertex 16.75 16.75 2.9
    endloop
  endfacet
  facet normal 0 0 1
    outer loop
      vertex 14.25 16.75 2.9
      vertex 13 18 2.9
      vertex 14.25 14.25 2.9
    endloop
  endfacet
  facet normal -0 0 1
    outer loop
      vertex 13 18 2.9
      vertex 14.25 16.75 2.9
      vertex 18 18 2.9
    endloop
  endfacet
  facet normal -0 0 1
    outer loop
      vertex 16.75 14.25 2.9
      vertex 18 13 2.9
      vertex 16.75 16.75 2.9
    endloop
  endfacet
  facet normal -0 0 1
    outer loop
      vertex 14.25 14.25 2.9
      vertex 18 13 2.9
      vertex 16.75 14.25 2.9
    endloop
  endfacet
  facet normal 0 0 1
    outer loop
      vertex 14.25 14.25 2.9
      vertex 13 13 2.9
      vertex 18 13 2.9
    endloop
  endfacet
  facet normal 0 0 1
    outer loop
      vertex 13 13 2.9
      vertex 14.25 14.25 2.9
      vertex 13 18 2.9
    endloop
  endfacet
  facet normal 0 1 -0
    outer loop
      vertex 18 13 2.9
      vertex 13 13 53
      vertex 18 13 53
    endloop
  endfacet
  facet normal 0 1 0
    outer loop
      vertex 13 13 53
      vertex 18 13 2.9
      vertex 13 13 2.9
    endloop
  endfacet
  facet normal 1 -0 0
    outer loop
      vertex 14.25 14.25 2.9
      vertex 14.25 16.75 0
      vertex 14.25 16.75 2.9
    endloop
  endfacet
  facet normal 1 0 0
    outer loop
      vertex 14.25 16.75 0
      vertex 14.25 14.25 2.9
      vertex 14.25 14.25 0
    endloop
  endfacet
  facet normal -1 0 0
    outer loop
      vertex 16.75 14.25 0
      vertex 16.75 16.75 2.9
      vertex 16.75 16.75 0
    endloop
  endfacet
  facet normal -1 -0 0
    outer loop
      vertex 16.75 16.75 2.9
      vertex 16.75 14.25 0
      vertex 16.75 14.25 2.9
    endloop
  endfacet
  facet normal 0 -1 0
    outer loop
      vertex 14.25 16.75 0
      vertex 16.75 16.75 2.9
      vertex 14.25 16.75 2.9
    endloop
  endfacet
  facet normal 0 -1 -0
    outer loop
      vertex 16.75 16.75 2.9
      vertex 14.25 16.75 0
      vertex 16.75 16.75 0
    endloop
  endfacet
  facet normal 0 1 -0
    outer loop
      vertex 16.75 14.25 0
      vertex 14.25 14.25 2.9
      vertex 16.75 14.25 2.9
    endloop
  endfacet
  facet normal 0 1 0
    outer loop
      vertex 14.25 14.25 2.9
      vertex 16.75 14.25 0
      vertex 14.25 14.25 0
    endloop
  endfacet
  facet normal 1 -0 0
    outer loop
      vertex 19 13 53
      vertex 19 18 2.9
      vertex 19 18 53
    endloop
  endfacet
  facet normal 1 0 0
    outer loop
      vertex 19 18 2.9
      vertex 19 13 53
      vertex 19 13 2.9
    endloop
  endfacet
  facet normal -1 0 0
    outer loop
      vertex 24 13 2.9
      vertex 24 18 53
      vertex 24 18 2.9
    endloop
  endfacet
  facet normal -1 -0 0
    outer loop
      vertex 24 18 53
      vertex 24 13 2.9
      vertex 24 13 53
    endloop
  endfacet
  facet normal 0 -1 0
    outer loop
      vertex 19 18 2.9
      vertex 24 18 53
      vertex 19 18 53
    endloop
  endfacet
  facet normal 0 -1 -0
    outer loop
      vertex 24 18 53
      vertex 19 18 2.9
      vertex 24 18 2.9
    endloop
  endfacet
  facet normal 0 0 1
    outer loop
      vertex 24 18 2.9
      vertex 22.75 16.75 2.9
      vertex 24 13 2.9
    endloop
  endfacet
  facet normal 0 0 1
    outer loop
      vertex 24 18 2.9
      vertex 20.25 16.75 2.9
      vertex 22.75 16.75 2.9
    endloop
  endfacet
  facet normal 0 0 1
    outer loop
      vertex 20.25 16.75 2.9
      vertex 19 18 2.9
      vertex 20.25 14.25 2.9
    endloop
  endfacet
  facet normal -0 0 1
    outer loop
      vertex 19 18 2.9
      vertex 20.25 16.75 2.9
      vertex 24 18 2.9
    endloop
  endfacet
  facet normal -0 0 1
    outer loop
      vertex 22.75 14.25 2.9
      vertex 24 13 2.9
      vertex 22.75 16.75 2.9
    endloop
  endfacet
  facet normal -0 0 1
    outer loop
      vertex 20.25 14.25 2.9
      vertex 24 13 2.9
      vertex 22.75 14.25 2.9
    endloop
  endfacet
  facet normal 0 0 1
    outer loop
      vertex 20.25 14.25 2.9
      vertex 19 13 2.9
      vertex 24 13 2.9
    endloop
  endfacet
  facet normal 0 0 1
    outer loop
      vertex 19 13 2.9
      vertex 20.25 14.25 2.9
      vertex 19 18 2.9
    endloop
  endfacet
  facet normal 0 1 -0
    outer loop
      vertex 24 13 2.9
      vertex 19 13 53
      vertex 24 13 53
    endloop
  endfacet
  facet normal 0 1 0
    outer loop
      vertex 19 13 53
      vertex 24 13 2.9
      vertex 19 13 2.9
    endloop
  endfacet
  facet normal 1 -0 0
    outer loop
      vertex 20.25 14.25 2.9
      vertex 20.25 16.75 0
      vertex 20.25 16.75 2.9
    endloop
  endfacet
  facet normal 1 0 0
    outer loop
      vertex 20.25 16.75 0
      vertex 20.25 14.25 2.9
      vertex 20.25 14.25 0
    endloop
  endfacet
  facet normal -1 0 0
    outer loop
      vertex 22.75 14.25 0
      vertex 22.75 16.75 2.9
      vertex 22.75 16.75 0
    endloop
  endfacet
  facet normal -1 -0 0
    outer loop
      vertex 22.75 16.75 2.9
      vertex 22.75 14.25 0
      vertex 22.75 14.25 2.9
    endloop
  endfacet
  facet normal 0 1 -0
    outer loop
      vertex 22.75 14.25 0
      vertex 20.25 14.25 2.9
      vertex 22.75 14.25 2.9
    endloop
  endfacet
  facet normal 0 1 0
    outer loop
      vertex 20.25 14.25 2.9
      vertex 22.75 14.25 0
      vertex 20.25 14.25 0
    endloop
  endfacet
  facet normal 0 -1 0
    outer loop
      vertex 20.25 16.75 0
      vertex 22.75 16.75 2.9
      vertex 20.25 16.75 2.9
    endloop
  endfacet
  facet normal 0 -1 -0
    outer loop
      vertex 22.75 16.75 2.9
      vertex 20.25 16.75 0
      vertex 22.75 16.75 0
    endloop
  endfacet
  facet normal 1 -0 0
    outer loop
      vertex 1 19 53
      vertex 1 24 2.9
      vertex 1 24 53
    endloop
  endfacet
  facet normal 1 0 0
    outer loop
      vertex 1 24 2.9
      vertex 1 19 53
      vertex 1 19 2.9
    endloop
  endfacet
  facet normal -1 0 0
    outer loop
      vertex 6 19 2.9
      vertex 6 24 53
      vertex 6 24 2.9
    endloop
  endfacet
  facet normal -1 -0 0
    outer loop
      vertex 6 24 53
      vertex 6 19 2.9
      vertex 6 19 53
    endloop
  endfacet
  facet normal 0 -1 0
    outer loop
      vertex 1 24 2.9
      vertex 6 24 53
      vertex 1 24 53
    endloop
  endfacet
  facet normal 0 -1 -0
    outer loop
      vertex 6 24 53
      vertex 1 24 2.9
      vertex 6 24 2.9
    endloop
  endfacet
  facet normal 0 0 1
    outer loop
      vertex 6 24 2.9
      vertex 4.75 22.75 2.9
      vertex 6 19 2.9
    endloop
  endfacet
  facet normal 0 0 1
    outer loop
      vertex 6 24 2.9
      vertex 2.25 22.75 2.9
      vertex 4.75 22.75 2.9
    endloop
  endfacet
  facet normal 0 0 1
    outer loop
      vertex 2.25 22.75 2.9
      vertex 1 24 2.9
      vertex 2.25 20.25 2.9
    endloop
  endfacet
  facet normal -0 0 1
    outer loop
      vertex 1 24 2.9
      vertex 2.25 22.75 2.9
      vertex 6 24 2.9
    endloop
  endfacet
  facet normal -0 0 1
    outer loop
      vertex 4.75 20.25 2.9
      vertex 6 19 2.9
      vertex 4.75 22.75 2.9
    endloop
  endfacet
  facet normal -0 0 1
    outer loop
      vertex 2.25 20.25 2.9
      vertex 6 19 2.9
      vertex 4.75 20.25 2.9
    endloop
  endfacet
  facet normal 0 0 1
    outer loop
      vertex 2.25 20.25 2.9
      vertex 1 19 2.9
      vertex 6 19 2.9
    endloop
  endfacet
  facet normal 0 0 1
    outer loop
      vertex 1 19 2.9
      vertex 2.25 20.25 2.9
      vertex 1 24 2.9
    endloop
  endfacet
  facet normal 0 1 -0
    outer loop
      vertex 6 19 2.9
      vertex 1 19 53
      vertex 6 19 53
    endloop
  endfacet
  facet normal 0 1 0
    outer loop
      vertex 1 19 53
      vertex 6 19 2.9
      vertex 1 19 2.9
    endloop
  endfacet
  facet normal 1 -0 0
    outer loop
      vertex 2.25 20.25 2.9
      vertex 2.25 22.75 0
      vertex 2.25 22.75 2.9
    endloop
  endfacet
  facet normal 1 0 0
    outer loop
      vertex 2.25 22.75 0
      vertex 2.25 20.25 2.9
      vertex 2.25 20.25 0
    endloop
  endfacet
  facet normal -1 0 0
    outer loop
      vertex 4.75 20.25 0
      vertex 4.75 22.75 2.9
      vertex 4.75 22.75 0
    endloop
  endfacet
  facet normal -1 -0 0
    outer loop
      vertex 4.75 22.75 2.9
      vertex 4.75 20.25 0
      vertex 4.75 20.25 2.9
    endloop
  endfacet
  facet normal 0 -1 0
    outer loop
      vertex 2.25 22.75 0
      vertex 4.75 22.75 2.9
      vertex 2.25 22.75 2.9
    endloop
  endfacet
  facet normal 0 -1 -0
    outer loop
      vertex 4.75 22.75 2.9
      vertex 2.25 22.75 0
      vertex 4.75 22.75 0
    endloop
  endfacet
  facet normal 0 1 -0
    outer loop
      vertex 4.75 20.25 0
      vertex 2.25 20.25 2.9
      vertex 4.75 20.25 2.9
    endloop
  endfacet
  facet normal 0 1 0
    outer loop
      vertex 2.25 20.25 2.9
      vertex 4.75 20.25 0
      vertex 2.25 20.25 0
    endloop
  endfacet
  facet normal 1 -0 0
    outer loop
      vertex 7 19 53
      vertex 7 24 2.9
      vertex 7 24 53
    endloop
  endfacet
  facet normal 1 0 0
    outer loop
      vertex 7 24 2.9
      vertex 7 19 53
      vertex 7 19 2.9
    endloop
  endfacet
  facet normal -1 0 0
    outer loop
      vertex 12 19 2.9
      vertex 12 24 53
      vertex 12 24 2.9
    endloop
  endfacet
  facet normal -1 -0 0
    outer loop
      vertex 12 24 53
      vertex 12 19 2.9
      vertex 12 19 53
    endloop
  endfacet
  facet normal 0 -1 0
    outer loop
      vertex 7 24 2.9
      vertex 12 24 53
      vertex 7 24 53
    endloop
  endfacet
  facet normal 0 -1 -0
    outer loop
      vertex 12 24 53
      vertex 7 24 2.9
      vertex 12 24 2.9
    endloop
  endfacet
  facet normal 0 0 1
    outer loop
      vertex 12 24 2.9
      vertex 10.75 22.75 2.9
      vertex 12 19 2.9
    endloop
  endfacet
  facet normal 0 0 1
    outer loop
      vertex 12 24 2.9
      vertex 8.25 22.75 2.9
      vertex 10.75 22.75 2.9
    endloop
  endfacet
  facet normal 0 0 1
    outer loop
      vertex 8.25 22.75 2.9
      vertex 7 24 2.9
      vertex 8.25 20.25 2.9
    endloop
  endfacet
  facet normal -0 0 1
    outer loop
      vertex 7 24 2.9
      vertex 8.25 22.75 2.9
      vertex 12 24 2.9
    endloop
  endfacet
  facet normal -0 0 1
    outer loop
      vertex 10.75 20.25 2.9
      vertex 12 19 2.9
      vertex 10.75 22.75 2.9
    endloop
  endfacet
  facet normal -0 0 1
    outer loop
      vertex 8.25 20.25 2.9
      vertex 12 19 2.9
      vertex 10.75 20.25 2.9
    endloop
  endfacet
  facet normal 0 0 1
    outer loop
      vertex 8.25 20.25 2.9
      vertex 7 19 2.9
      vertex 12 19 2.9
    endloop
  endfacet
  facet normal 0 0 1
    outer loop
      vertex 7 19 2.9
      vertex 8.25 20.25 2.9
      vertex 7 24 2.9
    endloop
  endfacet
  facet normal 0 1 -0
    outer loop
      vertex 12 19 2.9
      vertex 7 19 53
      vertex 12 19 53
    endloop
  endfacet
  facet normal 0 1 0
    outer loop
      vertex 7 19 53
      vertex 12 19 2.9
      vertex 7 19 2.9
    endloop
  endfacet
  facet normal 1 -0 0
    outer loop
      vertex 8.25 20.25 2.9
      vertex 8.25 22.75 0
      vertex 8.25 22.75 2.9
    endloop
  endfacet
  facet normal 1 0 0
    outer loop
      vertex 8.25 22.75 0
      vertex 8.25 20.25 2.9
      vertex 8.25 20.25 0
    endloop
  endfacet
  facet normal -1 0 0
    outer loop
      vertex 10.75 20.25 0
      vertex 10.75 22.75 2.9
      vertex 10.75 22.75 0
    endloop
  endfacet
  facet normal -1 -0 0
    outer loop
      vertex 10.75 22.75 2.9
      vertex 10.75 20.25 0
      vertex 10.75 20.25 2.9
    endloop
  endfacet
  facet normal 0 1 -0
    outer loop
      vertex 10.75 20.25 0
      vertex 8.25 20.25 2.9
      vertex 10.75 20.25 2.9
    endloop
  endfacet
  facet normal 0 1 0
    outer loop
      vertex 8.25 20.25 2.9
      vertex 10.75 20.25 0
      vertex 8.25 20.25 0
    endloop
  endfacet
  facet normal 0 -1 0
    outer loop
      vertex 8.25 22.75 0
      vertex 10.75 22.75 2.9
      vertex 8.25 22.75 2.9
    endloop
  endfacet
  facet normal 0 -1 -0
    outer loop
      vertex 10.75 22.75 2.9
      vertex 8.25 22.75 0
      vertex 10.75 22.75 0
    endloop
  endfacet
  facet normal 1 -0 0
    outer loop
      vertex 13 19 53
      vertex 13 24 2.9
      vertex 13 24 53
    endloop
  endfacet
  facet normal 1 0 0
    outer loop
      vertex 13 24 2.9
      vertex 13 19 53
      vertex 13 19 2.9
    endloop
  endfacet
  facet normal -1 0 0
    outer loop
      vertex 18 19 2.9
      vertex 18 24 53
      vertex 18 24 2.9
    endloop
  endfacet
  facet normal -1 -0 0
    outer loop
      vertex 18 24 53
      vertex 18 19 2.9
      vertex 18 19 53
    endloop
  endfacet
  facet normal 0 -1 0
    outer loop
      vertex 13 24 2.9
      vertex 18 24 53
      vertex 13 24 53
    endloop
  endfacet
  facet normal 0 -1 -0
    outer loop
      vertex 18 24 53
      vertex 13 24 2.9
      vertex 18 24 2.9
    endloop
  endfacet
  facet normal 0 0 1
    outer loop
      vertex 18 24 2.9
      vertex 16.75 22.75 2.9
      vertex 18 19 2.9
    endloop
  endfacet
  facet normal 0 0 1
    outer loop
      vertex 18 24 2.9
      vertex 14.25 22.75 2.9
      vertex 16.75 22.75 2.9
    endloop
  endfacet
  facet normal 0 0 1
    outer loop
      vertex 14.25 22.75 2.9
      vertex 13 24 2.9
      vertex 14.25 20.25 2.9
    endloop
  endfacet
  facet normal -0 0 1
    outer loop
      vertex 13 24 2.9
      vertex 14.25 22.75 2.9
      vertex 18 24 2.9
    endloop
  endfacet
  facet normal -0 0 1
    outer loop
      vertex 16.75 20.25 2.9
      vertex 18 19 2.9
      vertex 16.75 22.75 2.9
    endloop
  endfacet
  facet normal -0 0 1
    outer loop
      vertex 14.25 20.25 2.9
      vertex 18 19 2.9
      vertex 16.75 20.25 2.9
    endloop
  endfacet
  facet normal 0 0 1
    outer loop
      vertex 14.25 20.25 2.9
      vertex 13 19 2.9
      vertex 18 19 2.9
    endloop
  endfacet
  facet normal 0 0 1
    outer loop
      vertex 13 19 2.9
      vertex 14.25 20.25 2.9
      vertex 13 24 2.9
    endloop
  endfacet
  facet normal 0 1 -0
    outer loop
      vertex 18 19 2.9
      vertex 13 19 53
      vertex 18 19 53
    endloop
  endfacet
  facet normal 0 1 0
    outer loop
      vertex 13 19 53
      vertex 18 19 2.9
      vertex 13 19 2.9
    endloop
  endfacet
  facet normal 1 -0 0
    outer loop
      vertex 14.25 20.25 2.9
      vertex 14.25 22.75 0
      vertex 14.25 22.75 2.9
    endloop
  endfacet
  facet normal 1 0 0
    outer loop
      vertex 14.25 22.75 0
      vertex 14.25 20.25 2.9
      vertex 14.25 20.25 0
    endloop
  endfacet
  facet normal -1 0 0
    outer loop
      vertex 16.75 20.25 0
      vertex 16.75 22.75 2.9
      vertex 16.75 22.75 0
    endloop
  endfacet
  facet normal -1 -0 0
    outer loop
      vertex 16.75 22.75 2.9
      vertex 16.75 20.25 0
      vertex 16.75 20.25 2.9
    endloop
  endfacet
  facet normal 0 -1 0
    outer loop
      vertex 14.25 22.75 0
      vertex 16.75 22.75 2.9
      vertex 14.25 22.75 2.9
    endloop
  endfacet
  facet normal 0 -1 -0
    outer loop
      vertex 16.75 22.75 2.9
      vertex 14.25 22.75 0
      vertex 16.75 22.75 0
    endloop
  endfacet
  facet normal 0 1 -0
    outer loop
      vertex 16.75 20.25 0
      vertex 14.25 20.25 2.9
      vertex 16.75 20.25 2.9
    endloop
  endfacet
  facet normal 0 1 0
    outer loop
      vertex 14.25 20.25 2.9
      vertex 16.75 20.25 0
      vertex 14.25 20.25 0
    endloop
  endfacet
  facet normal 1 -0 0
    outer loop
      vertex 19 19 53
      vertex 19 24 2.9
      vertex 19 24 53
    endloop
  endfacet
  facet normal 1 0 0
    outer loop
      vertex 19 24 2.9
      vertex 19 19 53
      vertex 19 19 2.9
    endloop
  endfacet
  facet normal -1 0 0
    outer loop
      vertex 24 19 2.9
      vertex 24 24 53
      vertex 24 24 2.9
    endloop
  endfacet
  facet normal -1 -0 0
    outer loop
      vertex 24 24 53
      vertex 24 19 2.9
      vertex 24 19 53
    endloop
  endfacet
  facet normal 0 0 1
    outer loop
      vertex 24 24 2.9
      vertex 22.75 22.75 2.9
      vertex 24 19 2.9
    endloop
  endfacet
  facet normal 0 0 1
    outer loop
      vertex 24 24 2.9
      vertex 20.25 22.75 2.9
      vertex 22.75 22.75 2.9
    endloop
  endfacet
  facet normal 0 0 1
    outer loop
      vertex 20.25 22.75 2.9
      vertex 19 24 2.9
      vertex 20.25 20.25 2.9
    endloop
  endfacet
  facet normal -0 0 1
    outer loop
      vertex 19 24 2.9
      vertex 20.25 22.75 2.9
      vertex 24 24 2.9
    endloop
  endfacet
  facet normal -0 0 1
    outer loop
      vertex 22.75 20.25 2.9
      vertex 24 19 2.9
      vertex 22.75 22.75 2.9
    endloop
  endfacet
  facet normal -0 0 1
    outer loop
      vertex 20.25 20.25 2.9
      vertex 24 19 2.9
      vertex 22.75 20.25 2.9
    endloop
  endfacet
  facet normal 0 0 1
    outer loop
      vertex 20.25 20.25 2.9
      vertex 19 19 2.9
      vertex 24 19 2.9
    endloop
  endfacet
  facet normal 0 0 1
    outer loop
      vertex 19 19 2.9
      vertex 20.25 20.25 2.9
      vertex 19 24 2.9
    endloop
  endfacet
  facet normal 0 1 -0
    outer loop
      vertex 24 19 2.9
      vertex 19 19 53
      vertex 24 19 53
    endloop
  endfacet
  facet normal 0 1 0
    outer loop
      vertex 19 19 53
      vertex 24 19 2.9
      vertex 19 19 2.9
    endloop
  endfacet
  facet normal 0 -1 0
    outer loop
      vertex 19 24 2.9
      vertex 24 24 53
      vertex 19 24 53
    endloop
  endfacet
  facet normal 0 -1 -0
    outer loop
      vertex 24 24 53
      vertex 19 24 2.9
      vertex 24 24 2.9
    endloop
  endfacet
  facet normal 1 -0 0
    outer loop
      vertex 20.25 20.25 2.9
      vertex 20.25 22.75 0
      vertex 20.25 22.75 2.9
    endloop
  endfacet
  facet normal 1 0 0
    outer loop
      vertex 20.25 22.75 0
      vertex 20.25 20.25 2.9
      vertex 20.25 20.25 0
    endloop
  endfacet
  facet normal -1 0 0
    outer loop
      vertex 22.75 20.25 0
      vertex 22.75 22.75 2.9
      vertex 22.75 22.75 0
    endloop
  endfacet
  facet normal -1 -0 0
    outer loop
      vertex 22.75 22.75 2.9
      vertex 22.75 20.25 0
      vertex 22.75 20.25 2.9
    endloop
  endfacet
  facet normal 0 1 -0
    outer loop
      vertex 22.75 20.25 0
      vertex 20.25 20.25 2.9
      vertex 22.75 20.25 2.9
    endloop
  endfacet
  facet normal 0 1 0
    outer loop
      vertex 20.25 20.25 2.9
      vertex 22.75 20.25 0
      vertex 20.25 20.25 0
    endloop
  endfacet
  facet normal 0 -1 0
    outer loop
      vertex 20.25 22.75 0
      vertex 22.75 22.75 2.9
      vertex 20.25 22.75 2.9
    endloop
  endfacet
  facet normal 0 -1 -0
    outer loop
      vertex 22.75 22.75 2.9
      vertex 20.25 22.75 0
      vertex 22.75 22.75 0
    endloop
  endfacet
endsolid OpenSCAD_Model
