solid OpenSCAD_Model
  facet normal 1 -0 0
    outer loop
      vertex 0.45 -0.349999 8
      vertex 0.45 0.349999 0
      vertex 0.45 0.349999 8
    endloop
  endfacet
  facet normal 1 0 0
    outer loop
      vertex 0.45 0.349999 0
      vertex 0.45 -0.349999 8
      vertex 0.45 -0.349999 0
    endloop
  endfacet
  facet normal 0 0 -1
    outer loop
      vertex 0.7 -0.599999 8
      vertex 0.45 -0.349999 8
      vertex 0.7 0.599999 8
    endloop
  endfacet
  facet normal 0 0 -1
    outer loop
      vertex 0.7 -0.599999 8
      vertex -0.45 -0.349999 8
      vertex 0.45 -0.349999 8
    endloop
  endfacet
  facet normal -0 0 -1
    outer loop
      vertex -0.45 -0.349999 8
      vertex -0.7 -0.599999 8
      vertex -0.45 0.349999 8
    endloop
  endfacet
  facet normal 0 0 -1
    outer loop
      vertex -0.7 -0.599999 8
      vertex -0.45 -0.349999 8
      vertex 0.7 -0.599999 8
    endloop
  endfacet
  facet normal 0 0 -1
    outer loop
      vertex 0.45 0.349999 8
      vertex 0.7 0.599999 8
      vertex 0.45 -0.349999 8
    endloop
  endfacet
  facet normal 0 0 -1
    outer loop
      vertex -0.45 0.349999 8
      vertex 0.7 0.599999 8
      vertex 0.45 0.349999 8
    endloop
  endfacet
  facet normal 0 0 -1
    outer loop
      vertex -0.45 0.349999 8
      vertex -0.7 0.599999 8
      vertex 0.7 0.599999 8
    endloop
  endfacet
  facet normal 0 0 -1
    outer loop
      vertex -0.7 0.599999 8
      vertex -0.45 0.349999 8
      vertex -0.7 -0.599999 8
    endloop
  endfacet
  facet normal 0 0 -1
    outer loop
      vertex -0.45 -0.349999 0
      vertex 0.45 0.349999 0
      vertex 0.45 -0.349999 0
    endloop
  endfacet
  facet normal -0 0 -1
    outer loop
      vertex 0.45 0.349999 0
      vertex -0.45 -0.349999 0
      vertex -0.45 0.349999 0
    endloop
  endfacet
  facet normal -1 0 0
    outer loop
      vertex -0.45 -0.349999 0
      vertex -0.45 0.349999 8
      vertex -0.45 0.349999 0
    endloop
  endfacet
  facet normal -1 -0 0
    outer loop
      vertex -0.45 0.349999 8
      vertex -0.45 -0.349999 0
      vertex -0.45 -0.349999 8
    endloop
  endfacet
  facet normal 0 1 -0
    outer loop
      vertex 0.45 0.349999 0
      vertex -0.45 0.349999 8
      vertex 0.45 0.349999 8
    endloop
  endfacet
  facet normal 0 1 0
    outer loop
      vertex -0.45 0.349999 8
      vertex 0.45 0.349999 0
      vertex -0.45 0.349999 0
    endloop
  endfacet
  facet normal 0 -1 0
    outer loop
      vertex -0.45 -0.349999 0
      vertex 0.45 -0.349999 8
      vertex -0.45 -0.349999 8
    endloop
  endfacet
  facet normal 0 -1 -0
    outer loop
      vertex 0.45 -0.349999 8
      vertex -0.45 -0.349999 0
      vertex 0.45 -0.349999 0
    endloop
  endfacet
  facet normal 1 -0 0
    outer loop
      vertex 0.7 -0.599999 9.6
      vertex 0.7 0.599999 8
      vertex 0.7 0.599999 9.6
    endloop
  endfacet
  facet normal 1 0 0
    outer loop
      vertex 0.7 0.599999 8
      vertex 0.7 -0.599999 9.6
      vertex 0.7 -0.599999 8
    endloop
  endfacet
  facet normal -0 0 1
    outer loop
      vertex -0.7 0.599999 9.6
      vertex 0.7 -0.599999 9.6
      vertex 0.7 0.599999 9.6
    endloop
  endfacet
  facet normal 0 0 1
    outer loop
      vertex 0.7 -0.599999 9.6
      vertex -0.7 0.599999 9.6
      vertex -0.7 -0.599999 9.6
    endloop
  endfacet
  facet normal -1 0 0
    outer loop
      vertex -0.7 -0.599999 8
      vertex -0.7 0.599999 9.6
      vertex -0.7 0.599999 8
    endloop
  endfacet
  facet normal -1 -0 0
    outer loop
      vertex -0.7 0.599999 9.6
      vertex -0.7 -0.599999 8
      vertex -0.7 -0.599999 9.6
    endloop
  endfacet
  facet normal 0 1 -0
    outer loop
      vertex 0.7 0.599999 8
      vertex -0.7 0.599999 9.6
      vertex 0.7 0.599999 9.6
    endloop
  endfacet
  facet normal 0 1 0
    outer loop
      vertex -0.7 0.599999 9.6
      vertex 0.7 0.599999 8
      vertex -0.7 0.599999 8
    endloop
  endfacet
  facet normal 0 -1 0
    outer loop
      vertex -0.7 -0.599999 8
      vertex 0.7 -0.599999 9.6
      vertex -0.7 -0.599999 9.6
    endloop
  endfacet
  facet normal 0 -1 -0
    outer loop
      vertex 0.7 -0.599999 9.6
      vertex -0.7 -0.599999 8
      vertex 0.7 -0.599999 8
    endloop
  endfacet
endsolid OpenSCAD_Model
