solid OpenSCAD_Model
  facet normal 1 -0 0
    outer loop
      vertex 1.1 0 0.15
      vertex 1.1 0.9 0
      vertex 1.1 0.9 0.15
    endloop
  endfacet
  facet normal 1 0 0
    outer loop
      vertex 1.1 0.9 0
      vertex 1.1 0 0.15
      vertex 1.1 0 0
    endloop
  endfacet
  facet normal -0 0 1
    outer loop
      vertex 0.9 0.9 0.15
      vertex 1.1 0 0.15
      vertex 1.1 0.9 0.15
    endloop
  endfacet
  facet normal 0 0 1
    outer loop
      vertex 1.1 0 0.15
      vertex 0.9 0.9 0.15
      vertex 0.9 0 0.15
    endloop
  endfacet
  facet normal 0 0 -1
    outer loop
      vertex 0.9 -0.5 0
      vertex 0 -0.5 0
      vertex 0.9 0 0
    endloop
  endfacet
  facet normal 0 0 -1
    outer loop
      vertex 0.9 0 0
      vertex 1.1 0.9 0
      vertex 1.1 0 0
    endloop
  endfacet
  facet normal 0 0 -1
    outer loop
      vertex 0 0.9 0
      vertex 0.9 0 0
      vertex 0 -0.5 0
    endloop
  endfacet
  facet normal 0 0 -1
    outer loop
      vertex 0.9 0 0
      vertex 0 0.9 0
      vertex 1.1 0.9 0
    endloop
  endfacet
  facet normal 0 1 0
    outer loop
      vertex 1.1 0.9 0.15
      vertex 1.1 0.9 0
      vertex 0.9 0.9 0.15
    endloop
  endfacet
  facet normal 0 1 0
    outer loop
      vertex 1.1 0.9 0.5
      vertex 1.1 0.9 0.349999
      vertex 0.9 0.9 0.5
    endloop
  endfacet
  facet normal 0 1 0
    outer loop
      vertex 1.1 0.9 0.849999
      vertex 1.1 0.9 0.7
      vertex 0.9 0.9 0.849999
    endloop
  endfacet
  facet normal 0 1 0
    outer loop
      vertex 1.1 0.9 1.2
      vertex 1.1 0.9 1.05
      vertex 0.9 0.9 1.2
    endloop
  endfacet
  facet normal 0 1 0
    outer loop
      vertex 1.1 0.9 1.55
      vertex 1.1 0.9 1.4
      vertex 0.9 0.9 1.55
    endloop
  endfacet
  facet normal 0 1 -0
    outer loop
      vertex 0.9 0.9 1.55
      vertex 0 0.9 4
      vertex 0.9 0.9 4
    endloop
  endfacet
  facet normal 0 1 0
    outer loop
      vertex 0.9 0.9 1.4
      vertex 0.9 0.9 1.55
      vertex 1.1 0.9 1.4
    endloop
  endfacet
  facet normal 0 1 0
    outer loop
      vertex 0 0.9 0
      vertex 0.9 0.9 1.55
      vertex 0.9 0.9 1.4
    endloop
  endfacet
  facet normal 0 1 0
    outer loop
      vertex 0 0.9 0
      vertex 0.9 0.9 1.4
      vertex 0.9 0.9 1.2
    endloop
  endfacet
  facet normal 0 1 0
    outer loop
      vertex 0.9 0.9 1.05
      vertex 0.9 0.9 1.2
      vertex 1.1 0.9 1.05
    endloop
  endfacet
  facet normal 0 1 0
    outer loop
      vertex 0 0.9 0
      vertex 0.9 0.9 1.2
      vertex 0.9 0.9 1.05
    endloop
  endfacet
  facet normal 0 1 0
    outer loop
      vertex 0 0.9 0
      vertex 0.9 0.9 1.05
      vertex 0.9 0.9 0.849999
    endloop
  endfacet
  facet normal 0 1 0
    outer loop
      vertex 0.9 0.9 0.7
      vertex 0.9 0.9 0.849999
      vertex 1.1 0.9 0.7
    endloop
  endfacet
  facet normal 0 1 0
    outer loop
      vertex 0 0.9 0
      vertex 0.9 0.9 0.849999
      vertex 0.9 0.9 0.7
    endloop
  endfacet
  facet normal 0 1 0
    outer loop
      vertex 0 0.9 0
      vertex 0.9 0.9 0.7
      vertex 0.9 0.9 0.5
    endloop
  endfacet
  facet normal 0 1 0
    outer loop
      vertex 0.9 0.9 0.349999
      vertex 0.9 0.9 0.5
      vertex 1.1 0.9 0.349999
    endloop
  endfacet
  facet normal 0 1 0
    outer loop
      vertex 0 0.9 0
      vertex 0.9 0.9 0.5
      vertex 0.9 0.9 0.349999
    endloop
  endfacet
  facet normal 0 1 0
    outer loop
      vertex 0 0.9 0
      vertex 0.9 0.9 0.349999
      vertex 0.9 0.9 0.15
    endloop
  endfacet
  facet normal 0 1 0
    outer loop
      vertex 0.9 0.9 1.55
      vertex 0 0.9 0
      vertex 0 0.9 4
    endloop
  endfacet
  facet normal 0 1 0
    outer loop
      vertex 0 0.9 0
      vertex 0.9 0.9 0.15
      vertex 1.1 0.9 0
    endloop
  endfacet
  facet normal 0 -1 0
    outer loop
      vertex 0.9 0 0
      vertex 1.1 0 0.15
      vertex 0.9 0 0.15
    endloop
  endfacet
  facet normal 0 -1 -0
    outer loop
      vertex 1.1 0 0.15
      vertex 0.9 0 0
      vertex 1.1 0 0
    endloop
  endfacet
  facet normal 1 -0 0
    outer loop
      vertex 1.1 0 0.5
      vertex 1.1 0.9 0.349999
      vertex 1.1 0.9 0.5
    endloop
  endfacet
  facet normal 1 0 0
    outer loop
      vertex 1.1 0.9 0.349999
      vertex 1.1 0 0.5
      vertex 1.1 0 0.349999
    endloop
  endfacet
  facet normal -0 0 1
    outer loop
      vertex 0.9 0.9 0.5
      vertex 1.1 0 0.5
      vertex 1.1 0.9 0.5
    endloop
  endfacet
  facet normal 0 0 1
    outer loop
      vertex 1.1 0 0.5
      vertex 0.9 0.9 0.5
      vertex 0.9 0 0.5
    endloop
  endfacet
  facet normal 0 0 -1
    outer loop
      vertex 0.9 0 0.349999
      vertex 1.1 0.9 0.349999
      vertex 1.1 0 0.349999
    endloop
  endfacet
  facet normal -0 0 -1
    outer loop
      vertex 1.1 0.9 0.349999
      vertex 0.9 0 0.349999
      vertex 0.9 0.9 0.349999
    endloop
  endfacet
  facet normal 0 -1 0
    outer loop
      vertex 0.9 0 0.349999
      vertex 1.1 0 0.5
      vertex 0.9 0 0.5
    endloop
  endfacet
  facet normal 0 -1 -0
    outer loop
      vertex 1.1 0 0.5
      vertex 0.9 0 0.349999
      vertex 1.1 0 0.349999
    endloop
  endfacet
  facet normal 1 -0 0
    outer loop
      vertex 1.1 0 0.849999
      vertex 1.1 0.9 0.7
      vertex 1.1 0.9 0.849999
    endloop
  endfacet
  facet normal 1 0 0
    outer loop
      vertex 1.1 0.9 0.7
      vertex 1.1 0 0.849999
      vertex 1.1 0 0.7
    endloop
  endfacet
  facet normal -0 0 1
    outer loop
      vertex 0.9 0.9 0.849999
      vertex 1.1 0 0.849999
      vertex 1.1 0.9 0.849999
    endloop
  endfacet
  facet normal 0 0 1
    outer loop
      vertex 1.1 0 0.849999
      vertex 0.9 0.9 0.849999
      vertex 0.9 0 0.849999
    endloop
  endfacet
  facet normal 0 0 -1
    outer loop
      vertex 0.9 0 0.7
      vertex 1.1 0.9 0.7
      vertex 1.1 0 0.7
    endloop
  endfacet
  facet normal -0 0 -1
    outer loop
      vertex 1.1 0.9 0.7
      vertex 0.9 0 0.7
      vertex 0.9 0.9 0.7
    endloop
  endfacet
  facet normal 0 -1 0
    outer loop
      vertex 0.9 0 0.7
      vertex 1.1 0 0.849999
      vertex 0.9 0 0.849999
    endloop
  endfacet
  facet normal 0 -1 -0
    outer loop
      vertex 1.1 0 0.849999
      vertex 0.9 0 0.7
      vertex 1.1 0 0.7
    endloop
  endfacet
  facet normal 1 -0 0
    outer loop
      vertex 1.1 0 1.2
      vertex 1.1 0.9 1.05
      vertex 1.1 0.9 1.2
    endloop
  endfacet
  facet normal 1 0 0
    outer loop
      vertex 1.1 0.9 1.05
      vertex 1.1 0 1.2
      vertex 1.1 0 1.05
    endloop
  endfacet
  facet normal -0 0 1
    outer loop
      vertex 0.9 0.9 1.2
      vertex 1.1 0 1.2
      vertex 1.1 0.9 1.2
    endloop
  endfacet
  facet normal 0 0 1
    outer loop
      vertex 1.1 0 1.2
      vertex 0.9 0.9 1.2
      vertex 0.9 0 1.2
    endloop
  endfacet
  facet normal 0 0 -1
    outer loop
      vertex 0.9 0 1.05
      vertex 1.1 0.9 1.05
      vertex 1.1 0 1.05
    endloop
  endfacet
  facet normal -0 0 -1
    outer loop
      vertex 1.1 0.9 1.05
      vertex 0.9 0 1.05
      vertex 0.9 0.9 1.05
    endloop
  endfacet
  facet normal 0 -1 0
    outer loop
      vertex 0.9 0 1.05
      vertex 1.1 0 1.2
      vertex 0.9 0 1.2
    endloop
  endfacet
  facet normal 0 -1 -0
    outer loop
      vertex 1.1 0 1.2
      vertex 0.9 0 1.05
      vertex 1.1 0 1.05
    endloop
  endfacet
  facet normal 1 -0 0
    outer loop
      vertex 1.1 0 1.55
      vertex 1.1 0.9 1.4
      vertex 1.1 0.9 1.55
    endloop
  endfacet
  facet normal 1 0 0
    outer loop
      vertex 1.1 0.9 1.4
      vertex 1.1 0 1.55
      vertex 1.1 0 1.4
    endloop
  endfacet
  facet normal -0 0 1
    outer loop
      vertex 0.9 0.9 1.55
      vertex 1.1 0 1.55
      vertex 1.1 0.9 1.55
    endloop
  endfacet
  facet normal 0 0 1
    outer loop
      vertex 1.1 0 1.55
      vertex 0.9 0.9 1.55
      vertex 0.9 0 1.55
    endloop
  endfacet
  facet normal 0 0 -1
    outer loop
      vertex 0.9 0 1.4
      vertex 1.1 0.9 1.4
      vertex 1.1 0 1.4
    endloop
  endfacet
  facet normal -0 0 -1
    outer loop
      vertex 1.1 0.9 1.4
      vertex 0.9 0 1.4
      vertex 0.9 0.9 1.4
    endloop
  endfacet
  facet normal 0 -1 0
    outer loop
      vertex 0.9 0 1.4
      vertex 1.1 0 1.55
      vertex 0.9 0 1.55
    endloop
  endfacet
  facet normal 0 -1 -0
    outer loop
      vertex 1.1 0 1.55
      vertex 0.9 0 1.4
      vertex 1.1 0 1.4
    endloop
  endfacet
  facet normal 1 0 0
    outer loop
      vertex 0.9 0.9 4
      vertex 0.9 0 1.55
      vertex 0.9 0.9 1.55
    endloop
  endfacet
  facet normal 1 0 0
    outer loop
      vertex 0.9 -0.5 0
      vertex 0.9 0 1.4
      vertex 0.9 0 1.55
    endloop
  endfacet
  facet normal 1 0 0
    outer loop
      vertex 0.9 0 1.4
      vertex 0.9 -0.5 0
      vertex 0.9 0 1.2
    endloop
  endfacet
  facet normal 1 0 0
    outer loop
      vertex 0.9 0 1.2
      vertex 0.9 -0.5 0
      vertex 0.9 0 1.05
    endloop
  endfacet
  facet normal 1 0 0
    outer loop
      vertex 0.9 0 1.05
      vertex 0.9 -0.5 0
      vertex 0.9 0 0.849999
    endloop
  endfacet
  facet normal 1 0 0
    outer loop
      vertex 0.9 0 0.849999
      vertex 0.9 -0.5 0
      vertex 0.9 0 0.7
    endloop
  endfacet
  facet normal 1 0 0
    outer loop
      vertex 0.9 0 0.7
      vertex 0.9 -0.5 0
      vertex 0.9 0 0.5
    endloop
  endfacet
  facet normal 1 0 0
    outer loop
      vertex 0.9 0 0.5
      vertex 0.9 -0.5 0
      vertex 0.9 0 0.349999
    endloop
  endfacet
  facet normal 1 0 0
    outer loop
      vertex 0.9 0 0.349999
      vertex 0.9 -0.5 0
      vertex 0.9 0 0.15
    endloop
  endfacet
  facet normal 1 -0 0
    outer loop
      vertex 0.9 -0.5 4
      vertex 0.9 0 1.55
      vertex 0.9 0.9 4
    endloop
  endfacet
  facet normal 1 0 0
    outer loop
      vertex 0.9 -0.5 0
      vertex 0.9 0 1.55
      vertex 0.9 -0.5 4
    endloop
  endfacet
  facet normal 1 0 0
    outer loop
      vertex 0.9 0 0.15
      vertex 0.9 -0.5 0
      vertex 0.9 0 0
    endloop
  endfacet
  facet normal 1 -0 0
    outer loop
      vertex 0.9 0 1.4
      vertex 0.9 0.9 1.2
      vertex 0.9 0.9 1.4
    endloop
  endfacet
  facet normal 1 0 0
    outer loop
      vertex 0.9 0.9 1.2
      vertex 0.9 0 1.4
      vertex 0.9 0 1.2
    endloop
  endfacet
  facet normal 1 -0 0
    outer loop
      vertex 0.9 0 1.05
      vertex 0.9 0.9 0.849999
      vertex 0.9 0.9 1.05
    endloop
  endfacet
  facet normal 1 0 0
    outer loop
      vertex 0.9 0.9 0.849999
      vertex 0.9 0 1.05
      vertex 0.9 0 0.849999
    endloop
  endfacet
  facet normal 1 -0 0
    outer loop
      vertex 0.9 0 0.7
      vertex 0.9 0.9 0.5
      vertex 0.9 0.9 0.7
    endloop
  endfacet
  facet normal 1 0 0
    outer loop
      vertex 0.9 0.9 0.5
      vertex 0.9 0 0.7
      vertex 0.9 0 0.5
    endloop
  endfacet
  facet normal 1 -0 0
    outer loop
      vertex 0.9 0 0.349999
      vertex 0.9 0.9 0.15
      vertex 0.9 0.9 0.349999
    endloop
  endfacet
  facet normal 1 0 0
    outer loop
      vertex 0.9 0.9 0.15
      vertex 0.9 0 0.349999
      vertex 0.9 0 0.15
    endloop
  endfacet
  facet normal -0 0 1
    outer loop
      vertex 0 0.9 4
      vertex 0.9 -0.5 4
      vertex 0.9 0.9 4
    endloop
  endfacet
  facet normal 0 0 1
    outer loop
      vertex 0.9 -0.5 4
      vertex 0 0.9 4
      vertex 0 -0.5 4
    endloop
  endfacet
  facet normal -1 0 0
    outer loop
      vertex 0 -0.5 0
      vertex 0 0.9 4
      vertex 0 0.9 0
    endloop
  endfacet
  facet normal -1 -0 0
    outer loop
      vertex 0 0.9 4
      vertex 0 -0.5 0
      vertex 0 -0.5 4
    endloop
  endfacet
  facet normal 0 -1 0
    outer loop
      vertex 0 -0.5 0
      vertex 0.9 -0.5 4
      vertex 0 -0.5 4
    endloop
  endfacet
  facet normal 0 -1 -0
    outer loop
      vertex 0.9 -0.5 4
      vertex 0 -0.5 0
      vertex 0.9 -0.5 0
    endloop
  endfacet
endsolid OpenSCAD_Model
