solid OpenSCAD_Model
  facet normal 1 -0 0
    outer loop
      vertex 1.8 1.17694 -2.23411
      vertex 1.8 1.2 -12
      vertex 1.8 1.2 -2
    endloop
  endfacet
  facet normal 1 0 0
    outer loop
      vertex 1.8 1.17694 -2.23411
      vertex 1.8 1.17694 -11.7659
      vertex 1.8 1.2 -12
    endloop
  endfacet
  facet normal 1 -0 0
    outer loop
      vertex 1.8 1.10865 -2.45922
      vertex 1.8 1.17694 -11.7659
      vertex 1.8 1.17694 -2.23411
    endloop
  endfacet
  facet normal 1 0 0
    outer loop
      vertex 1.8 1.10865 -2.45922
      vertex 1.8 1.10865 -11.5408
      vertex 1.8 1.17694 -11.7659
    endloop
  endfacet
  facet normal 1 -0 0
    outer loop
      vertex 1.8 0.997763 -2.66668
      vertex 1.8 1.10865 -11.5408
      vertex 1.8 1.10865 -2.45922
    endloop
  endfacet
  facet normal 1 0 0
    outer loop
      vertex 1.8 0.997763 -2.66668
      vertex 1.8 0.997763 -11.3333
      vertex 1.8 1.10865 -11.5408
    endloop
  endfacet
  facet normal 1 -0 0
    outer loop
      vertex 1.8 0.848528 -2.84853
      vertex 1.8 0.997763 -11.3333
      vertex 1.8 0.997763 -2.66668
    endloop
  endfacet
  facet normal 1 0 0
    outer loop
      vertex 1.8 0.848528 -2.84853
      vertex 1.8 0.848528 -11.1515
      vertex 1.8 0.997763 -11.3333
    endloop
  endfacet
  facet normal 1 -0 0
    outer loop
      vertex 1.8 0.666684 -2.99776
      vertex 1.8 0.848528 -11.1515
      vertex 1.8 0.848528 -2.84853
    endloop
  endfacet
  facet normal 1 0 0
    outer loop
      vertex 1.8 0.666684 -2.99776
      vertex 1.8 0.666684 -11.0022
      vertex 1.8 0.848528 -11.1515
    endloop
  endfacet
  facet normal 1 -0 0
    outer loop
      vertex 1.8 0.45922 -3.10865
      vertex 1.8 0.666684 -11.0022
      vertex 1.8 0.666684 -2.99776
    endloop
  endfacet
  facet normal 1 0 0
    outer loop
      vertex 1.8 0.45922 -3.10865
      vertex 1.8 0.45922 -10.8913
      vertex 1.8 0.666684 -11.0022
    endloop
  endfacet
  facet normal 1 -0 0
    outer loop
      vertex 1.8 0.234108 -3.17694
      vertex 1.8 0.45922 -10.8913
      vertex 1.8 0.45922 -3.10865
    endloop
  endfacet
  facet normal 1 0 0
    outer loop
      vertex 1.8 0.234108 -3.17694
      vertex 1.8 0.234108 -10.8231
      vertex 1.8 0.45922 -10.8913
    endloop
  endfacet
  facet normal 1 -0 0
    outer loop
      vertex 1.8 0 -3.2
      vertex 1.8 0.234108 -10.8231
      vertex 1.8 0.234108 -3.17694
    endloop
  endfacet
  facet normal 1 0 0
    outer loop
      vertex 1.8 0 -3.2
      vertex 1.8 0 -10.8
      vertex 1.8 0.234108 -10.8231
    endloop
  endfacet
  facet normal 1 0 0
    outer loop
      vertex 1.8 -0.234108 -3.17694
      vertex 1.8 0 -10.8
      vertex 1.8 0 -3.2
    endloop
  endfacet
  facet normal 1 0 0
    outer loop
      vertex 1.8 -0.234108 -3.17694
      vertex 1.8 -0.234108 -10.8231
      vertex 1.8 0 -10.8
    endloop
  endfacet
  facet normal 1 0 0
    outer loop
      vertex 1.8 -0.45922 -3.10865
      vertex 1.8 -0.234108 -10.8231
      vertex 1.8 -0.234108 -3.17694
    endloop
  endfacet
  facet normal 1 0 0
    outer loop
      vertex 1.8 -0.45922 -3.10865
      vertex 1.8 -0.45922 -10.8913
      vertex 1.8 -0.234108 -10.8231
    endloop
  endfacet
  facet normal 1 0 0
    outer loop
      vertex 1.8 -0.666684 -2.99776
      vertex 1.8 -0.45922 -10.8913
      vertex 1.8 -0.45922 -3.10865
    endloop
  endfacet
  facet normal 1 0 0
    outer loop
      vertex 1.8 -0.666684 -2.99776
      vertex 1.8 -0.666684 -11.0022
      vertex 1.8 -0.45922 -10.8913
    endloop
  endfacet
  facet normal 1 0 0
    outer loop
      vertex 1.8 -0.848528 -2.84853
      vertex 1.8 -0.666684 -11.0022
      vertex 1.8 -0.666684 -2.99776
    endloop
  endfacet
  facet normal 1 0 0
    outer loop
      vertex 1.8 -0.848528 -2.84853
      vertex 1.8 -0.848528 -11.1515
      vertex 1.8 -0.666684 -11.0022
    endloop
  endfacet
  facet normal 1 0 0
    outer loop
      vertex 1.8 -0.997763 -2.66668
      vertex 1.8 -0.848528 -11.1515
      vertex 1.8 -0.848528 -2.84853
    endloop
  endfacet
  facet normal 1 0 0
    outer loop
      vertex 1.8 -0.997763 -2.66668
      vertex 1.8 -0.997763 -11.3333
      vertex 1.8 -0.848528 -11.1515
    endloop
  endfacet
  facet normal 1 0 0
    outer loop
      vertex 1.8 -1.10865 -2.45922
      vertex 1.8 -0.997763 -11.3333
      vertex 1.8 -0.997763 -2.66668
    endloop
  endfacet
  facet normal 1 0 0
    outer loop
      vertex 1.8 -1.10865 -2.45922
      vertex 1.8 -1.10865 -11.5408
      vertex 1.8 -0.997763 -11.3333
    endloop
  endfacet
  facet normal 1 0 0
    outer loop
      vertex 1.8 -1.17694 -2.23411
      vertex 1.8 -1.10865 -11.5408
      vertex 1.8 -1.10865 -2.45922
    endloop
  endfacet
  facet normal 1 0 0
    outer loop
      vertex 1.8 -1.17694 -2.23411
      vertex 1.8 -1.17694 -11.7659
      vertex 1.8 -1.10865 -11.5408
    endloop
  endfacet
  facet normal 1 0 0
    outer loop
      vertex 1.8 -1.2 -2
      vertex 1.8 -1.17694 -11.7659
      vertex 1.8 -1.17694 -2.23411
    endloop
  endfacet
  facet normal 1 0 0
    outer loop
      vertex 1.8 -1.17694 -11.7659
      vertex 1.8 -1.2 -2
      vertex 1.8 -1.2 -12
    endloop
  endfacet
  facet normal 1 -0 0
    outer loop
      vertex 1.8 1.17694 7.76589
      vertex 1.8 1.2 -2
      vertex 1.8 1.2 8
    endloop
  endfacet
  facet normal 1 0 0
    outer loop
      vertex 1.8 1.17694 7.76589
      vertex 1.8 1.17694 -1.76589
      vertex 1.8 1.2 -2
    endloop
  endfacet
  facet normal 1 -0 0
    outer loop
      vertex 1.8 1.10865 7.54078
      vertex 1.8 1.17694 -1.76589
      vertex 1.8 1.17694 7.76589
    endloop
  endfacet
  facet normal 1 0 0
    outer loop
      vertex 1.8 1.10865 7.54078
      vertex 1.8 1.10865 -1.54078
      vertex 1.8 1.17694 -1.76589
    endloop
  endfacet
  facet normal 1 -0 0
    outer loop
      vertex 1.8 0.997763 7.33331
      vertex 1.8 1.10865 -1.54078
      vertex 1.8 1.10865 7.54078
    endloop
  endfacet
  facet normal 1 0 0
    outer loop
      vertex 1.8 0.997763 7.33331
      vertex 1.8 0.997763 -1.33331
      vertex 1.8 1.10865 -1.54078
    endloop
  endfacet
  facet normal 1 -0 0
    outer loop
      vertex 1.8 0.848528 7.15147
      vertex 1.8 0.997763 -1.33331
      vertex 1.8 0.997763 7.33331
    endloop
  endfacet
  facet normal 1 0 0
    outer loop
      vertex 1.8 0.848528 7.15147
      vertex 1.8 0.848528 -1.15147
      vertex 1.8 0.997763 -1.33331
    endloop
  endfacet
  facet normal 1 -0 0
    outer loop
      vertex 1.8 0.666684 7.00224
      vertex 1.8 0.848528 -1.15147
      vertex 1.8 0.848528 7.15147
    endloop
  endfacet
  facet normal 1 0 0
    outer loop
      vertex 1.8 0.666684 7.00224
      vertex 1.8 0.666684 -1.00224
      vertex 1.8 0.848528 -1.15147
    endloop
  endfacet
  facet normal 1 -0 0
    outer loop
      vertex 1.8 0.45922 6.89134
      vertex 1.8 0.666684 -1.00224
      vertex 1.8 0.666684 7.00224
    endloop
  endfacet
  facet normal 1 0 0
    outer loop
      vertex 1.8 0.45922 6.89134
      vertex 1.8 0.45922 -0.891344
      vertex 1.8 0.666684 -1.00224
    endloop
  endfacet
  facet normal 1 -0 0
    outer loop
      vertex 1.8 0.234108 6.82306
      vertex 1.8 0.45922 -0.891344
      vertex 1.8 0.45922 6.89134
    endloop
  endfacet
  facet normal 1 0 0
    outer loop
      vertex 1.8 0.234108 6.82306
      vertex 1.8 0.234108 -0.823057
      vertex 1.8 0.45922 -0.891344
    endloop
  endfacet
  facet normal 1 -0 0
    outer loop
      vertex 1.8 0 6.8
      vertex 1.8 0.234108 -0.823057
      vertex 1.8 0.234108 6.82306
    endloop
  endfacet
  facet normal 1 0 0
    outer loop
      vertex 1.8 0 6.8
      vertex 1.8 0 -0.799999
      vertex 1.8 0.234108 -0.823057
    endloop
  endfacet
  facet normal 1 0 0
    outer loop
      vertex 1.8 -0.234108 6.82306
      vertex 1.8 0 -0.799999
      vertex 1.8 0 6.8
    endloop
  endfacet
  facet normal 1 0 0
    outer loop
      vertex 1.8 -0.234108 6.82306
      vertex 1.8 -0.234108 -0.823057
      vertex 1.8 0 -0.799999
    endloop
  endfacet
  facet normal 1 0 0
    outer loop
      vertex 1.8 -0.45922 6.89134
      vertex 1.8 -0.234108 -0.823057
      vertex 1.8 -0.234108 6.82306
    endloop
  endfacet
  facet normal 1 0 0
    outer loop
      vertex 1.8 -0.45922 6.89134
      vertex 1.8 -0.45922 -0.891344
      vertex 1.8 -0.234108 -0.823057
    endloop
  endfacet
  facet normal 1 0 0
    outer loop
      vertex 1.8 -0.666684 7.00224
      vertex 1.8 -0.45922 -0.891344
      vertex 1.8 -0.45922 6.89134
    endloop
  endfacet
  facet normal 1 0 0
    outer loop
      vertex 1.8 -0.666684 7.00224
      vertex 1.8 -0.666684 -1.00224
      vertex 1.8 -0.45922 -0.891344
    endloop
  endfacet
  facet normal 1 0 0
    outer loop
      vertex 1.8 -0.848528 7.15147
      vertex 1.8 -0.666684 -1.00224
      vertex 1.8 -0.666684 7.00224
    endloop
  endfacet
  facet normal 1 0 0
    outer loop
      vertex 1.8 -0.848528 7.15147
      vertex 1.8 -0.848528 -1.15147
      vertex 1.8 -0.666684 -1.00224
    endloop
  endfacet
  facet normal 1 0 0
    outer loop
      vertex 1.8 -0.997763 7.33331
      vertex 1.8 -0.848528 -1.15147
      vertex 1.8 -0.848528 7.15147
    endloop
  endfacet
  facet normal 1 0 0
    outer loop
      vertex 1.8 -0.997763 7.33331
      vertex 1.8 -0.997763 -1.33331
      vertex 1.8 -0.848528 -1.15147
    endloop
  endfacet
  facet normal 1 0 0
    outer loop
      vertex 1.8 -1.10865 7.54078
      vertex 1.8 -0.997763 -1.33331
      vertex 1.8 -0.997763 7.33331
    endloop
  endfacet
  facet normal 1 0 0
    outer loop
      vertex 1.8 -1.10865 7.54078
      vertex 1.8 -1.10865 -1.54078
      vertex 1.8 -0.997763 -1.33331
    endloop
  endfacet
  facet normal 1 0 0
    outer loop
      vertex 1.8 -1.17694 7.76589
      vertex 1.8 -1.10865 -1.54078
      vertex 1.8 -1.10865 7.54078
    endloop
  endfacet
  facet normal 1 0 0
    outer loop
      vertex 1.8 -1.17694 7.76589
      vertex 1.8 -1.17694 -1.76589
      vertex 1.8 -1.10865 -1.54078
    endloop
  endfacet
  facet normal 1 0 0
    outer loop
      vertex 1.8 -1.2 8
      vertex 1.8 -1.17694 -1.76589
      vertex 1.8 -1.17694 7.76589
    endloop
  endfacet
  facet normal 1 0 0
    outer loop
      vertex 1.8 -1.17694 -1.76589
      vertex 1.8 -1.2 8
      vertex 1.8 -1.2 -2
    endloop
  endfacet
  facet normal 1 -0 0
    outer loop
      vertex 1.8 1.17694 17.7659
      vertex 1.8 1.2 8
      vertex 1.8 1.2 18
    endloop
  endfacet
  facet normal 1 0 0
    outer loop
      vertex 1.8 1.17694 17.7659
      vertex 1.8 1.17694 8.23411
      vertex 1.8 1.2 8
    endloop
  endfacet
  facet normal 1 -0 0
    outer loop
      vertex 1.8 1.10865 17.5408
      vertex 1.8 1.17694 8.23411
      vertex 1.8 1.17694 17.7659
    endloop
  endfacet
  facet normal 1 0 0
    outer loop
      vertex 1.8 1.10865 17.5408
      vertex 1.8 1.10865 8.45922
      vertex 1.8 1.17694 8.23411
    endloop
  endfacet
  facet normal 1 -0 0
    outer loop
      vertex 1.8 0.997763 17.3333
      vertex 1.8 1.10865 8.45922
      vertex 1.8 1.10865 17.5408
    endloop
  endfacet
  facet normal 1 0 0
    outer loop
      vertex 1.8 0.997763 17.3333
      vertex 1.8 0.997763 8.66668
      vertex 1.8 1.10865 8.45922
    endloop
  endfacet
  facet normal 1 -0 0
    outer loop
      vertex 1.8 0.848528 17.1515
      vertex 1.8 0.997763 8.66668
      vertex 1.8 0.997763 17.3333
    endloop
  endfacet
  facet normal 1 0 0
    outer loop
      vertex 1.8 0.848528 17.1515
      vertex 1.8 0.848528 8.84853
      vertex 1.8 0.997763 8.66668
    endloop
  endfacet
  facet normal 1 -0 0
    outer loop
      vertex 1.8 0.666684 17.0022
      vertex 1.8 0.848528 8.84853
      vertex 1.8 0.848528 17.1515
    endloop
  endfacet
  facet normal 1 0 0
    outer loop
      vertex 1.8 0.666684 17.0022
      vertex 1.8 0.666684 8.99776
      vertex 1.8 0.848528 8.84853
    endloop
  endfacet
  facet normal 1 -0 0
    outer loop
      vertex 1.8 0.45922 16.8913
      vertex 1.8 0.666684 8.99776
      vertex 1.8 0.666684 17.0022
    endloop
  endfacet
  facet normal 1 0 0
    outer loop
      vertex 1.8 0.45922 16.8913
      vertex 1.8 0.45922 9.10865
      vertex 1.8 0.666684 8.99776
    endloop
  endfacet
  facet normal 1 -0 0
    outer loop
      vertex 1.8 0.234108 16.8231
      vertex 1.8 0.45922 9.10865
      vertex 1.8 0.45922 16.8913
    endloop
  endfacet
  facet normal 1 0 0
    outer loop
      vertex 1.8 0.234108 16.8231
      vertex 1.8 0.234108 9.17694
      vertex 1.8 0.45922 9.10865
    endloop
  endfacet
  facet normal 1 -0 0
    outer loop
      vertex 1.8 0 16.8
      vertex 1.8 0.234108 9.17694
      vertex 1.8 0.234108 16.8231
    endloop
  endfacet
  facet normal 1 0 0
    outer loop
      vertex 1.8 0 16.8
      vertex 1.8 0 9.2
      vertex 1.8 0.234108 9.17694
    endloop
  endfacet
  facet normal 1 0 0
    outer loop
      vertex 1.8 -0.234108 16.8231
      vertex 1.8 0 9.2
      vertex 1.8 0 16.8
    endloop
  endfacet
  facet normal 1 0 0
    outer loop
      vertex 1.8 -0.234108 16.8231
      vertex 1.8 -0.234108 9.17694
      vertex 1.8 0 9.2
    endloop
  endfacet
  facet normal 1 0 0
    outer loop
      vertex 1.8 -0.45922 16.8913
      vertex 1.8 -0.234108 9.17694
      vertex 1.8 -0.234108 16.8231
    endloop
  endfacet
  facet normal 1 0 0
    outer loop
      vertex 1.8 -0.45922 16.8913
      vertex 1.8 -0.45922 9.10865
      vertex 1.8 -0.234108 9.17694
    endloop
  endfacet
  facet normal 1 0 0
    outer loop
      vertex 1.8 -0.666684 17.0022
      vertex 1.8 -0.45922 9.10865
      vertex 1.8 -0.45922 16.8913
    endloop
  endfacet
  facet normal 1 0 0
    outer loop
      vertex 1.8 -0.666684 17.0022
      vertex 1.8 -0.666684 8.99776
      vertex 1.8 -0.45922 9.10865
    endloop
  endfacet
  facet normal 1 0 0
    outer loop
      vertex 1.8 -0.848528 17.1515
      vertex 1.8 -0.666684 8.99776
      vertex 1.8 -0.666684 17.0022
    endloop
  endfacet
  facet normal 1 0 0
    outer loop
      vertex 1.8 -0.848528 17.1515
      vertex 1.8 -0.848528 8.84853
      vertex 1.8 -0.666684 8.99776
    endloop
  endfacet
  facet normal 1 0 0
    outer loop
      vertex 1.8 -0.997763 17.3333
      vertex 1.8 -0.848528 8.84853
      vertex 1.8 -0.848528 17.1515
    endloop
  endfacet
  facet normal 1 0 0
    outer loop
      vertex 1.8 -0.997763 17.3333
      vertex 1.8 -0.997763 8.66668
      vertex 1.8 -0.848528 8.84853
    endloop
  endfacet
  facet normal 1 0 0
    outer loop
      vertex 1.8 -1.10865 17.5408
      vertex 1.8 -0.997763 8.66668
      vertex 1.8 -0.997763 17.3333
    endloop
  endfacet
  facet normal 1 0 0
    outer loop
      vertex 1.8 -1.10865 17.5408
      vertex 1.8 -1.10865 8.45922
      vertex 1.8 -0.997763 8.66668
    endloop
  endfacet
  facet normal 1 0 0
    outer loop
      vertex 1.8 -1.17694 17.7659
      vertex 1.8 -1.10865 8.45922
      vertex 1.8 -1.10865 17.5408
    endloop
  endfacet
  facet normal 1 0 0
    outer loop
      vertex 1.8 -1.17694 17.7659
      vertex 1.8 -1.17694 8.23411
      vertex 1.8 -1.10865 8.45922
    endloop
  endfacet
  facet normal 1 0 0
    outer loop
      vertex 1.8 -1.2 18
      vertex 1.8 -1.17694 8.23411
      vertex 1.8 -1.17694 17.7659
    endloop
  endfacet
  facet normal 1 0 0
    outer loop
      vertex 1.8 -1.17694 8.23411
      vertex 1.8 -1.2 18
      vertex 1.8 -1.2 8
    endloop
  endfacet
  facet normal 1 0 0
    outer loop
      vertex 1.8 1.2 8
      vertex 1.8 1.8 22
      vertex 1.8 1.2 18
    endloop
  endfacet
  facet normal 1 0 0
    outer loop
      vertex 1.8 1.8 22
      vertex 1.8 1.17694 18.2341
      vertex 1.8 1.2 18
    endloop
  endfacet
  facet normal 1 0 0
    outer loop
      vertex 1.8 1.8 22
      vertex 1.8 1.10865 18.4592
      vertex 1.8 1.17694 18.2341
    endloop
  endfacet
  facet normal 1 0 0
    outer loop
      vertex 1.8 1.8 22
      vertex 1.8 0.997763 18.6667
      vertex 1.8 1.10865 18.4592
    endloop
  endfacet
  facet normal 1 0 0
    outer loop
      vertex 1.8 1.8 22
      vertex 1.8 0.848528 18.8485
      vertex 1.8 0.997763 18.6667
    endloop
  endfacet
  facet normal 1 0 0
    outer loop
      vertex 1.8 1.8 22
      vertex 1.8 0.666684 18.9978
      vertex 1.8 0.848528 18.8485
    endloop
  endfacet
  facet normal 1 0 0
    outer loop
      vertex 1.8 1.8 22
      vertex 1.8 0.45922 19.1087
      vertex 1.8 0.666684 18.9978
    endloop
  endfacet
  facet normal 1 0 0
    outer loop
      vertex 1.8 1.8 22
      vertex 1.8 0.234108 19.1769
      vertex 1.8 0.45922 19.1087
    endloop
  endfacet
  facet normal 1 0 0
    outer loop
      vertex 1.8 1.8 22
      vertex 1.8 0 19.2
      vertex 1.8 0.234108 19.1769
    endloop
  endfacet
  facet normal 1 -0 0
    outer loop
      vertex 1.8 -1.8 22
      vertex 1.8 0 19.2
      vertex 1.8 1.8 22
    endloop
  endfacet
  facet normal 1 0 0
    outer loop
      vertex 1.8 0 19.2
      vertex 1.8 -1.8 22
      vertex 1.8 -0.234108 19.1769
    endloop
  endfacet
  facet normal 1 0 0
    outer loop
      vertex 1.8 -0.234108 19.1769
      vertex 1.8 -1.8 22
      vertex 1.8 -0.45922 19.1087
    endloop
  endfacet
  facet normal 1 0 0
    outer loop
      vertex 1.8 -0.45922 19.1087
      vertex 1.8 -1.8 22
      vertex 1.8 -0.666684 18.9978
    endloop
  endfacet
  facet normal 1 0 0
    outer loop
      vertex 1.8 -1.8 22
      vertex 1.8 -1.2 8
      vertex 1.8 -1.2 18
    endloop
  endfacet
  facet normal 1 0 0
    outer loop
      vertex 1.8 -1.2 8
      vertex 1.8 -1.8 22
      vertex 1.8 -1.2 -2
    endloop
  endfacet
  facet normal 1 0 0
    outer loop
      vertex 1.8 -1.8 -22
      vertex 1.8 -1.2 -2
      vertex 1.8 -1.8 22
    endloop
  endfacet
  facet normal 1 0 0
    outer loop
      vertex 1.8 -0.666684 18.9978
      vertex 1.8 -1.8 22
      vertex 1.8 -0.848528 18.8485
    endloop
  endfacet
  facet normal 1 0 0
    outer loop
      vertex 1.8 -1.8 22
      vertex 1.8 -0.997763 18.6667
      vertex 1.8 -0.848528 18.8485
    endloop
  endfacet
  facet normal 1 0 0
    outer loop
      vertex 1.8 -1.8 22
      vertex 1.8 -1.10865 18.4592
      vertex 1.8 -0.997763 18.6667
    endloop
  endfacet
  facet normal 1 0 0
    outer loop
      vertex 1.8 -1.8 22
      vertex 1.8 -1.17694 18.2341
      vertex 1.8 -1.10865 18.4592
    endloop
  endfacet
  facet normal 1 0 0
    outer loop
      vertex 1.8 -1.8 22
      vertex 1.8 -1.2 18
      vertex 1.8 -1.17694 18.2341
    endloop
  endfacet
  facet normal 1 0 0
    outer loop
      vertex 1.8 -1.2 -2
      vertex 1.8 -1.8 -22
      vertex 1.8 -1.2 -12
    endloop
  endfacet
  facet normal 1 0 0
    outer loop
      vertex 1.8 -1.2 -12
      vertex 1.8 -1.8 -22
      vertex 1.8 -1.2 -22
    endloop
  endfacet
  facet normal 1 0 0
    outer loop
      vertex 1.8 1.2 -2
      vertex 1.8 1.8 22
      vertex 1.8 1.2 8
    endloop
  endfacet
  facet normal 1 0 0
    outer loop
      vertex 1.8 1.8 22
      vertex 1.8 1.2 -2
      vertex 1.8 1.8 -22
    endloop
  endfacet
  facet normal 1 -0 0
    outer loop
      vertex 1.8 1.2 -12
      vertex 1.8 1.8 -22
      vertex 1.8 1.2 -2
    endloop
  endfacet
  facet normal 1 -0 0
    outer loop
      vertex 1.8 1.17694 -12.2341
      vertex 1.8 1.8 -22
      vertex 1.8 1.2 -12
    endloop
  endfacet
  facet normal 1 -0 0
    outer loop
      vertex 1.8 1.10865 -12.4592
      vertex 1.8 1.8 -22
      vertex 1.8 1.17694 -12.2341
    endloop
  endfacet
  facet normal 1 0 0
    outer loop
      vertex 1.8 1.8 -22
      vertex 1.8 1.17694 -21.7659
      vertex 1.8 1.2 -22
    endloop
  endfacet
  facet normal 1 -0 0
    outer loop
      vertex 1.8 0.997763 -12.6667
      vertex 1.8 1.8 -22
      vertex 1.8 1.10865 -12.4592
    endloop
  endfacet
  facet normal 1 0 0
    outer loop
      vertex 1.8 1.8 -22
      vertex 1.8 1.10865 -21.5408
      vertex 1.8 1.17694 -21.7659
    endloop
  endfacet
  facet normal 1 -0 0
    outer loop
      vertex 1.8 0.848528 -12.8485
      vertex 1.8 1.8 -22
      vertex 1.8 0.997763 -12.6667
    endloop
  endfacet
  facet normal 1 0 0
    outer loop
      vertex 1.8 1.8 -22
      vertex 1.8 0.997763 -21.3333
      vertex 1.8 1.10865 -21.5408
    endloop
  endfacet
  facet normal 1 -0 0
    outer loop
      vertex 1.8 0.848528 -21.1515
      vertex 1.8 1.8 -22
      vertex 1.8 0.848528 -12.8485
    endloop
  endfacet
  facet normal 1 0 0
    outer loop
      vertex 1.8 1.8 -22
      vertex 1.8 0.848528 -21.1515
      vertex 1.8 0.997763 -21.3333
    endloop
  endfacet
  facet normal 1 -0 0
    outer loop
      vertex 1.8 0.666684 -12.9978
      vertex 1.8 0.848528 -21.1515
      vertex 1.8 0.848528 -12.8485
    endloop
  endfacet
  facet normal 1 0 0
    outer loop
      vertex 1.8 0.666684 -12.9978
      vertex 1.8 0.666684 -21.0022
      vertex 1.8 0.848528 -21.1515
    endloop
  endfacet
  facet normal 1 -0 0
    outer loop
      vertex 1.8 0.45922 -13.1087
      vertex 1.8 0.666684 -21.0022
      vertex 1.8 0.666684 -12.9978
    endloop
  endfacet
  facet normal 1 0 0
    outer loop
      vertex 1.8 0.45922 -13.1087
      vertex 1.8 0.45922 -20.8913
      vertex 1.8 0.666684 -21.0022
    endloop
  endfacet
  facet normal 1 -0 0
    outer loop
      vertex 1.8 0.234108 -13.1769
      vertex 1.8 0.45922 -20.8913
      vertex 1.8 0.45922 -13.1087
    endloop
  endfacet
  facet normal 1 0 0
    outer loop
      vertex 1.8 0.234108 -13.1769
      vertex 1.8 0.234108 -20.8231
      vertex 1.8 0.45922 -20.8913
    endloop
  endfacet
  facet normal 1 -0 0
    outer loop
      vertex 1.8 0 -13.2
      vertex 1.8 0.234108 -20.8231
      vertex 1.8 0.234108 -13.1769
    endloop
  endfacet
  facet normal 1 0 0
    outer loop
      vertex 1.8 0 -13.2
      vertex 1.8 0 -20.8
      vertex 1.8 0.234108 -20.8231
    endloop
  endfacet
  facet normal 1 0 0
    outer loop
      vertex 1.8 -0.234108 -13.1769
      vertex 1.8 0 -20.8
      vertex 1.8 0 -13.2
    endloop
  endfacet
  facet normal 1 0 0
    outer loop
      vertex 1.8 -0.234108 -13.1769
      vertex 1.8 -0.234108 -20.8231
      vertex 1.8 0 -20.8
    endloop
  endfacet
  facet normal 1 0 0
    outer loop
      vertex 1.8 -0.45922 -13.1087
      vertex 1.8 -0.234108 -20.8231
      vertex 1.8 -0.234108 -13.1769
    endloop
  endfacet
  facet normal 1 0 0
    outer loop
      vertex 1.8 -0.45922 -13.1087
      vertex 1.8 -0.45922 -20.8913
      vertex 1.8 -0.234108 -20.8231
    endloop
  endfacet
  facet normal 1 0 0
    outer loop
      vertex 1.8 -0.666684 -12.9978
      vertex 1.8 -0.45922 -20.8913
      vertex 1.8 -0.45922 -13.1087
    endloop
  endfacet
  facet normal 1 0 0
    outer loop
      vertex 1.8 -0.666684 -12.9978
      vertex 1.8 -0.666684 -21.0022
      vertex 1.8 -0.45922 -20.8913
    endloop
  endfacet
  facet normal 1 0 0
    outer loop
      vertex 1.8 -0.848528 -12.8485
      vertex 1.8 -0.666684 -21.0022
      vertex 1.8 -0.666684 -12.9978
    endloop
  endfacet
  facet normal 1 0 0
    outer loop
      vertex 1.8 -0.848528 -12.8485
      vertex 1.8 -0.848528 -21.1515
      vertex 1.8 -0.666684 -21.0022
    endloop
  endfacet
  facet normal 1 0 0
    outer loop
      vertex 1.8 -0.997763 -12.6667
      vertex 1.8 -0.848528 -21.1515
      vertex 1.8 -0.848528 -12.8485
    endloop
  endfacet
  facet normal 1 0 0
    outer loop
      vertex 1.8 -0.997763 -12.6667
      vertex 1.8 -0.997763 -21.3333
      vertex 1.8 -0.848528 -21.1515
    endloop
  endfacet
  facet normal 1 0 0
    outer loop
      vertex 1.8 -1.10865 -12.4592
      vertex 1.8 -0.997763 -21.3333
      vertex 1.8 -0.997763 -12.6667
    endloop
  endfacet
  facet normal 1 0 0
    outer loop
      vertex 1.8 -1.10865 -12.4592
      vertex 1.8 -1.10865 -21.5408
      vertex 1.8 -0.997763 -21.3333
    endloop
  endfacet
  facet normal 1 0 0
    outer loop
      vertex 1.8 -1.17694 -12.2341
      vertex 1.8 -1.10865 -21.5408
      vertex 1.8 -1.10865 -12.4592
    endloop
  endfacet
  facet normal 1 0 0
    outer loop
      vertex 1.8 -1.17694 -12.2341
      vertex 1.8 -1.17694 -21.7659
      vertex 1.8 -1.10865 -21.5408
    endloop
  endfacet
  facet normal 1 0 0
    outer loop
      vertex 1.8 -1.2 -12
      vertex 1.8 -1.17694 -21.7659
      vertex 1.8 -1.17694 -12.2341
    endloop
  endfacet
  facet normal 1 0 0
    outer loop
      vertex 1.8 -1.17694 -21.7659
      vertex 1.8 -1.2 -12
      vertex 1.8 -1.2 -22
    endloop
  endfacet
  facet normal 1 0 0
    outer loop
      vertex 1.8 1.17694 18.2341
      vertex 1.8 1.17694 17.7659
      vertex 1.8 1.2 18
    endloop
  endfacet
  facet normal 1 0 0
    outer loop
      vertex 1.8 1.10865 18.4592
      vertex 1.8 1.17694 17.7659
      vertex 1.8 1.17694 18.2341
    endloop
  endfacet
  facet normal 1 0 0
    outer loop
      vertex 1.8 1.10865 18.4592
      vertex 1.8 1.10865 17.5408
      vertex 1.8 1.17694 17.7659
    endloop
  endfacet
  facet normal 1 0 0
    outer loop
      vertex 1.8 0.997763 18.6667
      vertex 1.8 1.10865 17.5408
      vertex 1.8 1.10865 18.4592
    endloop
  endfacet
  facet normal 1 0 0
    outer loop
      vertex 1.8 0.997763 18.6667
      vertex 1.8 0.997763 17.3333
      vertex 1.8 1.10865 17.5408
    endloop
  endfacet
  facet normal 1 0 0
    outer loop
      vertex 1.8 0.848528 18.8485
      vertex 1.8 0.997763 17.3333
      vertex 1.8 0.997763 18.6667
    endloop
  endfacet
  facet normal 1 0 0
    outer loop
      vertex 1.8 0.848528 18.8485
      vertex 1.8 0.848528 17.1515
      vertex 1.8 0.997763 17.3333
    endloop
  endfacet
  facet normal 1 0 0
    outer loop
      vertex 1.8 0.666684 18.9978
      vertex 1.8 0.848528 17.1515
      vertex 1.8 0.848528 18.8485
    endloop
  endfacet
  facet normal 1 0 0
    outer loop
      vertex 1.8 0.666684 18.9978
      vertex 1.8 0.666684 17.0022
      vertex 1.8 0.848528 17.1515
    endloop
  endfacet
  facet normal 1 0 0
    outer loop
      vertex 1.8 0.45922 19.1087
      vertex 1.8 0.666684 17.0022
      vertex 1.8 0.666684 18.9978
    endloop
  endfacet
  facet normal 1 0 0
    outer loop
      vertex 1.8 0.45922 19.1087
      vertex 1.8 0.45922 16.8913
      vertex 1.8 0.666684 17.0022
    endloop
  endfacet
  facet normal 1 0 0
    outer loop
      vertex 1.8 0.234108 19.1769
      vertex 1.8 0.45922 16.8913
      vertex 1.8 0.45922 19.1087
    endloop
  endfacet
  facet normal 1 0 0
    outer loop
      vertex 1.8 0.234108 19.1769
      vertex 1.8 0.234108 16.8231
      vertex 1.8 0.45922 16.8913
    endloop
  endfacet
  facet normal 1 0 0
    outer loop
      vertex 1.8 0 19.2
      vertex 1.8 0.234108 16.8231
      vertex 1.8 0.234108 19.1769
    endloop
  endfacet
  facet normal 1 0 0
    outer loop
      vertex 1.8 0 19.2
      vertex 1.8 0 16.8
      vertex 1.8 0.234108 16.8231
    endloop
  endfacet
  facet normal 1 -0 0
    outer loop
      vertex 1.8 -0.234108 19.1769
      vertex 1.8 0 16.8
      vertex 1.8 0 19.2
    endloop
  endfacet
  facet normal 1 0 0
    outer loop
      vertex 1.8 -0.234108 19.1769
      vertex 1.8 -0.234108 16.8231
      vertex 1.8 0 16.8
    endloop
  endfacet
  facet normal 1 -0 0
    outer loop
      vertex 1.8 -0.45922 19.1087
      vertex 1.8 -0.234108 16.8231
      vertex 1.8 -0.234108 19.1769
    endloop
  endfacet
  facet normal 1 0 0
    outer loop
      vertex 1.8 -0.45922 19.1087
      vertex 1.8 -0.45922 16.8913
      vertex 1.8 -0.234108 16.8231
    endloop
  endfacet
  facet normal 1 -0 0
    outer loop
      vertex 1.8 -0.666684 18.9978
      vertex 1.8 -0.45922 16.8913
      vertex 1.8 -0.45922 19.1087
    endloop
  endfacet
  facet normal 1 0 0
    outer loop
      vertex 1.8 -0.666684 18.9978
      vertex 1.8 -0.666684 17.0022
      vertex 1.8 -0.45922 16.8913
    endloop
  endfacet
  facet normal 1 -0 0
    outer loop
      vertex 1.8 -0.848528 18.8485
      vertex 1.8 -0.666684 17.0022
      vertex 1.8 -0.666684 18.9978
    endloop
  endfacet
  facet normal 1 0 0
    outer loop
      vertex 1.8 -0.848528 18.8485
      vertex 1.8 -0.848528 17.1515
      vertex 1.8 -0.666684 17.0022
    endloop
  endfacet
  facet normal 1 -0 0
    outer loop
      vertex 1.8 -0.997763 18.6667
      vertex 1.8 -0.848528 17.1515
      vertex 1.8 -0.848528 18.8485
    endloop
  endfacet
  facet normal 1 0 0
    outer loop
      vertex 1.8 -0.997763 18.6667
      vertex 1.8 -0.997763 17.3333
      vertex 1.8 -0.848528 17.1515
    endloop
  endfacet
  facet normal 1 -0 0
    outer loop
      vertex 1.8 -1.10865 18.4592
      vertex 1.8 -0.997763 17.3333
      vertex 1.8 -0.997763 18.6667
    endloop
  endfacet
  facet normal 1 0 0
    outer loop
      vertex 1.8 -1.10865 18.4592
      vertex 1.8 -1.10865 17.5408
      vertex 1.8 -0.997763 17.3333
    endloop
  endfacet
  facet normal 1 -0 0
    outer loop
      vertex 1.8 -1.17694 18.2341
      vertex 1.8 -1.10865 17.5408
      vertex 1.8 -1.10865 18.4592
    endloop
  endfacet
  facet normal 1 0 0
    outer loop
      vertex 1.8 -1.17694 18.2341
      vertex 1.8 -1.17694 17.7659
      vertex 1.8 -1.10865 17.5408
    endloop
  endfacet
  facet normal 1 0 -0
    outer loop
      vertex 1.8 -1.17694 17.7659
      vertex 1.8 -1.17694 18.2341
      vertex 1.8 -1.2 18
    endloop
  endfacet
  facet normal 1 0 0
    outer loop
      vertex 1.8 1.17694 8.23411
      vertex 1.8 1.17694 7.76589
      vertex 1.8 1.2 8
    endloop
  endfacet
  facet normal 1 0 0
    outer loop
      vertex 1.8 1.10865 8.45922
      vertex 1.8 1.17694 7.76589
      vertex 1.8 1.17694 8.23411
    endloop
  endfacet
  facet normal 1 0 0
    outer loop
      vertex 1.8 1.10865 8.45922
      vertex 1.8 1.10865 7.54078
      vertex 1.8 1.17694 7.76589
    endloop
  endfacet
  facet normal 1 0 0
    outer loop
      vertex 1.8 0.997763 8.66668
      vertex 1.8 1.10865 7.54078
      vertex 1.8 1.10865 8.45922
    endloop
  endfacet
  facet normal 1 0 0
    outer loop
      vertex 1.8 0.997763 8.66668
      vertex 1.8 0.997763 7.33331
      vertex 1.8 1.10865 7.54078
    endloop
  endfacet
  facet normal 1 0 0
    outer loop
      vertex 1.8 0.848528 8.84853
      vertex 1.8 0.997763 7.33331
      vertex 1.8 0.997763 8.66668
    endloop
  endfacet
  facet normal 1 0 0
    outer loop
      vertex 1.8 0.848528 8.84853
      vertex 1.8 0.848528 7.15147
      vertex 1.8 0.997763 7.33331
    endloop
  endfacet
  facet normal 1 0 0
    outer loop
      vertex 1.8 0.666684 8.99776
      vertex 1.8 0.848528 7.15147
      vertex 1.8 0.848528 8.84853
    endloop
  endfacet
  facet normal 1 0 0
    outer loop
      vertex 1.8 0.666684 8.99776
      vertex 1.8 0.666684 7.00224
      vertex 1.8 0.848528 7.15147
    endloop
  endfacet
  facet normal 1 0 0
    outer loop
      vertex 1.8 0.45922 9.10865
      vertex 1.8 0.666684 7.00224
      vertex 1.8 0.666684 8.99776
    endloop
  endfacet
  facet normal 1 0 0
    outer loop
      vertex 1.8 0.45922 9.10865
      vertex 1.8 0.45922 6.89134
      vertex 1.8 0.666684 7.00224
    endloop
  endfacet
  facet normal 1 0 0
    outer loop
      vertex 1.8 0.234108 9.17694
      vertex 1.8 0.45922 6.89134
      vertex 1.8 0.45922 9.10865
    endloop
  endfacet
  facet normal 1 0 0
    outer loop
      vertex 1.8 0.234108 9.17694
      vertex 1.8 0.234108 6.82306
      vertex 1.8 0.45922 6.89134
    endloop
  endfacet
  facet normal 1 0 0
    outer loop
      vertex 1.8 0 9.2
      vertex 1.8 0.234108 6.82306
      vertex 1.8 0.234108 9.17694
    endloop
  endfacet
  facet normal 1 0 0
    outer loop
      vertex 1.8 0 9.2
      vertex 1.8 0 6.8
      vertex 1.8 0.234108 6.82306
    endloop
  endfacet
  facet normal 1 -0 0
    outer loop
      vertex 1.8 -0.234108 9.17694
      vertex 1.8 0 6.8
      vertex 1.8 0 9.2
    endloop
  endfacet
  facet normal 1 0 0
    outer loop
      vertex 1.8 -0.234108 9.17694
      vertex 1.8 -0.234108 6.82306
      vertex 1.8 0 6.8
    endloop
  endfacet
  facet normal 1 -0 0
    outer loop
      vertex 1.8 -0.45922 9.10865
      vertex 1.8 -0.234108 6.82306
      vertex 1.8 -0.234108 9.17694
    endloop
  endfacet
  facet normal 1 0 0
    outer loop
      vertex 1.8 -0.45922 9.10865
      vertex 1.8 -0.45922 6.89134
      vertex 1.8 -0.234108 6.82306
    endloop
  endfacet
  facet normal 1 -0 0
    outer loop
      vertex 1.8 -0.666684 8.99776
      vertex 1.8 -0.45922 6.89134
      vertex 1.8 -0.45922 9.10865
    endloop
  endfacet
  facet normal 1 0 0
    outer loop
      vertex 1.8 -0.666684 8.99776
      vertex 1.8 -0.666684 7.00224
      vertex 1.8 -0.45922 6.89134
    endloop
  endfacet
  facet normal 1 -0 0
    outer loop
      vertex 1.8 -0.848528 8.84853
      vertex 1.8 -0.666684 7.00224
      vertex 1.8 -0.666684 8.99776
    endloop
  endfacet
  facet normal 1 0 0
    outer loop
      vertex 1.8 -0.848528 8.84853
      vertex 1.8 -0.848528 7.15147
      vertex 1.8 -0.666684 7.00224
    endloop
  endfacet
  facet normal 1 -0 0
    outer loop
      vertex 1.8 -0.997763 8.66668
      vertex 1.8 -0.848528 7.15147
      vertex 1.8 -0.848528 8.84853
    endloop
  endfacet
  facet normal 1 0 0
    outer loop
      vertex 1.8 -0.997763 8.66668
      vertex 1.8 -0.997763 7.33331
      vertex 1.8 -0.848528 7.15147
    endloop
  endfacet
  facet normal 1 -0 0
    outer loop
      vertex 1.8 -1.10865 8.45922
      vertex 1.8 -0.997763 7.33331
      vertex 1.8 -0.997763 8.66668
    endloop
  endfacet
  facet normal 1 0 0
    outer loop
      vertex 1.8 -1.10865 8.45922
      vertex 1.8 -1.10865 7.54078
      vertex 1.8 -0.997763 7.33331
    endloop
  endfacet
  facet normal 1 -0 0
    outer loop
      vertex 1.8 -1.17694 8.23411
      vertex 1.8 -1.10865 7.54078
      vertex 1.8 -1.10865 8.45922
    endloop
  endfacet
  facet normal 1 0 0
    outer loop
      vertex 1.8 -1.17694 8.23411
      vertex 1.8 -1.17694 7.76589
      vertex 1.8 -1.10865 7.54078
    endloop
  endfacet
  facet normal 1 0 -0
    outer loop
      vertex 1.8 -1.17694 7.76589
      vertex 1.8 -1.17694 8.23411
      vertex 1.8 -1.2 8
    endloop
  endfacet
  facet normal 1 0 0
    outer loop
      vertex 1.8 1.17694 -11.7659
      vertex 1.8 1.17694 -12.2341
      vertex 1.8 1.2 -12
    endloop
  endfacet
  facet normal 1 0 0
    outer loop
      vertex 1.8 1.10865 -11.5408
      vertex 1.8 1.17694 -12.2341
      vertex 1.8 1.17694 -11.7659
    endloop
  endfacet
  facet normal 1 0 0
    outer loop
      vertex 1.8 1.10865 -11.5408
      vertex 1.8 1.10865 -12.4592
      vertex 1.8 1.17694 -12.2341
    endloop
  endfacet
  facet normal 1 0 0
    outer loop
      vertex 1.8 0.997763 -11.3333
      vertex 1.8 1.10865 -12.4592
      vertex 1.8 1.10865 -11.5408
    endloop
  endfacet
  facet normal 1 0 0
    outer loop
      vertex 1.8 0.997763 -11.3333
      vertex 1.8 0.997763 -12.6667
      vertex 1.8 1.10865 -12.4592
    endloop
  endfacet
  facet normal 1 0 0
    outer loop
      vertex 1.8 0.848528 -11.1515
      vertex 1.8 0.997763 -12.6667
      vertex 1.8 0.997763 -11.3333
    endloop
  endfacet
  facet normal 1 0 0
    outer loop
      vertex 1.8 0.848528 -11.1515
      vertex 1.8 0.848528 -12.8485
      vertex 1.8 0.997763 -12.6667
    endloop
  endfacet
  facet normal 1 0 0
    outer loop
      vertex 1.8 0.666684 -11.0022
      vertex 1.8 0.848528 -12.8485
      vertex 1.8 0.848528 -11.1515
    endloop
  endfacet
  facet normal 1 0 0
    outer loop
      vertex 1.8 0.666684 -11.0022
      vertex 1.8 0.666684 -12.9978
      vertex 1.8 0.848528 -12.8485
    endloop
  endfacet
  facet normal 1 0 0
    outer loop
      vertex 1.8 0.45922 -10.8913
      vertex 1.8 0.666684 -12.9978
      vertex 1.8 0.666684 -11.0022
    endloop
  endfacet
  facet normal 1 0 0
    outer loop
      vertex 1.8 0.45922 -10.8913
      vertex 1.8 0.45922 -13.1087
      vertex 1.8 0.666684 -12.9978
    endloop
  endfacet
  facet normal 1 0 0
    outer loop
      vertex 1.8 0.234108 -10.8231
      vertex 1.8 0.45922 -13.1087
      vertex 1.8 0.45922 -10.8913
    endloop
  endfacet
  facet normal 1 0 0
    outer loop
      vertex 1.8 0.234108 -10.8231
      vertex 1.8 0.234108 -13.1769
      vertex 1.8 0.45922 -13.1087
    endloop
  endfacet
  facet normal 1 0 0
    outer loop
      vertex 1.8 0 -10.8
      vertex 1.8 0.234108 -13.1769
      vertex 1.8 0.234108 -10.8231
    endloop
  endfacet
  facet normal 1 0 0
    outer loop
      vertex 1.8 0 -10.8
      vertex 1.8 0 -13.2
      vertex 1.8 0.234108 -13.1769
    endloop
  endfacet
  facet normal 1 -0 0
    outer loop
      vertex 1.8 -0.234108 -10.8231
      vertex 1.8 0 -13.2
      vertex 1.8 0 -10.8
    endloop
  endfacet
  facet normal 1 0 0
    outer loop
      vertex 1.8 -0.234108 -10.8231
      vertex 1.8 -0.234108 -13.1769
      vertex 1.8 0 -13.2
    endloop
  endfacet
  facet normal 1 -0 0
    outer loop
      vertex 1.8 -0.45922 -10.8913
      vertex 1.8 -0.234108 -13.1769
      vertex 1.8 -0.234108 -10.8231
    endloop
  endfacet
  facet normal 1 0 0
    outer loop
      vertex 1.8 -0.45922 -10.8913
      vertex 1.8 -0.45922 -13.1087
      vertex 1.8 -0.234108 -13.1769
    endloop
  endfacet
  facet normal 1 -0 0
    outer loop
      vertex 1.8 -0.666684 -11.0022
      vertex 1.8 -0.45922 -13.1087
      vertex 1.8 -0.45922 -10.8913
    endloop
  endfacet
  facet normal 1 0 0
    outer loop
      vertex 1.8 -0.666684 -11.0022
      vertex 1.8 -0.666684 -12.9978
      vertex 1.8 -0.45922 -13.1087
    endloop
  endfacet
  facet normal 1 -0 0
    outer loop
      vertex 1.8 -0.848528 -11.1515
      vertex 1.8 -0.666684 -12.9978
      vertex 1.8 -0.666684 -11.0022
    endloop
  endfacet
  facet normal 1 0 0
    outer loop
      vertex 1.8 -0.848528 -11.1515
      vertex 1.8 -0.848528 -12.8485
      vertex 1.8 -0.666684 -12.9978
    endloop
  endfacet
  facet normal 1 -0 0
    outer loop
      vertex 1.8 -0.997763 -11.3333
      vertex 1.8 -0.848528 -12.8485
      vertex 1.8 -0.848528 -11.1515
    endloop
  endfacet
  facet normal 1 0 0
    outer loop
      vertex 1.8 -0.997763 -11.3333
      vertex 1.8 -0.997763 -12.6667
      vertex 1.8 -0.848528 -12.8485
    endloop
  endfacet
  facet normal 1 -0 0
    outer loop
      vertex 1.8 -1.10865 -11.5408
      vertex 1.8 -0.997763 -12.6667
      vertex 1.8 -0.997763 -11.3333
    endloop
  endfacet
  facet normal 1 0 0
    outer loop
      vertex 1.8 -1.10865 -11.5408
      vertex 1.8 -1.10865 -12.4592
      vertex 1.8 -0.997763 -12.6667
    endloop
  endfacet
  facet normal 1 -0 0
    outer loop
      vertex 1.8 -1.17694 -11.7659
      vertex 1.8 -1.10865 -12.4592
      vertex 1.8 -1.10865 -11.5408
    endloop
  endfacet
  facet normal 1 0 0
    outer loop
      vertex 1.8 -1.17694 -11.7659
      vertex 1.8 -1.17694 -12.2341
      vertex 1.8 -1.10865 -12.4592
    endloop
  endfacet
  facet normal 1 0 -0
    outer loop
      vertex 1.8 -1.17694 -12.2341
      vertex 1.8 -1.17694 -11.7659
      vertex 1.8 -1.2 -12
    endloop
  endfacet
  facet normal 1 0 0
    outer loop
      vertex 1.8 1.10865 -21.5408
      vertex 1.8 1.2 -22
      vertex 1.8 1.17694 -21.7659
    endloop
  endfacet
  facet normal 1 0 0
    outer loop
      vertex 1.8 0.997763 -21.3333
      vertex 1.8 1.2 -22
      vertex 1.8 1.10865 -21.5408
    endloop
  endfacet
  facet normal 1 0 0
    outer loop
      vertex 1.8 0.848528 -21.1515
      vertex 1.8 1.2 -22
      vertex 1.8 0.997763 -21.3333
    endloop
  endfacet
  facet normal 1 0 0
    outer loop
      vertex 1.8 0.666684 -21.0022
      vertex 1.8 1.2 -22
      vertex 1.8 0.848528 -21.1515
    endloop
  endfacet
  facet normal 1 0 0
    outer loop
      vertex 1.8 0.45922 -20.8913
      vertex 1.8 1.2 -22
      vertex 1.8 0.666684 -21.0022
    endloop
  endfacet
  facet normal 1 0 0
    outer loop
      vertex 1.8 0.234108 -20.8231
      vertex 1.8 1.2 -22
      vertex 1.8 0.45922 -20.8913
    endloop
  endfacet
  facet normal 1 0 0
    outer loop
      vertex 1.8 0 -20.8
      vertex 1.8 1.2 -22
      vertex 1.8 0.234108 -20.8231
    endloop
  endfacet
  facet normal 1 -0 0
    outer loop
      vertex 1.8 -0.234108 -20.8231
      vertex 1.8 1.2 -22
      vertex 1.8 0 -20.8
    endloop
  endfacet
  facet normal 1 -0 0
    outer loop
      vertex 1.8 -0.45922 -20.8913
      vertex 1.8 1.2 -22
      vertex 1.8 -0.234108 -20.8231
    endloop
  endfacet
  facet normal 1 -0 0
    outer loop
      vertex 1.8 -0.666684 -21.0022
      vertex 1.8 1.2 -22
      vertex 1.8 -0.45922 -20.8913
    endloop
  endfacet
  facet normal 1 -0 0
    outer loop
      vertex 1.8 -0.848528 -21.1515
      vertex 1.8 1.2 -22
      vertex 1.8 -0.666684 -21.0022
    endloop
  endfacet
  facet normal 1 -0 0
    outer loop
      vertex 1.8 -0.997763 -21.3333
      vertex 1.8 1.2 -22
      vertex 1.8 -0.848528 -21.1515
    endloop
  endfacet
  facet normal 1 -0 0
    outer loop
      vertex 1.8 -1.10865 -21.5408
      vertex 1.8 1.2 -22
      vertex 1.8 -0.997763 -21.3333
    endloop
  endfacet
  facet normal 1 -0 0
    outer loop
      vertex 1.8 -1.17694 -21.7659
      vertex 1.8 1.2 -22
      vertex 1.8 -1.10865 -21.5408
    endloop
  endfacet
  facet normal 1 0 0
    outer loop
      vertex 1.8 1.2 -22
      vertex 1.8 -1.17694 -21.7659
      vertex 1.8 -1.2 -22
    endloop
  endfacet
  facet normal 1 0 0
    outer loop
      vertex 1.8 1.17694 -1.76589
      vertex 1.8 1.17694 -2.23411
      vertex 1.8 1.2 -2
    endloop
  endfacet
  facet normal 1 0 0
    outer loop
      vertex 1.8 1.10865 -1.54078
      vertex 1.8 1.17694 -2.23411
      vertex 1.8 1.17694 -1.76589
    endloop
  endfacet
  facet normal 1 0 0
    outer loop
      vertex 1.8 1.10865 -1.54078
      vertex 1.8 1.10865 -2.45922
      vertex 1.8 1.17694 -2.23411
    endloop
  endfacet
  facet normal 1 0 0
    outer loop
      vertex 1.8 0.997763 -1.33331
      vertex 1.8 1.10865 -2.45922
      vertex 1.8 1.10865 -1.54078
    endloop
  endfacet
  facet normal 1 0 0
    outer loop
      vertex 1.8 0.997763 -1.33331
      vertex 1.8 0.997763 -2.66668
      vertex 1.8 1.10865 -2.45922
    endloop
  endfacet
  facet normal 1 0 0
    outer loop
      vertex 1.8 0.848528 -1.15147
      vertex 1.8 0.997763 -2.66668
      vertex 1.8 0.997763 -1.33331
    endloop
  endfacet
  facet normal 1 0 0
    outer loop
      vertex 1.8 0.848528 -1.15147
      vertex 1.8 0.848528 -2.84853
      vertex 1.8 0.997763 -2.66668
    endloop
  endfacet
  facet normal 1 0 0
    outer loop
      vertex 1.8 0.666684 -1.00224
      vertex 1.8 0.848528 -2.84853
      vertex 1.8 0.848528 -1.15147
    endloop
  endfacet
  facet normal 1 0 0
    outer loop
      vertex 1.8 0.666684 -1.00224
      vertex 1.8 0.666684 -2.99776
      vertex 1.8 0.848528 -2.84853
    endloop
  endfacet
  facet normal 1 0 0
    outer loop
      vertex 1.8 0.45922 -0.891344
      vertex 1.8 0.666684 -2.99776
      vertex 1.8 0.666684 -1.00224
    endloop
  endfacet
  facet normal 1 0 0
    outer loop
      vertex 1.8 0.45922 -0.891344
      vertex 1.8 0.45922 -3.10865
      vertex 1.8 0.666684 -2.99776
    endloop
  endfacet
  facet normal 1 0 0
    outer loop
      vertex 1.8 0.234108 -0.823057
      vertex 1.8 0.45922 -3.10865
      vertex 1.8 0.45922 -0.891344
    endloop
  endfacet
  facet normal 1 0 0
    outer loop
      vertex 1.8 0.234108 -0.823057
      vertex 1.8 0.234108 -3.17694
      vertex 1.8 0.45922 -3.10865
    endloop
  endfacet
  facet normal 1 0 0
    outer loop
      vertex 1.8 0 -0.799999
      vertex 1.8 0.234108 -3.17694
      vertex 1.8 0.234108 -0.823057
    endloop
  endfacet
  facet normal 1 0 0
    outer loop
      vertex 1.8 0 -0.799999
      vertex 1.8 0 -3.2
      vertex 1.8 0.234108 -3.17694
    endloop
  endfacet
  facet normal 1 -0 0
    outer loop
      vertex 1.8 -0.234108 -0.823057
      vertex 1.8 0 -3.2
      vertex 1.8 0 -0.799999
    endloop
  endfacet
  facet normal 1 0 0
    outer loop
      vertex 1.8 -0.234108 -0.823057
      vertex 1.8 -0.234108 -3.17694
      vertex 1.8 0 -3.2
    endloop
  endfacet
  facet normal 1 -0 0
    outer loop
      vertex 1.8 -0.45922 -0.891344
      vertex 1.8 -0.234108 -3.17694
      vertex 1.8 -0.234108 -0.823057
    endloop
  endfacet
  facet normal 1 0 0
    outer loop
      vertex 1.8 -0.45922 -0.891344
      vertex 1.8 -0.45922 -3.10865
      vertex 1.8 -0.234108 -3.17694
    endloop
  endfacet
  facet normal 1 -0 0
    outer loop
      vertex 1.8 -0.666684 -1.00224
      vertex 1.8 -0.45922 -3.10865
      vertex 1.8 -0.45922 -0.891344
    endloop
  endfacet
  facet normal 1 0 0
    outer loop
      vertex 1.8 -0.666684 -1.00224
      vertex 1.8 -0.666684 -2.99776
      vertex 1.8 -0.45922 -3.10865
    endloop
  endfacet
  facet normal 1 -0 0
    outer loop
      vertex 1.8 -0.848528 -1.15147
      vertex 1.8 -0.666684 -2.99776
      vertex 1.8 -0.666684 -1.00224
    endloop
  endfacet
  facet normal 1 0 0
    outer loop
      vertex 1.8 -0.848528 -1.15147
      vertex 1.8 -0.848528 -2.84853
      vertex 1.8 -0.666684 -2.99776
    endloop
  endfacet
  facet normal 1 -0 0
    outer loop
      vertex 1.8 -0.997763 -1.33331
      vertex 1.8 -0.848528 -2.84853
      vertex 1.8 -0.848528 -1.15147
    endloop
  endfacet
  facet normal 1 0 0
    outer loop
      vertex 1.8 -0.997763 -1.33331
      vertex 1.8 -0.997763 -2.66668
      vertex 1.8 -0.848528 -2.84853
    endloop
  endfacet
  facet normal 1 -0 0
    outer loop
      vertex 1.8 -1.10865 -1.54078
      vertex 1.8 -0.997763 -2.66668
      vertex 1.8 -0.997763 -1.33331
    endloop
  endfacet
  facet normal 1 0 0
    outer loop
      vertex 1.8 -1.10865 -1.54078
      vertex 1.8 -1.10865 -2.45922
      vertex 1.8 -0.997763 -2.66668
    endloop
  endfacet
  facet normal 1 -0 0
    outer loop
      vertex 1.8 -1.17694 -1.76589
      vertex 1.8 -1.10865 -2.45922
      vertex 1.8 -1.10865 -1.54078
    endloop
  endfacet
  facet normal 1 0 0
    outer loop
      vertex 1.8 -1.17694 -1.76589
      vertex 1.8 -1.17694 -2.23411
      vertex 1.8 -1.10865 -2.45922
    endloop
  endfacet
  facet normal 1 0 -0
    outer loop
      vertex 1.8 -1.17694 -2.23411
      vertex 1.8 -1.17694 -1.76589
      vertex 1.8 -1.2 -2
    endloop
  endfacet
  facet normal -0 0 1
    outer loop
      vertex -1.8 1.8 22
      vertex 1.8 -1.8 22
      vertex 1.8 1.8 22
    endloop
  endfacet
  facet normal 0 0 1
    outer loop
      vertex 1.8 -1.8 22
      vertex -1.8 1.8 22
      vertex -1.8 -1.8 22
    endloop
  endfacet
  facet normal 0 0 -1
    outer loop
      vertex -1.8 -1.8 -22
      vertex 1.8 -1.2 -22
      vertex 1.8 -1.8 -22
    endloop
  endfacet
  facet normal -0 0 -1
    outer loop
      vertex 1.8 -1.2 -22
      vertex -1.8 -1.8 -22
      vertex 1.8 1.2 -22
    endloop
  endfacet
  facet normal 0 0 -1
    outer loop
      vertex -1.8 1.8 -22
      vertex 1.8 1.2 -22
      vertex -1.8 -1.8 -22
    endloop
  endfacet
  facet normal 0 0 -1
    outer loop
      vertex 1.8 1.2 -22
      vertex -1.8 1.8 -22
      vertex 1.8 1.8 -22
    endloop
  endfacet
  facet normal -1 0 0
    outer loop
      vertex -1.8 -1.8 -22
      vertex -1.8 1.8 22
      vertex -1.8 1.8 -22
    endloop
  endfacet
  facet normal -1 -0 0
    outer loop
      vertex -1.8 1.8 22
      vertex -1.8 -1.8 -22
      vertex -1.8 -1.8 22
    endloop
  endfacet
  facet normal 0 1 -0
    outer loop
      vertex 1.8 1.8 -22
      vertex -1.8 1.8 22
      vertex 1.8 1.8 22
    endloop
  endfacet
  facet normal 0 1 0
    outer loop
      vertex -1.8 1.8 22
      vertex 1.8 1.8 -22
      vertex -1.8 1.8 -22
    endloop
  endfacet
  facet normal 0 -1 0
    outer loop
      vertex -1.8 -1.8 -22
      vertex 1.8 -1.8 22
      vertex -1.8 -1.8 22
    endloop
  endfacet
  facet normal 0 -1 -0
    outer loop
      vertex 1.8 -1.8 22
      vertex -1.8 -1.8 -22
      vertex 1.8 -1.8 -22
    endloop
  endfacet
endsolid OpenSCAD_Model
