solid OpenSCAD_Model
  facet normal -0 0 1
    outer loop
      vertex 1.8 0.3 -15.5
      vertex 2.6 -0.3 -15.5
      vertex 2.6 0.3 -15.5
    endloop
  endfacet
  facet normal 0 0 1
    outer loop
      vertex 2.6 -0.3 -15.5
      vertex 1.8 0.3 -15.5
      vertex 1.8 -0.3 -15.5
    endloop
  endfacet
  facet normal 0 0 -1
    outer loop
      vertex 1.8 -0.3 -20.5
      vertex 2.6 0.3 -20.5
      vertex 2.6 -0.3 -20.5
    endloop
  endfacet
  facet normal -0 0 -1
    outer loop
      vertex 2.6 0.3 -20.5
      vertex 1.8 -0.3 -20.5
      vertex 1.8 0.3 -20.5
    endloop
  endfacet
  facet normal 0 -1 0
    outer loop
      vertex 1.8 -0.3 -20.5
      vertex 2.6 -0.3 -15.5
      vertex 1.8 -0.3 -15.5
    endloop
  endfacet
  facet normal 0 -1 -0
    outer loop
      vertex 2.6 -0.3 -15.5
      vertex 1.8 -0.3 -20.5
      vertex 2.6 -0.3 -20.5
    endloop
  endfacet
  facet normal 1 -0 0
    outer loop
      vertex 2.6 -0.3 -15.5
      vertex 2.6 0.3 -20.5
      vertex 2.6 0.3 -15.5
    endloop
  endfacet
  facet normal 1 0 0
    outer loop
      vertex 2.6 0.3 -20.5
      vertex 2.6 -0.3 -15.5
      vertex 2.6 -0.3 -20.5
    endloop
  endfacet
  facet normal 0 1 -0
    outer loop
      vertex 2.6 0.3 -20.5
      vertex 1.8 0.3 -15.5
      vertex 2.6 0.3 -15.5
    endloop
  endfacet
  facet normal 0 1 0
    outer loop
      vertex 1.8 0.3 -15.5
      vertex 2.6 0.3 -20.5
      vertex 1.8 0.3 -20.5
    endloop
  endfacet
  facet normal -1 0 0
    outer loop
      vertex 1.8 -0.3 -20.5
      vertex 1.8 0.3 -15.5
      vertex 1.8 0.3 -20.5
    endloop
  endfacet
  facet normal -1 -0 0
    outer loop
      vertex 1.8 0.3 -15.5
      vertex 1.8 -0.3 -20.5
      vertex 1.8 -0.3 -15.5
    endloop
  endfacet
endsolid OpenSCAD_Model
