solid OpenSCAD_Model
  facet normal 0 0 -1
    outer loop
      vertex 1.375 -0.799999 -19
      vertex 1.8 0.799999 -19
      vertex 1.8 -0.799999 -19
    endloop
  endfacet
  facet normal -0 0 -1
    outer loop
      vertex 1.8 0.799999 -19
      vertex 1.375 -0.799999 -19
      vertex 1.375 0.799999 -19
    endloop
  endfacet
  facet normal -0 0 1
    outer loop
      vertex 1.375 0.799999 -21
      vertex 1.8 -0.799999 -21
      vertex 1.8 0.799999 -21
    endloop
  endfacet
  facet normal 0 0 1
    outer loop
      vertex 1.8 -0.799999 -21
      vertex 1.375 0.799999 -21
      vertex 1.375 -0.799999 -21
    endloop
  endfacet
  facet normal 1 -0 0
    outer loop
      vertex 1.375 -0.799999 -19
      vertex 1.375 0.799999 -21
      vertex 1.375 0.799999 -19
    endloop
  endfacet
  facet normal 1 0 0
    outer loop
      vertex 1.375 0.799999 -21
      vertex 1.375 -0.799999 -19
      vertex 1.375 -0.799999 -21
    endloop
  endfacet
  facet normal 0 -1 0
    outer loop
      vertex 1.375 0.799999 -21
      vertex 1.8 0.799999 -19
      vertex 1.375 0.799999 -19
    endloop
  endfacet
  facet normal 0 -1 -0
    outer loop
      vertex 1.8 0.799999 -19
      vertex 1.375 0.799999 -21
      vertex 1.8 0.799999 -21
    endloop
  endfacet
  facet normal 0 1 -0
    outer loop
      vertex 1.8 -0.799999 -21
      vertex 1.375 -0.799999 -19
      vertex 1.8 -0.799999 -19
    endloop
  endfacet
  facet normal 0 1 0
    outer loop
      vertex 1.375 -0.799999 -19
      vertex 1.8 -0.799999 -21
      vertex 1.375 -0.799999 -21
    endloop
  endfacet
  facet normal 0 0 -1
    outer loop
      vertex 1.375 -0.799999 21
      vertex 1.8 0.799999 21
      vertex 1.8 -0.799999 21
    endloop
  endfacet
  facet normal -0 0 -1
    outer loop
      vertex 1.8 0.799999 21
      vertex 1.375 -0.799999 21
      vertex 1.375 0.799999 21
    endloop
  endfacet
  facet normal -0 0 1
    outer loop
      vertex 1.375 0.799999 19
      vertex 1.8 -0.799999 19
      vertex 1.8 0.799999 19
    endloop
  endfacet
  facet normal 0 0 1
    outer loop
      vertex 1.8 -0.799999 19
      vertex 1.375 0.799999 19
      vertex 1.375 -0.799999 19
    endloop
  endfacet
  facet normal 1 -0 0
    outer loop
      vertex 1.375 -0.799999 21
      vertex 1.375 0.799999 19
      vertex 1.375 0.799999 21
    endloop
  endfacet
  facet normal 1 0 0
    outer loop
      vertex 1.375 0.799999 19
      vertex 1.375 -0.799999 21
      vertex 1.375 -0.799999 19
    endloop
  endfacet
  facet normal 0 -1 0
    outer loop
      vertex 1.375 0.799999 19
      vertex 1.8 0.799999 21
      vertex 1.375 0.799999 21
    endloop
  endfacet
  facet normal 0 -1 -0
    outer loop
      vertex 1.8 0.799999 21
      vertex 1.375 0.799999 19
      vertex 1.8 0.799999 19
    endloop
  endfacet
  facet normal 0 1 -0
    outer loop
      vertex 1.8 -0.799999 19
      vertex 1.375 -0.799999 21
      vertex 1.8 -0.799999 21
    endloop
  endfacet
  facet normal 0 1 0
    outer loop
      vertex 1.375 -0.799999 21
      vertex 1.8 -0.799999 19
      vertex 1.375 -0.799999 19
    endloop
  endfacet
  facet normal 1 -0 0
    outer loop
      vertex 1.8 -0.799999 19
      vertex 1.8 0.799999 -19
      vertex 1.8 0.799999 19
    endloop
  endfacet
  facet normal 1 0 0
    outer loop
      vertex 1.8 0.799999 -19
      vertex 1.8 -0.799999 19
      vertex 1.8 -0.799999 -19
    endloop
  endfacet
  facet normal 1 0 0
    outer loop
      vertex 1.8 0.799999 19
      vertex 1.8 1.8 23
      vertex 1.8 0.799999 21
    endloop
  endfacet
  facet normal 1 0 0
    outer loop
      vertex 1.8 1.8 23
      vertex 1.8 -0.799999 21
      vertex 1.8 0.799999 21
    endloop
  endfacet
  facet normal 1 0 0
    outer loop
      vertex 1.8 -1.8 23
      vertex 1.8 -0.799999 19
      vertex 1.8 -0.799999 21
    endloop
  endfacet
  facet normal 1 0 0
    outer loop
      vertex 1.8 -0.799999 19
      vertex 1.8 -1.8 23
      vertex 1.8 -0.799999 -19
    endloop
  endfacet
  facet normal 1 0 0
    outer loop
      vertex 1.8 -1.8 -23
      vertex 1.8 -0.799999 -19
      vertex 1.8 -1.8 23
    endloop
  endfacet
  facet normal 1 -0 0
    outer loop
      vertex 1.8 -1.8 23
      vertex 1.8 -0.799999 21
      vertex 1.8 1.8 23
    endloop
  endfacet
  facet normal 1 0 0
    outer loop
      vertex 1.8 1.8 23
      vertex 1.8 0.799999 19
      vertex 1.8 1.8 -23
    endloop
  endfacet
  facet normal 1 -0 0
    outer loop
      vertex 1.8 0.799999 -19
      vertex 1.8 1.8 -23
      vertex 1.8 0.799999 19
    endloop
  endfacet
  facet normal 1 -0 0
    outer loop
      vertex 1.8 0.799999 -21
      vertex 1.8 1.8 -23
      vertex 1.8 0.799999 -19
    endloop
  endfacet
  facet normal 1 -0 0
    outer loop
      vertex 1.8 -0.799999 -21
      vertex 1.8 1.8 -23
      vertex 1.8 0.799999 -21
    endloop
  endfacet
  facet normal 1 0 0
    outer loop
      vertex 1.8 -0.799999 -21
      vertex 1.8 -1.8 -23
      vertex 1.8 1.8 -23
    endloop
  endfacet
  facet normal 1 0 0
    outer loop
      vertex 1.8 -0.799999 -19
      vertex 1.8 -1.8 -23
      vertex 1.8 -0.799999 -21
    endloop
  endfacet
  facet normal -0 0 1
    outer loop
      vertex -1.8 1.8 23
      vertex 1.8 -1.8 23
      vertex 1.8 1.8 23
    endloop
  endfacet
  facet normal 0 0 1
    outer loop
      vertex 1.8 -1.8 23
      vertex -1.8 1.8 23
      vertex -1.8 -1.8 23
    endloop
  endfacet
  facet normal 0 0 -1
    outer loop
      vertex -1.8 -1.8 -23
      vertex 1.8 1.8 -23
      vertex 1.8 -1.8 -23
    endloop
  endfacet
  facet normal -0 0 -1
    outer loop
      vertex 1.8 1.8 -23
      vertex -1.8 -1.8 -23
      vertex -1.8 1.8 -23
    endloop
  endfacet
  facet normal -1 0 0
    outer loop
      vertex -1.8 -1.8 -23
      vertex -1.8 1.8 23
      vertex -1.8 1.8 -23
    endloop
  endfacet
  facet normal -1 -0 0
    outer loop
      vertex -1.8 1.8 23
      vertex -1.8 -1.8 -23
      vertex -1.8 -1.8 23
    endloop
  endfacet
  facet normal 0 1 -0
    outer loop
      vertex 1.8 1.8 -23
      vertex -1.8 1.8 23
      vertex 1.8 1.8 23
    endloop
  endfacet
  facet normal 0 1 0
    outer loop
      vertex -1.8 1.8 23
      vertex 1.8 1.8 -23
      vertex -1.8 1.8 -23
    endloop
  endfacet
  facet normal 0 -1 0
    outer loop
      vertex -1.8 -1.8 -23
      vertex 1.8 -1.8 23
      vertex -1.8 -1.8 23
    endloop
  endfacet
  facet normal 0 -1 -0
    outer loop
      vertex 1.8 -1.8 23
      vertex -1.8 -1.8 -23
      vertex 1.8 -1.8 -23
    endloop
  endfacet
endsolid OpenSCAD_Model
