solid OpenSCAD_Model
  facet normal -0.923878 0.382687 -1.48372e-18
    outer loop
      vertex -0.482963 0.129409 -0.599999
      vertex -0.433012 0.25 0.599999
      vertex -0.433012 0.25 -0.599999
    endloop
  endfacet
  facet normal -0.923878 0.382687 -1.48372e-18
    outer loop
      vertex -0.433012 0.25 0.599999
      vertex -0.482963 0.129409 -0.599999
      vertex -0.482963 0.129409 0.599999
    endloop
  endfacet
  facet normal 0.793353 0.608761 1.66754e-18
    outer loop
      vertex 0.433012 0.25 0.599999
      vertex 0.353553 0.353553 -0.599999
      vertex 0.353553 0.353553 0.599999
    endloop
  endfacet
  facet normal 0.793353 0.608761 1.66754e-18
    outer loop
      vertex 0.353553 0.353553 -0.599999
      vertex 0.433012 0.25 0.599999
      vertex 0.433012 0.25 -0.599999
    endloop
  endfacet
  facet normal 0.991445 0.130526 -4.45049e-19
    outer loop
      vertex 0.5 0 0.599999
      vertex 0.482963 0.129409 -0.599999
      vertex 0.482963 0.129409 0.599999
    endloop
  endfacet
  facet normal 0.991445 0.130526 -4.45049e-19
    outer loop
      vertex 0.482963 0.129409 -0.599999
      vertex 0.5 0 0.599999
      vertex 0.5 0 -0.599999
    endloop
  endfacet
  facet normal 0.130526 -0.991445 0
    outer loop
      vertex 0 -0.5 -0.599999
      vertex 0.129409 -0.482963 0
      vertex 0 -0.5 0
    endloop
  endfacet
  facet normal 0.130526 -0.991445 0
    outer loop
      vertex 0.129409 -0.482963 0
      vertex 0 -0.5 -0.599999
      vertex 0.129409 -0.482963 -0.599999
    endloop
  endfacet
  facet normal -0.608761 -0.793353 0
    outer loop
      vertex -0.353553 -0.353553 -0.599999
      vertex -0.25 -0.433012 0.599999
      vertex -0.353553 -0.353553 0.599999
    endloop
  endfacet
  facet normal -0.608761 -0.793353 -0
    outer loop
      vertex -0.25 -0.433012 0.599999
      vertex -0.353553 -0.353553 -0.599999
      vertex -0.25 -0.433012 -0.599999
    endloop
  endfacet
  facet normal 0.923878 -0.382687 -1.48372e-18
    outer loop
      vertex 0.433012 -0.25 0.599999
      vertex 0.482963 -0.129409 -0.599999
      vertex 0.482963 -0.129409 0.599999
    endloop
  endfacet
  facet normal 0.923878 -0.382687 -1.48372e-18
    outer loop
      vertex 0.482963 -0.129409 -0.599999
      vertex 0.433012 -0.25 0.599999
      vertex 0.433012 -0.25 -0.599999
    endloop
  endfacet
  facet normal 0.923878 0.382687 1.48372e-18
    outer loop
      vertex 0.482963 0.129409 0.599999
      vertex 0.433012 0.25 -0.599999
      vertex 0.433012 0.25 0.599999
    endloop
  endfacet
  facet normal 0.923878 0.382687 1.48372e-18
    outer loop
      vertex 0.433012 0.25 -0.599999
      vertex 0.482963 0.129409 0.599999
      vertex 0.482963 0.129409 -0.599999
    endloop
  endfacet
  facet normal -0.793353 -0.608761 1.66754e-18
    outer loop
      vertex -0.353553 -0.353553 -0.599999
      vertex -0.433012 -0.25 0.599999
      vertex -0.433012 -0.25 -0.599999
    endloop
  endfacet
  facet normal -0.793353 -0.608761 1.66754e-18
    outer loop
      vertex -0.433012 -0.25 0.599999
      vertex -0.353553 -0.353553 -0.599999
      vertex -0.353553 -0.353553 0.599999
    endloop
  endfacet
  facet normal 0.793353 -0.608761 -1.66754e-18
    outer loop
      vertex 0.353553 -0.353553 0.599999
      vertex 0.433012 -0.25 -0.599999
      vertex 0.433012 -0.25 0.599999
    endloop
  endfacet
  facet normal 0.793353 -0.608761 -1.66754e-18
    outer loop
      vertex 0.433012 -0.25 -0.599999
      vertex 0.353553 -0.353553 0.599999
      vertex 0.353553 -0.353553 -0.599999
    endloop
  endfacet
  facet normal -0.608761 0.793353 0
    outer loop
      vertex -0.25 0.433012 -0.599999
      vertex -0.353553 0.353553 0.599999
      vertex -0.25 0.433012 0.599999
    endloop
  endfacet
  facet normal -0.608761 0.793353 0
    outer loop
      vertex -0.353553 0.353553 0.599999
      vertex -0.25 0.433012 -0.599999
      vertex -0.353553 0.353553 -0.599999
    endloop
  endfacet
  facet normal 0.608761 -0.793353 0
    outer loop
      vertex 0.25 -0.433012 -0.599999
      vertex 0.353553 -0.353553 0.599999
      vertex 0.25 -0.433012 0.599999
    endloop
  endfacet
  facet normal 0.608761 -0.793353 0
    outer loop
      vertex 0.353553 -0.353553 0.599999
      vertex 0.25 -0.433012 -0.599999
      vertex 0.353553 -0.353553 -0.599999
    endloop
  endfacet
  facet normal -0.793353 0.608761 -1.66754e-18
    outer loop
      vertex -0.433012 0.25 -0.599999
      vertex -0.353553 0.353553 0.599999
      vertex -0.353553 0.353553 -0.599999
    endloop
  endfacet
  facet normal -0.793353 0.608761 -1.66754e-18
    outer loop
      vertex -0.353553 0.353553 0.599999
      vertex -0.433012 0.25 -0.599999
      vertex -0.433012 0.25 0.599999
    endloop
  endfacet
  facet normal 0.382691 0.923876 -1.55679e-18
    outer loop
      vertex 0.25 0.433012 0.599999
      vertex 0.224999 0.443368 0
      vertex 0.224999 0.443368 0.599999
    endloop
  endfacet
  facet normal 0.382691 0.923876 -0
    outer loop
      vertex 0.25 0.433012 -0.599999
      vertex 0.224999 0.443368 0
      vertex 0.25 0.433012 0.599999
    endloop
  endfacet
  facet normal 0.382687 0.923878 -1.97214e-07
    outer loop
      vertex 0.129409 0.482963 -0.599999
      vertex 0.224999 0.443368 0
      vertex 0.25 0.433012 -0.599999
    endloop
  endfacet
  facet normal 0.382686 0.923878 3.139e-18
    outer loop
      vertex 0.224999 0.443368 0
      vertex 0.129409 0.482963 -0.599999
      vertex 0.129409 0.482963 0
    endloop
  endfacet
  facet normal -0.130526 0.991445 0
    outer loop
      vertex 0 0.5 -0.599999
      vertex -0.129409 0.482963 0
      vertex 0 0.5 0
    endloop
  endfacet
  facet normal -0.130526 0.991445 0
    outer loop
      vertex -0.129409 0.482963 0
      vertex 0 0.5 -0.599999
      vertex -0.129409 0.482963 -0.599999
    endloop
  endfacet
  facet normal 0 0 -1
    outer loop
      vertex 0.482963 -0.129409 -0.599999
      vertex 0.482963 0.129409 -0.599999
      vertex 0.5 0 -0.599999
    endloop
  endfacet
  facet normal 0 0 -1
    outer loop
      vertex 0.433012 -0.25 -0.599999
      vertex 0.482963 0.129409 -0.599999
      vertex 0.482963 -0.129409 -0.599999
    endloop
  endfacet
  facet normal 0 0 -1
    outer loop
      vertex 0.433012 -0.25 -0.599999
      vertex 0.433012 0.25 -0.599999
      vertex 0.482963 0.129409 -0.599999
    endloop
  endfacet
  facet normal 0 0 -1
    outer loop
      vertex 0.353553 -0.353553 -0.599999
      vertex 0.433012 0.25 -0.599999
      vertex 0.433012 -0.25 -0.599999
    endloop
  endfacet
  facet normal 0 0 -1
    outer loop
      vertex 0.353553 -0.353553 -0.599999
      vertex 0.353553 0.353553 -0.599999
      vertex 0.433012 0.25 -0.599999
    endloop
  endfacet
  facet normal 0 0 -1
    outer loop
      vertex 0.25 -0.433012 -0.599999
      vertex 0.353553 0.353553 -0.599999
      vertex 0.353553 -0.353553 -0.599999
    endloop
  endfacet
  facet normal 0 0 -1
    outer loop
      vertex 0.25 -0.433012 -0.599999
      vertex 0.25 0.433012 -0.599999
      vertex 0.353553 0.353553 -0.599999
    endloop
  endfacet
  facet normal 0 0 -1
    outer loop
      vertex 0.129409 -0.482963 -0.599999
      vertex 0.25 0.433012 -0.599999
      vertex 0.25 -0.433012 -0.599999
    endloop
  endfacet
  facet normal 0 0 -1
    outer loop
      vertex 0.129409 -0.482963 -0.599999
      vertex 0.129409 0.482963 -0.599999
      vertex 0.25 0.433012 -0.599999
    endloop
  endfacet
  facet normal 0 0 -1
    outer loop
      vertex 0 -0.5 -0.599999
      vertex 0.129409 0.482963 -0.599999
      vertex 0.129409 -0.482963 -0.599999
    endloop
  endfacet
  facet normal 0 0 -1
    outer loop
      vertex 0 -0.5 -0.599999
      vertex 0 0.5 -0.599999
      vertex 0.129409 0.482963 -0.599999
    endloop
  endfacet
  facet normal 0 0 -1
    outer loop
      vertex -0.129409 -0.482963 -0.599999
      vertex 0 0.5 -0.599999
      vertex 0 -0.5 -0.599999
    endloop
  endfacet
  facet normal 0 0 -1
    outer loop
      vertex -0.129409 -0.482963 -0.599999
      vertex -0.129409 0.482963 -0.599999
      vertex 0 0.5 -0.599999
    endloop
  endfacet
  facet normal 0 0 -1
    outer loop
      vertex -0.25 -0.433012 -0.599999
      vertex -0.129409 0.482963 -0.599999
      vertex -0.129409 -0.482963 -0.599999
    endloop
  endfacet
  facet normal 0 0 -1
    outer loop
      vertex -0.25 -0.433012 -0.599999
      vertex -0.25 0.433012 -0.599999
      vertex -0.129409 0.482963 -0.599999
    endloop
  endfacet
  facet normal 0 0 -1
    outer loop
      vertex -0.353553 -0.353553 -0.599999
      vertex -0.25 0.433012 -0.599999
      vertex -0.25 -0.433012 -0.599999
    endloop
  endfacet
  facet normal 0 0 -1
    outer loop
      vertex -0.353553 -0.353553 -0.599999
      vertex -0.353553 0.353553 -0.599999
      vertex -0.25 0.433012 -0.599999
    endloop
  endfacet
  facet normal 0 0 -1
    outer loop
      vertex -0.433012 -0.25 -0.599999
      vertex -0.353553 0.353553 -0.599999
      vertex -0.353553 -0.353553 -0.599999
    endloop
  endfacet
  facet normal 0 0 -1
    outer loop
      vertex -0.433012 -0.25 -0.599999
      vertex -0.433012 0.25 -0.599999
      vertex -0.353553 0.353553 -0.599999
    endloop
  endfacet
  facet normal 0 0 -1
    outer loop
      vertex -0.482963 -0.129409 -0.599999
      vertex -0.433012 0.25 -0.599999
      vertex -0.433012 -0.25 -0.599999
    endloop
  endfacet
  facet normal 0 0 -1
    outer loop
      vertex -0.482963 -0.129409 -0.599999
      vertex -0.482963 0.129409 -0.599999
      vertex -0.433012 0.25 -0.599999
    endloop
  endfacet
  facet normal 0 -0 -1
    outer loop
      vertex -0.482963 0.129409 -0.599999
      vertex -0.482963 -0.129409 -0.599999
      vertex -0.5 0 -0.599999
    endloop
  endfacet
  facet normal 0.130526 0.991445 -0
    outer loop
      vertex 0.129409 0.482963 -0.599999
      vertex 0 0.5 0
      vertex 0.129409 0.482963 0
    endloop
  endfacet
  facet normal 0.130526 0.991445 0
    outer loop
      vertex 0 0.5 0
      vertex 0.129409 0.482963 -0.599999
      vertex 0 0.5 -0.599999
    endloop
  endfacet
  facet normal -0.382691 -0.923876 -1.55679e-18
    outer loop
      vertex -0.25 -0.433012 0.599999
      vertex -0.224999 -0.443368 0
      vertex -0.224999 -0.443368 0.599999
    endloop
  endfacet
  facet normal -0.382691 -0.923876 0
    outer loop
      vertex -0.25 -0.433012 -0.599999
      vertex -0.224999 -0.443368 0
      vertex -0.25 -0.433012 0.599999
    endloop
  endfacet
  facet normal -0.382687 -0.923878 -1.97214e-07
    outer loop
      vertex -0.129409 -0.482963 -0.599999
      vertex -0.224999 -0.443368 0
      vertex -0.25 -0.433012 -0.599999
    endloop
  endfacet
  facet normal -0.382686 -0.923878 3.139e-18
    outer loop
      vertex -0.224999 -0.443368 0
      vertex -0.129409 -0.482963 -0.599999
      vertex -0.129409 -0.482963 0
    endloop
  endfacet
  facet normal -0.382686 0.923878 0
    outer loop
      vertex -0.129409 0.482963 0
      vertex -0.129409 0.482963 -0.599999
      vertex -0.224999 0.443368 0
    endloop
  endfacet
  facet normal -0.382691 0.923876 0
    outer loop
      vertex -0.224999 0.443368 0
      vertex -0.25 0.433012 0.599999
      vertex -0.224999 0.443368 0.599999
    endloop
  endfacet
  facet normal -0.382691 0.923876 7.78395e-19
    outer loop
      vertex -0.224999 0.443368 0
      vertex -0.25 0.433012 -0.599999
      vertex -0.25 0.433012 0.599999
    endloop
  endfacet
  facet normal -0.382687 0.923878 -1.97214e-07
    outer loop
      vertex -0.25 0.433012 -0.599999
      vertex -0.224999 0.443368 0
      vertex -0.129409 0.482963 -0.599999
    endloop
  endfacet
  facet normal -0.991445 0.130526 4.45049e-19
    outer loop
      vertex -0.5 0 -0.599999
      vertex -0.482963 0.129409 0.599999
      vertex -0.482963 0.129409 -0.599999
    endloop
  endfacet
  facet normal -0.991445 0.130526 4.45049e-19
    outer loop
      vertex -0.482963 0.129409 0.599999
      vertex -0.5 0 -0.599999
      vertex -0.5 0 0.599999
    endloop
  endfacet
  facet normal -0.991445 -0.130526 -4.45049e-19
    outer loop
      vertex -0.482963 -0.129409 -0.599999
      vertex -0.5 0 0.599999
      vertex -0.5 0 -0.599999
    endloop
  endfacet
  facet normal -0.991445 -0.130526 -4.45049e-19
    outer loop
      vertex -0.5 0 0.599999
      vertex -0.482963 -0.129409 -0.599999
      vertex -0.482963 -0.129409 0.599999
    endloop
  endfacet
  facet normal 0.608761 0.793353 -0
    outer loop
      vertex 0.353553 0.353553 -0.599999
      vertex 0.25 0.433012 0.599999
      vertex 0.353553 0.353553 0.599999
    endloop
  endfacet
  facet normal 0.608761 0.793353 0
    outer loop
      vertex 0.25 0.433012 0.599999
      vertex 0.353553 0.353553 -0.599999
      vertex 0.25 0.433012 -0.599999
    endloop
  endfacet
  facet normal -0.130526 -0.991445 0
    outer loop
      vertex -0.129409 -0.482963 -0.599999
      vertex 0 -0.5 0
      vertex -0.129409 -0.482963 0
    endloop
  endfacet
  facet normal -0.130526 -0.991445 -0
    outer loop
      vertex 0 -0.5 0
      vertex -0.129409 -0.482963 -0.599999
      vertex 0 -0.5 -0.599999
    endloop
  endfacet
  facet normal 0.382686 -0.923878 0
    outer loop
      vertex 0.129409 -0.482963 0
      vertex 0.129409 -0.482963 -0.599999
      vertex 0.224999 -0.443368 0
    endloop
  endfacet
  facet normal 0.382691 -0.923876 0
    outer loop
      vertex 0.224999 -0.443368 0
      vertex 0.25 -0.433012 0.599999
      vertex 0.224999 -0.443368 0.599999
    endloop
  endfacet
  facet normal 0.382691 -0.923876 7.78395e-19
    outer loop
      vertex 0.224999 -0.443368 0
      vertex 0.25 -0.433012 -0.599999
      vertex 0.25 -0.433012 0.599999
    endloop
  endfacet
  facet normal 0.382687 -0.923878 -1.97214e-07
    outer loop
      vertex 0.25 -0.433012 -0.599999
      vertex 0.224999 -0.443368 0
      vertex 0.129409 -0.482963 -0.599999
    endloop
  endfacet
  facet normal -0.923878 -0.382687 1.48372e-18
    outer loop
      vertex -0.433012 -0.25 -0.599999
      vertex -0.482963 -0.129409 0.599999
      vertex -0.482963 -0.129409 -0.599999
    endloop
  endfacet
  facet normal -0.923878 -0.382687 1.48372e-18
    outer loop
      vertex -0.482963 -0.129409 0.599999
      vertex -0.433012 -0.25 -0.599999
      vertex -0.433012 -0.25 0.599999
    endloop
  endfacet
  facet normal 0 0 1
    outer loop
      vertex 0.482963 0.129409 0.599999
      vertex 0.482963 -0.129409 0.599999
      vertex 0.5 0 0.599999
    endloop
  endfacet
  facet normal 0 0 1
    outer loop
      vertex 0.433012 0.25 0.599999
      vertex 0.482963 -0.129409 0.599999
      vertex 0.482963 0.129409 0.599999
    endloop
  endfacet
  facet normal 0 0 1
    outer loop
      vertex 0.433012 0.25 0.599999
      vertex 0.433012 -0.25 0.599999
      vertex 0.482963 -0.129409 0.599999
    endloop
  endfacet
  facet normal 0 0 1
    outer loop
      vertex 0.224999 0.443368 0.599999
      vertex 0.433012 0.25 0.599999
      vertex 0.353553 0.353553 0.599999
    endloop
  endfacet
  facet normal 0 0 1
    outer loop
      vertex 0.433012 0.25 0.599999
      vertex 0.224999 0.443368 0.599999
      vertex 0.433012 -0.25 0.599999
    endloop
  endfacet
  facet normal 0 0 1
    outer loop
      vertex 0.224999 0.443368 0.599999
      vertex 0.353553 0.353553 0.599999
      vertex 0.25 0.433012 0.599999
    endloop
  endfacet
  facet normal 0 0 1
    outer loop
      vertex 0.224999 -0.443368 0.599999
      vertex 0.433012 -0.25 0.599999
      vertex 0.224999 0.443368 0.599999
    endloop
  endfacet
  facet normal 0 0 1
    outer loop
      vertex 0.433012 -0.25 0.599999
      vertex 0.224999 -0.443368 0.599999
      vertex 0.353553 -0.353553 0.599999
    endloop
  endfacet
  facet normal 0 0 1
    outer loop
      vertex 0.353553 -0.353553 0.599999
      vertex 0.224999 -0.443368 0.599999
      vertex 0.25 -0.433012 0.599999
    endloop
  endfacet
  facet normal 0 0 1
    outer loop
      vertex -0.353553 0.353553 0.599999
      vertex -0.224999 0.443368 0.599999
      vertex -0.25 0.433012 0.599999
    endloop
  endfacet
  facet normal 0 0 1
    outer loop
      vertex -0.433012 0.25 0.599999
      vertex -0.224999 0.443368 0.599999
      vertex -0.353553 0.353553 0.599999
    endloop
  endfacet
  facet normal 0 0 1
    outer loop
      vertex -0.224999 0.443368 0.599999
      vertex -0.433012 0.25 0.599999
      vertex -0.224999 -0.443368 0.599999
    endloop
  endfacet
  facet normal 0 0 1
    outer loop
      vertex -0.224999 -0.443368 0.599999
      vertex -0.353553 -0.353553 0.599999
      vertex -0.25 -0.433012 0.599999
    endloop
  endfacet
  facet normal -0 0 1
    outer loop
      vertex -0.433012 -0.25 0.599999
      vertex -0.224999 -0.443368 0.599999
      vertex -0.433012 0.25 0.599999
    endloop
  endfacet
  facet normal 0 0 1
    outer loop
      vertex -0.224999 -0.443368 0.599999
      vertex -0.433012 -0.25 0.599999
      vertex -0.353553 -0.353553 0.599999
    endloop
  endfacet
  facet normal -0 0 1
    outer loop
      vertex -0.482963 0.129409 0.599999
      vertex -0.433012 -0.25 0.599999
      vertex -0.433012 0.25 0.599999
    endloop
  endfacet
  facet normal 0 0 1
    outer loop
      vertex -0.482963 0.129409 0.599999
      vertex -0.482963 -0.129409 0.599999
      vertex -0.433012 -0.25 0.599999
    endloop
  endfacet
  facet normal 0 -0 1
    outer loop
      vertex -0.482963 -0.129409 0.599999
      vertex -0.482963 0.129409 0.599999
      vertex -0.5 0 0.599999
    endloop
  endfacet
  facet normal 0.991445 -0.130526 4.45049e-19
    outer loop
      vertex 0.482963 -0.129409 0.599999
      vertex 0.5 0 -0.599999
      vertex 0.5 0 0.599999
    endloop
  endfacet
  facet normal 0.991445 -0.130526 4.45049e-19
    outer loop
      vertex 0.5 0 -0.599999
      vertex 0.482963 -0.129409 0.599999
      vertex 0.482963 -0.129409 -0.599999
    endloop
  endfacet
  facet normal 1 0 0
    outer loop
      vertex 0.224999 0.599999 6
      vertex 0.224999 0.443368 0.599999
      vertex 0.224999 0.599999 0
    endloop
  endfacet
  facet normal 1 0 0
    outer loop
      vertex 0.224999 0.599999 6
      vertex 0.224999 -0.443368 0.599999
      vertex 0.224999 0.443368 0.599999
    endloop
  endfacet
  facet normal 1 -0 0
    outer loop
      vertex 0.224999 -0.599999 6
      vertex 0.224999 -0.443368 0.599999
      vertex 0.224999 0.599999 6
    endloop
  endfacet
  facet normal 1 0 0
    outer loop
      vertex 0.224999 -0.599999 0
      vertex 0.224999 -0.443368 0.599999
      vertex 0.224999 -0.599999 6
    endloop
  endfacet
  facet normal 1 0 0
    outer loop
      vertex 0.224999 -0.443368 0.599999
      vertex 0.224999 -0.599999 0
      vertex 0.224999 -0.443368 0
    endloop
  endfacet
  facet normal 1 0 0
    outer loop
      vertex 0.224999 0.599999 0
      vertex 0.224999 0.443368 0.599999
      vertex 0.224999 0.443368 0
    endloop
  endfacet
  facet normal -0 0 1
    outer loop
      vertex -0.224999 0.599999 6
      vertex 0.224999 -0.599999 6
      vertex 0.224999 0.599999 6
    endloop
  endfacet
  facet normal 0 0 1
    outer loop
      vertex 0.224999 -0.599999 6
      vertex -0.224999 0.599999 6
      vertex -0.224999 -0.599999 6
    endloop
  endfacet
  facet normal 0 0 -1
    outer loop
      vertex 0.129409 0.482963 0
      vertex 0.224999 0.599999 0
      vertex 0.224999 0.443368 0
    endloop
  endfacet
  facet normal 0 0 -1
    outer loop
      vertex 0 0.5 0
      vertex 0.224999 0.599999 0
      vertex 0.129409 0.482963 0
    endloop
  endfacet
  facet normal 0 0 -1
    outer loop
      vertex -0.224999 0.599999 0
      vertex 0 0.5 0
      vertex -0.129409 0.482963 0
    endloop
  endfacet
  facet normal 0 0 -1
    outer loop
      vertex 0 0.5 0
      vertex -0.224999 0.599999 0
      vertex 0.224999 0.599999 0
    endloop
  endfacet
  facet normal 0 0 -1
    outer loop
      vertex -0.224999 0.599999 0
      vertex -0.129409 0.482963 0
      vertex -0.224999 0.443368 0
    endloop
  endfacet
  facet normal 0 0 -1
    outer loop
      vertex 0.224999 -0.599999 0
      vertex 0.129409 -0.482963 0
      vertex 0.224999 -0.443368 0
    endloop
  endfacet
  facet normal 0 0 -1
    outer loop
      vertex 0.224999 -0.599999 0
      vertex 0 -0.5 0
      vertex 0.129409 -0.482963 0
    endloop
  endfacet
  facet normal 0 0 -1
    outer loop
      vertex -0.224999 -0.599999 0
      vertex 0 -0.5 0
      vertex 0.224999 -0.599999 0
    endloop
  endfacet
  facet normal -0 0 -1
    outer loop
      vertex 0 -0.5 0
      vertex -0.224999 -0.599999 0
      vertex -0.129409 -0.482963 0
    endloop
  endfacet
  facet normal -0 0 -1
    outer loop
      vertex -0.129409 -0.482963 0
      vertex -0.224999 -0.599999 0
      vertex -0.224999 -0.443368 0
    endloop
  endfacet
  facet normal -1 0 0
    outer loop
      vertex -0.224999 -0.443368 0
      vertex -0.224999 -0.599999 0
      vertex -0.224999 -0.443368 0.599999
    endloop
  endfacet
  facet normal -1 0 0
    outer loop
      vertex -0.224999 0.443368 0.599999
      vertex -0.224999 0.599999 0
      vertex -0.224999 0.443368 0
    endloop
  endfacet
  facet normal -1 0 0
    outer loop
      vertex -0.224999 0.599999 0
      vertex -0.224999 0.443368 0.599999
      vertex -0.224999 0.599999 6
    endloop
  endfacet
  facet normal -1 0 0
    outer loop
      vertex -0.224999 -0.443368 0.599999
      vertex -0.224999 0.599999 6
      vertex -0.224999 0.443368 0.599999
    endloop
  endfacet
  facet normal -1 0 0
    outer loop
      vertex -0.224999 -0.599999 6
      vertex -0.224999 -0.443368 0.599999
      vertex -0.224999 -0.599999 0
    endloop
  endfacet
  facet normal -1 0 0
    outer loop
      vertex -0.224999 -0.443368 0.599999
      vertex -0.224999 -0.599999 6
      vertex -0.224999 0.599999 6
    endloop
  endfacet
  facet normal 0 1 -0
    outer loop
      vertex 0.224999 0.599999 0
      vertex -0.224999 0.599999 6
      vertex 0.224999 0.599999 6
    endloop
  endfacet
  facet normal 0 1 0
    outer loop
      vertex -0.224999 0.599999 6
      vertex 0.224999 0.599999 0
      vertex -0.224999 0.599999 0
    endloop
  endfacet
  facet normal 0 -1 0
    outer loop
      vertex -0.224999 -0.599999 0
      vertex 0.224999 -0.599999 6
      vertex -0.224999 -0.599999 6
    endloop
  endfacet
  facet normal 0 -1 -0
    outer loop
      vertex 0.224999 -0.599999 6
      vertex -0.224999 -0.599999 0
      vertex 0.224999 -0.599999 0
    endloop
  endfacet
endsolid OpenSCAD_Model
