solid OpenSCAD_Model
  facet normal -0.130246 -5.22197e-19 -0.991482
    outer loop
      vertex 2.09559 -0.799999 45.317
      vertex 2.225 0.799999 45.3
      vertex 2.225 -0.799999 45.3
    endloop
  endfacet
  facet normal -0.130246 -5.22197e-19 -0.991482
    outer loop
      vertex 2.225 0.799999 45.3
      vertex 2.09559 -0.799999 45.317
      vertex 2.09559 0.799999 45.317
    endloop
  endfacet
  facet normal 0.991441 -0 0.130558
    outer loop
      vertex 2.70796 -0.799999 45.9294
      vertex 2.725 0.799999 45.8
      vertex 2.70796 0.799999 45.9294
    endloop
  endfacet
  facet normal 0.991441 0 0.130558
    outer loop
      vertex 2.725 0.799999 45.8
      vertex 2.70796 -0.799999 45.9294
      vertex 2.725 -0.799999 45.8
    endloop
  endfacet
  facet normal 0.608488 -3.33948e-18 0.793563
    outer loop
      vertex 2.475 0.799999 46.233
      vertex 2.57855 -0.799999 46.1536
      vertex 2.57855 0.799999 46.1536
    endloop
  endfacet
  facet normal 0.608488 -3.33948e-18 0.793563
    outer loop
      vertex 2.57855 -0.799999 46.1536
      vertex 2.475 0.799999 46.233
      vertex 2.475 -0.799999 46.233
    endloop
  endfacet
  facet normal 0.923891 -0 0.382656
    outer loop
      vertex 2.65801 -0.799999 46.05
      vertex 2.70796 0.799999 45.9294
      vertex 2.65801 0.799999 46.05
    endloop
  endfacet
  facet normal 0.923891 0 0.382656
    outer loop
      vertex 2.70796 0.799999 45.9294
      vertex 2.65801 -0.799999 46.05
      vertex 2.70796 -0.799999 45.9294
    endloop
  endfacet
  facet normal -0.923891 0 0.382656
    outer loop
      vertex 1.74204 -0.799999 45.9294
      vertex 1.79199 0.799999 46.05
      vertex 1.74204 0.799999 45.9294
    endloop
  endfacet
  facet normal -0.923891 0 0.382656
    outer loop
      vertex 1.79199 0.799999 46.05
      vertex 1.74204 -0.799999 45.9294
      vertex 1.79199 -0.799999 46.05
    endloop
  endfacet
  facet normal 0.991441 0 -0.130558
    outer loop
      vertex 2.725 -0.799999 45.8
      vertex 2.70796 0.799999 45.6706
      vertex 2.725 0.799999 45.8
    endloop
  endfacet
  facet normal 0.991441 0 -0.130558
    outer loop
      vertex 2.70796 0.799999 45.6706
      vertex 2.725 -0.799999 45.8
      vertex 2.70796 -0.799999 45.6706
    endloop
  endfacet
  facet normal 0.793483 -0 0.608592
    outer loop
      vertex 2.57855 -0.799999 46.1536
      vertex 2.65801 0.799999 46.05
      vertex 2.57855 0.799999 46.1536
    endloop
  endfacet
  facet normal 0.793483 0 0.608592
    outer loop
      vertex 2.65801 0.799999 46.05
      vertex 2.57855 -0.799999 46.1536
      vertex 2.65801 -0.799999 46.05
    endloop
  endfacet
  facet normal 0.130246 5.22197e-19 -0.991482
    outer loop
      vertex 2.225 -0.799999 45.3
      vertex 2.35441 0.799999 45.317
      vertex 2.35441 -0.799999 45.317
    endloop
  endfacet
  facet normal 0.130246 5.22197e-19 -0.991482
    outer loop
      vertex 2.35441 0.799999 45.317
      vertex 2.225 -0.799999 45.3
      vertex 2.225 0.799999 45.3
    endloop
  endfacet
  facet normal -0.38301 5.14791e-19 0.923744
    outer loop
      vertex 1.975 0.799999 46.233
      vertex 2.09559 -0.799999 46.283
      vertex 2.09559 0.799999 46.283
    endloop
  endfacet
  facet normal -0.38301 5.14791e-19 0.923744
    outer loop
      vertex 2.09559 -0.799999 46.283
      vertex 1.975 0.799999 46.233
      vertex 1.975 -0.799999 46.233
    endloop
  endfacet
  facet normal 0 -1 0
    outer loop
      vertex 2.09559 -0.799999 46.283
      vertex 2.35441 -0.799999 46.283
      vertex 2.225 -0.799999 46.3
    endloop
  endfacet
  facet normal 0 -1 0
    outer loop
      vertex 1.975 -0.799999 46.233
      vertex 2.35441 -0.799999 46.283
      vertex 2.09559 -0.799999 46.283
    endloop
  endfacet
  facet normal 0 -1 0
    outer loop
      vertex 1.975 -0.799999 46.233
      vertex 2.475 -0.799999 46.233
      vertex 2.35441 -0.799999 46.283
    endloop
  endfacet
  facet normal 0 -1 0
    outer loop
      vertex 1.87145 -0.799999 46.1536
      vertex 2.475 -0.799999 46.233
      vertex 1.975 -0.799999 46.233
    endloop
  endfacet
  facet normal 0 -1 0
    outer loop
      vertex 1.87145 -0.799999 46.1536
      vertex 2.57855 -0.799999 46.1536
      vertex 2.475 -0.799999 46.233
    endloop
  endfacet
  facet normal 0 -1 0
    outer loop
      vertex 1.79199 -0.799999 46.05
      vertex 2.57855 -0.799999 46.1536
      vertex 1.87145 -0.799999 46.1536
    endloop
  endfacet
  facet normal 0 -1 0
    outer loop
      vertex 1.79199 -0.799999 46.05
      vertex 2.65801 -0.799999 46.05
      vertex 2.57855 -0.799999 46.1536
    endloop
  endfacet
  facet normal 0 -1 0
    outer loop
      vertex 1.74204 -0.799999 45.9294
      vertex 2.65801 -0.799999 46.05
      vertex 1.79199 -0.799999 46.05
    endloop
  endfacet
  facet normal 0 -1 0
    outer loop
      vertex 1.74204 -0.799999 45.9294
      vertex 2.70796 -0.799999 45.9294
      vertex 2.65801 -0.799999 46.05
    endloop
  endfacet
  facet normal 0 -1 0
    outer loop
      vertex 1.725 -0.799999 45.8
      vertex 2.70796 -0.799999 45.9294
      vertex 1.74204 -0.799999 45.9294
    endloop
  endfacet
  facet normal 0 -1 0
    outer loop
      vertex 1.725 -0.799999 45.8
      vertex 2.725 -0.799999 45.8
      vertex 2.70796 -0.799999 45.9294
    endloop
  endfacet
  facet normal 0 -1 0
    outer loop
      vertex 1.74204 -0.799999 45.6706
      vertex 2.725 -0.799999 45.8
      vertex 1.725 -0.799999 45.8
    endloop
  endfacet
  facet normal 0 -1 0
    outer loop
      vertex 1.74204 -0.799999 45.6706
      vertex 2.70796 -0.799999 45.6706
      vertex 2.725 -0.799999 45.8
    endloop
  endfacet
  facet normal 0 -1 0
    outer loop
      vertex 1.79199 -0.799999 45.55
      vertex 2.70796 -0.799999 45.6706
      vertex 1.74204 -0.799999 45.6706
    endloop
  endfacet
  facet normal 0 -1 0
    outer loop
      vertex 1.79199 -0.799999 45.55
      vertex 2.65801 -0.799999 45.55
      vertex 2.70796 -0.799999 45.6706
    endloop
  endfacet
  facet normal 0 -1 0
    outer loop
      vertex 1.87145 -0.799999 45.4464
      vertex 2.65801 -0.799999 45.55
      vertex 1.79199 -0.799999 45.55
    endloop
  endfacet
  facet normal 0 -1 0
    outer loop
      vertex 1.87145 -0.799999 45.4464
      vertex 2.57855 -0.799999 45.4464
      vertex 2.65801 -0.799999 45.55
    endloop
  endfacet
  facet normal 0 -1 0
    outer loop
      vertex 1.975 -0.799999 45.367
      vertex 2.57855 -0.799999 45.4464
      vertex 1.87145 -0.799999 45.4464
    endloop
  endfacet
  facet normal 0 -1 0
    outer loop
      vertex 1.975 -0.799999 45.367
      vertex 2.475 -0.799999 45.367
      vertex 2.57855 -0.799999 45.4464
    endloop
  endfacet
  facet normal 0 -1 0
    outer loop
      vertex 2.09559 -0.799999 45.317
      vertex 2.475 -0.799999 45.367
      vertex 1.975 -0.799999 45.367
    endloop
  endfacet
  facet normal 0 -1 0
    outer loop
      vertex 2.09559 -0.799999 45.317
      vertex 2.35441 -0.799999 45.317
      vertex 2.475 -0.799999 45.367
    endloop
  endfacet
  facet normal -0 -1 0
    outer loop
      vertex 2.35441 -0.799999 45.317
      vertex 2.09559 -0.799999 45.317
      vertex 2.225 -0.799999 45.3
    endloop
  endfacet
  facet normal -0.608488 3.61338e-18 -0.793563
    outer loop
      vertex 1.87145 -0.799999 45.4464
      vertex 1.975 0.799999 45.367
      vertex 1.975 -0.799999 45.367
    endloop
  endfacet
  facet normal -0.608488 3.61338e-18 -0.793563
    outer loop
      vertex 1.975 0.799999 45.367
      vertex 1.87145 -0.799999 45.4464
      vertex 1.87145 0.799999 45.4464
    endloop
  endfacet
  facet normal -0.793483 0 0.608592
    outer loop
      vertex 1.79199 -0.799999 46.05
      vertex 1.87145 0.799999 46.1536
      vertex 1.79199 0.799999 46.05
    endloop
  endfacet
  facet normal -0.793483 0 0.608592
    outer loop
      vertex 1.87145 0.799999 46.1536
      vertex 1.79199 -0.799999 46.05
      vertex 1.87145 -0.799999 46.1536
    endloop
  endfacet
  facet normal 0.608488 3.33948e-18 -0.793563
    outer loop
      vertex 2.475 -0.799999 45.367
      vertex 2.57855 0.799999 45.4464
      vertex 2.57855 -0.799999 45.4464
    endloop
  endfacet
  facet normal 0.608488 3.33948e-18 -0.793563
    outer loop
      vertex 2.57855 0.799999 45.4464
      vertex 2.475 -0.799999 45.367
      vertex 2.475 0.799999 45.367
    endloop
  endfacet
  facet normal 0.793483 0 -0.608592
    outer loop
      vertex 2.65801 -0.799999 45.55
      vertex 2.57855 0.799999 45.4464
      vertex 2.65801 0.799999 45.55
    endloop
  endfacet
  facet normal 0.793483 0 -0.608592
    outer loop
      vertex 2.57855 0.799999 45.4464
      vertex 2.65801 -0.799999 45.55
      vertex 2.57855 -0.799999 45.4464
    endloop
  endfacet
  facet normal 0.38301 -5.14791e-19 0.923744
    outer loop
      vertex 2.35441 0.799999 46.283
      vertex 2.475 -0.799999 46.233
      vertex 2.475 0.799999 46.233
    endloop
  endfacet
  facet normal 0.38301 -5.14791e-19 0.923744
    outer loop
      vertex 2.475 -0.799999 46.233
      vertex 2.35441 0.799999 46.283
      vertex 2.35441 -0.799999 46.283
    endloop
  endfacet
  facet normal 0.923891 0 -0.382656
    outer loop
      vertex 2.70796 -0.799999 45.6706
      vertex 2.65801 0.799999 45.55
      vertex 2.70796 0.799999 45.6706
    endloop
  endfacet
  facet normal 0.923891 0 -0.382656
    outer loop
      vertex 2.65801 0.799999 45.55
      vertex 2.70796 -0.799999 45.6706
      vertex 2.65801 -0.799999 45.55
    endloop
  endfacet
  facet normal 0.38301 1.04101e-18 -0.923744
    outer loop
      vertex 2.35441 -0.799999 45.317
      vertex 2.475 0.799999 45.367
      vertex 2.475 -0.799999 45.367
    endloop
  endfacet
  facet normal 0.38301 1.04101e-18 -0.923744
    outer loop
      vertex 2.475 0.799999 45.367
      vertex 2.35441 -0.799999 45.317
      vertex 2.35441 0.799999 45.317
    endloop
  endfacet
  facet normal -0.923891 0 -0.382656
    outer loop
      vertex 1.79199 -0.799999 45.55
      vertex 1.74204 0.799999 45.6706
      vertex 1.79199 0.799999 45.55
    endloop
  endfacet
  facet normal -0.923891 -0 -0.382656
    outer loop
      vertex 1.74204 0.799999 45.6706
      vertex 1.79199 -0.799999 45.55
      vertex 1.74204 -0.799999 45.6706
    endloop
  endfacet
  facet normal -0.608488 -3.61338e-18 0.793563
    outer loop
      vertex 1.87145 0.799999 46.1536
      vertex 1.975 -0.799999 46.233
      vertex 1.975 0.799999 46.233
    endloop
  endfacet
  facet normal -0.608488 -3.61338e-18 0.793563
    outer loop
      vertex 1.975 -0.799999 46.233
      vertex 1.87145 0.799999 46.1536
      vertex 1.87145 -0.799999 46.1536
    endloop
  endfacet
  facet normal -0.793483 0 -0.608592
    outer loop
      vertex 1.87145 -0.799999 45.4464
      vertex 1.79199 0.799999 45.55
      vertex 1.87145 0.799999 45.4464
    endloop
  endfacet
  facet normal -0.793483 -0 -0.608592
    outer loop
      vertex 1.79199 0.799999 45.55
      vertex 1.87145 -0.799999 45.4464
      vertex 1.79199 -0.799999 45.55
    endloop
  endfacet
  facet normal -0.991441 0 -0.130558
    outer loop
      vertex 1.74204 -0.799999 45.6706
      vertex 1.725 0.799999 45.8
      vertex 1.74204 0.799999 45.6706
    endloop
  endfacet
  facet normal -0.991441 -0 -0.130558
    outer loop
      vertex 1.725 0.799999 45.8
      vertex 1.74204 -0.799999 45.6706
      vertex 1.725 -0.799999 45.8
    endloop
  endfacet
  facet normal -0.38301 -1.04101e-18 -0.923744
    outer loop
      vertex 1.975 -0.799999 45.367
      vertex 2.09559 0.799999 45.317
      vertex 2.09559 -0.799999 45.317
    endloop
  endfacet
  facet normal -0.38301 -1.04101e-18 -0.923744
    outer loop
      vertex 2.09559 0.799999 45.317
      vertex 1.975 -0.799999 45.367
      vertex 1.975 0.799999 45.367
    endloop
  endfacet
  facet normal -0.991441 0 0.130558
    outer loop
      vertex 1.725 -0.799999 45.8
      vertex 1.74204 0.799999 45.9294
      vertex 1.725 0.799999 45.8
    endloop
  endfacet
  facet normal -0.991441 0 0.130558
    outer loop
      vertex 1.74204 0.799999 45.9294
      vertex 1.725 -0.799999 45.8
      vertex 1.74204 -0.799999 45.9294
    endloop
  endfacet
  facet normal 0 1 0
    outer loop
      vertex 2.35441 0.799999 46.283
      vertex 2.09559 0.799999 46.283
      vertex 2.225 0.799999 46.3
    endloop
  endfacet
  facet normal 0 1 0
    outer loop
      vertex 2.475 0.799999 46.233
      vertex 2.09559 0.799999 46.283
      vertex 2.35441 0.799999 46.283
    endloop
  endfacet
  facet normal 0 1 0
    outer loop
      vertex 2.475 0.799999 46.233
      vertex 1.975 0.799999 46.233
      vertex 2.09559 0.799999 46.283
    endloop
  endfacet
  facet normal 0 1 0
    outer loop
      vertex 2.57855 0.799999 46.1536
      vertex 1.975 0.799999 46.233
      vertex 2.475 0.799999 46.233
    endloop
  endfacet
  facet normal 0 1 0
    outer loop
      vertex 2.57855 0.799999 46.1536
      vertex 1.87145 0.799999 46.1536
      vertex 1.975 0.799999 46.233
    endloop
  endfacet
  facet normal 0 1 0
    outer loop
      vertex 2.65801 0.799999 46.05
      vertex 1.87145 0.799999 46.1536
      vertex 2.57855 0.799999 46.1536
    endloop
  endfacet
  facet normal 0 1 0
    outer loop
      vertex 2.65801 0.799999 46.05
      vertex 1.79199 0.799999 46.05
      vertex 1.87145 0.799999 46.1536
    endloop
  endfacet
  facet normal 0 1 0
    outer loop
      vertex 2.70796 0.799999 45.9294
      vertex 1.79199 0.799999 46.05
      vertex 2.65801 0.799999 46.05
    endloop
  endfacet
  facet normal 0 1 0
    outer loop
      vertex 2.70796 0.799999 45.9294
      vertex 1.74204 0.799999 45.9294
      vertex 1.79199 0.799999 46.05
    endloop
  endfacet
  facet normal 0 1 0
    outer loop
      vertex 2.725 0.799999 45.8
      vertex 1.74204 0.799999 45.9294
      vertex 2.70796 0.799999 45.9294
    endloop
  endfacet
  facet normal 0 1 0
    outer loop
      vertex 2.725 0.799999 45.8
      vertex 1.725 0.799999 45.8
      vertex 1.74204 0.799999 45.9294
    endloop
  endfacet
  facet normal 0 1 -0
    outer loop
      vertex 2.70796 0.799999 45.6706
      vertex 1.725 0.799999 45.8
      vertex 2.725 0.799999 45.8
    endloop
  endfacet
  facet normal 0 1 0
    outer loop
      vertex 2.70796 0.799999 45.6706
      vertex 1.74204 0.799999 45.6706
      vertex 1.725 0.799999 45.8
    endloop
  endfacet
  facet normal 0 1 -0
    outer loop
      vertex 2.65801 0.799999 45.55
      vertex 1.74204 0.799999 45.6706
      vertex 2.70796 0.799999 45.6706
    endloop
  endfacet
  facet normal 0 1 0
    outer loop
      vertex 2.65801 0.799999 45.55
      vertex 1.79199 0.799999 45.55
      vertex 1.74204 0.799999 45.6706
    endloop
  endfacet
  facet normal 0 1 -0
    outer loop
      vertex 2.57855 0.799999 45.4464
      vertex 1.79199 0.799999 45.55
      vertex 2.65801 0.799999 45.55
    endloop
  endfacet
  facet normal 0 1 0
    outer loop
      vertex 2.57855 0.799999 45.4464
      vertex 1.87145 0.799999 45.4464
      vertex 1.79199 0.799999 45.55
    endloop
  endfacet
  facet normal 0 1 -0
    outer loop
      vertex 2.475 0.799999 45.367
      vertex 1.87145 0.799999 45.4464
      vertex 2.57855 0.799999 45.4464
    endloop
  endfacet
  facet normal 0 1 0
    outer loop
      vertex 2.475 0.799999 45.367
      vertex 1.975 0.799999 45.367
      vertex 1.87145 0.799999 45.4464
    endloop
  endfacet
  facet normal 0 1 -0
    outer loop
      vertex 2.35441 0.799999 45.317
      vertex 1.975 0.799999 45.367
      vertex 2.475 0.799999 45.367
    endloop
  endfacet
  facet normal 0 1 0
    outer loop
      vertex 2.35441 0.799999 45.317
      vertex 2.09559 0.799999 45.317
      vertex 1.975 0.799999 45.367
    endloop
  endfacet
  facet normal -0 1 0
    outer loop
      vertex 2.09559 0.799999 45.317
      vertex 2.35441 0.799999 45.317
      vertex 2.225 0.799999 45.3
    endloop
  endfacet
  facet normal 0.130246 4.1148e-21 0.991482
    outer loop
      vertex 2.225 0.799999 46.3
      vertex 2.35441 -0.799999 46.283
      vertex 2.35441 0.799999 46.283
    endloop
  endfacet
  facet normal 0.130246 4.1148e-21 0.991482
    outer loop
      vertex 2.35441 -0.799999 46.283
      vertex 2.225 0.799999 46.3
      vertex 2.225 -0.799999 46.3
    endloop
  endfacet
  facet normal -0.130246 -4.1148e-21 0.991482
    outer loop
      vertex 2.09559 0.799999 46.283
      vertex 2.225 -0.799999 46.3
      vertex 2.225 0.799999 46.3
    endloop
  endfacet
  facet normal -0.130246 -4.1148e-21 0.991482
    outer loop
      vertex 2.225 -0.799999 46.3
      vertex 2.09559 0.799999 46.283
      vertex 2.09559 -0.799999 46.283
    endloop
  endfacet
  facet normal 1 -0 0
    outer loop
      vertex 3 -0.799999 43.99
      vertex 3 0.799999 43.55
      vertex 3 0.799999 43.99
    endloop
  endfacet
  facet normal 1 0 0
    outer loop
      vertex 3 0.799999 43.55
      vertex 3 -0.799999 43.99
      vertex 3 -0.799999 43.55
    endloop
  endfacet
  facet normal -0 0 1
    outer loop
      vertex 1.45 0.799999 43.99
      vertex 3 -0.799999 43.99
      vertex 3 0.799999 43.99
    endloop
  endfacet
  facet normal 0 0 1
    outer loop
      vertex 3 -0.799999 43.99
      vertex 1.45 0.799999 43.99
      vertex 1.45 -0.799999 43.99
    endloop
  endfacet
  facet normal 0 0 -1
    outer loop
      vertex 1.45 -0.799999 43.55
      vertex 3 0.799999 43.55
      vertex 3 -0.799999 43.55
    endloop
  endfacet
  facet normal -0 0 -1
    outer loop
      vertex 3 0.799999 43.55
      vertex 1.45 -0.799999 43.55
      vertex 1.45 0.799999 43.55
    endloop
  endfacet
  facet normal -1 0 0
    outer loop
      vertex 1.45 -0.799999 43.55
      vertex 1.45 0.799999 43.99
      vertex 1.45 0.799999 43.55
    endloop
  endfacet
  facet normal -1 -0 0
    outer loop
      vertex 1.45 0.799999 43.99
      vertex 1.45 -0.799999 43.55
      vertex 1.45 -0.799999 43.99
    endloop
  endfacet
  facet normal 0 1 -0
    outer loop
      vertex 3 0.799999 43.55
      vertex 1.45 0.799999 43.99
      vertex 3 0.799999 43.99
    endloop
  endfacet
  facet normal 0 1 0
    outer loop
      vertex 1.45 0.799999 43.99
      vertex 3 0.799999 43.55
      vertex 1.45 0.799999 43.55
    endloop
  endfacet
  facet normal 0 -1 0
    outer loop
      vertex 1.45 -0.799999 43.55
      vertex 3 -0.799999 43.99
      vertex 1.45 -0.799999 43.99
    endloop
  endfacet
  facet normal 0 -1 -0
    outer loop
      vertex 3 -0.799999 43.99
      vertex 1.45 -0.799999 43.55
      vertex 3 -0.799999 43.55
    endloop
  endfacet
endsolid OpenSCAD_Model
